<svg width="559" height="67" viewBox="0 0 559 67" fill="none" xmlns="http://www.w3.org/2000/svg">
<path d="M2.016 50.928C2.016 50.7787 2.05333 50.592 2.128 50.368L5.936 40.288H3.64C2.632 40.288 2.128 39.5787 2.128 38.16C2.128 37.6 2.25867 37.1333 2.52 36.76C2.78133 36.3493 3.15467 36.144 3.64 36.144H7.504L15.288 15.76C15.5867 15.1627 15.9973 14.696 16.52 14.36C17.0427 13.9867 17.5093 13.8 17.92 13.8C18.3307 13.8 18.7973 13.9867 19.32 14.36C19.8427 14.7333 20.2347 15.2 20.496 15.76L28.28 36.144H31.92C32.4053 36.144 32.7787 36.3493 33.04 36.76C33.3387 37.1707 33.488 37.656 33.488 38.216C33.488 39.5973 32.9653 40.288 31.92 40.288H29.904L33.768 50.368C33.8427 50.592 33.88 50.7787 33.88 50.928C33.88 51.488 33.6 51.9733 33.04 52.384C32.48 52.7947 31.92 53 31.36 53C30.7627 53 30.3147 52.72 30.016 52.16L25.48 40.288H10.416L5.88 52.16C5.58133 52.72 5.13333 53 4.536 53C3.976 53 3.416 52.7947 2.856 52.384C2.296 51.9733 2.016 51.488 2.016 50.928ZM11.984 36.144H23.856L17.92 20.52L11.984 36.144ZM38.1736 45.888C38.1736 45.328 38.379 44.7493 38.7896 44.152C39.2376 43.5547 39.7416 43.256 40.3016 43.256C40.4883 43.256 40.619 43.2933 40.6936 43.368C42.0003 44.7493 43.9603 46.0187 46.5736 47.176C49.2243 48.296 51.707 48.856 54.0216 48.856C60.7043 48.856 64.0456 46.6347 64.0456 42.192C64.0456 40.6987 63.579 39.4853 62.6456 38.552C61.7496 37.5813 60.555 36.8533 59.0616 36.368C57.6056 35.8827 55.9816 35.472 54.1896 35.136C52.435 34.8 50.6616 34.408 48.8696 33.96C47.0776 33.4747 45.435 32.8773 43.9416 32.168C42.4856 31.4587 41.291 30.376 40.3576 28.92C39.4616 27.464 39.0136 25.6907 39.0136 23.6C39.0136 20.464 40.395 18.056 43.1576 16.376C45.9203 14.6587 49.2243 13.8 53.0696 13.8C56.0563 13.8 58.8563 14.304 61.4696 15.312C64.1203 16.2827 66.0616 17.664 67.2936 19.456C67.331 19.5307 67.3496 19.624 67.3496 19.736C67.3496 20.184 67.0323 20.6507 66.3976 21.136C65.8003 21.584 65.259 21.808 64.7736 21.808C64.699 21.808 64.475 21.7147 64.1016 21.528C61.1523 19.1013 57.4936 17.888 53.1256 17.888C50.475 17.888 48.1416 18.392 46.1256 19.4C44.1096 20.3707 43.1016 21.864 43.1016 23.88C43.1016 25.2613 43.5496 26.4 44.4456 27.296C45.379 28.192 46.5736 28.864 48.0296 29.312C49.523 29.7227 51.1656 30.096 52.9576 30.432C54.7496 30.7307 56.5416 31.1227 58.3336 31.608C60.1256 32.0933 61.7496 32.728 63.2056 33.512C64.699 34.2587 65.8936 35.3973 66.7896 36.928C67.723 38.4587 68.1896 40.3253 68.1896 42.528C68.1896 49.472 63.5976 52.944 54.4136 52.944C51.427 52.944 48.4963 52.4213 45.6216 51.376C42.747 50.2933 40.395 48.8187 38.5656 46.952C38.3043 46.6907 38.1736 46.336 38.1736 45.888ZM72.7816 50.928C72.7816 50.7787 72.819 50.592 72.8936 50.368L76.7016 40.288H74.4056C73.3976 40.288 72.8936 39.5787 72.8936 38.16C72.8936 37.6 73.0243 37.1333 73.2856 36.76C73.547 36.3493 73.9203 36.144 74.4056 36.144H78.2696L86.0536 15.76C86.3523 15.1627 86.763 14.696 87.2856 14.36C87.8083 13.9867 88.275 13.8 88.6856 13.8C89.0963 13.8 89.563 13.9867 90.0856 14.36C90.6083 14.7333 91.0003 15.2 91.2616 15.76L99.0456 36.144H102.686C103.171 36.144 103.544 36.3493 103.806 36.76C104.104 37.1707 104.254 37.656 104.254 38.216C104.254 39.5973 103.731 40.288 102.686 40.288H100.67L104.534 50.368C104.608 50.592 104.646 50.7787 104.646 50.928C104.646 51.488 104.366 51.9733 103.806 52.384C103.246 52.7947 102.686 53 102.126 53C101.528 53 101.08 52.72 100.782 52.16L96.2456 40.288H81.1816L76.6456 52.16C76.347 52.72 75.899 53 75.3016 53C74.7416 53 74.1816 52.7947 73.6216 52.384C73.0616 51.9733 72.7816 51.488 72.7816 50.928ZM82.7496 36.144H94.6216L88.6856 20.52L82.7496 36.144ZM110.619 51.432V15.312C110.619 14.304 111.329 13.8 112.747 13.8C113.307 13.8 113.774 13.9307 114.147 14.192C114.558 14.4533 114.763 14.8267 114.763 15.312V28.976H138.507V15.312C138.507 14.304 139.217 13.8 140.635 13.8C141.195 13.8 141.662 13.9307 142.035 14.192C142.446 14.4533 142.651 14.8267 142.651 15.312V51.432C142.651 51.9173 142.446 52.3093 142.035 52.608C141.625 52.8693 141.139 53 140.579 53C139.198 53 138.507 52.4773 138.507 51.432V33.12H114.763V51.432C114.763 51.9173 114.558 52.3093 114.147 52.608C113.737 52.8693 113.251 53 112.691 53C111.31 53 110.619 52.4773 110.619 51.432ZM150.815 51.432V15.312C150.815 14.304 151.524 13.8 152.943 13.8C153.503 13.8 153.969 13.9307 154.343 14.192C154.753 14.4533 154.959 14.8267 154.959 15.312V51.432C154.959 51.9173 154.753 52.3093 154.343 52.608C153.932 52.8693 153.447 53 152.887 53C151.505 53 150.815 52.4773 150.815 51.432ZM176.627 51.488V15.368C176.627 14.3227 177.318 13.8 178.699 13.8C180.006 13.8 180.659 14.6027 180.659 16.208C184.504 14.5653 188.219 13.744 191.803 13.744C196.88 13.744 200.614 14.9573 203.003 17.384C205.392 19.8107 206.587 22.872 206.587 26.568C206.587 30.7493 204.963 33.7547 201.715 35.584C198.467 37.4133 193.744 38.328 187.547 38.328C186.8 38.328 185.662 38.272 184.131 38.16C182.638 38.048 181.518 37.992 180.771 37.992V51.488C180.771 51.9733 180.566 52.3467 180.155 52.608C179.782 52.8693 179.315 53 178.755 53C177.336 53 176.627 52.496 176.627 51.488ZM180.771 33.176C182.302 33.6613 185.382 33.904 190.011 33.904C193.744 33.904 196.75 33.2507 199.027 31.944C201.304 30.6 202.443 28.6027 202.443 25.952C202.443 23.6747 201.528 21.7707 199.699 20.24C197.87 18.672 195.051 17.888 191.243 17.888C187.958 17.888 184.467 18.8773 180.771 20.856V33.176ZM212.065 50.144V16.6C212.065 14.7707 212.55 13.856 213.521 13.856H242.305C242.79 13.856 243.163 14.0613 243.425 14.472C243.723 14.8827 243.873 15.368 243.873 15.928C243.873 17.3093 243.35 18 242.305 18H216.209V28.976H237.265C237.75 28.976 238.123 29.1813 238.385 29.592C238.683 30.0027 238.833 30.488 238.833 31.048C238.833 32.4293 238.31 33.12 237.265 33.12H216.209V48.856H242.305C242.79 48.856 243.163 49.0613 243.425 49.472C243.723 49.8827 243.873 50.368 243.873 50.928C243.873 52.3093 243.35 53 242.305 53H213.521C212.886 53 212.475 52.776 212.289 52.328C212.139 51.88 212.065 51.152 212.065 50.144ZM249.69 51.432V15.312C249.69 14.304 250.25 13.8 251.37 13.8C252.191 13.8 252.994 14.1547 253.778 14.864L277.578 35.808V15.312C277.578 14.304 278.287 13.8 279.706 13.8C280.266 13.8 280.732 13.9307 281.106 14.192C281.516 14.4533 281.722 14.8267 281.722 15.312V51.432C281.722 51.9173 281.516 52.3093 281.106 52.608C280.695 52.8693 280.21 53 279.65 53C278.268 53 277.578 52.4773 277.578 51.432V41.24L253.834 20.352V51.432C253.834 51.9173 253.628 52.3093 253.218 52.608C252.807 52.8693 252.322 53 251.762 53C250.38 53 249.69 52.4773 249.69 51.432ZM286.357 15.816C286.357 15.256 286.488 14.7893 286.749 14.416C287.01 14.0053 287.384 13.8 287.869 13.8H315.533C316.018 13.8 316.392 14.0053 316.653 14.416C316.952 14.8267 317.101 15.312 317.101 15.872C317.101 17.2533 316.578 17.944 315.533 17.944H303.437V51.432C303.437 51.9173 303.232 52.3093 302.821 52.608C302.41 52.8693 301.925 53 301.365 53C299.984 53 299.293 52.4773 299.293 51.432V17.944H287.869C286.861 17.944 286.357 17.2347 286.357 15.816ZM316.141 50.928C316.141 50.7787 316.178 50.592 316.253 50.368L320.061 40.288H317.765C316.757 40.288 316.253 39.5787 316.253 38.16C316.253 37.6 316.384 37.1333 316.645 36.76C316.906 36.3493 317.28 36.144 317.765 36.144H321.629L329.413 15.76C329.712 15.1627 330.122 14.696 330.645 14.36C331.168 13.9867 331.634 13.8 332.045 13.8C332.456 13.8 332.922 13.9867 333.445 14.36C333.968 14.7333 334.36 15.2 334.621 15.76L342.405 36.144H346.045C346.53 36.144 346.904 36.3493 347.165 36.76C347.464 37.1707 347.613 37.656 347.613 38.216C347.613 39.5973 347.09 40.288 346.045 40.288H344.029L347.893 50.368C347.968 50.592 348.005 50.7787 348.005 50.928C348.005 51.488 347.725 51.9733 347.165 52.384C346.605 52.7947 346.045 53 345.485 53C344.888 53 344.44 52.72 344.141 52.16L339.605 40.288H324.541L320.005 52.16C319.706 52.72 319.258 53 318.661 53C318.101 53 317.541 52.7947 316.981 52.384C316.421 51.9733 316.141 51.488 316.141 50.928ZM326.109 36.144H337.981L332.045 20.52L326.109 36.144ZM351.291 50.872C351.291 50.6107 351.403 50.368 351.627 50.144L365.179 33.512L351.515 16.768C351.365 16.656 351.291 16.4133 351.291 16.04C351.291 15.4427 351.589 14.92 352.187 14.472C352.784 14.024 353.363 13.8 353.923 13.8C354.184 13.8 354.576 14.024 355.099 14.472L367.867 30.208L380.691 14.472C381.213 14.024 381.605 13.8 381.867 13.8C382.427 13.8 383.005 14.024 383.603 14.472C384.2 14.92 384.499 15.4427 384.499 16.04C384.499 16.4133 384.424 16.656 384.275 16.768L370.611 33.512L384.163 50.144C384.387 50.368 384.499 50.6107 384.499 50.872C384.499 51.3573 384.2 51.8427 383.603 52.328C383.005 52.776 382.464 53 381.979 53C381.493 53 381.027 52.7947 380.579 52.384L367.867 36.872L355.211 52.384C354.763 52.7947 354.296 53 353.811 53C353.325 53 352.784 52.776 352.187 52.328C351.589 51.8427 351.291 51.3573 351.291 50.872ZM403.471 51.432V15.312C403.471 14.304 404.18 13.8 405.599 13.8C406.159 13.8 406.625 13.9307 406.999 14.192C407.409 14.4533 407.615 14.8267 407.615 15.312V33.848L427.775 14.304C428.111 13.968 428.484 13.8 428.895 13.8C429.455 13.8 429.977 14.0613 430.463 14.584C430.985 15.0693 431.247 15.592 431.247 16.152C431.247 16.5253 431.116 16.8427 430.855 17.104L416.239 31.216L434.719 50.144C434.868 50.2933 434.943 50.5547 434.943 50.928C434.943 51.4507 434.663 51.936 434.103 52.384C433.543 52.7947 432.964 53 432.367 53C431.993 53 431.583 52.776 431.135 52.328L413.159 34.184L407.615 39.56V51.432C407.615 51.9173 407.409 52.3093 406.999 52.608C406.588 52.8693 406.103 53 405.543 53C404.161 53 403.471 52.4773 403.471 51.432ZM436.228 25.616C436.228 25.2053 436.359 24.8693 436.62 24.608L447.876 14.528C448.362 14.0427 448.866 13.8 449.388 13.8C450.583 13.8 451.18 14.808 451.18 16.824V48.856H457.172C457.658 48.856 458.031 49.0613 458.292 49.472C458.591 49.8827 458.74 50.368 458.74 50.928C458.74 52.3093 458.218 53 457.172 53H440.988C439.98 53 439.476 52.2907 439.476 50.872C439.476 50.312 439.607 49.8453 439.868 49.472C440.13 49.0613 440.503 48.856 440.988 48.856H447.036V21.192L439.588 27.576C439.327 27.8373 439.01 27.968 438.636 27.968C438.076 27.968 437.535 27.7253 437.012 27.24C436.49 26.7547 436.228 26.2133 436.228 25.616ZM463.11 33.512C463.11 27.5387 464.305 22.7227 466.694 19.064C469.121 15.368 472.443 13.52 476.662 13.52C480.918 13.52 484.185 15.4053 486.462 19.176C488.777 22.9467 489.934 27.6693 489.934 33.344C489.934 39.5787 488.814 44.4507 486.574 47.96C484.334 51.4693 481.03 53.2427 476.662 53.28C472.443 53.28 469.121 51.488 466.694 47.904C464.305 44.32 463.11 39.5227 463.11 33.512ZM467.254 33.568C467.254 38.1227 468.038 41.856 469.606 44.768C471.174 47.68 473.526 49.136 476.662 49.136C479.761 49.136 482.057 47.68 483.55 44.768C485.043 41.856 485.79 38.0853 485.79 33.456C485.79 30.6187 485.491 28.0613 484.894 25.784C484.334 23.5067 483.345 21.584 481.926 20.016C480.507 18.448 478.753 17.664 476.662 17.664C474.534 17.664 472.742 18.448 471.286 20.016C469.83 21.584 468.785 23.5253 468.15 25.84C467.553 28.1547 467.254 30.7307 467.254 33.568ZM495.977 33.512C495.977 27.5387 497.172 22.7227 499.561 19.064C501.988 15.368 505.31 13.52 509.529 13.52C513.785 13.52 517.052 15.4053 519.329 19.176C521.644 22.9467 522.801 27.6693 522.801 33.344C522.801 39.5787 521.681 44.4507 519.441 47.96C517.201 51.4693 513.897 53.2427 509.529 53.28C505.31 53.28 501.988 51.488 499.561 47.904C497.172 44.32 495.977 39.5227 495.977 33.512ZM500.121 33.568C500.121 38.1227 500.905 41.856 502.473 44.768C504.041 47.68 506.393 49.136 509.529 49.136C512.628 49.136 514.924 47.68 516.417 44.768C517.91 41.856 518.657 38.0853 518.657 33.456C518.657 30.6187 518.358 28.0613 517.761 25.784C517.201 23.5067 516.212 21.584 514.793 20.016C513.374 18.448 511.62 17.664 509.529 17.664C507.401 17.664 505.609 18.448 504.153 20.016C502.697 21.584 501.652 23.5253 501.017 25.84C500.42 28.1547 500.121 30.7307 500.121 33.568ZM528.844 33.512C528.844 27.5387 530.039 22.7227 532.428 19.064C534.855 15.368 538.178 13.52 542.396 13.52C546.652 13.52 549.919 15.4053 552.196 19.176C554.511 22.9467 555.668 27.6693 555.668 33.344C555.668 39.5787 554.548 44.4507 552.308 47.96C550.068 51.4693 546.764 53.2427 542.396 53.28C538.178 53.28 534.855 51.488 532.428 47.904C530.039 44.32 528.844 39.5227 528.844 33.512ZM532.988 33.568C532.988 38.1227 533.772 41.856 535.34 44.768C536.908 47.68 539.26 49.136 542.396 49.136C545.495 49.136 547.791 47.68 549.284 44.768C550.778 41.856 551.524 38.0853 551.524 33.456C551.524 30.6187 551.226 28.0613 550.628 25.784C550.068 23.5067 549.079 21.584 547.66 20.016C546.242 18.448 544.487 17.664 542.396 17.664C540.268 17.664 538.476 18.448 537.02 20.016C535.564 21.584 534.519 23.5253 533.884 25.84C533.287 28.1547 532.988 30.7307 532.988 33.568Z" fill="black"/>
<mask id="mask0" mask-type="alpha" maskUnits="userSpaceOnUse" x="2" y="13" width="554" height="41">
<path d="M2.016 50.928C2.016 50.7787 2.05333 50.592 2.128 50.368L5.936 40.288H3.64C2.632 40.288 2.128 39.5787 2.128 38.16C2.128 37.6 2.25867 37.1333 2.52 36.76C2.78133 36.3493 3.15467 36.144 3.64 36.144H7.504L15.288 15.76C15.5867 15.1627 15.9973 14.696 16.52 14.36C17.0427 13.9867 17.5093 13.8 17.92 13.8C18.3307 13.8 18.7973 13.9867 19.32 14.36C19.8427 14.7333 20.2347 15.2 20.496 15.76L28.28 36.144H31.92C32.4053 36.144 32.7787 36.3493 33.04 36.76C33.3387 37.1707 33.488 37.656 33.488 38.216C33.488 39.5973 32.9653 40.288 31.92 40.288H29.904L33.768 50.368C33.8427 50.592 33.88 50.7787 33.88 50.928C33.88 51.488 33.6 51.9733 33.04 52.384C32.48 52.7947 31.92 53 31.36 53C30.7627 53 30.3147 52.72 30.016 52.16L25.48 40.288H10.416L5.88 52.16C5.58133 52.72 5.13333 53 4.536 53C3.976 53 3.416 52.7947 2.856 52.384C2.296 51.9733 2.016 51.488 2.016 50.928ZM11.984 36.144H23.856L17.92 20.52L11.984 36.144ZM38.1736 45.888C38.1736 45.328 38.379 44.7493 38.7896 44.152C39.2376 43.5547 39.7416 43.256 40.3016 43.256C40.4883 43.256 40.619 43.2933 40.6936 43.368C42.0003 44.7493 43.9603 46.0187 46.5736 47.176C49.2243 48.296 51.707 48.856 54.0216 48.856C60.7043 48.856 64.0456 46.6347 64.0456 42.192C64.0456 40.6987 63.579 39.4853 62.6456 38.552C61.7496 37.5813 60.555 36.8533 59.0616 36.368C57.6056 35.8827 55.9816 35.472 54.1896 35.136C52.435 34.8 50.6616 34.408 48.8696 33.96C47.0776 33.4747 45.435 32.8773 43.9416 32.168C42.4856 31.4587 41.291 30.376 40.3576 28.92C39.4616 27.464 39.0136 25.6907 39.0136 23.6C39.0136 20.464 40.395 18.056 43.1576 16.376C45.9203 14.6587 49.2243 13.8 53.0696 13.8C56.0563 13.8 58.8563 14.304 61.4696 15.312C64.1203 16.2827 66.0616 17.664 67.2936 19.456C67.331 19.5307 67.3496 19.624 67.3496 19.736C67.3496 20.184 67.0323 20.6507 66.3976 21.136C65.8003 21.584 65.259 21.808 64.7736 21.808C64.699 21.808 64.475 21.7147 64.1016 21.528C61.1523 19.1013 57.4936 17.888 53.1256 17.888C50.475 17.888 48.1416 18.392 46.1256 19.4C44.1096 20.3707 43.1016 21.864 43.1016 23.88C43.1016 25.2613 43.5496 26.4 44.4456 27.296C45.379 28.192 46.5736 28.864 48.0296 29.312C49.523 29.7227 51.1656 30.096 52.9576 30.432C54.7496 30.7307 56.5416 31.1227 58.3336 31.608C60.1256 32.0933 61.7496 32.728 63.2056 33.512C64.699 34.2587 65.8936 35.3973 66.7896 36.928C67.723 38.4587 68.1896 40.3253 68.1896 42.528C68.1896 49.472 63.5976 52.944 54.4136 52.944C51.427 52.944 48.4963 52.4213 45.6216 51.376C42.747 50.2933 40.395 48.8187 38.5656 46.952C38.3043 46.6907 38.1736 46.336 38.1736 45.888ZM72.7816 50.928C72.7816 50.7787 72.819 50.592 72.8936 50.368L76.7016 40.288H74.4056C73.3976 40.288 72.8936 39.5787 72.8936 38.16C72.8936 37.6 73.0243 37.1333 73.2856 36.76C73.547 36.3493 73.9203 36.144 74.4056 36.144H78.2696L86.0536 15.76C86.3523 15.1627 86.763 14.696 87.2856 14.36C87.8083 13.9867 88.275 13.8 88.6856 13.8C89.0963 13.8 89.563 13.9867 90.0856 14.36C90.6083 14.7333 91.0003 15.2 91.2616 15.76L99.0456 36.144H102.686C103.171 36.144 103.544 36.3493 103.806 36.76C104.104 37.1707 104.254 37.656 104.254 38.216C104.254 39.5973 103.731 40.288 102.686 40.288H100.67L104.534 50.368C104.608 50.592 104.646 50.7787 104.646 50.928C104.646 51.488 104.366 51.9733 103.806 52.384C103.246 52.7947 102.686 53 102.126 53C101.528 53 101.08 52.72 100.782 52.16L96.2456 40.288H81.1816L76.6456 52.16C76.347 52.72 75.899 53 75.3016 53C74.7416 53 74.1816 52.7947 73.6216 52.384C73.0616 51.9733 72.7816 51.488 72.7816 50.928ZM82.7496 36.144H94.6216L88.6856 20.52L82.7496 36.144ZM110.619 51.432V15.312C110.619 14.304 111.329 13.8 112.747 13.8C113.307 13.8 113.774 13.9307 114.147 14.192C114.558 14.4533 114.763 14.8267 114.763 15.312V28.976H138.507V15.312C138.507 14.304 139.217 13.8 140.635 13.8C141.195 13.8 141.662 13.9307 142.035 14.192C142.446 14.4533 142.651 14.8267 142.651 15.312V51.432C142.651 51.9173 142.446 52.3093 142.035 52.608C141.625 52.8693 141.139 53 140.579 53C139.198 53 138.507 52.4773 138.507 51.432V33.12H114.763V51.432C114.763 51.9173 114.558 52.3093 114.147 52.608C113.737 52.8693 113.251 53 112.691 53C111.31 53 110.619 52.4773 110.619 51.432ZM150.815 51.432V15.312C150.815 14.304 151.524 13.8 152.943 13.8C153.503 13.8 153.969 13.9307 154.343 14.192C154.753 14.4533 154.959 14.8267 154.959 15.312V51.432C154.959 51.9173 154.753 52.3093 154.343 52.608C153.932 52.8693 153.447 53 152.887 53C151.505 53 150.815 52.4773 150.815 51.432ZM176.627 51.488V15.368C176.627 14.3227 177.318 13.8 178.699 13.8C180.006 13.8 180.659 14.6027 180.659 16.208C184.504 14.5653 188.219 13.744 191.803 13.744C196.88 13.744 200.614 14.9573 203.003 17.384C205.392 19.8107 206.587 22.872 206.587 26.568C206.587 30.7493 204.963 33.7547 201.715 35.584C198.467 37.4133 193.744 38.328 187.547 38.328C186.8 38.328 185.662 38.272 184.131 38.16C182.638 38.048 181.518 37.992 180.771 37.992V51.488C180.771 51.9733 180.566 52.3467 180.155 52.608C179.782 52.8693 179.315 53 178.755 53C177.336 53 176.627 52.496 176.627 51.488ZM180.771 33.176C182.302 33.6613 185.382 33.904 190.011 33.904C193.744 33.904 196.75 33.2507 199.027 31.944C201.304 30.6 202.443 28.6027 202.443 25.952C202.443 23.6747 201.528 21.7707 199.699 20.24C197.87 18.672 195.051 17.888 191.243 17.888C187.958 17.888 184.467 18.8773 180.771 20.856V33.176ZM212.065 50.144V16.6C212.065 14.7707 212.55 13.856 213.521 13.856H242.305C242.79 13.856 243.163 14.0613 243.425 14.472C243.723 14.8827 243.873 15.368 243.873 15.928C243.873 17.3093 243.35 18 242.305 18H216.209V28.976H237.265C237.75 28.976 238.123 29.1813 238.385 29.592C238.683 30.0027 238.833 30.488 238.833 31.048C238.833 32.4293 238.31 33.12 237.265 33.12H216.209V48.856H242.305C242.79 48.856 243.163 49.0613 243.425 49.472C243.723 49.8827 243.873 50.368 243.873 50.928C243.873 52.3093 243.35 53 242.305 53H213.521C212.886 53 212.475 52.776 212.289 52.328C212.139 51.88 212.065 51.152 212.065 50.144ZM249.69 51.432V15.312C249.69 14.304 250.25 13.8 251.37 13.8C252.191 13.8 252.994 14.1547 253.778 14.864L277.578 35.808V15.312C277.578 14.304 278.287 13.8 279.706 13.8C280.266 13.8 280.732 13.9307 281.106 14.192C281.516 14.4533 281.722 14.8267 281.722 15.312V51.432C281.722 51.9173 281.516 52.3093 281.106 52.608C280.695 52.8693 280.21 53 279.65 53C278.268 53 277.578 52.4773 277.578 51.432V41.24L253.834 20.352V51.432C253.834 51.9173 253.628 52.3093 253.218 52.608C252.807 52.8693 252.322 53 251.762 53C250.38 53 249.69 52.4773 249.69 51.432ZM286.357 15.816C286.357 15.256 286.488 14.7893 286.749 14.416C287.01 14.0053 287.384 13.8 287.869 13.8H315.533C316.018 13.8 316.392 14.0053 316.653 14.416C316.952 14.8267 317.101 15.312 317.101 15.872C317.101 17.2533 316.578 17.944 315.533 17.944H303.437V51.432C303.437 51.9173 303.232 52.3093 302.821 52.608C302.41 52.8693 301.925 53 301.365 53C299.984 53 299.293 52.4773 299.293 51.432V17.944H287.869C286.861 17.944 286.357 17.2347 286.357 15.816ZM316.141 50.928C316.141 50.7787 316.178 50.592 316.253 50.368L320.061 40.288H317.765C316.757 40.288 316.253 39.5787 316.253 38.16C316.253 37.6 316.384 37.1333 316.645 36.76C316.906 36.3493 317.28 36.144 317.765 36.144H321.629L329.413 15.76C329.712 15.1627 330.122 14.696 330.645 14.36C331.168 13.9867 331.634 13.8 332.045 13.8C332.456 13.8 332.922 13.9867 333.445 14.36C333.968 14.7333 334.36 15.2 334.621 15.76L342.405 36.144H346.045C346.53 36.144 346.904 36.3493 347.165 36.76C347.464 37.1707 347.613 37.656 347.613 38.216C347.613 39.5973 347.09 40.288 346.045 40.288H344.029L347.893 50.368C347.968 50.592 348.005 50.7787 348.005 50.928C348.005 51.488 347.725 51.9733 347.165 52.384C346.605 52.7947 346.045 53 345.485 53C344.888 53 344.44 52.72 344.141 52.16L339.605 40.288H324.541L320.005 52.16C319.706 52.72 319.258 53 318.661 53C318.101 53 317.541 52.7947 316.981 52.384C316.421 51.9733 316.141 51.488 316.141 50.928ZM326.109 36.144H337.981L332.045 20.52L326.109 36.144ZM351.291 50.872C351.291 50.6107 351.403 50.368 351.627 50.144L365.179 33.512L351.515 16.768C351.365 16.656 351.291 16.4133 351.291 16.04C351.291 15.4427 351.589 14.92 352.187 14.472C352.784 14.024 353.363 13.8 353.923 13.8C354.184 13.8 354.576 14.024 355.099 14.472L367.867 30.208L380.691 14.472C381.213 14.024 381.605 13.8 381.867 13.8C382.427 13.8 383.005 14.024 383.603 14.472C384.2 14.92 384.499 15.4427 384.499 16.04C384.499 16.4133 384.424 16.656 384.275 16.768L370.611 33.512L384.163 50.144C384.387 50.368 384.499 50.6107 384.499 50.872C384.499 51.3573 384.2 51.8427 383.603 52.328C383.005 52.776 382.464 53 381.979 53C381.493 53 381.027 52.7947 380.579 52.384L367.867 36.872L355.211 52.384C354.763 52.7947 354.296 53 353.811 53C353.325 53 352.784 52.776 352.187 52.328C351.589 51.8427 351.291 51.3573 351.291 50.872ZM403.471 51.432V15.312C403.471 14.304 404.18 13.8 405.599 13.8C406.159 13.8 406.625 13.9307 406.999 14.192C407.409 14.4533 407.615 14.8267 407.615 15.312V33.848L427.775 14.304C428.111 13.968 428.484 13.8 428.895 13.8C429.455 13.8 429.977 14.0613 430.463 14.584C430.985 15.0693 431.247 15.592 431.247 16.152C431.247 16.5253 431.116 16.8427 430.855 17.104L416.239 31.216L434.719 50.144C434.868 50.2933 434.943 50.5547 434.943 50.928C434.943 51.4507 434.663 51.936 434.103 52.384C433.543 52.7947 432.964 53 432.367 53C431.993 53 431.583 52.776 431.135 52.328L413.159 34.184L407.615 39.56V51.432C407.615 51.9173 407.409 52.3093 406.999 52.608C406.588 52.8693 406.103 53 405.543 53C404.161 53 403.471 52.4773 403.471 51.432ZM436.228 25.616C436.228 25.2053 436.359 24.8693 436.62 24.608L447.876 14.528C448.362 14.0427 448.866 13.8 449.388 13.8C450.583 13.8 451.18 14.808 451.18 16.824V48.856H457.172C457.658 48.856 458.031 49.0613 458.292 49.472C458.591 49.8827 458.74 50.368 458.74 50.928C458.74 52.3093 458.218 53 457.172 53H440.988C439.98 53 439.476 52.2907 439.476 50.872C439.476 50.312 439.607 49.8453 439.868 49.472C440.13 49.0613 440.503 48.856 440.988 48.856H447.036V21.192L439.588 27.576C439.327 27.8373 439.01 27.968 438.636 27.968C438.076 27.968 437.535 27.7253 437.012 27.24C436.49 26.7547 436.228 26.2133 436.228 25.616ZM463.11 33.512C463.11 27.5387 464.305 22.7227 466.694 19.064C469.121 15.368 472.443 13.52 476.662 13.52C480.918 13.52 484.185 15.4053 486.462 19.176C488.777 22.9467 489.934 27.6693 489.934 33.344C489.934 39.5787 488.814 44.4507 486.574 47.96C484.334 51.4693 481.03 53.2427 476.662 53.28C472.443 53.28 469.121 51.488 466.694 47.904C464.305 44.32 463.11 39.5227 463.11 33.512ZM467.254 33.568C467.254 38.1227 468.038 41.856 469.606 44.768C471.174 47.68 473.526 49.136 476.662 49.136C479.761 49.136 482.057 47.68 483.55 44.768C485.043 41.856 485.79 38.0853 485.79 33.456C485.79 30.6187 485.491 28.0613 484.894 25.784C484.334 23.5067 483.345 21.584 481.926 20.016C480.507 18.448 478.753 17.664 476.662 17.664C474.534 17.664 472.742 18.448 471.286 20.016C469.83 21.584 468.785 23.5253 468.15 25.84C467.553 28.1547 467.254 30.7307 467.254 33.568ZM495.977 33.512C495.977 27.5387 497.172 22.7227 499.561 19.064C501.988 15.368 505.31 13.52 509.529 13.52C513.785 13.52 517.052 15.4053 519.329 19.176C521.644 22.9467 522.801 27.6693 522.801 33.344C522.801 39.5787 521.681 44.4507 519.441 47.96C517.201 51.4693 513.897 53.2427 509.529 53.28C505.31 53.28 501.988 51.488 499.561 47.904C497.172 44.32 495.977 39.5227 495.977 33.512ZM500.121 33.568C500.121 38.1227 500.905 41.856 502.473 44.768C504.041 47.68 506.393 49.136 509.529 49.136C512.628 49.136 514.924 47.68 516.417 44.768C517.91 41.856 518.657 38.0853 518.657 33.456C518.657 30.6187 518.358 28.0613 517.761 25.784C517.201 23.5067 516.212 21.584 514.793 20.016C513.374 18.448 511.62 17.664 509.529 17.664C507.401 17.664 505.609 18.448 504.153 20.016C502.697 21.584 501.652 23.5253 501.017 25.84C500.42 28.1547 500.121 30.7307 500.121 33.568ZM528.844 33.512C528.844 27.5387 530.039 22.7227 532.428 19.064C534.855 15.368 538.178 13.52 542.396 13.52C546.652 13.52 549.919 15.4053 552.196 19.176C554.511 22.9467 555.668 27.6693 555.668 33.344C555.668 39.5787 554.548 44.4507 552.308 47.96C550.068 51.4693 546.764 53.2427 542.396 53.28C538.178 53.28 534.855 51.488 532.428 47.904C530.039 44.32 528.844 39.5227 528.844 33.512ZM532.988 33.568C532.988 38.1227 533.772 41.856 535.34 44.768C536.908 47.68 539.26 49.136 542.396 49.136C545.495 49.136 547.791 47.68 549.284 44.768C550.778 41.856 551.524 38.0853 551.524 33.456C551.524 30.6187 551.226 28.0613 550.628 25.784C550.068 23.5067 549.079 21.584 547.66 20.016C546.242 18.448 544.487 17.664 542.396 17.664C540.268 17.664 538.476 18.448 537.02 20.016C535.564 21.584 534.519 23.5253 533.884 25.84C533.287 28.1547 532.988 30.7307 532.988 33.568Z" fill="black"/>
</mask>
<g mask="url(#mask0)">
<path d="M28.5 34.2529C16.9457 27.3428 -4.5 41.2528 -12.5 41.2528L-3.5 55.1354C8.33333 60.302 34.8 70.8354 46 71.6354C60 72.6354 167.5 76.6354 174.5 76.6354C181.5 76.6354 316 83.6354 346 87.1354C376 90.6354 398.5 89.1354 529.5 76.6354C660.5 64.1354 563.5 60.6354 571.5 55.1354C577.9 50.7354 580.167 38.9687 580.5 33.6354C583.333 30.4687 580.7 30.1353 549.5 30.1353H536.5C531.333 30.1353 519.4 31.3353 513 36.1353C505.51 41.7529 500 42.5764 498 41.7529C489.119 38.0958 471 38.2529 464.5 39.6353C443.47 44.1079 448 43.7529 441 44.6353C427.606 46.3238 426.7 49.6354 423.5 49.6354C420.3 49.6354 408.833 46.302 403.5 44.6353L388 39.6353C383.167 37.6353 372.4 33.6354 368 33.6354C362.5 33.6354 350.027 26.5498 331 33.6354C310 41.4555 318 37.1353 312 39.6353C300 44.6353 305 53.6799 290.5 47.6354L284.5 44.5L280.5 41C280.5 41 271.5 32.1356 264.5 33.6354C257.5 35.1352 251.5 45.7604 236.5 47.6354C221.5 49.5104 204 39 194 37.3378C180.867 35.1547 169 41.6175 153 35.7529C143.442 32.2495 126.478 33.5627 121.5 35.7529C106 42.5728 92.5 46.7529 88 44.6353C78.8564 40.3326 64.2828 41.9252 57.5 39.6353C46 35.7529 37.5 39.6353 28.5 34.2529Z" fill="#05A498"/>
</g>
</svg>
