<svg width="443" height="78" viewBox="0 0 443 78" fill="none" xmlns="http://www.w3.org/2000/svg">
<path d="M3.2 56.776C3.2 55.9227 3.22133 55.2613 3.264 54.792C3.34933 54.3227 3.648 53.8533 4.16 53.384C4.672 52.872 5.44 52.616 6.464 52.616C6.592 52.616 6.86933 52.6587 7.296 52.744C6.95467 48.776 6.784 45 6.784 41.416C6.784 34.9307 7.06133 29.5333 7.616 25.224C6.67733 25.224 5.504 25.1173 4.096 24.904C3.84 24.5627 3.712 23.2827 3.712 21.064C3.712 18.8453 3.776 17.5867 3.904 17.288C5.184 16.2213 7.76533 15.688 11.648 15.688C12.8 15.688 14.272 15.7733 16.064 15.944C16.2347 16.4987 16.32 17.352 16.32 18.504C17.5147 17.7787 19.072 17.1387 20.992 16.584C22.912 16.0293 24.64 15.752 26.176 15.752C29.4613 15.752 32.192 17.096 34.368 19.784C36.5867 22.4293 37.696 25.4373 37.696 28.808C37.696 32.776 36.1387 36.168 33.024 38.984C37.376 41.4587 39.552 45 39.552 49.608C39.552 52.8507 38.4213 55.6667 36.16 58.056C33.9413 60.4453 31.232 61.64 28.032 61.64C21.5893 61.64 17.408 60.7653 15.488 59.016C15.488 60.1253 15.1893 60.7867 14.592 61C13.9947 61.256 12.608 61.384 10.432 61.384C7.95733 61.384 5.696 61.128 3.648 60.616C3.34933 59.208 3.2 57.928 3.2 56.776ZM15.936 53.384C15.936 53.64 17.1093 54.0027 19.456 54.472C21.8027 54.8987 23.36 55.112 24.128 55.112C25.4933 55.112 26.6453 54.5147 27.584 53.32C28.5653 52.0827 29.056 50.5893 29.056 48.84C29.056 47.0907 28.7147 45.4907 28.032 44.04C27.3493 42.5893 26.2827 41.864 24.832 41.864C23.5093 41.864 21.76 42.1627 19.584 42.76C17.408 43.3147 16.2987 43.8693 16.256 44.424C16.2133 44.8507 16.1707 45.4267 16.128 46.152C16.128 46.8773 16.1067 47.944 16.064 49.352C16.0213 50.7173 15.9787 52.0613 15.936 53.384ZM15.936 34.184C15.936 34.44 17.1093 34.8027 19.456 35.272C21.8027 35.6987 23.36 35.912 24.128 35.912C25.4933 35.912 26.6453 35.3147 27.584 34.12C28.5653 32.8827 29.056 31.3893 29.056 29.64C29.056 27.8907 28.7147 26.2907 28.032 24.84C27.3493 23.3893 26.2827 22.664 24.832 22.664C23.5093 22.664 21.76 22.9627 19.584 23.56C17.408 24.1147 16.2987 24.6693 16.256 25.224C16.2133 25.6507 16.1707 26.2267 16.128 26.952C16.128 27.6773 16.1067 28.744 16.064 30.152C16.0213 31.5173 15.9787 32.8613 15.936 34.184ZM44.944 54.408C44.944 53.7253 45.2853 52.616 45.968 51.08C46.736 50.696 47.5893 50.504 48.528 50.504C48.9547 50.504 49.296 50.568 49.552 50.696C49.04 46.8987 48.784 43.0373 48.784 39.112C48.784 33.352 49.232 28.616 50.128 24.904C49.1467 25.1173 48.3573 25.224 47.76 25.224C46.992 25.224 46.3947 25.0747 45.968 24.776C45.3707 23.9227 45.072 22.6 45.072 20.808C45.072 19.6987 45.4773 18.5893 46.288 17.48C47.6533 16.84 50.1493 16.3493 53.776 16.008C57.4027 15.624 60.9013 15.432 64.272 15.432C72.1227 15.432 78.4373 16.2427 83.216 17.864C83.6427 19.9973 83.856 21.64 83.856 22.792C83.856 24.7973 83.3653 26.44 82.384 27.72C81.3173 27.976 80.4 28.104 79.632 28.104C78.2667 28.104 76.5173 27.4 74.384 25.992L74.576 23.88C73.7653 23.3253 71.5467 23.048 67.92 23.048C66.64 23.048 64.9973 23.112 62.992 23.24C60.9867 23.368 59.9627 23.496 59.92 23.624C60.0907 25.16 60.176 26.2907 60.176 27.016C60.176 30.8133 59.8987 33.416 59.344 34.824C63.5253 34.824 65.6373 34.76 65.68 34.632C65.6373 34.504 65.616 34.312 65.616 34.056C65.616 33.5867 65.808 33.0107 66.192 32.328C66.448 32.1147 67.152 32.008 68.304 32.008C70.096 32.008 71.3333 32.1573 72.016 32.456C72.8693 33.864 73.296 35.8907 73.296 38.536C73.296 40.9253 72.848 42.568 71.952 43.464C71.6107 43.7627 70.608 43.912 68.944 43.912C67.28 43.912 66.32 43.7627 66.064 43.464C65.68 42.952 65.488 42.312 65.488 41.544L59.024 41.864C59.024 44.3813 58.7893 47.88 58.32 52.36C59.0027 52.9573 60.3893 53.4267 62.48 53.768C64.5707 54.0667 66.2987 54.216 67.664 54.216C68.688 54.216 69.9467 54.1093 71.44 53.896C72.976 53.64 74.0213 53.3627 74.576 53.064L74.384 50.952C76.5173 49.544 78.288 48.84 79.696 48.84C80.464 48.84 81.36 48.968 82.384 49.224C83.3653 50.504 83.856 52.1467 83.856 54.152C83.856 55.304 83.6427 56.9467 83.216 59.08C80.016 60.9147 74.2133 61.832 65.808 61.832C61.712 61.832 57.808 61.5973 54.096 61.128C50.384 60.7013 47.7813 60.1467 46.288 59.464C45.776 58.824 45.4133 58.184 45.2 57.544C45.0293 56.904 44.944 55.8587 44.944 54.408ZM88.8115 54.536C88.8115 52.4453 89.2168 50.6533 90.0275 49.16C91.9048 48.5627 93.1208 48.264 93.6755 48.264C94.6995 48.264 96.2568 48.5627 98.3475 49.16C98.5608 49.7147 98.7102 50.5253 98.7955 51.592C100.844 52.9573 103.148 53.64 105.708 53.64C108.054 53.64 110.102 52.9573 111.852 51.592C113.644 50.184 114.54 48.6267 114.54 46.92C114.54 44.488 112.193 43.1867 107.5 43.016C105.708 42.9307 104.15 42.824 102.828 42.696C101.505 42.5253 99.9262 42.2053 98.0915 41.736C96.2995 41.224 94.8275 40.5627 93.6755 39.752C92.5235 38.9413 91.5208 37.8107 90.6675 36.36C89.8568 34.8667 89.4515 33.1173 89.4515 31.112C89.4515 26.8453 91.0088 23.1973 94.1235 20.168C97.2382 17.096 100.972 15.56 105.324 15.56C108.353 15.56 111.254 16.328 114.028 17.864C114.284 16.584 114.732 15.688 115.372 15.176C116.182 14.7493 117.206 14.536 118.444 14.536C120.406 14.536 121.772 14.92 122.54 15.688C122.796 16.456 122.924 18.376 122.924 21.448C122.924 23.496 122.731 24.9467 122.347 25.8C122.006 26.6533 121.324 27.1867 120.3 27.4C119.574 27.6133 118.87 27.72 118.188 27.72C116.652 27.72 115.393 27.4 114.412 26.76C114.156 26.12 114.028 25.416 114.028 24.648C112.577 23.9227 110.465 23.56 107.692 23.56C104.705 23.56 102.422 24.0507 100.844 25.032C99.2648 25.9707 98.4755 27.5707 98.4755 29.832C98.4755 31.496 98.9448 32.712 99.8835 33.48C100.865 34.2053 102.422 34.6107 104.556 34.696C110.614 34.9947 114.732 35.4853 116.908 36.168C121.558 37.576 123.884 40.648 123.884 45.384C123.884 49.864 122.22 53.704 118.892 56.904C115.564 60.0613 111.297 61.64 106.092 61.64C103.148 61.64 100.588 60.8507 98.4115 59.272C98.4115 60.3387 98.1982 61.128 97.7715 61.64C97.0035 62.0667 95.7448 62.28 93.9955 62.28C92.1182 62.28 90.8382 61.96 90.1555 61.32C89.2595 59.6133 88.8115 57.352 88.8115 54.536ZM127.079 24.072C127.079 21.128 127.378 18.76 127.975 16.968C128.786 16.9253 130.514 16.84 133.159 16.712C135.804 16.5413 138.45 16.4133 141.095 16.328C143.783 16.2427 146.514 16.2 149.287 16.2C152.06 16.2 154.812 16.2427 157.543 16.328C160.274 16.4133 163.026 16.5413 165.799 16.712C168.615 16.84 170.407 16.9253 171.175 16.968C171.772 18.76 172.071 21.128 172.071 24.072C172.071 25.608 171.922 26.952 171.623 28.104C169.49 28.5307 167.975 28.744 167.079 28.744C165.202 28.744 163.623 28.3813 162.343 27.656L161.255 24.328C160.7 23.9867 158.29 23.752 154.023 23.624C154.279 29.0853 154.407 34.76 154.407 40.648C154.407 45.256 154.172 48.7973 153.703 51.272C153.916 51.272 154.407 51.336 155.175 51.464C156.284 51.6347 157.031 51.8267 157.415 52.04C157.671 52.3813 157.799 53.6827 157.799 55.944C157.799 57.608 157.65 58.696 157.351 59.208C156.668 60.4027 154.087 61 149.607 61C145.084 61 142.482 60.4027 141.799 59.208C141.5 58.696 141.351 57.5867 141.351 55.88C141.351 53.6613 141.479 52.3813 141.735 52.04C142.119 51.8267 142.866 51.6347 143.975 51.464C144.743 51.336 145.234 51.272 145.447 51.272C144.978 48.7973 144.743 45.256 144.743 40.648C144.743 34.76 144.871 29.0853 145.127 23.624C140.86 23.752 138.45 23.9867 137.895 24.328L136.807 27.656C135.527 28.3813 133.948 28.744 132.071 28.744C131.175 28.744 129.66 28.5307 127.527 28.104C127.228 26.952 127.079 25.608 127.079 24.072ZM188.374 54.536C188.374 52.4453 188.779 50.6533 189.59 49.16C191.467 48.5627 192.683 48.264 193.238 48.264C194.262 48.264 195.819 48.5627 197.91 49.16C198.123 49.7147 198.273 50.5253 198.358 51.592C200.406 52.9573 202.71 53.64 205.27 53.64C207.617 53.64 209.665 52.9573 211.414 51.592C213.206 50.184 214.102 48.6267 214.102 46.92C214.102 44.488 211.755 43.1867 207.062 43.016C205.27 42.9307 203.713 42.824 202.39 42.696C201.067 42.5253 199.489 42.2053 197.654 41.736C195.862 41.224 194.39 40.5627 193.238 39.752C192.086 38.9413 191.083 37.8107 190.23 36.36C189.419 34.8667 189.014 33.1173 189.014 31.112C189.014 26.8453 190.571 23.1973 193.686 20.168C196.801 17.096 200.534 15.56 204.886 15.56C207.915 15.56 210.817 16.328 213.59 17.864C213.846 16.584 214.294 15.688 214.934 15.176C215.745 14.7493 216.769 14.536 218.006 14.536C219.969 14.536 221.334 14.92 222.102 15.688C222.358 16.456 222.486 18.376 222.486 21.448C222.486 23.496 222.294 24.9467 221.91 25.8C221.569 26.6533 220.886 27.1867 219.862 27.4C219.137 27.6133 218.433 27.72 217.75 27.72C216.214 27.72 214.955 27.4 213.974 26.76C213.718 26.12 213.59 25.416 213.59 24.648C212.139 23.9227 210.027 23.56 207.254 23.56C204.267 23.56 201.985 24.0507 200.406 25.032C198.827 25.9707 198.038 27.5707 198.038 29.832C198.038 31.496 198.507 32.712 199.446 33.48C200.427 34.2053 201.985 34.6107 204.118 34.696C210.177 34.9947 214.294 35.4853 216.47 36.168C221.121 37.576 223.446 40.648 223.446 45.384C223.446 49.864 221.782 53.704 218.454 56.904C215.126 60.0613 210.859 61.64 205.654 61.64C202.71 61.64 200.15 60.8507 197.974 59.272C197.974 60.3387 197.761 61.128 197.334 61.64C196.566 62.0667 195.307 62.28 193.558 62.28C191.681 62.28 190.401 61.96 189.718 61.32C188.822 59.6133 188.374 57.352 188.374 54.536ZM228.882 54.408C228.882 53.7253 229.223 52.616 229.906 51.08C230.674 50.696 231.527 50.504 232.466 50.504C232.892 50.504 233.234 50.568 233.49 50.696C232.978 46.8987 232.722 43.0373 232.722 39.112C232.722 33.352 233.17 28.616 234.066 24.904C233.084 25.1173 232.295 25.224 231.698 25.224C230.93 25.224 230.332 25.0747 229.906 24.776C229.308 23.9227 229.01 22.6 229.01 20.808C229.01 19.6987 229.415 18.5893 230.226 17.48C231.591 16.84 234.087 16.3493 237.714 16.008C241.34 15.624 244.839 15.432 248.21 15.432C256.06 15.432 262.375 16.2427 267.154 17.864C267.58 19.9973 267.794 21.64 267.794 22.792C267.794 24.7973 267.303 26.44 266.322 27.72C265.255 27.976 264.338 28.104 263.569 28.104C262.204 28.104 260.455 27.4 258.322 25.992L258.514 23.88C257.703 23.3253 255.484 23.048 251.858 23.048C250.578 23.048 248.935 23.112 246.93 23.24C244.924 23.368 243.9 23.496 243.858 23.624C244.028 25.16 244.114 26.2907 244.114 27.016C244.114 30.8133 243.836 33.416 243.282 34.824C247.463 34.824 249.575 34.76 249.618 34.632C249.575 34.504 249.554 34.312 249.554 34.056C249.554 33.5867 249.746 33.0107 250.13 32.328C250.386 32.1147 251.09 32.008 252.242 32.008C254.034 32.008 255.271 32.1573 255.954 32.456C256.807 33.864 257.234 35.8907 257.234 38.536C257.234 40.9253 256.786 42.568 255.89 43.464C255.548 43.7627 254.546 43.912 252.882 43.912C251.218 43.912 250.258 43.7627 250.002 43.464C249.618 42.952 249.426 42.312 249.426 41.544L242.962 41.864C242.962 44.3813 242.727 47.88 242.258 52.36C242.94 52.9573 244.327 53.4267 246.418 53.768C248.508 54.0667 250.236 54.216 251.602 54.216C252.626 54.216 253.884 54.1093 255.378 53.896C256.914 53.64 257.959 53.3627 258.514 53.064L258.322 50.952C260.455 49.544 262.226 48.84 263.634 48.84C264.402 48.84 265.298 48.968 266.322 49.224C267.303 50.504 267.794 52.1467 267.794 54.152C267.794 55.304 267.58 56.9467 267.154 59.08C263.954 60.9147 258.151 61.832 249.746 61.832C245.65 61.832 241.746 61.5973 238.034 61.128C234.322 60.7013 231.719 60.1467 230.226 59.464C229.714 58.824 229.351 58.184 229.138 57.544C228.967 56.904 228.882 55.8587 228.882 54.408ZM273.005 21.832C273.005 19.1013 273.304 17.2667 273.901 16.328C275.309 15.944 277.762 15.752 281.261 15.752C287.49 15.752 290.882 15.944 291.437 16.328C292.077 17.4373 292.397 19.2933 292.397 21.896C292.397 22.9627 292.269 23.624 292.013 23.88C291.074 24.2213 289.965 24.392 288.685 24.392C287.874 24.392 287.149 24.3067 286.509 24.136C286.381 26.568 286.317 29.3413 286.317 32.456C286.317 40.7333 287.021 47.3893 288.429 52.424C288.514 52.808 289.922 53 292.653 53C296.664 53 299.074 52.7227 299.885 52.168L299.693 49.416C302.082 48.0933 304.365 47.432 306.541 47.432C307.437 47.432 308.248 47.5173 308.973 47.688C309.954 50.5467 310.445 52.872 310.445 54.664C310.445 56.0293 310.232 57.416 309.805 58.824C308.056 59.4213 305.026 59.9547 300.717 60.424C296.45 60.8933 292.269 61.128 288.173 61.128C281.56 61.128 276.888 60.488 274.157 59.208C273.645 58.184 273.389 56.648 273.389 54.6C273.389 53.4053 273.602 52.7653 274.029 52.68C274.541 52.424 275.245 52.296 276.141 52.296C276.61 52.296 277.229 52.3387 277.997 52.424C277.4 44.5307 277.101 38.2587 277.101 33.608C277.101 32.2853 277.314 29.1067 277.741 24.072C277.101 24.2 276.44 24.264 275.757 24.264C274.818 24.264 274.008 24.136 273.325 23.88C273.112 23.624 273.005 22.9413 273.005 21.832ZM313.88 21.832C313.88 19.1013 314.179 17.2667 314.776 16.328C316.184 15.944 318.637 15.752 322.136 15.752C328.365 15.752 331.757 15.944 332.312 16.328C332.952 17.4373 333.272 19.2933 333.272 21.896C333.272 22.9627 333.144 23.624 332.888 23.88C331.949 24.2213 330.84 24.392 329.56 24.392C328.749 24.392 328.024 24.3067 327.384 24.136C327.256 26.568 327.192 29.3413 327.192 32.456C327.192 40.7333 327.896 47.3893 329.304 52.424C329.389 52.808 330.797 53 333.528 53C337.539 53 339.949 52.7227 340.76 52.168L340.568 49.416C342.957 48.0933 345.24 47.432 347.416 47.432C348.312 47.432 349.123 47.5173 349.848 47.688C350.829 50.5467 351.32 52.872 351.32 54.664C351.32 56.0293 351.107 57.416 350.68 58.824C348.931 59.4213 345.901 59.9547 341.592 60.424C337.325 60.8933 333.144 61.128 329.048 61.128C322.435 61.128 317.763 60.488 315.032 59.208C314.52 58.184 314.264 56.648 314.264 54.6C314.264 53.4053 314.477 52.7653 314.904 52.68C315.416 52.424 316.12 52.296 317.016 52.296C317.485 52.296 318.104 52.3387 318.872 52.424C318.275 44.5307 317.976 38.2587 317.976 33.608C317.976 32.2853 318.189 29.1067 318.616 24.072C317.976 24.2 317.315 24.264 316.632 24.264C315.693 24.264 314.883 24.136 314.2 23.88C313.987 23.624 313.88 22.9413 313.88 21.832ZM354.819 54.408C354.819 53.7253 355.16 52.616 355.843 51.08C356.611 50.696 357.464 50.504 358.403 50.504C358.83 50.504 359.171 50.568 359.427 50.696C358.915 46.8987 358.659 43.0373 358.659 39.112C358.659 33.352 359.107 28.616 360.003 24.904C359.022 25.1173 358.232 25.224 357.635 25.224C356.867 25.224 356.27 25.0747 355.843 24.776C355.246 23.9227 354.947 22.6 354.947 20.808C354.947 19.6987 355.352 18.5893 356.163 17.48C357.528 16.84 360.024 16.3493 363.651 16.008C367.278 15.624 370.776 15.432 374.147 15.432C381.998 15.432 388.312 16.2427 393.091 17.864C393.518 19.9973 393.731 21.64 393.731 22.792C393.731 24.7973 393.24 26.44 392.259 27.72C391.192 27.976 390.275 28.104 389.507 28.104C388.142 28.104 386.392 27.4 384.259 25.992L384.451 23.88C383.64 23.3253 381.422 23.048 377.795 23.048C376.515 23.048 374.872 23.112 372.867 23.24C370.862 23.368 369.838 23.496 369.795 23.624C369.966 25.16 370.051 26.2907 370.051 27.016C370.051 30.8133 369.774 33.416 369.219 34.824C373.4 34.824 375.512 34.76 375.555 34.632C375.512 34.504 375.491 34.312 375.491 34.056C375.491 33.5867 375.683 33.0107 376.067 32.328C376.323 32.1147 377.027 32.008 378.179 32.008C379.971 32.008 381.208 32.1573 381.891 32.456C382.744 33.864 383.171 35.8907 383.171 38.536C383.171 40.9253 382.723 42.568 381.827 43.464C381.486 43.7627 380.483 43.912 378.819 43.912C377.155 43.912 376.195 43.7627 375.939 43.464C375.555 42.952 375.363 42.312 375.363 41.544L368.899 41.864C368.899 44.3813 368.664 47.88 368.195 52.36C368.878 52.9573 370.264 53.4267 372.355 53.768C374.446 54.0667 376.174 54.216 377.539 54.216C378.563 54.216 379.822 54.1093 381.315 53.896C382.851 53.64 383.896 53.3627 384.451 53.064L384.259 50.952C386.392 49.544 388.163 48.84 389.571 48.84C390.339 48.84 391.235 48.968 392.259 49.224C393.24 50.504 393.731 52.1467 393.731 54.152C393.731 55.304 393.518 56.9467 393.091 59.08C389.891 60.9147 384.088 61.832 375.683 61.832C371.587 61.832 367.683 61.5973 363.971 61.128C360.259 60.7013 357.656 60.1467 356.163 59.464C355.651 58.824 355.288 58.184 355.075 57.544C354.904 56.904 354.819 55.8587 354.819 54.408ZM398.559 21.704C398.559 18.7173 399.049 16.8827 400.031 16.2C401.183 15.8587 402.719 15.688 404.639 15.688C407.028 15.688 409.183 15.9867 411.103 16.584C411.316 17.3947 411.423 18.1413 411.423 18.824C411.423 19.1653 411.401 19.3573 411.359 19.4C412.084 19.1867 413.087 18.8667 414.367 18.44C415.689 18.0133 416.628 17.7147 417.183 17.544C417.737 17.3733 418.463 17.16 419.359 16.904C420.297 16.6053 421.001 16.4133 421.471 16.328C421.983 16.2 422.537 16.0933 423.135 16.008C423.775 15.9227 424.329 15.88 424.799 15.88C426.676 15.88 428.34 16.4133 429.791 17.48C431.284 18.504 432.436 19.8053 433.247 21.384C434.1 22.9627 434.719 24.5413 435.103 26.12C435.529 27.6987 435.743 29.1493 435.743 30.472C435.743 33.3307 434.847 35.8267 433.055 37.96C431.305 40.0933 429.193 41.8427 426.719 43.208C429.663 45.256 432.436 47.368 435.039 49.544C437.641 51.6773 439.007 53.064 439.135 53.704C439.476 53.5333 439.86 53.448 440.287 53.448C440.756 53.448 441.311 53.576 441.951 53.832C442.591 54.4293 442.911 55.4533 442.911 56.904C442.911 58.3547 442.633 59.3573 442.079 59.912C440.671 60.6373 437.705 61 433.183 61C431.007 61 428.873 60.6373 426.783 59.912C426.356 59.7413 425.993 59.3147 425.695 58.632C425.396 57.9067 425.247 57.1173 425.247 56.264C425.247 55.1973 425.481 54.4293 425.951 53.96C426.249 53.704 426.612 53.576 427.039 53.576C427.337 53.576 427.743 53.6613 428.255 53.832C427.785 52.7227 427.081 51.7413 426.143 50.888C425.204 49.992 424.223 49.3093 423.199 48.84C422.175 48.328 421.065 47.9013 419.871 47.56C418.719 47.176 417.695 46.92 416.799 46.792C415.945 46.664 415.177 46.5787 414.495 46.536L413.535 46.408C413.748 47.4747 413.855 48.584 413.855 49.736C413.855 50.8453 413.748 51.8907 413.535 52.872C413.833 52.744 414.239 52.68 414.751 52.68C416.116 52.68 417.161 53.064 417.887 53.832C418.057 54.216 418.143 55.2187 418.143 56.84C418.143 58.4187 418.057 59.4 417.887 59.784C417.631 60.6373 413.876 61.064 406.623 61.064C404.02 61.064 402.249 60.9787 401.311 60.808C400.415 60.5947 399.903 60.2533 399.775 59.784C399.604 59.4 399.519 58.4187 399.519 56.84C399.519 55.2187 399.604 54.216 399.775 53.832C399.988 53.4907 400.457 53.2133 401.183 53C401.951 52.7867 402.676 52.68 403.359 52.68C403.871 52.68 404.212 52.7013 404.383 52.744C404.383 52.0187 404.361 50.6747 404.319 48.712C404.276 46.7493 404.255 44.7227 404.255 42.632C404.255 35.08 404.468 30.1093 404.895 27.72C404.383 27.9333 403.721 28.04 402.911 28.04C401.673 28.04 400.82 27.8053 400.351 27.336C399.156 27.08 398.559 25.2027 398.559 21.704ZM412.703 33.224C412.703 35.016 413.151 36.4027 414.047 37.384C414.985 38.3653 416.159 38.856 417.567 38.856C419.615 38.856 421.599 37.9813 423.519 36.232C425.481 34.44 426.463 32.3067 426.463 29.832C426.463 28.1253 425.972 26.696 424.991 25.544C424.052 24.3493 422.772 23.752 421.151 23.752C419.06 23.752 417.119 24.6907 415.327 26.568C413.577 28.4453 412.703 30.664 412.703 33.224Z" fill="black"/>
<mask id="mask0" mask-type="alpha" maskUnits="userSpaceOnUse" x="3" y="14" width="440" height="49">
<path d="M3.2 56.776C3.2 55.9227 3.22133 55.2613 3.264 54.792C3.34933 54.3227 3.648 53.8533 4.16 53.384C4.672 52.872 5.44 52.616 6.464 52.616C6.592 52.616 6.86933 52.6587 7.296 52.744C6.95467 48.776 6.784 45 6.784 41.416C6.784 34.9307 7.06133 29.5333 7.616 25.224C6.67733 25.224 5.504 25.1173 4.096 24.904C3.84 24.5627 3.712 23.2827 3.712 21.064C3.712 18.8453 3.776 17.5867 3.904 17.288C5.184 16.2213 7.76533 15.688 11.648 15.688C12.8 15.688 14.272 15.7733 16.064 15.944C16.2347 16.4987 16.32 17.352 16.32 18.504C17.5147 17.7787 19.072 17.1387 20.992 16.584C22.912 16.0293 24.64 15.752 26.176 15.752C29.4613 15.752 32.192 17.096 34.368 19.784C36.5867 22.4293 37.696 25.4373 37.696 28.808C37.696 32.776 36.1387 36.168 33.024 38.984C37.376 41.4587 39.552 45 39.552 49.608C39.552 52.8507 38.4213 55.6667 36.16 58.056C33.9413 60.4453 31.232 61.64 28.032 61.64C21.5893 61.64 17.408 60.7653 15.488 59.016C15.488 60.1253 15.1893 60.7867 14.592 61C13.9947 61.256 12.608 61.384 10.432 61.384C7.95733 61.384 5.696 61.128 3.648 60.616C3.34933 59.208 3.2 57.928 3.2 56.776ZM15.936 53.384C15.936 53.64 17.1093 54.0027 19.456 54.472C21.8027 54.8987 23.36 55.112 24.128 55.112C25.4933 55.112 26.6453 54.5147 27.584 53.32C28.5653 52.0827 29.056 50.5893 29.056 48.84C29.056 47.0907 28.7147 45.4907 28.032 44.04C27.3493 42.5893 26.2827 41.864 24.832 41.864C23.5093 41.864 21.76 42.1627 19.584 42.76C17.408 43.3147 16.2987 43.8693 16.256 44.424C16.2133 44.8507 16.1707 45.4267 16.128 46.152C16.128 46.8773 16.1067 47.944 16.064 49.352C16.0213 50.7173 15.9787 52.0613 15.936 53.384ZM15.936 34.184C15.936 34.44 17.1093 34.8027 19.456 35.272C21.8027 35.6987 23.36 35.912 24.128 35.912C25.4933 35.912 26.6453 35.3147 27.584 34.12C28.5653 32.8827 29.056 31.3893 29.056 29.64C29.056 27.8907 28.7147 26.2907 28.032 24.84C27.3493 23.3893 26.2827 22.664 24.832 22.664C23.5093 22.664 21.76 22.9627 19.584 23.56C17.408 24.1147 16.2987 24.6693 16.256 25.224C16.2133 25.6507 16.1707 26.2267 16.128 26.952C16.128 27.6773 16.1067 28.744 16.064 30.152C16.0213 31.5173 15.9787 32.8613 15.936 34.184ZM44.944 54.408C44.944 53.7253 45.2853 52.616 45.968 51.08C46.736 50.696 47.5893 50.504 48.528 50.504C48.9547 50.504 49.296 50.568 49.552 50.696C49.04 46.8987 48.784 43.0373 48.784 39.112C48.784 33.352 49.232 28.616 50.128 24.904C49.1467 25.1173 48.3573 25.224 47.76 25.224C46.992 25.224 46.3947 25.0747 45.968 24.776C45.3707 23.9227 45.072 22.6 45.072 20.808C45.072 19.6987 45.4773 18.5893 46.288 17.48C47.6533 16.84 50.1493 16.3493 53.776 16.008C57.4027 15.624 60.9013 15.432 64.272 15.432C72.1227 15.432 78.4373 16.2427 83.216 17.864C83.6427 19.9973 83.856 21.64 83.856 22.792C83.856 24.7973 83.3653 26.44 82.384 27.72C81.3173 27.976 80.4 28.104 79.632 28.104C78.2667 28.104 76.5173 27.4 74.384 25.992L74.576 23.88C73.7653 23.3253 71.5467 23.048 67.92 23.048C66.64 23.048 64.9973 23.112 62.992 23.24C60.9867 23.368 59.9627 23.496 59.92 23.624C60.0907 25.16 60.176 26.2907 60.176 27.016C60.176 30.8133 59.8987 33.416 59.344 34.824C63.5253 34.824 65.6373 34.76 65.68 34.632C65.6373 34.504 65.616 34.312 65.616 34.056C65.616 33.5867 65.808 33.0107 66.192 32.328C66.448 32.1147 67.152 32.008 68.304 32.008C70.096 32.008 71.3333 32.1573 72.016 32.456C72.8693 33.864 73.296 35.8907 73.296 38.536C73.296 40.9253 72.848 42.568 71.952 43.464C71.6107 43.7627 70.608 43.912 68.944 43.912C67.28 43.912 66.32 43.7627 66.064 43.464C65.68 42.952 65.488 42.312 65.488 41.544L59.024 41.864C59.024 44.3813 58.7893 47.88 58.32 52.36C59.0027 52.9573 60.3893 53.4267 62.48 53.768C64.5707 54.0667 66.2987 54.216 67.664 54.216C68.688 54.216 69.9467 54.1093 71.44 53.896C72.976 53.64 74.0213 53.3627 74.576 53.064L74.384 50.952C76.5173 49.544 78.288 48.84 79.696 48.84C80.464 48.84 81.36 48.968 82.384 49.224C83.3653 50.504 83.856 52.1467 83.856 54.152C83.856 55.304 83.6427 56.9467 83.216 59.08C80.016 60.9147 74.2133 61.832 65.808 61.832C61.712 61.832 57.808 61.5973 54.096 61.128C50.384 60.7013 47.7813 60.1467 46.288 59.464C45.776 58.824 45.4133 58.184 45.2 57.544C45.0293 56.904 44.944 55.8587 44.944 54.408ZM88.8115 54.536C88.8115 52.4453 89.2168 50.6533 90.0275 49.16C91.9048 48.5627 93.1208 48.264 93.6755 48.264C94.6995 48.264 96.2568 48.5627 98.3475 49.16C98.5608 49.7147 98.7102 50.5253 98.7955 51.592C100.844 52.9573 103.148 53.64 105.708 53.64C108.054 53.64 110.102 52.9573 111.852 51.592C113.644 50.184 114.54 48.6267 114.54 46.92C114.54 44.488 112.193 43.1867 107.5 43.016C105.708 42.9307 104.15 42.824 102.828 42.696C101.505 42.5253 99.9262 42.2053 98.0915 41.736C96.2995 41.224 94.8275 40.5627 93.6755 39.752C92.5235 38.9413 91.5208 37.8107 90.6675 36.36C89.8568 34.8667 89.4515 33.1173 89.4515 31.112C89.4515 26.8453 91.0088 23.1973 94.1235 20.168C97.2382 17.096 100.972 15.56 105.324 15.56C108.353 15.56 111.254 16.328 114.028 17.864C114.284 16.584 114.732 15.688 115.372 15.176C116.182 14.7493 117.206 14.536 118.444 14.536C120.406 14.536 121.772 14.92 122.54 15.688C122.796 16.456 122.924 18.376 122.924 21.448C122.924 23.496 122.731 24.9467 122.347 25.8C122.006 26.6533 121.324 27.1867 120.3 27.4C119.574 27.6133 118.87 27.72 118.188 27.72C116.652 27.72 115.393 27.4 114.412 26.76C114.156 26.12 114.028 25.416 114.028 24.648C112.577 23.9227 110.465 23.56 107.692 23.56C104.705 23.56 102.422 24.0507 100.844 25.032C99.2648 25.9707 98.4755 27.5707 98.4755 29.832C98.4755 31.496 98.9448 32.712 99.8835 33.48C100.865 34.2053 102.422 34.6107 104.556 34.696C110.614 34.9947 114.732 35.4853 116.908 36.168C121.558 37.576 123.884 40.648 123.884 45.384C123.884 49.864 122.22 53.704 118.892 56.904C115.564 60.0613 111.297 61.64 106.092 61.64C103.148 61.64 100.588 60.8507 98.4115 59.272C98.4115 60.3387 98.1982 61.128 97.7715 61.64C97.0035 62.0667 95.7448 62.28 93.9955 62.28C92.1182 62.28 90.8382 61.96 90.1555 61.32C89.2595 59.6133 88.8115 57.352 88.8115 54.536ZM127.079 24.072C127.079 21.128 127.378 18.76 127.975 16.968C128.786 16.9253 130.514 16.84 133.159 16.712C135.804 16.5413 138.45 16.4133 141.095 16.328C143.783 16.2427 146.514 16.2 149.287 16.2C152.06 16.2 154.812 16.2427 157.543 16.328C160.274 16.4133 163.026 16.5413 165.799 16.712C168.615 16.84 170.407 16.9253 171.175 16.968C171.772 18.76 172.071 21.128 172.071 24.072C172.071 25.608 171.922 26.952 171.623 28.104C169.49 28.5307 167.975 28.744 167.079 28.744C165.202 28.744 163.623 28.3813 162.343 27.656L161.255 24.328C160.7 23.9867 158.29 23.752 154.023 23.624C154.279 29.0853 154.407 34.76 154.407 40.648C154.407 45.256 154.172 48.7973 153.703 51.272C153.916 51.272 154.407 51.336 155.175 51.464C156.284 51.6347 157.031 51.8267 157.415 52.04C157.671 52.3813 157.799 53.6827 157.799 55.944C157.799 57.608 157.65 58.696 157.351 59.208C156.668 60.4027 154.087 61 149.607 61C145.084 61 142.482 60.4027 141.799 59.208C141.5 58.696 141.351 57.5867 141.351 55.88C141.351 53.6613 141.479 52.3813 141.735 52.04C142.119 51.8267 142.866 51.6347 143.975 51.464C144.743 51.336 145.234 51.272 145.447 51.272C144.978 48.7973 144.743 45.256 144.743 40.648C144.743 34.76 144.871 29.0853 145.127 23.624C140.86 23.752 138.45 23.9867 137.895 24.328L136.807 27.656C135.527 28.3813 133.948 28.744 132.071 28.744C131.175 28.744 129.66 28.5307 127.527 28.104C127.228 26.952 127.079 25.608 127.079 24.072ZM188.374 54.536C188.374 52.4453 188.779 50.6533 189.59 49.16C191.467 48.5627 192.683 48.264 193.238 48.264C194.262 48.264 195.819 48.5627 197.91 49.16C198.123 49.7147 198.273 50.5253 198.358 51.592C200.406 52.9573 202.71 53.64 205.27 53.64C207.617 53.64 209.665 52.9573 211.414 51.592C213.206 50.184 214.102 48.6267 214.102 46.92C214.102 44.488 211.755 43.1867 207.062 43.016C205.27 42.9307 203.713 42.824 202.39 42.696C201.067 42.5253 199.489 42.2053 197.654 41.736C195.862 41.224 194.39 40.5627 193.238 39.752C192.086 38.9413 191.083 37.8107 190.23 36.36C189.419 34.8667 189.014 33.1173 189.014 31.112C189.014 26.8453 190.571 23.1973 193.686 20.168C196.801 17.096 200.534 15.56 204.886 15.56C207.915 15.56 210.817 16.328 213.59 17.864C213.846 16.584 214.294 15.688 214.934 15.176C215.745 14.7493 216.769 14.536 218.006 14.536C219.969 14.536 221.334 14.92 222.102 15.688C222.358 16.456 222.486 18.376 222.486 21.448C222.486 23.496 222.294 24.9467 221.91 25.8C221.569 26.6533 220.886 27.1867 219.862 27.4C219.137 27.6133 218.433 27.72 217.75 27.72C216.214 27.72 214.955 27.4 213.974 26.76C213.718 26.12 213.59 25.416 213.59 24.648C212.139 23.9227 210.027 23.56 207.254 23.56C204.267 23.56 201.985 24.0507 200.406 25.032C198.827 25.9707 198.038 27.5707 198.038 29.832C198.038 31.496 198.507 32.712 199.446 33.48C200.427 34.2053 201.985 34.6107 204.118 34.696C210.177 34.9947 214.294 35.4853 216.47 36.168C221.121 37.576 223.446 40.648 223.446 45.384C223.446 49.864 221.782 53.704 218.454 56.904C215.126 60.0613 210.859 61.64 205.654 61.64C202.71 61.64 200.15 60.8507 197.974 59.272C197.974 60.3387 197.761 61.128 197.334 61.64C196.566 62.0667 195.307 62.28 193.558 62.28C191.681 62.28 190.401 61.96 189.718 61.32C188.822 59.6133 188.374 57.352 188.374 54.536ZM228.882 54.408C228.882 53.7253 229.223 52.616 229.906 51.08C230.674 50.696 231.527 50.504 232.466 50.504C232.892 50.504 233.234 50.568 233.49 50.696C232.978 46.8987 232.722 43.0373 232.722 39.112C232.722 33.352 233.17 28.616 234.066 24.904C233.084 25.1173 232.295 25.224 231.698 25.224C230.93 25.224 230.332 25.0747 229.906 24.776C229.308 23.9227 229.01 22.6 229.01 20.808C229.01 19.6987 229.415 18.5893 230.226 17.48C231.591 16.84 234.087 16.3493 237.714 16.008C241.34 15.624 244.839 15.432 248.21 15.432C256.06 15.432 262.375 16.2427 267.154 17.864C267.58 19.9973 267.794 21.64 267.794 22.792C267.794 24.7973 267.303 26.44 266.322 27.72C265.255 27.976 264.338 28.104 263.569 28.104C262.204 28.104 260.455 27.4 258.322 25.992L258.514 23.88C257.703 23.3253 255.484 23.048 251.858 23.048C250.578 23.048 248.935 23.112 246.93 23.24C244.924 23.368 243.9 23.496 243.858 23.624C244.028 25.16 244.114 26.2907 244.114 27.016C244.114 30.8133 243.836 33.416 243.282 34.824C247.463 34.824 249.575 34.76 249.618 34.632C249.575 34.504 249.554 34.312 249.554 34.056C249.554 33.5867 249.746 33.0107 250.13 32.328C250.386 32.1147 251.09 32.008 252.242 32.008C254.034 32.008 255.271 32.1573 255.954 32.456C256.807 33.864 257.234 35.8907 257.234 38.536C257.234 40.9253 256.786 42.568 255.89 43.464C255.548 43.7627 254.546 43.912 252.882 43.912C251.218 43.912 250.258 43.7627 250.002 43.464C249.618 42.952 249.426 42.312 249.426 41.544L242.962 41.864C242.962 44.3813 242.727 47.88 242.258 52.36C242.94 52.9573 244.327 53.4267 246.418 53.768C248.508 54.0667 250.236 54.216 251.602 54.216C252.626 54.216 253.884 54.1093 255.378 53.896C256.914 53.64 257.959 53.3627 258.514 53.064L258.322 50.952C260.455 49.544 262.226 48.84 263.634 48.84C264.402 48.84 265.298 48.968 266.322 49.224C267.303 50.504 267.794 52.1467 267.794 54.152C267.794 55.304 267.58 56.9467 267.154 59.08C263.954 60.9147 258.151 61.832 249.746 61.832C245.65 61.832 241.746 61.5973 238.034 61.128C234.322 60.7013 231.719 60.1467 230.226 59.464C229.714 58.824 229.351 58.184 229.138 57.544C228.967 56.904 228.882 55.8587 228.882 54.408ZM273.005 21.832C273.005 19.1013 273.304 17.2667 273.901 16.328C275.309 15.944 277.762 15.752 281.261 15.752C287.49 15.752 290.882 15.944 291.437 16.328C292.077 17.4373 292.397 19.2933 292.397 21.896C292.397 22.9627 292.269 23.624 292.013 23.88C291.074 24.2213 289.965 24.392 288.685 24.392C287.874 24.392 287.149 24.3067 286.509 24.136C286.381 26.568 286.317 29.3413 286.317 32.456C286.317 40.7333 287.021 47.3893 288.429 52.424C288.514 52.808 289.922 53 292.653 53C296.664 53 299.074 52.7227 299.885 52.168L299.693 49.416C302.082 48.0933 304.365 47.432 306.541 47.432C307.437 47.432 308.248 47.5173 308.973 47.688C309.954 50.5467 310.445 52.872 310.445 54.664C310.445 56.0293 310.232 57.416 309.805 58.824C308.056 59.4213 305.026 59.9547 300.717 60.424C296.45 60.8933 292.269 61.128 288.173 61.128C281.56 61.128 276.888 60.488 274.157 59.208C273.645 58.184 273.389 56.648 273.389 54.6C273.389 53.4053 273.602 52.7653 274.029 52.68C274.541 52.424 275.245 52.296 276.141 52.296C276.61 52.296 277.229 52.3387 277.997 52.424C277.4 44.5307 277.101 38.2587 277.101 33.608C277.101 32.2853 277.314 29.1067 277.741 24.072C277.101 24.2 276.44 24.264 275.757 24.264C274.818 24.264 274.008 24.136 273.325 23.88C273.112 23.624 273.005 22.9413 273.005 21.832ZM313.88 21.832C313.88 19.1013 314.179 17.2667 314.776 16.328C316.184 15.944 318.637 15.752 322.136 15.752C328.365 15.752 331.757 15.944 332.312 16.328C332.952 17.4373 333.272 19.2933 333.272 21.896C333.272 22.9627 333.144 23.624 332.888 23.88C331.949 24.2213 330.84 24.392 329.56 24.392C328.749 24.392 328.024 24.3067 327.384 24.136C327.256 26.568 327.192 29.3413 327.192 32.456C327.192 40.7333 327.896 47.3893 329.304 52.424C329.389 52.808 330.797 53 333.528 53C337.539 53 339.949 52.7227 340.76 52.168L340.568 49.416C342.957 48.0933 345.24 47.432 347.416 47.432C348.312 47.432 349.123 47.5173 349.848 47.688C350.829 50.5467 351.32 52.872 351.32 54.664C351.32 56.0293 351.107 57.416 350.68 58.824C348.931 59.4213 345.901 59.9547 341.592 60.424C337.325 60.8933 333.144 61.128 329.048 61.128C322.435 61.128 317.763 60.488 315.032 59.208C314.52 58.184 314.264 56.648 314.264 54.6C314.264 53.4053 314.477 52.7653 314.904 52.68C315.416 52.424 316.12 52.296 317.016 52.296C317.485 52.296 318.104 52.3387 318.872 52.424C318.275 44.5307 317.976 38.2587 317.976 33.608C317.976 32.2853 318.189 29.1067 318.616 24.072C317.976 24.2 317.315 24.264 316.632 24.264C315.693 24.264 314.883 24.136 314.2 23.88C313.987 23.624 313.88 22.9413 313.88 21.832ZM354.819 54.408C354.819 53.7253 355.16 52.616 355.843 51.08C356.611 50.696 357.464 50.504 358.403 50.504C358.83 50.504 359.171 50.568 359.427 50.696C358.915 46.8987 358.659 43.0373 358.659 39.112C358.659 33.352 359.107 28.616 360.003 24.904C359.022 25.1173 358.232 25.224 357.635 25.224C356.867 25.224 356.27 25.0747 355.843 24.776C355.246 23.9227 354.947 22.6 354.947 20.808C354.947 19.6987 355.352 18.5893 356.163 17.48C357.528 16.84 360.024 16.3493 363.651 16.008C367.278 15.624 370.776 15.432 374.147 15.432C381.998 15.432 388.312 16.2427 393.091 17.864C393.518 19.9973 393.731 21.64 393.731 22.792C393.731 24.7973 393.24 26.44 392.259 27.72C391.192 27.976 390.275 28.104 389.507 28.104C388.142 28.104 386.392 27.4 384.259 25.992L384.451 23.88C383.64 23.3253 381.422 23.048 377.795 23.048C376.515 23.048 374.872 23.112 372.867 23.24C370.862 23.368 369.838 23.496 369.795 23.624C369.966 25.16 370.051 26.2907 370.051 27.016C370.051 30.8133 369.774 33.416 369.219 34.824C373.4 34.824 375.512 34.76 375.555 34.632C375.512 34.504 375.491 34.312 375.491 34.056C375.491 33.5867 375.683 33.0107 376.067 32.328C376.323 32.1147 377.027 32.008 378.179 32.008C379.971 32.008 381.208 32.1573 381.891 32.456C382.744 33.864 383.171 35.8907 383.171 38.536C383.171 40.9253 382.723 42.568 381.827 43.464C381.486 43.7627 380.483 43.912 378.819 43.912C377.155 43.912 376.195 43.7627 375.939 43.464C375.555 42.952 375.363 42.312 375.363 41.544L368.899 41.864C368.899 44.3813 368.664 47.88 368.195 52.36C368.878 52.9573 370.264 53.4267 372.355 53.768C374.446 54.0667 376.174 54.216 377.539 54.216C378.563 54.216 379.822 54.1093 381.315 53.896C382.851 53.64 383.896 53.3627 384.451 53.064L384.259 50.952C386.392 49.544 388.163 48.84 389.571 48.84C390.339 48.84 391.235 48.968 392.259 49.224C393.24 50.504 393.731 52.1467 393.731 54.152C393.731 55.304 393.518 56.9467 393.091 59.08C389.891 60.9147 384.088 61.832 375.683 61.832C371.587 61.832 367.683 61.5973 363.971 61.128C360.259 60.7013 357.656 60.1467 356.163 59.464C355.651 58.824 355.288 58.184 355.075 57.544C354.904 56.904 354.819 55.8587 354.819 54.408ZM398.559 21.704C398.559 18.7173 399.049 16.8827 400.031 16.2C401.183 15.8587 402.719 15.688 404.639 15.688C407.028 15.688 409.183 15.9867 411.103 16.584C411.316 17.3947 411.423 18.1413 411.423 18.824C411.423 19.1653 411.401 19.3573 411.359 19.4C412.084 19.1867 413.087 18.8667 414.367 18.44C415.689 18.0133 416.628 17.7147 417.183 17.544C417.737 17.3733 418.463 17.16 419.359 16.904C420.297 16.6053 421.001 16.4133 421.471 16.328C421.983 16.2 422.537 16.0933 423.135 16.008C423.775 15.9227 424.329 15.88 424.799 15.88C426.676 15.88 428.34 16.4133 429.791 17.48C431.284 18.504 432.436 19.8053 433.247 21.384C434.1 22.9627 434.719 24.5413 435.103 26.12C435.529 27.6987 435.743 29.1493 435.743 30.472C435.743 33.3307 434.847 35.8267 433.055 37.96C431.305 40.0933 429.193 41.8427 426.719 43.208C429.663 45.256 432.436 47.368 435.039 49.544C437.641 51.6773 439.007 53.064 439.135 53.704C439.476 53.5333 439.86 53.448 440.287 53.448C440.756 53.448 441.311 53.576 441.951 53.832C442.591 54.4293 442.911 55.4533 442.911 56.904C442.911 58.3547 442.633 59.3573 442.079 59.912C440.671 60.6373 437.705 61 433.183 61C431.007 61 428.873 60.6373 426.783 59.912C426.356 59.7413 425.993 59.3147 425.695 58.632C425.396 57.9067 425.247 57.1173 425.247 56.264C425.247 55.1973 425.481 54.4293 425.951 53.96C426.249 53.704 426.612 53.576 427.039 53.576C427.337 53.576 427.743 53.6613 428.255 53.832C427.785 52.7227 427.081 51.7413 426.143 50.888C425.204 49.992 424.223 49.3093 423.199 48.84C422.175 48.328 421.065 47.9013 419.871 47.56C418.719 47.176 417.695 46.92 416.799 46.792C415.945 46.664 415.177 46.5787 414.495 46.536L413.535 46.408C413.748 47.4747 413.855 48.584 413.855 49.736C413.855 50.8453 413.748 51.8907 413.535 52.872C413.833 52.744 414.239 52.68 414.751 52.68C416.116 52.68 417.161 53.064 417.887 53.832C418.057 54.216 418.143 55.2187 418.143 56.84C418.143 58.4187 418.057 59.4 417.887 59.784C417.631 60.6373 413.876 61.064 406.623 61.064C404.02 61.064 402.249 60.9787 401.311 60.808C400.415 60.5947 399.903 60.2533 399.775 59.784C399.604 59.4 399.519 58.4187 399.519 56.84C399.519 55.2187 399.604 54.216 399.775 53.832C399.988 53.4907 400.457 53.2133 401.183 53C401.951 52.7867 402.676 52.68 403.359 52.68C403.871 52.68 404.212 52.7013 404.383 52.744C404.383 52.0187 404.361 50.6747 404.319 48.712C404.276 46.7493 404.255 44.7227 404.255 42.632C404.255 35.08 404.468 30.1093 404.895 27.72C404.383 27.9333 403.721 28.04 402.911 28.04C401.673 28.04 400.82 27.8053 400.351 27.336C399.156 27.08 398.559 25.2027 398.559 21.704ZM412.703 33.224C412.703 35.016 413.151 36.4027 414.047 37.384C414.985 38.3653 416.159 38.856 417.567 38.856C419.615 38.856 421.599 37.9813 423.519 36.232C425.481 34.44 426.463 32.3067 426.463 29.832C426.463 28.1253 425.972 26.696 424.991 25.544C424.052 24.3493 422.772 23.752 421.151 23.752C419.06 23.752 417.119 24.6907 415.327 26.568C413.577 28.4453 412.703 30.664 412.703 33.224Z" fill="black"/>
</mask>
<g mask="url(#mask0)">
<path d="M-8.786 51.066C-41.0221 49.946 -25.2789 48.2659 -92 40.4257C-75.757 47.1459 -33.8252 63.2742 3.9585 74.0265C51.1881 87.4669 81.1751 74.0265 102.916 74.0265H243.855C260.348 74.0265 355.556 71.2264 395.289 74.0265C427.076 76.2666 469.007 65.9996 486 60.5862C476.254 57.4128 454.963 48.9379 447.767 40.4257C438.77 29.7854 429.774 40.4257 395.289 51.066H379.546C371.05 51.066 351.808 48.9379 342.812 40.4257C331.567 29.7854 332.316 33.7055 319.572 33.7055H305.328C283 47.5 279.989 42.5538 265.595 51.066C247.603 61.7063 201.5 53.5 196.625 51.066C188.461 46.9897 180.882 51.066 180.882 51.066C170.5 40.4257 159.891 40.4257 147.896 40.4257H81.1751C50.4384 40.4257 59.4345 40.4257 39.9429 51.066C20.4514 61.7063 23.4501 52.186 -8.786 51.066Z" fill="#05A498"/>
</g>
</svg>
