<svg width="599" height="78" viewBox="0 0 599 78" fill="none" xmlns="http://www.w3.org/2000/svg">
<path d="M2.78025 38.984C2.78025 32.456 4.44425 26.952 7.77225 22.472C11.1429 17.992 15.6016 15.752 21.1483 15.752C25.2016 15.752 28.1883 16.6907 30.1083 18.568C30.1936 17.288 30.6416 16.4987 31.4523 16.2C32.5189 15.7307 33.8203 15.496 35.3563 15.496C37.3616 15.496 38.9403 15.9227 40.0923 16.776C40.1349 17.2453 40.2203 17.992 40.3483 19.016C40.5189 19.9973 40.6469 20.8933 40.7323 21.704C40.8176 22.5147 40.8603 23.2613 40.8603 23.944C40.8603 26.5893 40.0923 28.5947 38.5563 29.96C37.6603 30.9413 36.1883 31.432 34.1403 31.432C32.0069 31.432 30.4069 30.9413 29.3403 29.96C29.2976 29.8747 29.2763 29.6827 29.2763 29.384C29.2763 28.872 29.3403 28.5307 29.4683 28.36C28.7429 26.7813 27.5696 25.5653 25.9483 24.712C24.3269 23.8587 22.8549 23.432 21.5323 23.432C19.0576 23.432 16.7536 25.032 14.6203 28.232C12.5296 31.3893 11.4843 35.016 11.4843 39.112C11.4843 42.9947 12.4656 46.152 14.4283 48.584C16.4336 50.9733 18.7376 52.168 21.3403 52.168C22.6629 52.168 24.1349 51.8693 25.7563 51.272C27.3776 50.6747 28.5723 49.8427 29.3403 48.776C29.2123 48.008 29.1483 47.5813 29.1483 47.496C29.1483 47.4107 29.1483 47.3253 29.1483 47.24C29.1909 47.1547 29.2123 47.0907 29.2123 47.048C30.7909 46.3227 32.1776 45.96 33.3723 45.96C34.5669 45.96 36.3163 46.3867 38.6203 47.24C40.1563 48.6053 40.9243 50.5893 40.9243 53.192C40.9243 53.8747 40.8603 54.6427 40.7323 55.496C40.6469 56.3067 40.5189 57.2027 40.3483 58.184C40.2203 59.1653 40.1349 59.912 40.0923 60.424C38.7696 61.4907 37.0629 62.024 34.9723 62.024C33.4363 62.024 32.2629 61.6827 31.4523 61C30.5563 60.6587 30.1083 59.8267 30.1083 58.504C27.2923 60.424 24.4336 61.384 21.5323 61.384C19.2709 61.384 17.0523 60.9147 14.8763 59.976C12.7003 59.0373 10.6949 57.672 8.86025 55.88C7.02558 54.088 5.55358 51.7413 4.44425 48.84C3.33492 45.896 2.78025 42.6107 2.78025 38.984ZM43.6638 56.584C43.6638 54.7067 43.8558 53.448 44.2398 52.808C44.6238 52.1253 45.4344 51.784 46.6718 51.784C47.9944 51.784 48.6558 51.9547 48.6558 52.296C48.9544 50.504 51.2158 44.1253 55.4398 33.16C59.7064 22.152 62.0744 16.6053 62.5438 16.52C63.9091 16.3067 65.5731 16.2 67.5358 16.2C68.5598 16.2 70.0318 16.3067 71.9518 16.52C72.4211 16.7333 74.7678 22.3227 78.9918 33.288C83.2584 44.2107 85.5411 50.5467 85.8398 52.296C85.8398 51.9547 86.5011 51.784 87.8238 51.784C89.0611 51.784 89.8718 52.1253 90.2558 52.808C90.6398 53.448 90.8318 54.7067 90.8318 56.584C90.8318 58.76 90.5971 59.976 90.1278 60.232C89.5731 60.744 86.2451 61 80.1438 61C75.7491 61 73.5518 60.7653 73.5518 60.296C72.6131 59.7413 72.1438 57.8427 72.1438 54.6C72.1438 54.1307 72.1651 53.768 72.2078 53.512C72.2504 53.256 72.4211 53 72.7198 52.744C73.0184 52.488 73.4451 52.36 73.9998 52.36C75.2371 52.36 75.8558 52.4453 75.8558 52.616C76.0264 52.616 76.1118 52.4027 76.1118 51.976C76.1118 50.9093 75.5358 48.4773 74.3838 44.68C72.6344 44.8507 70.3091 44.936 67.4078 44.936C64.2931 44.936 61.8611 44.8507 60.1118 44.68C58.9598 48.52 58.3838 50.9733 58.3838 52.04C58.3838 52.3813 58.4691 52.5733 58.6398 52.616C58.8958 52.4453 59.4504 52.36 60.3038 52.36C60.9438 52.36 61.4131 52.5093 61.7118 52.808C62.0531 53.1067 62.2451 53.4053 62.2878 53.704C62.3304 54.0027 62.3518 54.4933 62.3518 55.176C62.3518 57.992 61.8824 59.6987 60.9438 60.296C60.9438 60.7653 58.7464 61 54.3518 61C48.2504 61 44.9224 60.744 44.3678 60.232C43.8984 59.976 43.6638 58.76 43.6638 56.584ZM62.4158 37.256C64.0371 37.128 65.5944 37.064 67.0878 37.064C68.8371 37.064 70.4798 37.1493 72.0158 37.32C70.0958 31.6453 68.4958 27.2507 67.2158 24.136C66.0211 27.08 64.4211 31.4533 62.4158 37.256ZM94.4843 55.176C94.4843 53.384 94.8043 52.3387 95.4443 52.04C96.4256 51.4427 97.1083 51.144 97.4923 51.144C97.7483 51.144 98.0896 51.1867 98.5163 51.272C98.0043 47.0053 97.7483 42.7173 97.7483 38.408C97.7483 34.2693 98.0043 30.152 98.5163 26.056C98.0043 26.1413 97.5989 26.184 97.3003 26.184C96.6603 26.184 96.0416 25.8853 95.4443 25.288C95.1029 24.776 94.9323 23.56 94.9323 21.64C94.9323 19.7627 95.1029 18.568 95.4443 18.056C95.4016 17.5867 96.2976 17.1813 98.1323 16.84C100.01 16.4987 102.058 16.328 104.276 16.328C106.282 16.328 107.668 16.52 108.436 16.904C109.674 17.544 110.292 19.0373 110.292 21.384C110.292 22.8347 110.1 24.0933 109.716 25.16C108.906 25.7147 108.138 25.992 107.412 25.992C107.071 25.992 106.666 25.928 106.196 25.8C108.074 27.208 111.039 29.64 115.092 33.096C119.146 36.5093 122.111 39.1973 123.988 41.16C123.988 34.8453 124.244 29.8107 124.756 26.056C124.5 26.0987 124.116 26.12 123.604 26.12C122.922 26.12 122.282 25.8427 121.684 25.288C121.044 24.1787 120.724 22.7707 120.724 21.064C120.724 19.528 121.044 18.5253 121.684 18.056C123.263 16.8613 125.844 16.264 129.428 16.264C131.988 16.264 133.738 16.4773 134.676 16.904C136.084 17.7147 136.788 19.4 136.788 21.96C136.788 23.368 136.511 24.4347 135.956 25.16C134.847 25.672 134.036 25.928 133.524 25.928C133.226 25.928 132.863 25.8853 132.436 25.8C132.948 29.256 133.204 33.0107 133.204 37.064C133.204 40.392 132.948 45.2133 132.436 51.528C132.948 51.4 133.29 51.336 133.46 51.336C134.57 51.336 135.402 51.6133 135.956 52.168C136.426 52.7653 136.66 53.64 136.66 54.792C136.66 55.8587 136.468 56.968 136.084 58.12C135.7 59.2293 135.231 59.9973 134.676 60.424C133.823 60.808 131.732 61 128.404 61C124.906 61 122.666 60.4453 121.684 59.336C121.044 58.696 120.724 57.3307 120.724 55.24C120.724 53.5333 121.044 52.4667 121.684 52.04C122.538 51.4427 123.156 51.144 123.54 51.144C123.796 51.144 124.138 51.1867 124.564 51.272C122.858 50.1627 119.828 47.5813 115.476 43.528C111.124 39.432 108.266 36.8507 106.9 35.784C106.815 41.8427 106.58 47.0907 106.196 51.528C106.708 51.4427 107.156 51.4 107.54 51.4C108.394 51.4 109.119 51.656 109.716 52.168C110.1 52.5947 110.292 53.4053 110.292 54.6C110.292 55.7947 110.1 57.0107 109.716 58.248C109.375 59.4427 108.948 60.168 108.436 60.424C107.668 60.808 106.282 61 104.276 61C102.058 61 100.01 60.8293 98.1323 60.488C96.2976 60.1467 95.4016 59.7413 95.4443 59.272C94.8043 58.632 94.4843 57.2667 94.4843 55.176ZM141.963 43.976C141.963 40.776 142.625 37.5333 143.947 34.248C145.27 30.92 147.041 27.912 149.259 25.224C151.521 22.536 154.315 20.3387 157.643 18.632C160.971 16.9253 164.491 16.072 168.203 16.072C173.622 16.072 177.675 17.7787 180.363 21.192C183.094 24.6053 184.459 28.936 184.459 34.184C184.459 37.3413 183.969 40.4987 182.987 43.656C182.006 46.7707 180.577 49.6933 178.699 52.424C176.865 55.1547 174.369 57.3733 171.211 59.08C168.097 60.7867 164.598 61.64 160.715 61.64C155.169 61.64 150.646 60.04 147.147 56.84C143.691 53.5973 141.963 49.3093 141.963 43.976ZM151.499 42.952C151.499 46.0667 152.331 48.5627 153.995 50.44C155.659 52.2747 157.835 53.192 160.523 53.192C163.339 53.192 165.942 52.1467 168.331 50.056C170.721 47.9653 172.534 45.4907 173.771 42.632C175.009 39.7733 175.627 37.0213 175.627 34.376C175.627 31.56 174.859 29.2773 173.323 27.528C171.83 25.736 169.633 24.84 166.731 24.84C163.745 24.84 161.057 25.8213 158.667 27.784C156.278 29.704 154.486 32.0293 153.291 34.76C152.097 37.4907 151.499 40.2213 151.499 42.952ZM190.047 55.176C190.047 53.384 190.367 52.3387 191.007 52.04C191.988 51.4427 192.671 51.144 193.055 51.144C193.311 51.144 193.652 51.1867 194.079 51.272C193.567 47.0053 193.311 42.7173 193.311 38.408C193.311 34.2693 193.567 30.152 194.079 26.056C193.567 26.1413 193.161 26.184 192.863 26.184C192.223 26.184 191.604 25.8853 191.007 25.288C190.665 24.776 190.495 23.56 190.495 21.64C190.495 19.7627 190.665 18.568 191.007 18.056C190.964 17.5867 191.86 17.1813 193.695 16.84C195.572 16.4987 197.62 16.328 199.839 16.328C201.844 16.328 203.231 16.52 203.999 16.904C205.236 17.544 205.855 19.0373 205.855 21.384C205.855 22.8347 205.663 24.0933 205.279 25.16C204.468 25.7147 203.7 25.992 202.975 25.992C202.633 25.992 202.228 25.928 201.759 25.8C203.636 27.208 206.601 29.64 210.655 33.096C214.708 36.5093 217.673 39.1973 219.551 41.16C219.551 34.8453 219.807 29.8107 220.319 26.056C220.063 26.0987 219.679 26.12 219.167 26.12C218.484 26.12 217.844 25.8427 217.247 25.288C216.607 24.1787 216.287 22.7707 216.287 21.064C216.287 19.528 216.607 18.5253 217.247 18.056C218.825 16.8613 221.407 16.264 224.991 16.264C227.551 16.264 229.3 16.4773 230.239 16.904C231.647 17.7147 232.351 19.4 232.351 21.96C232.351 23.368 232.073 24.4347 231.519 25.16C230.409 25.672 229.599 25.928 229.087 25.928C228.788 25.928 228.425 25.8853 227.999 25.8C228.511 29.256 228.767 33.0107 228.767 37.064C228.767 40.392 228.511 45.2133 227.999 51.528C228.511 51.4 228.852 51.336 229.023 51.336C230.132 51.336 230.964 51.6133 231.519 52.168C231.988 52.7653 232.223 53.64 232.223 54.792C232.223 55.8587 232.031 56.968 231.647 58.12C231.263 59.2293 230.793 59.9973 230.239 60.424C229.385 60.808 227.295 61 223.967 61C220.468 61 218.228 60.4453 217.247 59.336C216.607 58.696 216.287 57.3307 216.287 55.24C216.287 53.5333 216.607 52.4667 217.247 52.04C218.1 51.4427 218.719 51.144 219.103 51.144C219.359 51.144 219.7 51.1867 220.127 51.272C218.42 50.1627 215.391 47.5813 211.039 43.528C206.687 39.432 203.828 36.8507 202.463 35.784C202.377 41.8427 202.143 47.0907 201.759 51.528C202.271 51.4427 202.719 51.4 203.103 51.4C203.956 51.4 204.681 51.656 205.279 52.168C205.663 52.5947 205.855 53.4053 205.855 54.6C205.855 55.7947 205.663 57.0107 205.279 58.248C204.937 59.4427 204.511 60.168 203.999 60.424C203.231 60.808 201.844 61 199.839 61C197.62 61 195.572 60.8293 193.695 60.488C191.86 60.1467 190.964 59.7413 191.007 59.272C190.367 58.632 190.047 57.2667 190.047 55.176ZM251.35 54.408C251.35 53.7253 251.692 52.616 252.374 51.08C253.142 50.696 253.996 50.504 254.934 50.504C255.361 50.504 255.702 50.568 255.958 50.696C255.446 46.8987 255.19 43.0373 255.19 39.112C255.19 33.352 255.638 28.616 256.534 24.904C255.553 25.1173 254.764 25.224 254.166 25.224C253.398 25.224 252.801 25.0747 252.374 24.776C251.777 23.9227 251.478 22.6 251.478 20.808C251.478 19.6987 251.884 18.5893 252.694 17.48C254.06 16.84 256.556 16.3493 260.182 16.008C263.809 15.624 267.308 15.432 270.678 15.432C278.529 15.432 284.844 16.2427 289.622 17.864C290.049 19.9973 290.262 21.64 290.262 22.792C290.262 24.7973 289.772 26.44 288.79 27.72C287.724 27.976 286.806 28.104 286.038 28.104C284.673 28.104 282.924 27.4 280.79 25.992L280.982 23.88C280.172 23.3253 277.953 23.048 274.326 23.048C273.046 23.048 271.404 23.112 269.398 23.24C267.393 23.368 266.369 23.496 266.326 23.624C266.497 25.16 266.582 26.2907 266.582 27.016C266.582 30.8133 266.305 33.416 265.75 34.824C269.932 34.824 272.044 34.76 272.086 34.632C272.044 34.504 272.022 34.312 272.022 34.056C272.022 33.5867 272.214 33.0107 272.598 32.328C272.854 32.1147 273.558 32.008 274.71 32.008C276.502 32.008 277.74 32.1573 278.422 32.456C279.276 33.864 279.702 35.8907 279.702 38.536C279.702 40.9253 279.254 42.568 278.358 43.464C278.017 43.7627 277.014 43.912 275.35 43.912C273.686 43.912 272.726 43.7627 272.47 43.464C272.086 42.952 271.894 42.312 271.894 41.544L265.43 41.864C265.43 44.3813 265.196 47.88 264.726 52.36C265.409 52.9573 266.796 53.4267 268.886 53.768C270.977 54.0667 272.705 54.216 274.07 54.216C275.094 54.216 276.353 54.1093 277.846 53.896C279.382 53.64 280.428 53.3627 280.982 53.064L280.79 50.952C282.924 49.544 284.694 48.84 286.102 48.84C286.87 48.84 287.766 48.968 288.79 49.224C289.772 50.504 290.262 52.1467 290.262 54.152C290.262 55.304 290.049 56.9467 289.622 59.08C286.422 60.9147 280.62 61.832 272.214 61.832C268.118 61.832 264.214 61.5973 260.502 61.128C256.79 60.7013 254.188 60.1467 252.694 59.464C252.182 58.824 251.82 58.184 251.606 57.544C251.436 56.904 251.35 55.8587 251.35 54.408ZM294.651 43.976C294.651 40.776 295.312 37.5333 296.635 34.248C297.957 30.92 299.728 27.912 301.947 25.224C304.208 22.536 307.003 20.3387 310.331 18.632C313.659 16.9253 317.179 16.072 320.891 16.072C326.309 16.072 330.363 17.7787 333.051 21.192C335.781 24.6053 337.147 28.936 337.147 34.184C337.147 37.3413 336.656 40.4987 335.675 43.656C334.693 46.7707 333.264 49.6933 331.387 52.424C329.552 55.1547 327.056 57.3733 323.899 59.08C320.784 60.7867 317.285 61.64 313.403 61.64C307.856 61.64 303.333 60.04 299.835 56.84C296.379 53.5973 294.651 49.3093 294.651 43.976ZM304.187 42.952C304.187 46.0667 305.019 48.5627 306.683 50.44C308.347 52.2747 310.523 53.192 313.211 53.192C316.027 53.192 318.629 52.1467 321.019 50.056C323.408 47.9653 325.221 45.4907 326.459 42.632C327.696 39.7733 328.315 37.0213 328.315 34.376C328.315 31.56 327.547 29.2773 326.011 27.528C324.517 25.736 322.32 24.84 319.419 24.84C316.432 24.84 313.744 25.8213 311.355 27.784C308.965 29.704 307.173 32.0293 305.979 34.76C304.784 37.4907 304.187 40.2213 304.187 42.952ZM342.343 54.536C342.343 52.4453 342.748 50.6533 343.559 49.16C345.436 48.5627 346.652 48.264 347.207 48.264C348.231 48.264 349.788 48.5627 351.879 49.16C352.092 49.7147 352.241 50.5253 352.327 51.592C354.375 52.9573 356.679 53.64 359.239 53.64C361.585 53.64 363.633 52.9573 365.383 51.592C367.175 50.184 368.071 48.6267 368.071 46.92C368.071 44.488 365.724 43.1867 361.031 43.016C359.239 42.9307 357.681 42.824 356.359 42.696C355.036 42.5253 353.457 42.2053 351.623 41.736C349.831 41.224 348.359 40.5627 347.207 39.752C346.055 38.9413 345.052 37.8107 344.199 36.36C343.388 34.8667 342.983 33.1173 342.983 31.112C342.983 26.8453 344.54 23.1973 347.655 20.168C350.769 17.096 354.503 15.56 358.855 15.56C361.884 15.56 364.785 16.328 367.559 17.864C367.815 16.584 368.263 15.688 368.903 15.176C369.713 14.7493 370.737 14.536 371.975 14.536C373.937 14.536 375.303 14.92 376.071 15.688C376.327 16.456 376.455 18.376 376.455 21.448C376.455 23.496 376.263 24.9467 375.879 25.8C375.537 26.6533 374.855 27.1867 373.831 27.4C373.105 27.6133 372.401 27.72 371.719 27.72C370.183 27.72 368.924 27.4 367.943 26.76C367.687 26.12 367.559 25.416 367.559 24.648C366.108 23.9227 363.996 23.56 361.223 23.56C358.236 23.56 355.953 24.0507 354.375 25.032C352.796 25.9707 352.007 27.5707 352.007 29.832C352.007 31.496 352.476 32.712 353.415 33.48C354.396 34.2053 355.953 34.6107 358.087 34.696C364.145 34.9947 368.263 35.4853 370.439 36.168C375.089 37.576 377.415 40.648 377.415 45.384C377.415 49.864 375.751 53.704 372.423 56.904C369.095 60.0613 364.828 61.64 359.623 61.64C356.679 61.64 354.119 60.8507 351.943 59.272C351.943 60.3387 351.729 61.128 351.303 61.64C350.535 62.0667 349.276 62.28 347.527 62.28C345.649 62.28 344.369 61.96 343.687 61.32C342.791 59.6133 342.343 57.352 342.343 54.536ZM394.954 24.648C394.954 22.9413 395.104 21.7893 395.402 21.192C395.957 20.04 397.152 18.9307 398.986 17.864C400.821 16.7973 403.296 16.264 406.41 16.264C407.904 16.264 409.077 16.456 409.93 16.84C410.528 18.0773 410.826 22.408 410.826 29.832C410.826 40.3707 410.528 47.5813 409.93 51.464C410.186 51.4213 410.549 51.4 411.018 51.4C412.128 51.4 413.152 51.6347 414.09 52.104C414.218 52.3173 414.282 52.7013 414.282 53.256C414.282 54.408 414.112 55.7093 413.77 57.16C413.472 58.6107 413.066 59.592 412.554 60.104C412.213 60.4453 411.68 60.68 410.954 60.808C410.272 60.8933 408.928 60.936 406.922 60.936C403.381 60.936 400.97 60.8293 399.69 60.616C398.453 60.36 397.642 59.8907 397.258 59.208C396.96 58.6533 396.81 57.5227 396.81 55.816C396.81 53.64 396.938 52.36 397.194 51.976L400.778 51.4C401.632 51.272 402.122 51.208 402.25 51.208C401.738 46.8987 401.482 42.6107 401.482 38.344C401.482 34.2053 401.738 30.088 402.25 25.992C400.288 27.3573 397.984 28.168 395.338 28.424C395.082 28.168 394.954 26.9093 394.954 24.648ZM419.145 60.744C419.145 59.0373 419.315 57.224 419.657 55.304C420.041 53.3413 420.681 51.272 421.577 49.096C422.473 46.8773 423.582 44.872 424.905 43.08C426.27 41.288 428.041 39.7307 430.217 38.408C432.393 37.0853 434.825 36.2747 437.513 35.976C439.219 35.8053 440.521 35.656 441.417 35.528C442.313 35.3573 443.23 35.1013 444.169 34.76C445.15 34.4187 445.833 33.9493 446.217 33.352C446.643 32.7547 446.857 32.008 446.857 31.112C446.857 29.0213 445.833 27.144 443.785 25.48C441.779 23.816 439.347 22.984 436.489 22.984C432.99 22.984 430.601 24.1787 429.321 26.568C429.321 27.336 429.193 28.04 428.937 28.68C428.254 29.1493 426.675 29.384 424.201 29.384C423.945 29.384 423.71 29.384 423.497 29.384C423.283 29.3413 423.134 29.32 423.049 29.32C421.299 28.936 420.425 26.5253 420.425 22.088C420.425 19.8693 420.553 18.376 420.809 17.608C421.15 17.352 421.939 17.1173 423.177 16.904C424.414 16.6907 425.587 16.584 426.697 16.584C427.635 16.584 428.19 16.6693 428.361 16.84C428.574 17.0107 428.723 17.16 428.809 17.288C428.894 17.3733 428.958 17.4587 429.001 17.544C429.043 17.5867 429.086 17.7147 429.129 17.928C429.171 18.0987 429.235 18.2907 429.321 18.504C432.435 16.5413 435.849 15.56 439.561 15.56C444.254 15.56 448.009 17.096 450.825 20.168C453.641 23.1973 455.049 26.824 455.049 31.048C455.049 38.216 450.355 42.2053 440.969 43.016C439.859 43.1013 438.942 43.1867 438.217 43.272C437.491 43.3573 436.531 43.592 435.337 43.976C434.185 44.3173 433.246 44.744 432.521 45.256C431.838 45.768 431.219 46.536 430.665 47.56C430.11 48.5413 429.833 49.7147 429.833 51.08C429.833 51.8053 429.875 52.3813 429.961 52.808C432.862 53.4053 436.446 53.704 440.713 53.704C443.059 53.704 445.321 53.2773 447.497 52.424C447.454 52.296 447.433 52.1467 447.433 51.976C447.433 51.7627 447.475 51.5493 447.561 51.336C447.646 51.1227 447.774 50.8667 447.945 50.568C448.115 50.2693 448.243 50.056 448.329 49.928C449.054 49.5013 450.035 49.288 451.273 49.288C452.467 49.288 453.427 49.5013 454.153 49.928C455.305 50.568 455.881 52.168 455.881 54.728C455.881 56.3493 455.731 57.7787 455.433 59.016C455.134 60.2533 454.857 61.0853 454.601 61.512C454.345 61.9387 454.153 62.1947 454.025 62.28C452.958 62.4933 451.657 62.6 450.121 62.6C448.03 62.6 446.921 62.3867 446.793 61.96C446.409 60.424 446.195 59.4853 446.153 59.144C444.617 60.424 441.459 61.064 436.681 61.064C435.529 61.064 432.649 60.936 428.041 60.68C427.998 61.3627 427.827 61.7467 427.529 61.832C427.145 62.344 425.63 62.6 422.985 62.6C421.107 62.6 419.849 62.4933 419.209 62.28C419.166 61.9813 419.145 61.4693 419.145 60.744ZM460.838 43.848C460.838 40.6907 461.5 37.4693 462.822 34.184C464.145 30.8987 465.916 27.912 468.134 25.224C470.396 22.536 473.19 20.3387 476.518 18.632C479.846 16.9253 483.366 16.072 487.078 16.072C492.54 16.072 496.614 17.8 499.302 21.256C501.99 24.6693 503.334 29.0427 503.334 34.376C503.334 36.8933 503.036 39.4107 502.438 41.928C501.884 44.4453 500.966 46.8987 499.686 49.288C498.406 51.6347 496.849 53.7253 495.014 55.56C493.222 57.3947 490.982 58.8667 488.294 59.976C485.649 61.0853 482.726 61.64 479.526 61.64C473.809 61.64 469.265 59.976 465.894 56.648C462.524 53.32 460.838 49.0533 460.838 43.848ZM471.142 42.952C471.142 46.0667 471.974 48.5627 473.638 50.44C475.302 52.2747 477.478 53.192 480.166 53.192C482.982 53.192 485.585 52.1467 487.974 50.056C490.364 47.9653 492.177 45.4907 493.414 42.632C494.652 39.7733 495.27 37.0213 495.27 34.376C495.27 31.56 494.502 29.2773 492.966 27.528C491.473 25.736 489.276 24.84 486.374 24.84C483.388 24.84 480.7 25.8213 478.31 27.784C475.921 29.704 474.129 32.0293 472.934 34.76C471.74 37.4907 471.142 40.2213 471.142 42.952ZM508.338 43.848C508.338 40.6907 509 37.4693 510.322 34.184C511.645 30.8987 513.416 27.912 515.634 25.224C517.896 22.536 520.69 20.3387 524.018 18.632C527.346 16.9253 530.866 16.072 534.578 16.072C540.04 16.072 544.114 17.8 546.802 21.256C549.49 24.6693 550.834 29.0427 550.834 34.376C550.834 36.8933 550.536 39.4107 549.938 41.928C549.384 44.4453 548.466 46.8987 547.186 49.288C545.906 51.6347 544.349 53.7253 542.514 55.56C540.722 57.3947 538.482 58.8667 535.794 59.976C533.149 61.0853 530.226 61.64 527.026 61.64C521.309 61.64 516.765 59.976 513.394 56.648C510.024 53.32 508.338 49.0533 508.338 43.848ZM518.642 42.952C518.642 46.0667 519.474 48.5627 521.138 50.44C522.802 52.2747 524.978 53.192 527.666 53.192C530.482 53.192 533.085 52.1467 535.474 50.056C537.864 47.9653 539.677 45.4907 540.914 42.632C542.152 39.7733 542.77 37.0213 542.77 34.376C542.77 31.56 542.002 29.2773 540.466 27.528C538.973 25.736 536.776 24.84 533.874 24.84C530.888 24.84 528.2 25.8213 525.81 27.784C523.421 29.704 521.629 32.0293 520.434 34.76C519.24 37.4907 518.642 40.2213 518.642 42.952ZM556.286 21.704C556.286 20.7653 556.478 20.0613 556.862 19.592C560.916 17.288 565.396 16.136 570.302 16.136C574.782 16.136 578.686 16.7333 582.014 17.928C585.385 19.1227 588.073 20.8293 590.078 23.048C592.126 25.2667 593.641 27.8267 594.622 30.728C595.604 33.5867 596.094 36.808 596.094 40.392C596.094 47.4747 594.132 52.7867 590.206 56.328C586.281 59.8693 580.094 61.64 571.646 61.64C566.654 61.64 561.876 60.744 557.31 58.952C556.884 58.5253 556.67 57.0533 556.67 54.536C556.67 53.128 556.734 52.2107 556.862 51.784C556.99 51.144 557.886 50.824 559.55 50.824C560.02 50.824 560.553 50.8667 561.15 50.952C560.724 47.9653 560.51 43.9973 560.51 39.048C560.51 34.6533 560.766 30.6 561.278 26.888C560.809 27.016 560.233 27.08 559.55 27.08C557.886 27.08 556.99 26.76 556.862 26.12C556.478 24.4987 556.286 23.0267 556.286 21.704ZM570.302 52.488C571.54 52.9147 572.884 53.128 574.334 53.128C577.876 53.128 580.926 51.912 583.486 49.48C586.089 47.0053 587.39 43.8267 587.39 39.944C587.39 35.976 586.11 32.4133 583.55 29.256C580.99 26.0987 577.918 24.52 574.334 24.52C572.841 24.52 571.497 24.8187 570.302 25.416C570.686 29.256 570.878 33.6293 570.878 38.536C570.878 44.3813 570.686 49.032 570.302 52.488Z" fill="#05A498"/>
<mask id="mask0" mask-type="alpha" maskUnits="userSpaceOnUse" x="2" y="14" width="595" height="49">
<path d="M2.78025 38.984C2.78025 32.456 4.44425 26.952 7.77225 22.472C11.1429 17.992 15.6016 15.752 21.1483 15.752C25.2016 15.752 28.1883 16.6907 30.1083 18.568C30.1936 17.288 30.6416 16.4987 31.4523 16.2C32.5189 15.7307 33.8203 15.496 35.3563 15.496C37.3616 15.496 38.9403 15.9227 40.0923 16.776C40.1349 17.2453 40.2203 17.992 40.3483 19.016C40.5189 19.9973 40.6469 20.8933 40.7323 21.704C40.8176 22.5147 40.8603 23.2613 40.8603 23.944C40.8603 26.5893 40.0923 28.5947 38.5563 29.96C37.6603 30.9413 36.1883 31.432 34.1403 31.432C32.0069 31.432 30.4069 30.9413 29.3403 29.96C29.2976 29.8747 29.2763 29.6827 29.2763 29.384C29.2763 28.872 29.3403 28.5307 29.4683 28.36C28.7429 26.7813 27.5696 25.5653 25.9483 24.712C24.3269 23.8587 22.8549 23.432 21.5323 23.432C19.0576 23.432 16.7536 25.032 14.6203 28.232C12.5296 31.3893 11.4843 35.016 11.4843 39.112C11.4843 42.9947 12.4656 46.152 14.4283 48.584C16.4336 50.9733 18.7376 52.168 21.3403 52.168C22.6629 52.168 24.1349 51.8693 25.7563 51.272C27.3776 50.6747 28.5723 49.8427 29.3403 48.776C29.2123 48.008 29.1483 47.5813 29.1483 47.496C29.1483 47.4107 29.1483 47.3253 29.1483 47.24C29.1909 47.1547 29.2123 47.0907 29.2123 47.048C30.7909 46.3227 32.1776 45.96 33.3723 45.96C34.5669 45.96 36.3163 46.3867 38.6203 47.24C40.1563 48.6053 40.9243 50.5893 40.9243 53.192C40.9243 53.8747 40.8603 54.6427 40.7323 55.496C40.6469 56.3067 40.5189 57.2027 40.3483 58.184C40.2203 59.1653 40.1349 59.912 40.0923 60.424C38.7696 61.4907 37.0629 62.024 34.9723 62.024C33.4363 62.024 32.2629 61.6827 31.4523 61C30.5563 60.6587 30.1083 59.8267 30.1083 58.504C27.2923 60.424 24.4336 61.384 21.5323 61.384C19.2709 61.384 17.0523 60.9147 14.8763 59.976C12.7003 59.0373 10.6949 57.672 8.86025 55.88C7.02558 54.088 5.55358 51.7413 4.44425 48.84C3.33492 45.896 2.78025 42.6107 2.78025 38.984ZM43.6638 56.584C43.6638 54.7067 43.8558 53.448 44.2398 52.808C44.6238 52.1253 45.4344 51.784 46.6718 51.784C47.9944 51.784 48.6558 51.9547 48.6558 52.296C48.9544 50.504 51.2158 44.1253 55.4398 33.16C59.7064 22.152 62.0744 16.6053 62.5438 16.52C63.9091 16.3067 65.5731 16.2 67.5358 16.2C68.5598 16.2 70.0318 16.3067 71.9518 16.52C72.4211 16.7333 74.7678 22.3227 78.9918 33.288C83.2584 44.2107 85.5411 50.5467 85.8398 52.296C85.8398 51.9547 86.5011 51.784 87.8238 51.784C89.0611 51.784 89.8718 52.1253 90.2558 52.808C90.6398 53.448 90.8318 54.7067 90.8318 56.584C90.8318 58.76 90.5971 59.976 90.1278 60.232C89.5731 60.744 86.2451 61 80.1438 61C75.7491 61 73.5518 60.7653 73.5518 60.296C72.6131 59.7413 72.1438 57.8427 72.1438 54.6C72.1438 54.1307 72.1651 53.768 72.2078 53.512C72.2504 53.256 72.4211 53 72.7198 52.744C73.0184 52.488 73.4451 52.36 73.9998 52.36C75.2371 52.36 75.8558 52.4453 75.8558 52.616C76.0264 52.616 76.1118 52.4027 76.1118 51.976C76.1118 50.9093 75.5358 48.4773 74.3838 44.68C72.6344 44.8507 70.3091 44.936 67.4078 44.936C64.2931 44.936 61.8611 44.8507 60.1118 44.68C58.9598 48.52 58.3838 50.9733 58.3838 52.04C58.3838 52.3813 58.4691 52.5733 58.6398 52.616C58.8958 52.4453 59.4504 52.36 60.3038 52.36C60.9438 52.36 61.4131 52.5093 61.7118 52.808C62.0531 53.1067 62.2451 53.4053 62.2878 53.704C62.3304 54.0027 62.3518 54.4933 62.3518 55.176C62.3518 57.992 61.8824 59.6987 60.9438 60.296C60.9438 60.7653 58.7464 61 54.3518 61C48.2504 61 44.9224 60.744 44.3678 60.232C43.8984 59.976 43.6638 58.76 43.6638 56.584ZM62.4158 37.256C64.0371 37.128 65.5944 37.064 67.0878 37.064C68.8371 37.064 70.4798 37.1493 72.0158 37.32C70.0958 31.6453 68.4958 27.2507 67.2158 24.136C66.0211 27.08 64.4211 31.4533 62.4158 37.256ZM94.4843 55.176C94.4843 53.384 94.8043 52.3387 95.4443 52.04C96.4256 51.4427 97.1083 51.144 97.4923 51.144C97.7483 51.144 98.0896 51.1867 98.5163 51.272C98.0043 47.0053 97.7483 42.7173 97.7483 38.408C97.7483 34.2693 98.0043 30.152 98.5163 26.056C98.0043 26.1413 97.5989 26.184 97.3003 26.184C96.6603 26.184 96.0416 25.8853 95.4443 25.288C95.1029 24.776 94.9323 23.56 94.9323 21.64C94.9323 19.7627 95.1029 18.568 95.4443 18.056C95.4016 17.5867 96.2976 17.1813 98.1323 16.84C100.01 16.4987 102.058 16.328 104.276 16.328C106.282 16.328 107.668 16.52 108.436 16.904C109.674 17.544 110.292 19.0373 110.292 21.384C110.292 22.8347 110.1 24.0933 109.716 25.16C108.906 25.7147 108.138 25.992 107.412 25.992C107.071 25.992 106.666 25.928 106.196 25.8C108.074 27.208 111.039 29.64 115.092 33.096C119.146 36.5093 122.111 39.1973 123.988 41.16C123.988 34.8453 124.244 29.8107 124.756 26.056C124.5 26.0987 124.116 26.12 123.604 26.12C122.922 26.12 122.282 25.8427 121.684 25.288C121.044 24.1787 120.724 22.7707 120.724 21.064C120.724 19.528 121.044 18.5253 121.684 18.056C123.263 16.8613 125.844 16.264 129.428 16.264C131.988 16.264 133.738 16.4773 134.676 16.904C136.084 17.7147 136.788 19.4 136.788 21.96C136.788 23.368 136.511 24.4347 135.956 25.16C134.847 25.672 134.036 25.928 133.524 25.928C133.226 25.928 132.863 25.8853 132.436 25.8C132.948 29.256 133.204 33.0107 133.204 37.064C133.204 40.392 132.948 45.2133 132.436 51.528C132.948 51.4 133.29 51.336 133.46 51.336C134.57 51.336 135.402 51.6133 135.956 52.168C136.426 52.7653 136.66 53.64 136.66 54.792C136.66 55.8587 136.468 56.968 136.084 58.12C135.7 59.2293 135.231 59.9973 134.676 60.424C133.823 60.808 131.732 61 128.404 61C124.906 61 122.666 60.4453 121.684 59.336C121.044 58.696 120.724 57.3307 120.724 55.24C120.724 53.5333 121.044 52.4667 121.684 52.04C122.538 51.4427 123.156 51.144 123.54 51.144C123.796 51.144 124.138 51.1867 124.564 51.272C122.858 50.1627 119.828 47.5813 115.476 43.528C111.124 39.432 108.266 36.8507 106.9 35.784C106.815 41.8427 106.58 47.0907 106.196 51.528C106.708 51.4427 107.156 51.4 107.54 51.4C108.394 51.4 109.119 51.656 109.716 52.168C110.1 52.5947 110.292 53.4053 110.292 54.6C110.292 55.7947 110.1 57.0107 109.716 58.248C109.375 59.4427 108.948 60.168 108.436 60.424C107.668 60.808 106.282 61 104.276 61C102.058 61 100.01 60.8293 98.1323 60.488C96.2976 60.1467 95.4016 59.7413 95.4443 59.272C94.8043 58.632 94.4843 57.2667 94.4843 55.176ZM141.963 43.976C141.963 40.776 142.625 37.5333 143.947 34.248C145.27 30.92 147.041 27.912 149.259 25.224C151.521 22.536 154.315 20.3387 157.643 18.632C160.971 16.9253 164.491 16.072 168.203 16.072C173.622 16.072 177.675 17.7787 180.363 21.192C183.094 24.6053 184.459 28.936 184.459 34.184C184.459 37.3413 183.969 40.4987 182.987 43.656C182.006 46.7707 180.577 49.6933 178.699 52.424C176.865 55.1547 174.369 57.3733 171.211 59.08C168.097 60.7867 164.598 61.64 160.715 61.64C155.169 61.64 150.646 60.04 147.147 56.84C143.691 53.5973 141.963 49.3093 141.963 43.976ZM151.499 42.952C151.499 46.0667 152.331 48.5627 153.995 50.44C155.659 52.2747 157.835 53.192 160.523 53.192C163.339 53.192 165.942 52.1467 168.331 50.056C170.721 47.9653 172.534 45.4907 173.771 42.632C175.009 39.7733 175.627 37.0213 175.627 34.376C175.627 31.56 174.859 29.2773 173.323 27.528C171.83 25.736 169.633 24.84 166.731 24.84C163.745 24.84 161.057 25.8213 158.667 27.784C156.278 29.704 154.486 32.0293 153.291 34.76C152.097 37.4907 151.499 40.2213 151.499 42.952ZM190.047 55.176C190.047 53.384 190.367 52.3387 191.007 52.04C191.988 51.4427 192.671 51.144 193.055 51.144C193.311 51.144 193.652 51.1867 194.079 51.272C193.567 47.0053 193.311 42.7173 193.311 38.408C193.311 34.2693 193.567 30.152 194.079 26.056C193.567 26.1413 193.161 26.184 192.863 26.184C192.223 26.184 191.604 25.8853 191.007 25.288C190.665 24.776 190.495 23.56 190.495 21.64C190.495 19.7627 190.665 18.568 191.007 18.056C190.964 17.5867 191.86 17.1813 193.695 16.84C195.572 16.4987 197.62 16.328 199.839 16.328C201.844 16.328 203.231 16.52 203.999 16.904C205.236 17.544 205.855 19.0373 205.855 21.384C205.855 22.8347 205.663 24.0933 205.279 25.16C204.468 25.7147 203.7 25.992 202.975 25.992C202.633 25.992 202.228 25.928 201.759 25.8C203.636 27.208 206.601 29.64 210.655 33.096C214.708 36.5093 217.673 39.1973 219.551 41.16C219.551 34.8453 219.807 29.8107 220.319 26.056C220.063 26.0987 219.679 26.12 219.167 26.12C218.484 26.12 217.844 25.8427 217.247 25.288C216.607 24.1787 216.287 22.7707 216.287 21.064C216.287 19.528 216.607 18.5253 217.247 18.056C218.825 16.8613 221.407 16.264 224.991 16.264C227.551 16.264 229.3 16.4773 230.239 16.904C231.647 17.7147 232.351 19.4 232.351 21.96C232.351 23.368 232.073 24.4347 231.519 25.16C230.409 25.672 229.599 25.928 229.087 25.928C228.788 25.928 228.425 25.8853 227.999 25.8C228.511 29.256 228.767 33.0107 228.767 37.064C228.767 40.392 228.511 45.2133 227.999 51.528C228.511 51.4 228.852 51.336 229.023 51.336C230.132 51.336 230.964 51.6133 231.519 52.168C231.988 52.7653 232.223 53.64 232.223 54.792C232.223 55.8587 232.031 56.968 231.647 58.12C231.263 59.2293 230.793 59.9973 230.239 60.424C229.385 60.808 227.295 61 223.967 61C220.468 61 218.228 60.4453 217.247 59.336C216.607 58.696 216.287 57.3307 216.287 55.24C216.287 53.5333 216.607 52.4667 217.247 52.04C218.1 51.4427 218.719 51.144 219.103 51.144C219.359 51.144 219.7 51.1867 220.127 51.272C218.42 50.1627 215.391 47.5813 211.039 43.528C206.687 39.432 203.828 36.8507 202.463 35.784C202.377 41.8427 202.143 47.0907 201.759 51.528C202.271 51.4427 202.719 51.4 203.103 51.4C203.956 51.4 204.681 51.656 205.279 52.168C205.663 52.5947 205.855 53.4053 205.855 54.6C205.855 55.7947 205.663 57.0107 205.279 58.248C204.937 59.4427 204.511 60.168 203.999 60.424C203.231 60.808 201.844 61 199.839 61C197.62 61 195.572 60.8293 193.695 60.488C191.86 60.1467 190.964 59.7413 191.007 59.272C190.367 58.632 190.047 57.2667 190.047 55.176ZM251.35 54.408C251.35 53.7253 251.692 52.616 252.374 51.08C253.142 50.696 253.996 50.504 254.934 50.504C255.361 50.504 255.702 50.568 255.958 50.696C255.446 46.8987 255.19 43.0373 255.19 39.112C255.19 33.352 255.638 28.616 256.534 24.904C255.553 25.1173 254.764 25.224 254.166 25.224C253.398 25.224 252.801 25.0747 252.374 24.776C251.777 23.9227 251.478 22.6 251.478 20.808C251.478 19.6987 251.884 18.5893 252.694 17.48C254.06 16.84 256.556 16.3493 260.182 16.008C263.809 15.624 267.308 15.432 270.678 15.432C278.529 15.432 284.844 16.2427 289.622 17.864C290.049 19.9973 290.262 21.64 290.262 22.792C290.262 24.7973 289.772 26.44 288.79 27.72C287.724 27.976 286.806 28.104 286.038 28.104C284.673 28.104 282.924 27.4 280.79 25.992L280.982 23.88C280.172 23.3253 277.953 23.048 274.326 23.048C273.046 23.048 271.404 23.112 269.398 23.24C267.393 23.368 266.369 23.496 266.326 23.624C266.497 25.16 266.582 26.2907 266.582 27.016C266.582 30.8133 266.305 33.416 265.75 34.824C269.932 34.824 272.044 34.76 272.086 34.632C272.044 34.504 272.022 34.312 272.022 34.056C272.022 33.5867 272.214 33.0107 272.598 32.328C272.854 32.1147 273.558 32.008 274.71 32.008C276.502 32.008 277.74 32.1573 278.422 32.456C279.276 33.864 279.702 35.8907 279.702 38.536C279.702 40.9253 279.254 42.568 278.358 43.464C278.017 43.7627 277.014 43.912 275.35 43.912C273.686 43.912 272.726 43.7627 272.47 43.464C272.086 42.952 271.894 42.312 271.894 41.544L265.43 41.864C265.43 44.3813 265.196 47.88 264.726 52.36C265.409 52.9573 266.796 53.4267 268.886 53.768C270.977 54.0667 272.705 54.216 274.07 54.216C275.094 54.216 276.353 54.1093 277.846 53.896C279.382 53.64 280.428 53.3627 280.982 53.064L280.79 50.952C282.924 49.544 284.694 48.84 286.102 48.84C286.87 48.84 287.766 48.968 288.79 49.224C289.772 50.504 290.262 52.1467 290.262 54.152C290.262 55.304 290.049 56.9467 289.622 59.08C286.422 60.9147 280.62 61.832 272.214 61.832C268.118 61.832 264.214 61.5973 260.502 61.128C256.79 60.7013 254.188 60.1467 252.694 59.464C252.182 58.824 251.82 58.184 251.606 57.544C251.436 56.904 251.35 55.8587 251.35 54.408ZM294.651 43.976C294.651 40.776 295.312 37.5333 296.635 34.248C297.957 30.92 299.728 27.912 301.947 25.224C304.208 22.536 307.003 20.3387 310.331 18.632C313.659 16.9253 317.179 16.072 320.891 16.072C326.309 16.072 330.363 17.7787 333.051 21.192C335.781 24.6053 337.147 28.936 337.147 34.184C337.147 37.3413 336.656 40.4987 335.675 43.656C334.693 46.7707 333.264 49.6933 331.387 52.424C329.552 55.1547 327.056 57.3733 323.899 59.08C320.784 60.7867 317.285 61.64 313.403 61.64C307.856 61.64 303.333 60.04 299.835 56.84C296.379 53.5973 294.651 49.3093 294.651 43.976ZM304.187 42.952C304.187 46.0667 305.019 48.5627 306.683 50.44C308.347 52.2747 310.523 53.192 313.211 53.192C316.027 53.192 318.629 52.1467 321.019 50.056C323.408 47.9653 325.221 45.4907 326.459 42.632C327.696 39.7733 328.315 37.0213 328.315 34.376C328.315 31.56 327.547 29.2773 326.011 27.528C324.517 25.736 322.32 24.84 319.419 24.84C316.432 24.84 313.744 25.8213 311.355 27.784C308.965 29.704 307.173 32.0293 305.979 34.76C304.784 37.4907 304.187 40.2213 304.187 42.952ZM342.343 54.536C342.343 52.4453 342.748 50.6533 343.559 49.16C345.436 48.5627 346.652 48.264 347.207 48.264C348.231 48.264 349.788 48.5627 351.879 49.16C352.092 49.7147 352.241 50.5253 352.327 51.592C354.375 52.9573 356.679 53.64 359.239 53.64C361.585 53.64 363.633 52.9573 365.383 51.592C367.175 50.184 368.071 48.6267 368.071 46.92C368.071 44.488 365.724 43.1867 361.031 43.016C359.239 42.9307 357.681 42.824 356.359 42.696C355.036 42.5253 353.457 42.2053 351.623 41.736C349.831 41.224 348.359 40.5627 347.207 39.752C346.055 38.9413 345.052 37.8107 344.199 36.36C343.388 34.8667 342.983 33.1173 342.983 31.112C342.983 26.8453 344.54 23.1973 347.655 20.168C350.769 17.096 354.503 15.56 358.855 15.56C361.884 15.56 364.785 16.328 367.559 17.864C367.815 16.584 368.263 15.688 368.903 15.176C369.713 14.7493 370.737 14.536 371.975 14.536C373.937 14.536 375.303 14.92 376.071 15.688C376.327 16.456 376.455 18.376 376.455 21.448C376.455 23.496 376.263 24.9467 375.879 25.8C375.537 26.6533 374.855 27.1867 373.831 27.4C373.105 27.6133 372.401 27.72 371.719 27.72C370.183 27.72 368.924 27.4 367.943 26.76C367.687 26.12 367.559 25.416 367.559 24.648C366.108 23.9227 363.996 23.56 361.223 23.56C358.236 23.56 355.953 24.0507 354.375 25.032C352.796 25.9707 352.007 27.5707 352.007 29.832C352.007 31.496 352.476 32.712 353.415 33.48C354.396 34.2053 355.953 34.6107 358.087 34.696C364.145 34.9947 368.263 35.4853 370.439 36.168C375.089 37.576 377.415 40.648 377.415 45.384C377.415 49.864 375.751 53.704 372.423 56.904C369.095 60.0613 364.828 61.64 359.623 61.64C356.679 61.64 354.119 60.8507 351.943 59.272C351.943 60.3387 351.729 61.128 351.303 61.64C350.535 62.0667 349.276 62.28 347.527 62.28C345.649 62.28 344.369 61.96 343.687 61.32C342.791 59.6133 342.343 57.352 342.343 54.536ZM394.954 24.648C394.954 22.9413 395.104 21.7893 395.402 21.192C395.957 20.04 397.152 18.9307 398.986 17.864C400.821 16.7973 403.296 16.264 406.41 16.264C407.904 16.264 409.077 16.456 409.93 16.84C410.528 18.0773 410.826 22.408 410.826 29.832C410.826 40.3707 410.528 47.5813 409.93 51.464C410.186 51.4213 410.549 51.4 411.018 51.4C412.128 51.4 413.152 51.6347 414.09 52.104C414.218 52.3173 414.282 52.7013 414.282 53.256C414.282 54.408 414.112 55.7093 413.77 57.16C413.472 58.6107 413.066 59.592 412.554 60.104C412.213 60.4453 411.68 60.68 410.954 60.808C410.272 60.8933 408.928 60.936 406.922 60.936C403.381 60.936 400.97 60.8293 399.69 60.616C398.453 60.36 397.642 59.8907 397.258 59.208C396.96 58.6533 396.81 57.5227 396.81 55.816C396.81 53.64 396.938 52.36 397.194 51.976L400.778 51.4C401.632 51.272 402.122 51.208 402.25 51.208C401.738 46.8987 401.482 42.6107 401.482 38.344C401.482 34.2053 401.738 30.088 402.25 25.992C400.288 27.3573 397.984 28.168 395.338 28.424C395.082 28.168 394.954 26.9093 394.954 24.648ZM419.145 60.744C419.145 59.0373 419.315 57.224 419.657 55.304C420.041 53.3413 420.681 51.272 421.577 49.096C422.473 46.8773 423.582 44.872 424.905 43.08C426.27 41.288 428.041 39.7307 430.217 38.408C432.393 37.0853 434.825 36.2747 437.513 35.976C439.219 35.8053 440.521 35.656 441.417 35.528C442.313 35.3573 443.23 35.1013 444.169 34.76C445.15 34.4187 445.833 33.9493 446.217 33.352C446.643 32.7547 446.857 32.008 446.857 31.112C446.857 29.0213 445.833 27.144 443.785 25.48C441.779 23.816 439.347 22.984 436.489 22.984C432.99 22.984 430.601 24.1787 429.321 26.568C429.321 27.336 429.193 28.04 428.937 28.68C428.254 29.1493 426.675 29.384 424.201 29.384C423.945 29.384 423.71 29.384 423.497 29.384C423.283 29.3413 423.134 29.32 423.049 29.32C421.299 28.936 420.425 26.5253 420.425 22.088C420.425 19.8693 420.553 18.376 420.809 17.608C421.15 17.352 421.939 17.1173 423.177 16.904C424.414 16.6907 425.587 16.584 426.697 16.584C427.635 16.584 428.19 16.6693 428.361 16.84C428.574 17.0107 428.723 17.16 428.809 17.288C428.894 17.3733 428.958 17.4587 429.001 17.544C429.043 17.5867 429.086 17.7147 429.129 17.928C429.171 18.0987 429.235 18.2907 429.321 18.504C432.435 16.5413 435.849 15.56 439.561 15.56C444.254 15.56 448.009 17.096 450.825 20.168C453.641 23.1973 455.049 26.824 455.049 31.048C455.049 38.216 450.355 42.2053 440.969 43.016C439.859 43.1013 438.942 43.1867 438.217 43.272C437.491 43.3573 436.531 43.592 435.337 43.976C434.185 44.3173 433.246 44.744 432.521 45.256C431.838 45.768 431.219 46.536 430.665 47.56C430.11 48.5413 429.833 49.7147 429.833 51.08C429.833 51.8053 429.875 52.3813 429.961 52.808C432.862 53.4053 436.446 53.704 440.713 53.704C443.059 53.704 445.321 53.2773 447.497 52.424C447.454 52.296 447.433 52.1467 447.433 51.976C447.433 51.7627 447.475 51.5493 447.561 51.336C447.646 51.1227 447.774 50.8667 447.945 50.568C448.115 50.2693 448.243 50.056 448.329 49.928C449.054 49.5013 450.035 49.288 451.273 49.288C452.467 49.288 453.427 49.5013 454.153 49.928C455.305 50.568 455.881 52.168 455.881 54.728C455.881 56.3493 455.731 57.7787 455.433 59.016C455.134 60.2533 454.857 61.0853 454.601 61.512C454.345 61.9387 454.153 62.1947 454.025 62.28C452.958 62.4933 451.657 62.6 450.121 62.6C448.03 62.6 446.921 62.3867 446.793 61.96C446.409 60.424 446.195 59.4853 446.153 59.144C444.617 60.424 441.459 61.064 436.681 61.064C435.529 61.064 432.649 60.936 428.041 60.68C427.998 61.3627 427.827 61.7467 427.529 61.832C427.145 62.344 425.63 62.6 422.985 62.6C421.107 62.6 419.849 62.4933 419.209 62.28C419.166 61.9813 419.145 61.4693 419.145 60.744ZM460.838 43.848C460.838 40.6907 461.5 37.4693 462.822 34.184C464.145 30.8987 465.916 27.912 468.134 25.224C470.396 22.536 473.19 20.3387 476.518 18.632C479.846 16.9253 483.366 16.072 487.078 16.072C492.54 16.072 496.614 17.8 499.302 21.256C501.99 24.6693 503.334 29.0427 503.334 34.376C503.334 36.8933 503.036 39.4107 502.438 41.928C501.884 44.4453 500.966 46.8987 499.686 49.288C498.406 51.6347 496.849 53.7253 495.014 55.56C493.222 57.3947 490.982 58.8667 488.294 59.976C485.649 61.0853 482.726 61.64 479.526 61.64C473.809 61.64 469.265 59.976 465.894 56.648C462.524 53.32 460.838 49.0533 460.838 43.848ZM471.142 42.952C471.142 46.0667 471.974 48.5627 473.638 50.44C475.302 52.2747 477.478 53.192 480.166 53.192C482.982 53.192 485.585 52.1467 487.974 50.056C490.364 47.9653 492.177 45.4907 493.414 42.632C494.652 39.7733 495.27 37.0213 495.27 34.376C495.27 31.56 494.502 29.2773 492.966 27.528C491.473 25.736 489.276 24.84 486.374 24.84C483.388 24.84 480.7 25.8213 478.31 27.784C475.921 29.704 474.129 32.0293 472.934 34.76C471.74 37.4907 471.142 40.2213 471.142 42.952ZM508.338 43.848C508.338 40.6907 509 37.4693 510.322 34.184C511.645 30.8987 513.416 27.912 515.634 25.224C517.896 22.536 520.69 20.3387 524.018 18.632C527.346 16.9253 530.866 16.072 534.578 16.072C540.04 16.072 544.114 17.8 546.802 21.256C549.49 24.6693 550.834 29.0427 550.834 34.376C550.834 36.8933 550.536 39.4107 549.938 41.928C549.384 44.4453 548.466 46.8987 547.186 49.288C545.906 51.6347 544.349 53.7253 542.514 55.56C540.722 57.3947 538.482 58.8667 535.794 59.976C533.149 61.0853 530.226 61.64 527.026 61.64C521.309 61.64 516.765 59.976 513.394 56.648C510.024 53.32 508.338 49.0533 508.338 43.848ZM518.642 42.952C518.642 46.0667 519.474 48.5627 521.138 50.44C522.802 52.2747 524.978 53.192 527.666 53.192C530.482 53.192 533.085 52.1467 535.474 50.056C537.864 47.9653 539.677 45.4907 540.914 42.632C542.152 39.7733 542.77 37.0213 542.77 34.376C542.77 31.56 542.002 29.2773 540.466 27.528C538.973 25.736 536.776 24.84 533.874 24.84C530.888 24.84 528.2 25.8213 525.81 27.784C523.421 29.704 521.629 32.0293 520.434 34.76C519.24 37.4907 518.642 40.2213 518.642 42.952ZM556.286 21.704C556.286 20.7653 556.478 20.0613 556.862 19.592C560.916 17.288 565.396 16.136 570.302 16.136C574.782 16.136 578.686 16.7333 582.014 17.928C585.385 19.1227 588.073 20.8293 590.078 23.048C592.126 25.2667 593.641 27.8267 594.622 30.728C595.604 33.5867 596.094 36.808 596.094 40.392C596.094 47.4747 594.132 52.7867 590.206 56.328C586.281 59.8693 580.094 61.64 571.646 61.64C566.654 61.64 561.876 60.744 557.31 58.952C556.884 58.5253 556.67 57.0533 556.67 54.536C556.67 53.128 556.734 52.2107 556.862 51.784C556.99 51.144 557.886 50.824 559.55 50.824C560.02 50.824 560.553 50.8667 561.15 50.952C560.724 47.9653 560.51 43.9973 560.51 39.048C560.51 34.6533 560.766 30.6 561.278 26.888C560.809 27.016 560.233 27.08 559.55 27.08C557.886 27.08 556.99 26.76 556.862 26.12C556.478 24.4987 556.286 23.0267 556.286 21.704ZM570.302 52.488C571.54 52.9147 572.884 53.128 574.334 53.128C577.876 53.128 580.926 51.912 583.486 49.48C586.089 47.0053 587.39 43.8267 587.39 39.944C587.39 35.976 586.11 32.4133 583.55 29.256C580.99 26.0987 577.918 24.52 574.334 24.52C572.841 24.52 571.497 24.8187 570.302 25.416C570.686 29.256 570.878 33.6293 570.878 38.536C570.878 44.3813 570.686 49.032 570.302 52.488Z" fill="#05A498"/>
</mask>
<g mask="url(#mask0)">
<path d="M36.6926 33.6676C18.7264 33.6676 14.6199 32.1655 10 33.6676L22.833 84.7406C79.127 99.4283 229.598 129.405 381.13 131.808C570.545 134.812 581.838 101.765 599.291 88.7464C613.253 78.3315 605.108 62.7091 599.291 56.1998C594.671 51.5265 584.712 42.1798 581.838 42.1798H555.659L539.746 48.6891H517.16L496.113 38.174L467.881 33.6676L448.888 38.174C442.044 41.679 427.431 48.6891 423.735 48.6891C419.116 48.6891 404.229 62.7091 394.99 62.7091C387.598 62.7091 369.666 58.3696 361.624 56.1998C357.517 53.6962 347.456 47.3872 340.064 42.1798C332.673 36.9723 321.927 37.3395 317.478 38.174H291.812H274.873C270.595 39.5093 261.013 42.1798 256.907 42.1798C252.8 42.1798 244.929 51.5265 241.507 56.1998L226.621 62.7091H209.168L184.015 56.1998L176.315 48.6891L163.996 42.1798L150.65 38.174L130.63 42.1798L111.637 48.6891L99.8309 56.1998H83.918L66.9785 48.6891C69.5451 48.856 67.0811 46.0854 36.6926 33.6676Z" fill="white"/>
</g>
</svg>
