<svg width="455" height="93" viewBox="0 0 455 93" fill="none" xmlns="http://www.w3.org/2000/svg">
<path d="M25.2805 46.488C25.2805 41.592 26.5285 37.464 29.0245 34.104C31.5525 30.744 34.8965 29.064 39.0565 29.064C42.0965 29.064 44.3365 29.768 45.7765 31.176C45.8405 30.216 46.1765 29.624 46.7845 29.4C47.5845 29.048 48.5605 28.872 49.7125 28.872C51.2165 28.872 52.4005 29.192 53.2645 29.832C53.2965 30.184 53.3605 30.744 53.4565 31.512C53.5845 32.248 53.6805 32.92 53.7445 33.528C53.8085 34.136 53.8405 34.696 53.8405 35.208C53.8405 37.192 53.2645 38.696 52.1125 39.72C51.4405 40.456 50.3365 40.824 48.8005 40.824C47.2005 40.824 46.0005 40.456 45.2005 39.72C45.1685 39.656 45.1525 39.512 45.1525 39.288C45.1525 38.904 45.2005 38.648 45.2965 38.52C44.7525 37.336 43.8725 36.424 42.6565 35.784C41.4405 35.144 40.3365 34.824 39.3445 34.824C37.4885 34.824 35.7605 36.024 34.1605 38.424C32.5925 40.792 31.8085 43.512 31.8085 46.584C31.8085 49.496 32.5445 51.864 34.0165 53.688C35.5205 55.48 37.2485 56.376 39.2005 56.376C40.1925 56.376 41.2965 56.152 42.5125 55.704C43.7285 55.256 44.6245 54.632 45.2005 53.832C45.1045 53.256 45.0565 52.936 45.0565 52.872C45.0565 52.808 45.0565 52.744 45.0565 52.68C45.0885 52.616 45.1045 52.568 45.1045 52.536C46.2885 51.992 47.3285 51.72 48.2245 51.72C49.1205 51.72 50.4325 52.04 52.1605 52.68C53.3125 53.704 53.8885 55.192 53.8885 57.144C53.8885 57.656 53.8405 58.232 53.7445 58.872C53.6805 59.48 53.5845 60.152 53.4565 60.888C53.3605 61.624 53.2965 62.184 53.2645 62.568C52.2725 63.368 50.9925 63.768 49.4245 63.768C48.2725 63.768 47.3925 63.512 46.7845 63C46.1125 62.744 45.7765 62.12 45.7765 61.128C43.6645 62.568 41.5205 63.288 39.3445 63.288C37.6485 63.288 35.9845 62.936 34.3525 62.232C32.7205 61.528 31.2165 60.504 29.8405 59.16C28.4645 57.816 27.3605 56.056 26.5285 53.88C25.6965 51.672 25.2805 49.208 25.2805 46.488ZM55.9431 59.688C55.9431 58.28 56.0871 57.336 56.3751 56.856C56.6631 56.344 57.2711 56.088 58.1991 56.088C59.1911 56.088 59.6871 56.216 59.6871 56.472C59.9111 55.128 61.6071 50.344 64.7751 42.12C67.9751 33.864 69.7511 29.704 70.1031 29.64C71.1271 29.48 72.3751 29.4 73.8471 29.4C74.6151 29.4 75.7191 29.48 77.1591 29.64C77.5111 29.8 79.2711 33.992 82.4391 42.216C85.6391 50.408 87.3511 55.16 87.5751 56.472C87.5751 56.216 88.0711 56.088 89.0631 56.088C89.9911 56.088 90.5991 56.344 90.8871 56.856C91.1751 57.336 91.3191 58.28 91.3191 59.688C91.3191 61.32 91.1431 62.232 90.7911 62.424C90.3751 62.808 87.8791 63 83.3031 63C80.0071 63 78.3591 62.824 78.3591 62.472C77.6551 62.056 77.3031 60.632 77.3031 58.2C77.3031 57.848 77.3191 57.576 77.3511 57.384C77.3831 57.192 77.5111 57 77.7351 56.808C77.9591 56.616 78.2791 56.52 78.6951 56.52C79.6231 56.52 80.0871 56.584 80.0871 56.712C80.2151 56.712 80.2791 56.552 80.2791 56.232C80.2791 55.432 79.8471 53.608 78.9831 50.76C77.6711 50.888 75.9271 50.952 73.7511 50.952C71.4151 50.952 69.5911 50.888 68.2791 50.76C67.4151 53.64 66.9831 55.48 66.9831 56.28C66.9831 56.536 67.0471 56.68 67.1751 56.712C67.3671 56.584 67.7831 56.52 68.4231 56.52C68.9031 56.52 69.2551 56.632 69.4791 56.856C69.7351 57.08 69.8791 57.304 69.9111 57.528C69.9431 57.752 69.9591 58.12 69.9591 58.632C69.9591 60.744 69.6071 62.024 68.9031 62.472C68.9031 62.824 67.2551 63 63.9591 63C59.3831 63 56.8871 62.808 56.4711 62.424C56.1191 62.232 55.9431 61.32 55.9431 59.688ZM70.0071 45.192C71.2231 45.096 72.3911 45.048 73.5111 45.048C74.8231 45.048 76.0551 45.112 77.2071 45.24C75.7671 40.984 74.5671 37.688 73.6071 35.352C72.7111 37.56 71.5111 40.84 70.0071 45.192ZM93.9625 58.968C93.9625 57.752 94.2025 56.856 94.6825 56.28C95.4825 55.896 96.2505 55.704 96.9865 55.704C96.6025 52.504 96.4105 49.288 96.4105 46.056C96.4105 42.952 96.6025 39.864 96.9865 36.792C96.7625 36.696 96.3785 36.616 95.8345 36.552C95.3225 36.488 94.9385 36.376 94.6825 36.216C94.4265 35.832 94.2985 34.92 94.2985 33.48C94.2985 32.072 94.4265 31.176 94.6825 30.792C95.4185 29.896 97.2425 29.448 100.155 29.448C102.939 29.448 104.667 29.864 105.339 30.696C105.883 32.008 106.155 33.352 106.155 34.728C106.155 35.336 106.059 35.8 105.867 36.12C105.195 36.44 104.635 36.616 104.187 36.648C104.635 37.128 105.771 38.216 107.595 39.912C109.419 41.576 110.603 42.744 111.147 43.416C111.691 42.744 112.859 41.56 114.651 39.864C116.475 38.168 117.611 37.08 118.059 36.6C117.419 36.472 116.987 36.344 116.763 36.216C116.507 35.832 116.379 34.92 116.379 33.48C116.379 32.072 116.507 31.176 116.763 30.792C117.467 29.864 119.003 29.4 121.371 29.4C122.651 29.4 123.931 29.544 125.211 29.832C126.491 30.088 127.403 30.408 127.947 30.792C128.331 31.272 128.523 32.088 128.523 33.24C128.523 34.488 128.331 35.448 127.947 36.12C127.179 36.504 126.539 36.696 126.027 36.696C125.867 36.696 125.627 36.664 125.307 36.6C125.691 39.192 125.883 42.008 125.883 45.048C125.883 47.544 125.691 51.16 125.307 55.896C125.435 55.864 125.643 55.848 125.931 55.848C126.571 55.848 127.243 56.024 127.947 56.376C128.107 56.792 128.187 57.48 128.187 58.44C128.187 60.872 127.787 62.248 126.987 62.568C126.635 62.856 125.179 63 122.619 63C119.835 63 118.043 62.568 117.243 61.704C116.731 61.16 116.475 60.248 116.475 58.968C116.475 57.72 116.731 56.824 117.243 56.28C117.979 55.896 118.747 55.704 119.547 55.704C119.163 52.504 118.971 48.36 118.971 43.272C117.915 44.68 116.555 46.088 114.891 47.496C113.227 48.904 111.979 49.608 111.147 49.608C110.315 49.608 109.051 48.92 107.355 47.544C105.691 46.136 104.347 44.728 103.323 43.32C103.163 48.792 102.971 52.984 102.747 55.896C102.875 55.864 103.083 55.848 103.371 55.848C104.011 55.848 104.683 56.024 105.387 56.376C105.931 57.112 106.203 58.104 106.203 59.352C106.203 60.44 105.963 61.24 105.483 61.752C104.715 62.616 103.163 63.048 100.827 63.048C99.4505 63.048 98.1225 62.904 96.8425 62.616C95.5625 62.328 94.8425 62.024 94.6825 61.704C94.2025 61.128 93.9625 60.216 93.9625 58.968ZM133.052 58.056C133.052 57.544 133.308 56.712 133.82 55.56C134.396 55.272 135.036 55.128 135.74 55.128C136.06 55.128 136.316 55.176 136.508 55.272C136.124 52.424 135.932 49.528 135.932 46.584C135.932 42.264 136.268 38.712 136.94 35.928C136.204 36.088 135.612 36.168 135.164 36.168C134.588 36.168 134.14 36.056 133.82 35.832C133.372 35.192 133.148 34.2 133.148 32.856C133.148 32.024 133.452 31.192 134.06 30.36C135.084 29.88 136.956 29.512 139.676 29.256C142.396 28.968 145.02 28.824 147.548 28.824C153.436 28.824 158.172 29.432 161.756 30.648C162.076 32.248 162.236 33.48 162.236 34.344C162.236 35.848 161.868 37.08 161.132 38.04C160.332 38.232 159.644 38.328 159.068 38.328C158.044 38.328 156.732 37.8 155.132 36.744L155.276 35.16C154.668 34.744 153.004 34.536 150.284 34.536C149.324 34.536 148.092 34.584 146.588 34.68C145.084 34.776 144.316 34.872 144.284 34.968C144.412 36.12 144.476 36.968 144.476 37.512C144.476 40.36 144.268 42.312 143.852 43.368C146.988 43.368 148.572 43.32 148.604 43.224C148.572 43.128 148.556 42.984 148.556 42.792C148.556 42.44 148.7 42.008 148.988 41.496C149.18 41.336 149.708 41.256 150.572 41.256C151.916 41.256 152.844 41.368 153.356 41.592C153.996 42.648 154.316 44.168 154.316 46.152C154.316 47.944 153.98 49.176 153.308 49.848C153.052 50.072 152.3 50.184 151.052 50.184C149.804 50.184 149.084 50.072 148.892 49.848C148.604 49.464 148.46 48.984 148.46 48.408L143.612 48.648C143.612 50.536 143.436 53.16 143.084 56.52C143.596 56.968 144.636 57.32 146.204 57.576C147.772 57.8 149.068 57.912 150.092 57.912C150.86 57.912 151.804 57.832 152.924 57.672C154.076 57.48 154.86 57.272 155.276 57.048L155.132 55.464C156.732 54.408 158.06 53.88 159.116 53.88C159.692 53.88 160.364 53.976 161.132 54.168C161.868 55.128 162.236 56.36 162.236 57.864C162.236 58.728 162.076 59.96 161.756 61.56C159.356 62.936 155.004 63.624 148.7 63.624C145.628 63.624 142.7 63.448 139.916 63.096C137.132 62.776 135.18 62.36 134.06 61.848C133.676 61.368 133.404 60.888 133.244 60.408C133.116 59.928 133.052 59.144 133.052 58.056ZM165.856 33.528C165.856 31.288 166.224 29.912 166.96 29.4C167.824 29.144 168.976 29.016 170.416 29.016C172.208 29.016 173.824 29.24 175.264 29.688C175.424 30.296 175.504 30.856 175.504 31.368C175.504 31.624 175.488 31.768 175.456 31.8C176 31.64 176.752 31.4 177.712 31.08C178.704 30.76 179.408 30.536 179.824 30.408C180.24 30.28 180.784 30.12 181.456 29.928C182.16 29.704 182.688 29.56 183.04 29.496C183.424 29.4 183.84 29.32 184.288 29.256C184.768 29.192 185.184 29.16 185.536 29.16C186.944 29.16 188.192 29.56 189.28 30.36C190.4 31.128 191.264 32.104 191.872 33.288C192.512 34.472 192.976 35.656 193.264 36.84C193.584 38.024 193.744 39.112 193.744 40.104C193.744 42.248 193.072 44.12 191.728 45.72C190.416 47.32 188.832 48.632 186.976 49.656C189.184 51.192 191.264 52.776 193.216 54.408C195.168 56.008 196.192 57.048 196.288 57.528C196.544 57.4 196.832 57.336 197.152 57.336C197.504 57.336 197.92 57.432 198.4 57.624C198.88 58.072 199.12 58.84 199.12 59.928C199.12 61.016 198.912 61.768 198.496 62.184C197.44 62.728 195.216 63 191.824 63C190.192 63 188.592 62.728 187.024 62.184C186.704 62.056 186.432 61.736 186.208 61.224C185.984 60.68 185.872 60.088 185.872 59.448C185.872 58.648 186.048 58.072 186.4 57.72C186.624 57.528 186.896 57.432 187.216 57.432C187.44 57.432 187.744 57.496 188.128 57.624C187.776 56.792 187.248 56.056 186.544 55.416C185.84 54.744 185.104 54.232 184.336 53.88C183.568 53.496 182.736 53.176 181.84 52.92C180.976 52.632 180.208 52.44 179.536 52.344C178.896 52.248 178.32 52.184 177.808 52.152L177.088 52.056C177.248 52.856 177.328 53.688 177.328 54.552C177.328 55.384 177.248 56.168 177.088 56.904C177.312 56.808 177.616 56.76 178 56.76C179.024 56.76 179.808 57.048 180.352 57.624C180.48 57.912 180.544 58.664 180.544 59.88C180.544 61.064 180.48 61.8 180.352 62.088C180.16 62.728 177.344 63.048 171.904 63.048C169.952 63.048 168.624 62.984 167.92 62.856C167.248 62.696 166.864 62.44 166.768 62.088C166.64 61.8 166.576 61.064 166.576 59.88C166.576 58.664 166.64 57.912 166.768 57.624C166.928 57.368 167.28 57.16 167.824 57C168.4 56.84 168.944 56.76 169.456 56.76C169.84 56.76 170.096 56.776 170.224 56.808C170.224 56.264 170.208 55.256 170.176 53.784C170.144 52.312 170.128 50.792 170.128 49.224C170.128 43.56 170.288 39.832 170.608 38.04C170.224 38.2 169.728 38.28 169.12 38.28C168.192 38.28 167.552 38.104 167.2 37.752C166.304 37.56 165.856 36.152 165.856 33.528ZM176.464 42.168C176.464 43.512 176.8 44.552 177.472 45.288C178.176 46.024 179.056 46.392 180.112 46.392C181.648 46.392 183.136 45.736 184.576 44.424C186.048 43.08 186.784 41.48 186.784 39.624C186.784 38.344 186.416 37.272 185.68 36.408C184.976 35.512 184.016 35.064 182.8 35.064C181.232 35.064 179.776 35.768 178.432 37.176C177.12 38.584 176.464 40.248 176.464 42.168ZM198.724 59.688C198.724 58.28 198.868 57.336 199.156 56.856C199.444 56.344 200.052 56.088 200.98 56.088C201.972 56.088 202.468 56.216 202.468 56.472C202.692 55.128 204.388 50.344 207.556 42.12C210.756 33.864 212.532 29.704 212.884 29.64C213.908 29.48 215.156 29.4 216.628 29.4C217.396 29.4 218.5 29.48 219.94 29.64C220.292 29.8 222.052 33.992 225.22 42.216C228.42 50.408 230.132 55.16 230.356 56.472C230.356 56.216 230.852 56.088 231.844 56.088C232.772 56.088 233.38 56.344 233.668 56.856C233.956 57.336 234.1 58.28 234.1 59.688C234.1 61.32 233.924 62.232 233.572 62.424C233.156 62.808 230.66 63 226.084 63C222.788 63 221.14 62.824 221.14 62.472C220.436 62.056 220.084 60.632 220.084 58.2C220.084 57.848 220.1 57.576 220.132 57.384C220.164 57.192 220.292 57 220.516 56.808C220.74 56.616 221.06 56.52 221.476 56.52C222.404 56.52 222.868 56.584 222.868 56.712C222.996 56.712 223.06 56.552 223.06 56.232C223.06 55.432 222.628 53.608 221.764 50.76C220.452 50.888 218.708 50.952 216.532 50.952C214.196 50.952 212.372 50.888 211.06 50.76C210.196 53.64 209.764 55.48 209.764 56.28C209.764 56.536 209.828 56.68 209.956 56.712C210.148 56.584 210.564 56.52 211.204 56.52C211.684 56.52 212.036 56.632 212.26 56.856C212.516 57.08 212.66 57.304 212.692 57.528C212.724 57.752 212.74 58.12 212.74 58.632C212.74 60.744 212.388 62.024 211.684 62.472C211.684 62.824 210.036 63 206.74 63C202.164 63 199.668 62.808 199.252 62.424C198.9 62.232 198.724 61.32 198.724 59.688ZM212.788 45.192C214.004 45.096 215.172 45.048 216.292 45.048C217.604 45.048 218.836 45.112 219.988 45.24C218.548 40.984 217.348 37.688 216.388 35.352C215.492 37.56 214.292 40.84 212.788 45.192ZM254.564 33.48C254.564 32.072 254.692 31.176 254.948 30.792C255.94 29.992 257.972 29.592 261.044 29.592C262.548 29.592 264.084 29.704 265.652 29.928C265.908 30.408 266.164 31.192 266.42 32.28C266.676 33.368 266.804 34.296 266.804 35.064C266.804 35.544 266.74 35.896 266.612 36.12C266.132 36.472 265.428 36.648 264.5 36.648C264.244 36.648 264.068 36.632 263.972 36.6C264.484 37.528 265.172 39.624 266.036 42.888C266.932 46.152 267.396 48.568 267.428 50.136C267.876 49.72 268.66 48.616 269.78 46.824C270.932 45 272.052 43.352 273.14 41.88C274.228 40.408 275.092 39.672 275.732 39.672C276.372 39.672 277.236 40.408 278.324 41.88C279.412 43.32 280.532 44.968 281.684 46.824C282.836 48.648 283.62 49.768 284.036 50.184C284.228 48.552 284.708 46.328 285.476 43.512C286.244 40.664 286.916 38.424 287.492 36.792C287.108 36.664 286.836 36.552 286.676 36.456C286.516 36.36 286.34 36.232 286.148 36.072C285.956 35.912 285.748 35.768 285.524 35.64C285.076 35.288 284.852 34.168 284.852 32.28C284.852 31.032 284.964 30.28 285.188 30.024C285.732 29.64 287.044 29.448 289.124 29.448C292.036 29.448 294.292 29.608 295.892 29.928C296.244 30.184 296.516 30.824 296.708 31.848C296.932 32.872 297.044 33.864 297.044 34.824C297.044 35.464 296.98 35.896 296.852 36.12C296.02 36.504 295.252 36.696 294.548 36.696C294.324 36.696 294.052 36.664 293.732 36.6C293.348 43.16 291.588 49.592 288.452 55.896C288.644 55.96 288.82 56.008 288.98 56.04C289.172 56.072 289.3 56.088 289.364 56.088C289.46 56.088 289.572 56.12 289.7 56.184C289.828 56.216 289.972 56.28 290.132 56.376C290.26 56.632 290.324 57.016 290.324 57.528C290.324 58.296 290.196 59.224 289.94 60.312C289.684 61.368 289.428 62.12 289.172 62.568C288.532 62.856 287.38 63 285.716 63C284.02 63 282.548 62.888 281.3 62.664C280.084 62.408 279.46 62.088 279.428 61.704C279.204 61.32 279.092 60.312 279.092 58.68C279.092 57.304 279.204 56.504 279.428 56.28C279.492 56.248 279.668 56.216 279.956 56.184C280.244 56.12 280.564 56.072 280.916 56.04C281.3 55.976 281.556 55.928 281.684 55.896C281.556 55.768 279.556 53.336 275.684 48.6C271.748 53.368 269.764 55.784 269.732 55.848C270.98 55.976 271.86 56.152 272.372 56.376C272.5 56.632 272.564 57.016 272.564 57.528C272.564 58.296 272.436 59.224 272.18 60.312C271.924 61.368 271.668 62.12 271.412 62.568C270.772 62.888 269.364 63.048 267.188 63.048C263.54 63.048 261.7 62.6 261.668 61.704C261.412 61.128 261.284 60.056 261.284 58.488C261.284 57.272 261.412 56.536 261.668 56.28C262.052 55.896 262.5 55.704 263.012 55.704C259.812 48.856 258.052 42.552 257.732 36.792C256.228 36.632 255.3 36.44 254.948 36.216C254.692 35.832 254.564 34.92 254.564 33.48ZM298.652 50.232C298.652 47.832 299.148 45.4 300.14 42.936C301.132 40.44 302.46 38.184 304.124 36.168C305.82 34.152 307.916 32.504 310.412 31.224C312.908 29.944 315.548 29.304 318.332 29.304C322.396 29.304 325.436 30.584 327.452 33.144C329.5 35.704 330.524 38.952 330.524 42.888C330.524 45.256 330.156 47.624 329.42 49.992C328.684 52.328 327.612 54.52 326.204 56.568C324.828 58.616 322.956 60.28 320.588 61.56C318.252 62.84 315.628 63.48 312.716 63.48C308.556 63.48 305.164 62.28 302.54 59.88C299.948 57.448 298.652 54.232 298.652 50.232ZM305.804 49.464C305.804 51.8 306.428 53.672 307.676 55.08C308.924 56.456 310.556 57.144 312.572 57.144C314.684 57.144 316.636 56.36 318.428 54.792C320.22 53.224 321.58 51.368 322.508 49.224C323.436 47.08 323.9 45.016 323.9 43.032C323.9 40.92 323.324 39.208 322.172 37.896C321.052 36.552 319.404 35.88 317.228 35.88C314.988 35.88 312.972 36.616 311.18 38.088C309.388 39.528 308.044 41.272 307.148 43.32C306.252 45.368 305.804 47.416 305.804 49.464ZM334.325 33.528C334.325 31.288 334.693 29.912 335.429 29.4C336.293 29.144 337.445 29.016 338.885 29.016C340.677 29.016 342.293 29.24 343.733 29.688C343.893 30.296 343.973 30.856 343.973 31.368C343.973 31.624 343.957 31.768 343.925 31.8C344.469 31.64 345.221 31.4 346.181 31.08C347.173 30.76 347.877 30.536 348.293 30.408C348.709 30.28 349.253 30.12 349.925 29.928C350.629 29.704 351.157 29.56 351.509 29.496C351.893 29.4 352.309 29.32 352.757 29.256C353.237 29.192 353.653 29.16 354.005 29.16C355.413 29.16 356.661 29.56 357.749 30.36C358.869 31.128 359.733 32.104 360.341 33.288C360.981 34.472 361.445 35.656 361.733 36.84C362.053 38.024 362.213 39.112 362.213 40.104C362.213 42.248 361.541 44.12 360.197 45.72C358.885 47.32 357.301 48.632 355.445 49.656C357.653 51.192 359.733 52.776 361.685 54.408C363.637 56.008 364.661 57.048 364.757 57.528C365.013 57.4 365.301 57.336 365.621 57.336C365.973 57.336 366.389 57.432 366.869 57.624C367.349 58.072 367.589 58.84 367.589 59.928C367.589 61.016 367.381 61.768 366.965 62.184C365.909 62.728 363.685 63 360.293 63C358.661 63 357.061 62.728 355.493 62.184C355.173 62.056 354.901 61.736 354.677 61.224C354.453 60.68 354.341 60.088 354.341 59.448C354.341 58.648 354.517 58.072 354.869 57.72C355.093 57.528 355.365 57.432 355.685 57.432C355.909 57.432 356.213 57.496 356.597 57.624C356.245 56.792 355.717 56.056 355.013 55.416C354.309 54.744 353.573 54.232 352.805 53.88C352.037 53.496 351.205 53.176 350.309 52.92C349.445 52.632 348.677 52.44 348.005 52.344C347.365 52.248 346.789 52.184 346.277 52.152L345.557 52.056C345.717 52.856 345.797 53.688 345.797 54.552C345.797 55.384 345.717 56.168 345.557 56.904C345.781 56.808 346.085 56.76 346.469 56.76C347.493 56.76 348.277 57.048 348.821 57.624C348.949 57.912 349.013 58.664 349.013 59.88C349.013 61.064 348.949 61.8 348.821 62.088C348.629 62.728 345.813 63.048 340.373 63.048C338.421 63.048 337.093 62.984 336.389 62.856C335.717 62.696 335.333 62.44 335.237 62.088C335.109 61.8 335.045 61.064 335.045 59.88C335.045 58.664 335.109 57.912 335.237 57.624C335.397 57.368 335.749 57.16 336.293 57C336.869 56.84 337.413 56.76 337.925 56.76C338.309 56.76 338.565 56.776 338.693 56.808C338.693 56.264 338.677 55.256 338.645 53.784C338.613 52.312 338.597 50.792 338.597 49.224C338.597 43.56 338.757 39.832 339.077 38.04C338.693 38.2 338.197 38.28 337.589 38.28C336.661 38.28 336.021 38.104 335.669 37.752C334.773 37.56 334.325 36.152 334.325 33.528ZM344.933 42.168C344.933 43.512 345.269 44.552 345.941 45.288C346.645 46.024 347.525 46.392 348.581 46.392C350.117 46.392 351.605 45.736 353.045 44.424C354.517 43.08 355.253 41.48 355.253 39.624C355.253 38.344 354.885 37.272 354.149 36.408C353.445 35.512 352.485 35.064 351.269 35.064C349.701 35.064 348.245 35.768 346.901 37.176C345.589 38.584 344.933 40.248 344.933 42.168ZM369.113 33.624C369.113 31.576 369.337 30.2 369.785 29.496C370.841 29.208 372.681 29.064 375.305 29.064C379.977 29.064 382.521 29.208 382.937 29.496C383.417 30.328 383.657 31.72 383.657 33.672C383.657 34.472 383.561 34.968 383.369 35.16C382.665 35.416 381.833 35.544 380.873 35.544C380.265 35.544 379.721 35.48 379.241 35.352C379.145 37.176 379.097 39.256 379.097 41.592C379.097 47.8 379.625 52.792 380.681 56.568C380.745 56.856 381.801 57 383.849 57C386.857 57 388.665 56.792 389.273 56.376L389.129 54.312C390.921 53.32 392.633 52.824 394.265 52.824C394.937 52.824 395.545 52.888 396.089 53.016C396.825 55.16 397.193 56.904 397.193 58.248C397.193 59.272 397.033 60.312 396.713 61.368C395.401 61.816 393.129 62.216 389.897 62.568C386.697 62.92 383.561 63.096 380.489 63.096C375.529 63.096 372.025 62.616 369.977 61.656C369.593 60.888 369.401 59.736 369.401 58.2C369.401 57.304 369.561 56.824 369.881 56.76C370.265 56.568 370.793 56.472 371.465 56.472C371.817 56.472 372.281 56.504 372.857 56.568C372.409 50.648 372.185 45.944 372.185 42.456C372.185 41.464 372.345 39.08 372.665 35.304C372.185 35.4 371.689 35.448 371.177 35.448C370.473 35.448 369.865 35.352 369.353 35.16C369.193 34.968 369.113 34.456 369.113 33.624ZM399.769 33.528C399.769 32.824 399.913 32.296 400.201 31.944C403.241 30.216 406.601 29.352 410.281 29.352C413.641 29.352 416.569 29.8 419.065 30.696C421.593 31.592 423.609 32.872 425.113 34.536C426.649 36.2 427.785 38.12 428.521 40.296C429.257 42.44 429.625 44.856 429.625 47.544C429.625 52.856 428.153 56.84 425.209 59.496C422.265 62.152 417.625 63.48 411.289 63.48C407.545 63.48 403.961 62.808 400.537 61.464C400.217 61.144 400.057 60.04 400.057 58.152C400.057 57.096 400.105 56.408 400.201 56.088C400.297 55.608 400.969 55.368 402.217 55.368C402.569 55.368 402.969 55.4 403.417 55.464C403.097 53.224 402.937 50.248 402.937 46.536C402.937 43.24 403.129 40.2 403.513 37.416C403.161 37.512 402.729 37.56 402.217 37.56C400.969 37.56 400.297 37.32 400.201 36.84C399.913 35.624 399.769 34.52 399.769 33.528ZM410.281 56.616C411.209 56.936 412.217 57.096 413.305 57.096C415.961 57.096 418.249 56.184 420.169 54.36C422.121 52.504 423.097 50.12 423.097 47.208C423.097 44.232 422.137 41.56 420.217 39.192C418.297 36.824 415.993 35.64 413.305 35.64C412.185 35.64 411.177 35.864 410.281 36.312C410.569 39.192 410.713 42.472 410.713 46.152C410.713 50.536 410.569 54.024 410.281 56.616Z" fill="white"/>
<mask id="mask0" mask-type="alpha" maskUnits="userSpaceOnUse" x="25" y="28" width="405" height="36">
<path d="M25.2805 46.488C25.2805 41.592 26.5285 37.464 29.0245 34.104C31.5525 30.744 34.8965 29.064 39.0565 29.064C42.0965 29.064 44.3365 29.768 45.7765 31.176C45.8405 30.216 46.1765 29.624 46.7845 29.4C47.5845 29.048 48.5605 28.872 49.7125 28.872C51.2165 28.872 52.4005 29.192 53.2645 29.832C53.2965 30.184 53.3605 30.744 53.4565 31.512C53.5845 32.248 53.6805 32.92 53.7445 33.528C53.8085 34.136 53.8405 34.696 53.8405 35.208C53.8405 37.192 53.2645 38.696 52.1125 39.72C51.4405 40.456 50.3365 40.824 48.8005 40.824C47.2005 40.824 46.0005 40.456 45.2005 39.72C45.1685 39.656 45.1525 39.512 45.1525 39.288C45.1525 38.904 45.2005 38.648 45.2965 38.52C44.7525 37.336 43.8725 36.424 42.6565 35.784C41.4405 35.144 40.3365 34.824 39.3445 34.824C37.4885 34.824 35.7605 36.024 34.1605 38.424C32.5925 40.792 31.8085 43.512 31.8085 46.584C31.8085 49.496 32.5445 51.864 34.0165 53.688C35.5205 55.48 37.2485 56.376 39.2005 56.376C40.1925 56.376 41.2965 56.152 42.5125 55.704C43.7285 55.256 44.6245 54.632 45.2005 53.832C45.1045 53.256 45.0565 52.936 45.0565 52.872C45.0565 52.808 45.0565 52.744 45.0565 52.68C45.0885 52.616 45.1045 52.568 45.1045 52.536C46.2885 51.992 47.3285 51.72 48.2245 51.72C49.1205 51.72 50.4325 52.04 52.1605 52.68C53.3125 53.704 53.8885 55.192 53.8885 57.144C53.8885 57.656 53.8405 58.232 53.7445 58.872C53.6805 59.48 53.5845 60.152 53.4565 60.888C53.3605 61.624 53.2965 62.184 53.2645 62.568C52.2725 63.368 50.9925 63.768 49.4245 63.768C48.2725 63.768 47.3925 63.512 46.7845 63C46.1125 62.744 45.7765 62.12 45.7765 61.128C43.6645 62.568 41.5205 63.288 39.3445 63.288C37.6485 63.288 35.9845 62.936 34.3525 62.232C32.7205 61.528 31.2165 60.504 29.8405 59.16C28.4645 57.816 27.3605 56.056 26.5285 53.88C25.6965 51.672 25.2805 49.208 25.2805 46.488ZM55.9431 59.688C55.9431 58.28 56.0871 57.336 56.3751 56.856C56.6631 56.344 57.2711 56.088 58.1991 56.088C59.1911 56.088 59.6871 56.216 59.6871 56.472C59.9111 55.128 61.6071 50.344 64.7751 42.12C67.9751 33.864 69.7511 29.704 70.1031 29.64C71.1271 29.48 72.3751 29.4 73.8471 29.4C74.6151 29.4 75.7191 29.48 77.1591 29.64C77.5111 29.8 79.2711 33.992 82.4391 42.216C85.6391 50.408 87.3511 55.16 87.5751 56.472C87.5751 56.216 88.0711 56.088 89.0631 56.088C89.9911 56.088 90.5991 56.344 90.8871 56.856C91.1751 57.336 91.3191 58.28 91.3191 59.688C91.3191 61.32 91.1431 62.232 90.7911 62.424C90.3751 62.808 87.8791 63 83.3031 63C80.0071 63 78.3591 62.824 78.3591 62.472C77.6551 62.056 77.3031 60.632 77.3031 58.2C77.3031 57.848 77.3191 57.576 77.3511 57.384C77.3831 57.192 77.5111 57 77.7351 56.808C77.9591 56.616 78.2791 56.52 78.6951 56.52C79.6231 56.52 80.0871 56.584 80.0871 56.712C80.2151 56.712 80.2791 56.552 80.2791 56.232C80.2791 55.432 79.8471 53.608 78.9831 50.76C77.6711 50.888 75.9271 50.952 73.7511 50.952C71.4151 50.952 69.5911 50.888 68.2791 50.76C67.4151 53.64 66.9831 55.48 66.9831 56.28C66.9831 56.536 67.0471 56.68 67.1751 56.712C67.3671 56.584 67.7831 56.52 68.4231 56.52C68.9031 56.52 69.2551 56.632 69.4791 56.856C69.7351 57.08 69.8791 57.304 69.9111 57.528C69.9431 57.752 69.9591 58.12 69.9591 58.632C69.9591 60.744 69.6071 62.024 68.9031 62.472C68.9031 62.824 67.2551 63 63.9591 63C59.3831 63 56.8871 62.808 56.4711 62.424C56.1191 62.232 55.9431 61.32 55.9431 59.688ZM70.0071 45.192C71.2231 45.096 72.3911 45.048 73.5111 45.048C74.8231 45.048 76.0551 45.112 77.2071 45.24C75.7671 40.984 74.5671 37.688 73.6071 35.352C72.7111 37.56 71.5111 40.84 70.0071 45.192ZM93.9625 58.968C93.9625 57.752 94.2025 56.856 94.6825 56.28C95.4825 55.896 96.2505 55.704 96.9865 55.704C96.6025 52.504 96.4105 49.288 96.4105 46.056C96.4105 42.952 96.6025 39.864 96.9865 36.792C96.7625 36.696 96.3785 36.616 95.8345 36.552C95.3225 36.488 94.9385 36.376 94.6825 36.216C94.4265 35.832 94.2985 34.92 94.2985 33.48C94.2985 32.072 94.4265 31.176 94.6825 30.792C95.4185 29.896 97.2425 29.448 100.155 29.448C102.939 29.448 104.667 29.864 105.339 30.696C105.883 32.008 106.155 33.352 106.155 34.728C106.155 35.336 106.059 35.8 105.867 36.12C105.195 36.44 104.635 36.616 104.187 36.648C104.635 37.128 105.771 38.216 107.595 39.912C109.419 41.576 110.603 42.744 111.147 43.416C111.691 42.744 112.859 41.56 114.651 39.864C116.475 38.168 117.611 37.08 118.059 36.6C117.419 36.472 116.987 36.344 116.763 36.216C116.507 35.832 116.379 34.92 116.379 33.48C116.379 32.072 116.507 31.176 116.763 30.792C117.467 29.864 119.003 29.4 121.371 29.4C122.651 29.4 123.931 29.544 125.211 29.832C126.491 30.088 127.403 30.408 127.947 30.792C128.331 31.272 128.523 32.088 128.523 33.24C128.523 34.488 128.331 35.448 127.947 36.12C127.179 36.504 126.539 36.696 126.027 36.696C125.867 36.696 125.627 36.664 125.307 36.6C125.691 39.192 125.883 42.008 125.883 45.048C125.883 47.544 125.691 51.16 125.307 55.896C125.435 55.864 125.643 55.848 125.931 55.848C126.571 55.848 127.243 56.024 127.947 56.376C128.107 56.792 128.187 57.48 128.187 58.44C128.187 60.872 127.787 62.248 126.987 62.568C126.635 62.856 125.179 63 122.619 63C119.835 63 118.043 62.568 117.243 61.704C116.731 61.16 116.475 60.248 116.475 58.968C116.475 57.72 116.731 56.824 117.243 56.28C117.979 55.896 118.747 55.704 119.547 55.704C119.163 52.504 118.971 48.36 118.971 43.272C117.915 44.68 116.555 46.088 114.891 47.496C113.227 48.904 111.979 49.608 111.147 49.608C110.315 49.608 109.051 48.92 107.355 47.544C105.691 46.136 104.347 44.728 103.323 43.32C103.163 48.792 102.971 52.984 102.747 55.896C102.875 55.864 103.083 55.848 103.371 55.848C104.011 55.848 104.683 56.024 105.387 56.376C105.931 57.112 106.203 58.104 106.203 59.352C106.203 60.44 105.963 61.24 105.483 61.752C104.715 62.616 103.163 63.048 100.827 63.048C99.4505 63.048 98.1225 62.904 96.8425 62.616C95.5625 62.328 94.8425 62.024 94.6825 61.704C94.2025 61.128 93.9625 60.216 93.9625 58.968ZM133.052 58.056C133.052 57.544 133.308 56.712 133.82 55.56C134.396 55.272 135.036 55.128 135.74 55.128C136.06 55.128 136.316 55.176 136.508 55.272C136.124 52.424 135.932 49.528 135.932 46.584C135.932 42.264 136.268 38.712 136.94 35.928C136.204 36.088 135.612 36.168 135.164 36.168C134.588 36.168 134.14 36.056 133.82 35.832C133.372 35.192 133.148 34.2 133.148 32.856C133.148 32.024 133.452 31.192 134.06 30.36C135.084 29.88 136.956 29.512 139.676 29.256C142.396 28.968 145.02 28.824 147.548 28.824C153.436 28.824 158.172 29.432 161.756 30.648C162.076 32.248 162.236 33.48 162.236 34.344C162.236 35.848 161.868 37.08 161.132 38.04C160.332 38.232 159.644 38.328 159.068 38.328C158.044 38.328 156.732 37.8 155.132 36.744L155.276 35.16C154.668 34.744 153.004 34.536 150.284 34.536C149.324 34.536 148.092 34.584 146.588 34.68C145.084 34.776 144.316 34.872 144.284 34.968C144.412 36.12 144.476 36.968 144.476 37.512C144.476 40.36 144.268 42.312 143.852 43.368C146.988 43.368 148.572 43.32 148.604 43.224C148.572 43.128 148.556 42.984 148.556 42.792C148.556 42.44 148.7 42.008 148.988 41.496C149.18 41.336 149.708 41.256 150.572 41.256C151.916 41.256 152.844 41.368 153.356 41.592C153.996 42.648 154.316 44.168 154.316 46.152C154.316 47.944 153.98 49.176 153.308 49.848C153.052 50.072 152.3 50.184 151.052 50.184C149.804 50.184 149.084 50.072 148.892 49.848C148.604 49.464 148.46 48.984 148.46 48.408L143.612 48.648C143.612 50.536 143.436 53.16 143.084 56.52C143.596 56.968 144.636 57.32 146.204 57.576C147.772 57.8 149.068 57.912 150.092 57.912C150.86 57.912 151.804 57.832 152.924 57.672C154.076 57.48 154.86 57.272 155.276 57.048L155.132 55.464C156.732 54.408 158.06 53.88 159.116 53.88C159.692 53.88 160.364 53.976 161.132 54.168C161.868 55.128 162.236 56.36 162.236 57.864C162.236 58.728 162.076 59.96 161.756 61.56C159.356 62.936 155.004 63.624 148.7 63.624C145.628 63.624 142.7 63.448 139.916 63.096C137.132 62.776 135.18 62.36 134.06 61.848C133.676 61.368 133.404 60.888 133.244 60.408C133.116 59.928 133.052 59.144 133.052 58.056ZM165.856 33.528C165.856 31.288 166.224 29.912 166.96 29.4C167.824 29.144 168.976 29.016 170.416 29.016C172.208 29.016 173.824 29.24 175.264 29.688C175.424 30.296 175.504 30.856 175.504 31.368C175.504 31.624 175.488 31.768 175.456 31.8C176 31.64 176.752 31.4 177.712 31.08C178.704 30.76 179.408 30.536 179.824 30.408C180.24 30.28 180.784 30.12 181.456 29.928C182.16 29.704 182.688 29.56 183.04 29.496C183.424 29.4 183.84 29.32 184.288 29.256C184.768 29.192 185.184 29.16 185.536 29.16C186.944 29.16 188.192 29.56 189.28 30.36C190.4 31.128 191.264 32.104 191.872 33.288C192.512 34.472 192.976 35.656 193.264 36.84C193.584 38.024 193.744 39.112 193.744 40.104C193.744 42.248 193.072 44.12 191.728 45.72C190.416 47.32 188.832 48.632 186.976 49.656C189.184 51.192 191.264 52.776 193.216 54.408C195.168 56.008 196.192 57.048 196.288 57.528C196.544 57.4 196.832 57.336 197.152 57.336C197.504 57.336 197.92 57.432 198.4 57.624C198.88 58.072 199.12 58.84 199.12 59.928C199.12 61.016 198.912 61.768 198.496 62.184C197.44 62.728 195.216 63 191.824 63C190.192 63 188.592 62.728 187.024 62.184C186.704 62.056 186.432 61.736 186.208 61.224C185.984 60.68 185.872 60.088 185.872 59.448C185.872 58.648 186.048 58.072 186.4 57.72C186.624 57.528 186.896 57.432 187.216 57.432C187.44 57.432 187.744 57.496 188.128 57.624C187.776 56.792 187.248 56.056 186.544 55.416C185.84 54.744 185.104 54.232 184.336 53.88C183.568 53.496 182.736 53.176 181.84 52.92C180.976 52.632 180.208 52.44 179.536 52.344C178.896 52.248 178.32 52.184 177.808 52.152L177.088 52.056C177.248 52.856 177.328 53.688 177.328 54.552C177.328 55.384 177.248 56.168 177.088 56.904C177.312 56.808 177.616 56.76 178 56.76C179.024 56.76 179.808 57.048 180.352 57.624C180.48 57.912 180.544 58.664 180.544 59.88C180.544 61.064 180.48 61.8 180.352 62.088C180.16 62.728 177.344 63.048 171.904 63.048C169.952 63.048 168.624 62.984 167.92 62.856C167.248 62.696 166.864 62.44 166.768 62.088C166.64 61.8 166.576 61.064 166.576 59.88C166.576 58.664 166.64 57.912 166.768 57.624C166.928 57.368 167.28 57.16 167.824 57C168.4 56.84 168.944 56.76 169.456 56.76C169.84 56.76 170.096 56.776 170.224 56.808C170.224 56.264 170.208 55.256 170.176 53.784C170.144 52.312 170.128 50.792 170.128 49.224C170.128 43.56 170.288 39.832 170.608 38.04C170.224 38.2 169.728 38.28 169.12 38.28C168.192 38.28 167.552 38.104 167.2 37.752C166.304 37.56 165.856 36.152 165.856 33.528ZM176.464 42.168C176.464 43.512 176.8 44.552 177.472 45.288C178.176 46.024 179.056 46.392 180.112 46.392C181.648 46.392 183.136 45.736 184.576 44.424C186.048 43.08 186.784 41.48 186.784 39.624C186.784 38.344 186.416 37.272 185.68 36.408C184.976 35.512 184.016 35.064 182.8 35.064C181.232 35.064 179.776 35.768 178.432 37.176C177.12 38.584 176.464 40.248 176.464 42.168ZM198.724 59.688C198.724 58.28 198.868 57.336 199.156 56.856C199.444 56.344 200.052 56.088 200.98 56.088C201.972 56.088 202.468 56.216 202.468 56.472C202.692 55.128 204.388 50.344 207.556 42.12C210.756 33.864 212.532 29.704 212.884 29.64C213.908 29.48 215.156 29.4 216.628 29.4C217.396 29.4 218.5 29.48 219.94 29.64C220.292 29.8 222.052 33.992 225.22 42.216C228.42 50.408 230.132 55.16 230.356 56.472C230.356 56.216 230.852 56.088 231.844 56.088C232.772 56.088 233.38 56.344 233.668 56.856C233.956 57.336 234.1 58.28 234.1 59.688C234.1 61.32 233.924 62.232 233.572 62.424C233.156 62.808 230.66 63 226.084 63C222.788 63 221.14 62.824 221.14 62.472C220.436 62.056 220.084 60.632 220.084 58.2C220.084 57.848 220.1 57.576 220.132 57.384C220.164 57.192 220.292 57 220.516 56.808C220.74 56.616 221.06 56.52 221.476 56.52C222.404 56.52 222.868 56.584 222.868 56.712C222.996 56.712 223.06 56.552 223.06 56.232C223.06 55.432 222.628 53.608 221.764 50.76C220.452 50.888 218.708 50.952 216.532 50.952C214.196 50.952 212.372 50.888 211.06 50.76C210.196 53.64 209.764 55.48 209.764 56.28C209.764 56.536 209.828 56.68 209.956 56.712C210.148 56.584 210.564 56.52 211.204 56.52C211.684 56.52 212.036 56.632 212.26 56.856C212.516 57.08 212.66 57.304 212.692 57.528C212.724 57.752 212.74 58.12 212.74 58.632C212.74 60.744 212.388 62.024 211.684 62.472C211.684 62.824 210.036 63 206.74 63C202.164 63 199.668 62.808 199.252 62.424C198.9 62.232 198.724 61.32 198.724 59.688ZM212.788 45.192C214.004 45.096 215.172 45.048 216.292 45.048C217.604 45.048 218.836 45.112 219.988 45.24C218.548 40.984 217.348 37.688 216.388 35.352C215.492 37.56 214.292 40.84 212.788 45.192ZM254.564 33.48C254.564 32.072 254.692 31.176 254.948 30.792C255.94 29.992 257.972 29.592 261.044 29.592C262.548 29.592 264.084 29.704 265.652 29.928C265.908 30.408 266.164 31.192 266.42 32.28C266.676 33.368 266.804 34.296 266.804 35.064C266.804 35.544 266.74 35.896 266.612 36.12C266.132 36.472 265.428 36.648 264.5 36.648C264.244 36.648 264.068 36.632 263.972 36.6C264.484 37.528 265.172 39.624 266.036 42.888C266.932 46.152 267.396 48.568 267.428 50.136C267.876 49.72 268.66 48.616 269.78 46.824C270.932 45 272.052 43.352 273.14 41.88C274.228 40.408 275.092 39.672 275.732 39.672C276.372 39.672 277.236 40.408 278.324 41.88C279.412 43.32 280.532 44.968 281.684 46.824C282.836 48.648 283.62 49.768 284.036 50.184C284.228 48.552 284.708 46.328 285.476 43.512C286.244 40.664 286.916 38.424 287.492 36.792C287.108 36.664 286.836 36.552 286.676 36.456C286.516 36.36 286.34 36.232 286.148 36.072C285.956 35.912 285.748 35.768 285.524 35.64C285.076 35.288 284.852 34.168 284.852 32.28C284.852 31.032 284.964 30.28 285.188 30.024C285.732 29.64 287.044 29.448 289.124 29.448C292.036 29.448 294.292 29.608 295.892 29.928C296.244 30.184 296.516 30.824 296.708 31.848C296.932 32.872 297.044 33.864 297.044 34.824C297.044 35.464 296.98 35.896 296.852 36.12C296.02 36.504 295.252 36.696 294.548 36.696C294.324 36.696 294.052 36.664 293.732 36.6C293.348 43.16 291.588 49.592 288.452 55.896C288.644 55.96 288.82 56.008 288.98 56.04C289.172 56.072 289.3 56.088 289.364 56.088C289.46 56.088 289.572 56.12 289.7 56.184C289.828 56.216 289.972 56.28 290.132 56.376C290.26 56.632 290.324 57.016 290.324 57.528C290.324 58.296 290.196 59.224 289.94 60.312C289.684 61.368 289.428 62.12 289.172 62.568C288.532 62.856 287.38 63 285.716 63C284.02 63 282.548 62.888 281.3 62.664C280.084 62.408 279.46 62.088 279.428 61.704C279.204 61.32 279.092 60.312 279.092 58.68C279.092 57.304 279.204 56.504 279.428 56.28C279.492 56.248 279.668 56.216 279.956 56.184C280.244 56.12 280.564 56.072 280.916 56.04C281.3 55.976 281.556 55.928 281.684 55.896C281.556 55.768 279.556 53.336 275.684 48.6C271.748 53.368 269.764 55.784 269.732 55.848C270.98 55.976 271.86 56.152 272.372 56.376C272.5 56.632 272.564 57.016 272.564 57.528C272.564 58.296 272.436 59.224 272.18 60.312C271.924 61.368 271.668 62.12 271.412 62.568C270.772 62.888 269.364 63.048 267.188 63.048C263.54 63.048 261.7 62.6 261.668 61.704C261.412 61.128 261.284 60.056 261.284 58.488C261.284 57.272 261.412 56.536 261.668 56.28C262.052 55.896 262.5 55.704 263.012 55.704C259.812 48.856 258.052 42.552 257.732 36.792C256.228 36.632 255.3 36.44 254.948 36.216C254.692 35.832 254.564 34.92 254.564 33.48ZM298.652 50.232C298.652 47.832 299.148 45.4 300.14 42.936C301.132 40.44 302.46 38.184 304.124 36.168C305.82 34.152 307.916 32.504 310.412 31.224C312.908 29.944 315.548 29.304 318.332 29.304C322.396 29.304 325.436 30.584 327.452 33.144C329.5 35.704 330.524 38.952 330.524 42.888C330.524 45.256 330.156 47.624 329.42 49.992C328.684 52.328 327.612 54.52 326.204 56.568C324.828 58.616 322.956 60.28 320.588 61.56C318.252 62.84 315.628 63.48 312.716 63.48C308.556 63.48 305.164 62.28 302.54 59.88C299.948 57.448 298.652 54.232 298.652 50.232ZM305.804 49.464C305.804 51.8 306.428 53.672 307.676 55.08C308.924 56.456 310.556 57.144 312.572 57.144C314.684 57.144 316.636 56.36 318.428 54.792C320.22 53.224 321.58 51.368 322.508 49.224C323.436 47.08 323.9 45.016 323.9 43.032C323.9 40.92 323.324 39.208 322.172 37.896C321.052 36.552 319.404 35.88 317.228 35.88C314.988 35.88 312.972 36.616 311.18 38.088C309.388 39.528 308.044 41.272 307.148 43.32C306.252 45.368 305.804 47.416 305.804 49.464ZM334.325 33.528C334.325 31.288 334.693 29.912 335.429 29.4C336.293 29.144 337.445 29.016 338.885 29.016C340.677 29.016 342.293 29.24 343.733 29.688C343.893 30.296 343.973 30.856 343.973 31.368C343.973 31.624 343.957 31.768 343.925 31.8C344.469 31.64 345.221 31.4 346.181 31.08C347.173 30.76 347.877 30.536 348.293 30.408C348.709 30.28 349.253 30.12 349.925 29.928C350.629 29.704 351.157 29.56 351.509 29.496C351.893 29.4 352.309 29.32 352.757 29.256C353.237 29.192 353.653 29.16 354.005 29.16C355.413 29.16 356.661 29.56 357.749 30.36C358.869 31.128 359.733 32.104 360.341 33.288C360.981 34.472 361.445 35.656 361.733 36.84C362.053 38.024 362.213 39.112 362.213 40.104C362.213 42.248 361.541 44.12 360.197 45.72C358.885 47.32 357.301 48.632 355.445 49.656C357.653 51.192 359.733 52.776 361.685 54.408C363.637 56.008 364.661 57.048 364.757 57.528C365.013 57.4 365.301 57.336 365.621 57.336C365.973 57.336 366.389 57.432 366.869 57.624C367.349 58.072 367.589 58.84 367.589 59.928C367.589 61.016 367.381 61.768 366.965 62.184C365.909 62.728 363.685 63 360.293 63C358.661 63 357.061 62.728 355.493 62.184C355.173 62.056 354.901 61.736 354.677 61.224C354.453 60.68 354.341 60.088 354.341 59.448C354.341 58.648 354.517 58.072 354.869 57.72C355.093 57.528 355.365 57.432 355.685 57.432C355.909 57.432 356.213 57.496 356.597 57.624C356.245 56.792 355.717 56.056 355.013 55.416C354.309 54.744 353.573 54.232 352.805 53.88C352.037 53.496 351.205 53.176 350.309 52.92C349.445 52.632 348.677 52.44 348.005 52.344C347.365 52.248 346.789 52.184 346.277 52.152L345.557 52.056C345.717 52.856 345.797 53.688 345.797 54.552C345.797 55.384 345.717 56.168 345.557 56.904C345.781 56.808 346.085 56.76 346.469 56.76C347.493 56.76 348.277 57.048 348.821 57.624C348.949 57.912 349.013 58.664 349.013 59.88C349.013 61.064 348.949 61.8 348.821 62.088C348.629 62.728 345.813 63.048 340.373 63.048C338.421 63.048 337.093 62.984 336.389 62.856C335.717 62.696 335.333 62.44 335.237 62.088C335.109 61.8 335.045 61.064 335.045 59.88C335.045 58.664 335.109 57.912 335.237 57.624C335.397 57.368 335.749 57.16 336.293 57C336.869 56.84 337.413 56.76 337.925 56.76C338.309 56.76 338.565 56.776 338.693 56.808C338.693 56.264 338.677 55.256 338.645 53.784C338.613 52.312 338.597 50.792 338.597 49.224C338.597 43.56 338.757 39.832 339.077 38.04C338.693 38.2 338.197 38.28 337.589 38.28C336.661 38.28 336.021 38.104 335.669 37.752C334.773 37.56 334.325 36.152 334.325 33.528ZM344.933 42.168C344.933 43.512 345.269 44.552 345.941 45.288C346.645 46.024 347.525 46.392 348.581 46.392C350.117 46.392 351.605 45.736 353.045 44.424C354.517 43.08 355.253 41.48 355.253 39.624C355.253 38.344 354.885 37.272 354.149 36.408C353.445 35.512 352.485 35.064 351.269 35.064C349.701 35.064 348.245 35.768 346.901 37.176C345.589 38.584 344.933 40.248 344.933 42.168ZM369.113 33.624C369.113 31.576 369.337 30.2 369.785 29.496C370.841 29.208 372.681 29.064 375.305 29.064C379.977 29.064 382.521 29.208 382.937 29.496C383.417 30.328 383.657 31.72 383.657 33.672C383.657 34.472 383.561 34.968 383.369 35.16C382.665 35.416 381.833 35.544 380.873 35.544C380.265 35.544 379.721 35.48 379.241 35.352C379.145 37.176 379.097 39.256 379.097 41.592C379.097 47.8 379.625 52.792 380.681 56.568C380.745 56.856 381.801 57 383.849 57C386.857 57 388.665 56.792 389.273 56.376L389.129 54.312C390.921 53.32 392.633 52.824 394.265 52.824C394.937 52.824 395.545 52.888 396.089 53.016C396.825 55.16 397.193 56.904 397.193 58.248C397.193 59.272 397.033 60.312 396.713 61.368C395.401 61.816 393.129 62.216 389.897 62.568C386.697 62.92 383.561 63.096 380.489 63.096C375.529 63.096 372.025 62.616 369.977 61.656C369.593 60.888 369.401 59.736 369.401 58.2C369.401 57.304 369.561 56.824 369.881 56.76C370.265 56.568 370.793 56.472 371.465 56.472C371.817 56.472 372.281 56.504 372.857 56.568C372.409 50.648 372.185 45.944 372.185 42.456C372.185 41.464 372.345 39.08 372.665 35.304C372.185 35.4 371.689 35.448 371.177 35.448C370.473 35.448 369.865 35.352 369.353 35.16C369.193 34.968 369.113 34.456 369.113 33.624ZM399.769 33.528C399.769 32.824 399.913 32.296 400.201 31.944C403.241 30.216 406.601 29.352 410.281 29.352C413.641 29.352 416.569 29.8 419.065 30.696C421.593 31.592 423.609 32.872 425.113 34.536C426.649 36.2 427.785 38.12 428.521 40.296C429.257 42.44 429.625 44.856 429.625 47.544C429.625 52.856 428.153 56.84 425.209 59.496C422.265 62.152 417.625 63.48 411.289 63.48C407.545 63.48 403.961 62.808 400.537 61.464C400.217 61.144 400.057 60.04 400.057 58.152C400.057 57.096 400.105 56.408 400.201 56.088C400.297 55.608 400.969 55.368 402.217 55.368C402.569 55.368 402.969 55.4 403.417 55.464C403.097 53.224 402.937 50.248 402.937 46.536C402.937 43.24 403.129 40.2 403.513 37.416C403.161 37.512 402.729 37.56 402.217 37.56C400.969 37.56 400.297 37.32 400.201 36.84C399.913 35.624 399.769 34.52 399.769 33.528ZM410.281 56.616C411.209 56.936 412.217 57.096 413.305 57.096C415.961 57.096 418.249 56.184 420.169 54.36C422.121 52.504 423.097 50.12 423.097 47.208C423.097 44.232 422.137 41.56 420.217 39.192C418.297 36.824 415.993 35.64 413.305 35.64C412.185 35.64 411.177 35.864 410.281 36.312C410.569 39.192 410.713 42.472 410.713 46.152C410.713 50.536 410.569 54.024 410.281 56.616Z" fill="black"/>
</mask>
<g mask="url(#mask0)">
<path d="M34.5906 57.2345C-9.05362 78.5927 -6.19031 57.5904 -28.3976 78.6652C-2.77526 82.3757 50.3885 89.78 58.0649 89.713L370.718 86.9846L416.297 86.5868L483.466 86.0006C489.029 82.018 495.188 73.0065 475.319 68.8222C450.483 63.5917 450.044 56.2073 430.405 53.7803C414.394 51.8016 413.56 47.8748 386.407 52.0459C372.5 56 376.5 62.5 363.5 58.5C317.494 44.3444 310.052 62.8248 296 58.5C263.846 48.6037 268.36 66.8386 244.88 54.0735C232.828 47.521 227.981 45.9294 213.633 47.1986C183.268 49.8845 184.251 39.9388 162.457 47.6451C136 57 127.05 45.1705 112.08 48.0848C69.7688 56.3222 61.6643 43.9854 34.5906 57.2345Z" fill="#05A498"/>
</g>
</svg>
