<svg width="431" height="70" viewBox="0 0 431 70" fill="none" xmlns="http://www.w3.org/2000/svg">
<path d="M1.968 29.488C1.968 24.592 3.216 20.464 5.712 17.104C8.24 13.744 11.584 12.064 15.744 12.064C18.784 12.064 21.024 12.768 22.464 14.176C22.528 13.216 22.864 12.624 23.472 12.4C24.272 12.048 25.248 11.872 26.4 11.872C27.904 11.872 29.088 12.192 29.952 12.832C29.984 13.184 30.048 13.744 30.144 14.512C30.272 15.248 30.368 15.92 30.432 16.528C30.496 17.136 30.528 17.696 30.528 18.208C30.528 20.192 29.952 21.696 28.8 22.72C28.128 23.456 27.024 23.824 25.488 23.824C23.888 23.824 22.688 23.456 21.888 22.72C21.856 22.656 21.84 22.512 21.84 22.288C21.84 21.904 21.888 21.648 21.984 21.52C21.44 20.336 20.56 19.424 19.344 18.784C18.128 18.144 17.024 17.824 16.032 17.824C14.176 17.824 12.448 19.024 10.848 21.424C9.28 23.792 8.496 26.512 8.496 29.584C8.496 32.496 9.232 34.864 10.704 36.688C12.208 38.48 13.936 39.376 15.888 39.376C16.88 39.376 17.984 39.152 19.2 38.704C20.416 38.256 21.312 37.632 21.888 36.832C21.792 36.256 21.744 35.936 21.744 35.872C21.744 35.808 21.744 35.744 21.744 35.68C21.776 35.616 21.792 35.568 21.792 35.536C22.976 34.992 24.016 34.72 24.912 34.72C25.808 34.72 27.12 35.04 28.848 35.68C30 36.704 30.576 38.192 30.576 40.144C30.576 40.656 30.528 41.232 30.432 41.872C30.368 42.48 30.272 43.152 30.144 43.888C30.048 44.624 29.984 45.184 29.952 45.568C28.96 46.368 27.68 46.768 26.112 46.768C24.96 46.768 24.08 46.512 23.472 46C22.8 45.744 22.464 45.12 22.464 44.128C20.352 45.568 18.208 46.288 16.032 46.288C14.336 46.288 12.672 45.936 11.04 45.232C9.408 44.528 7.904 43.504 6.528 42.16C5.152 40.816 4.048 39.056 3.216 36.88C2.384 34.672 1.968 32.208 1.968 29.488ZM32.6306 42.688C32.6306 41.28 32.7746 40.336 33.0626 39.856C33.3506 39.344 33.9586 39.088 34.8866 39.088C35.8786 39.088 36.3746 39.216 36.3746 39.472C36.5986 38.128 38.2946 33.344 41.4626 25.12C44.6626 16.864 46.4386 12.704 46.7906 12.64C47.8146 12.48 49.0626 12.4 50.5346 12.4C51.3026 12.4 52.4066 12.48 53.8466 12.64C54.1986 12.8 55.9586 16.992 59.1266 25.216C62.3266 33.408 64.0386 38.16 64.2626 39.472C64.2626 39.216 64.7586 39.088 65.7506 39.088C66.6786 39.088 67.2866 39.344 67.5746 39.856C67.8626 40.336 68.0066 41.28 68.0066 42.688C68.0066 44.32 67.8306 45.232 67.4786 45.424C67.0626 45.808 64.5666 46 59.9906 46C56.6946 46 55.0466 45.824 55.0466 45.472C54.3426 45.056 53.9906 43.632 53.9906 41.2C53.9906 40.848 54.0066 40.576 54.0386 40.384C54.0706 40.192 54.1986 40 54.4226 39.808C54.6466 39.616 54.9666 39.52 55.3826 39.52C56.3106 39.52 56.7746 39.584 56.7746 39.712C56.9026 39.712 56.9666 39.552 56.9666 39.232C56.9666 38.432 56.5346 36.608 55.6706 33.76C54.3586 33.888 52.6146 33.952 50.4386 33.952C48.1026 33.952 46.2786 33.888 44.9666 33.76C44.1026 36.64 43.6706 38.48 43.6706 39.28C43.6706 39.536 43.7346 39.68 43.8626 39.712C44.0546 39.584 44.4706 39.52 45.1106 39.52C45.5906 39.52 45.9426 39.632 46.1666 39.856C46.4226 40.08 46.5666 40.304 46.5986 40.528C46.6306 40.752 46.6466 41.12 46.6466 41.632C46.6466 43.744 46.2946 45.024 45.5906 45.472C45.5906 45.824 43.9426 46 40.6466 46C36.0706 46 33.5746 45.808 33.1586 45.424C32.8066 45.232 32.6306 44.32 32.6306 42.688ZM46.6946 28.192C47.9106 28.096 49.0786 28.048 50.1986 28.048C51.5106 28.048 52.7426 28.112 53.8946 28.24C52.4546 23.984 51.2546 20.688 50.2946 18.352C49.3986 20.56 48.1986 23.84 46.6946 28.192ZM70.65 41.968C70.65 40.752 70.89 39.856 71.37 39.28C72.17 38.896 72.938 38.704 73.674 38.704C73.29 35.504 73.098 32.288 73.098 29.056C73.098 25.952 73.29 22.864 73.674 19.792C73.45 19.696 73.066 19.616 72.522 19.552C72.01 19.488 71.626 19.376 71.37 19.216C71.114 18.832 70.986 17.92 70.986 16.48C70.986 15.072 71.114 14.176 71.37 13.792C72.106 12.896 73.93 12.448 76.842 12.448C79.626 12.448 81.354 12.864 82.026 13.696C82.57 15.008 82.842 16.352 82.842 17.728C82.842 18.336 82.746 18.8 82.554 19.12C81.882 19.44 81.322 19.616 80.874 19.648C81.322 20.128 82.458 21.216 84.282 22.912C86.106 24.576 87.29 25.744 87.834 26.416C88.378 25.744 89.546 24.56 91.338 22.864C93.162 21.168 94.298 20.08 94.746 19.6C94.106 19.472 93.674 19.344 93.45 19.216C93.194 18.832 93.066 17.92 93.066 16.48C93.066 15.072 93.194 14.176 93.45 13.792C94.154 12.864 95.69 12.4 98.058 12.4C99.338 12.4 100.618 12.544 101.898 12.832C103.178 13.088 104.09 13.408 104.634 13.792C105.018 14.272 105.21 15.088 105.21 16.24C105.21 17.488 105.018 18.448 104.634 19.12C103.866 19.504 103.226 19.696 102.714 19.696C102.554 19.696 102.314 19.664 101.994 19.6C102.378 22.192 102.57 25.008 102.57 28.048C102.57 30.544 102.378 34.16 101.994 38.896C102.122 38.864 102.33 38.848 102.618 38.848C103.258 38.848 103.93 39.024 104.634 39.376C104.794 39.792 104.874 40.48 104.874 41.44C104.874 43.872 104.474 45.248 103.674 45.568C103.322 45.856 101.866 46 99.306 46C96.522 46 94.73 45.568 93.93 44.704C93.418 44.16 93.162 43.248 93.162 41.968C93.162 40.72 93.418 39.824 93.93 39.28C94.666 38.896 95.434 38.704 96.234 38.704C95.85 35.504 95.658 31.36 95.658 26.272C94.602 27.68 93.242 29.088 91.578 30.496C89.914 31.904 88.666 32.608 87.834 32.608C87.002 32.608 85.738 31.92 84.042 30.544C82.378 29.136 81.034 27.728 80.01 26.32C79.85 31.792 79.658 35.984 79.434 38.896C79.562 38.864 79.77 38.848 80.058 38.848C80.698 38.848 81.37 39.024 82.074 39.376C82.618 40.112 82.89 41.104 82.89 42.352C82.89 43.44 82.65 44.24 82.17 44.752C81.402 45.616 79.85 46.048 77.514 46.048C76.138 46.048 74.81 45.904 73.53 45.616C72.25 45.328 71.53 45.024 71.37 44.704C70.89 44.128 70.65 43.216 70.65 41.968ZM109.739 41.056C109.739 40.544 109.995 39.712 110.507 38.56C111.083 38.272 111.723 38.128 112.427 38.128C112.747 38.128 113.003 38.176 113.195 38.272C112.811 35.424 112.619 32.528 112.619 29.584C112.619 25.264 112.955 21.712 113.627 18.928C112.891 19.088 112.299 19.168 111.851 19.168C111.275 19.168 110.827 19.056 110.507 18.832C110.059 18.192 109.835 17.2 109.835 15.856C109.835 15.024 110.139 14.192 110.747 13.36C111.771 12.88 113.643 12.512 116.363 12.256C119.083 11.968 121.707 11.824 124.235 11.824C130.123 11.824 134.859 12.432 138.443 13.648C138.763 15.248 138.923 16.48 138.923 17.344C138.923 18.848 138.555 20.08 137.819 21.04C137.019 21.232 136.331 21.328 135.755 21.328C134.731 21.328 133.419 20.8 131.819 19.744L131.963 18.16C131.355 17.744 129.691 17.536 126.971 17.536C126.011 17.536 124.779 17.584 123.275 17.68C121.771 17.776 121.003 17.872 120.971 17.968C121.099 19.12 121.163 19.968 121.163 20.512C121.163 23.36 120.955 25.312 120.539 26.368C123.675 26.368 125.259 26.32 125.291 26.224C125.259 26.128 125.243 25.984 125.243 25.792C125.243 25.44 125.387 25.008 125.675 24.496C125.867 24.336 126.395 24.256 127.259 24.256C128.603 24.256 129.531 24.368 130.043 24.592C130.683 25.648 131.003 27.168 131.003 29.152C131.003 30.944 130.667 32.176 129.995 32.848C129.739 33.072 128.987 33.184 127.739 33.184C126.491 33.184 125.771 33.072 125.579 32.848C125.291 32.464 125.147 31.984 125.147 31.408L120.299 31.648C120.299 33.536 120.123 36.16 119.771 39.52C120.283 39.968 121.323 40.32 122.891 40.576C124.459 40.8 125.755 40.912 126.779 40.912C127.547 40.912 128.491 40.832 129.611 40.672C130.763 40.48 131.547 40.272 131.963 40.048L131.819 38.464C133.419 37.408 134.747 36.88 135.803 36.88C136.379 36.88 137.051 36.976 137.819 37.168C138.555 38.128 138.923 39.36 138.923 40.864C138.923 41.728 138.763 42.96 138.443 44.56C136.043 45.936 131.691 46.624 125.387 46.624C122.315 46.624 119.387 46.448 116.603 46.096C113.819 45.776 111.867 45.36 110.747 44.848C110.363 44.368 110.091 43.888 109.931 43.408C109.803 42.928 109.739 42.144 109.739 41.056ZM142.544 16.528C142.544 14.288 142.912 12.912 143.648 12.4C144.512 12.144 145.664 12.016 147.104 12.016C148.896 12.016 150.512 12.24 151.952 12.688C152.112 13.296 152.192 13.856 152.192 14.368C152.192 14.624 152.176 14.768 152.144 14.8C152.688 14.64 153.44 14.4 154.4 14.08C155.392 13.76 156.096 13.536 156.512 13.408C156.928 13.28 157.472 13.12 158.144 12.928C158.848 12.704 159.376 12.56 159.728 12.496C160.112 12.4 160.528 12.32 160.976 12.256C161.456 12.192 161.872 12.16 162.224 12.16C163.632 12.16 164.88 12.56 165.968 13.36C167.088 14.128 167.952 15.104 168.56 16.288C169.2 17.472 169.664 18.656 169.952 19.84C170.272 21.024 170.432 22.112 170.432 23.104C170.432 25.248 169.76 27.12 168.416 28.72C167.104 30.32 165.52 31.632 163.664 32.656C165.872 34.192 167.952 35.776 169.904 37.408C171.856 39.008 172.88 40.048 172.976 40.528C173.232 40.4 173.52 40.336 173.84 40.336C174.192 40.336 174.608 40.432 175.088 40.624C175.568 41.072 175.808 41.84 175.808 42.928C175.808 44.016 175.6 44.768 175.184 45.184C174.128 45.728 171.904 46 168.512 46C166.88 46 165.28 45.728 163.712 45.184C163.392 45.056 163.12 44.736 162.896 44.224C162.672 43.68 162.56 43.088 162.56 42.448C162.56 41.648 162.736 41.072 163.088 40.72C163.312 40.528 163.584 40.432 163.904 40.432C164.128 40.432 164.432 40.496 164.816 40.624C164.464 39.792 163.936 39.056 163.232 38.416C162.528 37.744 161.792 37.232 161.024 36.88C160.256 36.496 159.424 36.176 158.528 35.92C157.664 35.632 156.896 35.44 156.224 35.344C155.584 35.248 155.008 35.184 154.496 35.152L153.776 35.056C153.936 35.856 154.016 36.688 154.016 37.552C154.016 38.384 153.936 39.168 153.776 39.904C154 39.808 154.304 39.76 154.688 39.76C155.712 39.76 156.496 40.048 157.04 40.624C157.168 40.912 157.232 41.664 157.232 42.88C157.232 44.064 157.168 44.8 157.04 45.088C156.848 45.728 154.032 46.048 148.592 46.048C146.64 46.048 145.312 45.984 144.608 45.856C143.936 45.696 143.552 45.44 143.456 45.088C143.328 44.8 143.264 44.064 143.264 42.88C143.264 41.664 143.328 40.912 143.456 40.624C143.616 40.368 143.968 40.16 144.512 40C145.088 39.84 145.632 39.76 146.144 39.76C146.528 39.76 146.784 39.776 146.912 39.808C146.912 39.264 146.896 38.256 146.864 36.784C146.832 35.312 146.816 33.792 146.816 32.224C146.816 26.56 146.976 22.832 147.296 21.04C146.912 21.2 146.416 21.28 145.808 21.28C144.88 21.28 144.24 21.104 143.888 20.752C142.992 20.56 142.544 19.152 142.544 16.528ZM153.152 25.168C153.152 26.512 153.488 27.552 154.16 28.288C154.864 29.024 155.744 29.392 156.8 29.392C158.336 29.392 159.824 28.736 161.264 27.424C162.736 26.08 163.472 24.48 163.472 22.624C163.472 21.344 163.104 20.272 162.368 19.408C161.664 18.512 160.704 18.064 159.488 18.064C157.92 18.064 156.464 18.768 155.12 20.176C153.808 21.584 153.152 23.248 153.152 25.168ZM175.412 42.688C175.412 41.28 175.556 40.336 175.844 39.856C176.132 39.344 176.74 39.088 177.668 39.088C178.66 39.088 179.156 39.216 179.156 39.472C179.38 38.128 181.076 33.344 184.244 25.12C187.444 16.864 189.22 12.704 189.572 12.64C190.596 12.48 191.844 12.4 193.316 12.4C194.084 12.4 195.188 12.48 196.628 12.64C196.98 12.8 198.74 16.992 201.908 25.216C205.108 33.408 206.82 38.16 207.044 39.472C207.044 39.216 207.54 39.088 208.532 39.088C209.46 39.088 210.068 39.344 210.356 39.856C210.644 40.336 210.788 41.28 210.788 42.688C210.788 44.32 210.612 45.232 210.26 45.424C209.844 45.808 207.348 46 202.772 46C199.476 46 197.828 45.824 197.828 45.472C197.124 45.056 196.772 43.632 196.772 41.2C196.772 40.848 196.788 40.576 196.82 40.384C196.852 40.192 196.98 40 197.204 39.808C197.428 39.616 197.748 39.52 198.164 39.52C199.092 39.52 199.556 39.584 199.556 39.712C199.684 39.712 199.748 39.552 199.748 39.232C199.748 38.432 199.316 36.608 198.452 33.76C197.14 33.888 195.396 33.952 193.22 33.952C190.884 33.952 189.06 33.888 187.748 33.76C186.884 36.64 186.452 38.48 186.452 39.28C186.452 39.536 186.516 39.68 186.644 39.712C186.836 39.584 187.252 39.52 187.892 39.52C188.372 39.52 188.724 39.632 188.948 39.856C189.204 40.08 189.348 40.304 189.38 40.528C189.412 40.752 189.428 41.12 189.428 41.632C189.428 43.744 189.076 45.024 188.372 45.472C188.372 45.824 186.724 46 183.428 46C178.852 46 176.356 45.808 175.94 45.424C175.588 45.232 175.412 44.32 175.412 42.688ZM189.476 28.192C190.692 28.096 191.86 28.048 192.98 28.048C194.292 28.048 195.524 28.112 196.676 28.24C195.236 23.984 194.036 20.688 193.076 18.352C192.18 20.56 190.98 23.84 189.476 28.192ZM231.251 16.48C231.251 15.072 231.379 14.176 231.635 13.792C232.627 12.992 234.659 12.592 237.731 12.592C239.235 12.592 240.771 12.704 242.339 12.928C242.595 13.408 242.851 14.192 243.107 15.28C243.363 16.368 243.491 17.296 243.491 18.064C243.491 18.544 243.427 18.896 243.299 19.12C242.819 19.472 242.115 19.648 241.187 19.648C240.931 19.648 240.755 19.632 240.659 19.6C241.171 20.528 241.859 22.624 242.723 25.888C243.619 29.152 244.083 31.568 244.115 33.136C244.563 32.72 245.347 31.616 246.467 29.824C247.619 28 248.739 26.352 249.827 24.88C250.915 23.408 251.779 22.672 252.419 22.672C253.059 22.672 253.923 23.408 255.011 24.88C256.099 26.32 257.219 27.968 258.371 29.824C259.523 31.648 260.307 32.768 260.723 33.184C260.915 31.552 261.395 29.328 262.163 26.512C262.931 23.664 263.603 21.424 264.179 19.792C263.795 19.664 263.523 19.552 263.363 19.456C263.203 19.36 263.027 19.232 262.835 19.072C262.643 18.912 262.435 18.768 262.211 18.64C261.763 18.288 261.539 17.168 261.539 15.28C261.539 14.032 261.651 13.28 261.875 13.024C262.419 12.64 263.731 12.448 265.811 12.448C268.723 12.448 270.979 12.608 272.579 12.928C272.931 13.184 273.203 13.824 273.395 14.848C273.619 15.872 273.731 16.864 273.731 17.824C273.731 18.464 273.667 18.896 273.539 19.12C272.707 19.504 271.939 19.696 271.235 19.696C271.011 19.696 270.739 19.664 270.419 19.6C270.035 26.16 268.275 32.592 265.139 38.896C265.331 38.96 265.507 39.008 265.667 39.04C265.859 39.072 265.987 39.088 266.051 39.088C266.147 39.088 266.259 39.12 266.387 39.184C266.515 39.216 266.659 39.28 266.819 39.376C266.947 39.632 267.011 40.016 267.011 40.528C267.011 41.296 266.883 42.224 266.627 43.312C266.371 44.368 266.115 45.12 265.859 45.568C265.219 45.856 264.067 46 262.403 46C260.707 46 259.235 45.888 257.987 45.664C256.771 45.408 256.147 45.088 256.115 44.704C255.891 44.32 255.779 43.312 255.779 41.68C255.779 40.304 255.891 39.504 256.115 39.28C256.179 39.248 256.355 39.216 256.643 39.184C256.931 39.12 257.251 39.072 257.603 39.04C257.987 38.976 258.243 38.928 258.371 38.896C258.243 38.768 256.243 36.336 252.371 31.6C248.435 36.368 246.451 38.784 246.419 38.848C247.667 38.976 248.547 39.152 249.059 39.376C249.187 39.632 249.251 40.016 249.251 40.528C249.251 41.296 249.123 42.224 248.867 43.312C248.611 44.368 248.355 45.12 248.099 45.568C247.459 45.888 246.051 46.048 243.875 46.048C240.227 46.048 238.387 45.6 238.355 44.704C238.099 44.128 237.971 43.056 237.971 41.488C237.971 40.272 238.099 39.536 238.355 39.28C238.739 38.896 239.187 38.704 239.699 38.704C236.499 31.856 234.739 25.552 234.419 19.792C232.915 19.632 231.987 19.44 231.635 19.216C231.379 18.832 231.251 17.92 231.251 16.48ZM275.34 33.232C275.34 30.832 275.836 28.4 276.828 25.936C277.82 23.44 279.148 21.184 280.812 19.168C282.508 17.152 284.604 15.504 287.1 14.224C289.596 12.944 292.236 12.304 295.02 12.304C299.084 12.304 302.124 13.584 304.14 16.144C306.188 18.704 307.212 21.952 307.212 25.888C307.212 28.256 306.844 30.624 306.108 32.992C305.372 35.328 304.3 37.52 302.892 39.568C301.516 41.616 299.644 43.28 297.276 44.56C294.94 45.84 292.316 46.48 289.404 46.48C285.244 46.48 281.852 45.28 279.228 42.88C276.636 40.448 275.34 37.232 275.34 33.232ZM282.492 32.464C282.492 34.8 283.116 36.672 284.364 38.08C285.612 39.456 287.244 40.144 289.26 40.144C291.372 40.144 293.324 39.36 295.116 37.792C296.908 36.224 298.268 34.368 299.196 32.224C300.124 30.08 300.588 28.016 300.588 26.032C300.588 23.92 300.012 22.208 298.86 20.896C297.74 19.552 296.092 18.88 293.916 18.88C291.676 18.88 289.66 19.616 287.868 21.088C286.076 22.528 284.732 24.272 283.836 26.32C282.94 28.368 282.492 30.416 282.492 32.464ZM311.013 16.528C311.013 14.288 311.381 12.912 312.117 12.4C312.981 12.144 314.133 12.016 315.573 12.016C317.365 12.016 318.981 12.24 320.421 12.688C320.581 13.296 320.661 13.856 320.661 14.368C320.661 14.624 320.645 14.768 320.613 14.8C321.157 14.64 321.909 14.4 322.869 14.08C323.861 13.76 324.565 13.536 324.981 13.408C325.397 13.28 325.941 13.12 326.613 12.928C327.317 12.704 327.845 12.56 328.197 12.496C328.581 12.4 328.997 12.32 329.445 12.256C329.925 12.192 330.341 12.16 330.693 12.16C332.101 12.16 333.349 12.56 334.437 13.36C335.557 14.128 336.421 15.104 337.029 16.288C337.669 17.472 338.133 18.656 338.421 19.84C338.741 21.024 338.901 22.112 338.901 23.104C338.901 25.248 338.229 27.12 336.885 28.72C335.573 30.32 333.989 31.632 332.133 32.656C334.341 34.192 336.421 35.776 338.373 37.408C340.325 39.008 341.349 40.048 341.445 40.528C341.701 40.4 341.989 40.336 342.309 40.336C342.661 40.336 343.077 40.432 343.557 40.624C344.037 41.072 344.277 41.84 344.277 42.928C344.277 44.016 344.069 44.768 343.653 45.184C342.597 45.728 340.373 46 336.981 46C335.349 46 333.749 45.728 332.181 45.184C331.861 45.056 331.589 44.736 331.365 44.224C331.141 43.68 331.029 43.088 331.029 42.448C331.029 41.648 331.205 41.072 331.557 40.72C331.781 40.528 332.053 40.432 332.373 40.432C332.597 40.432 332.901 40.496 333.285 40.624C332.933 39.792 332.405 39.056 331.701 38.416C330.997 37.744 330.261 37.232 329.493 36.88C328.725 36.496 327.893 36.176 326.997 35.92C326.133 35.632 325.365 35.44 324.693 35.344C324.053 35.248 323.477 35.184 322.965 35.152L322.245 35.056C322.405 35.856 322.485 36.688 322.485 37.552C322.485 38.384 322.405 39.168 322.245 39.904C322.469 39.808 322.773 39.76 323.157 39.76C324.181 39.76 324.965 40.048 325.509 40.624C325.637 40.912 325.701 41.664 325.701 42.88C325.701 44.064 325.637 44.8 325.509 45.088C325.317 45.728 322.501 46.048 317.061 46.048C315.109 46.048 313.781 45.984 313.077 45.856C312.405 45.696 312.021 45.44 311.925 45.088C311.797 44.8 311.733 44.064 311.733 42.88C311.733 41.664 311.797 40.912 311.925 40.624C312.085 40.368 312.437 40.16 312.981 40C313.557 39.84 314.101 39.76 314.613 39.76C314.997 39.76 315.253 39.776 315.381 39.808C315.381 39.264 315.365 38.256 315.333 36.784C315.301 35.312 315.285 33.792 315.285 32.224C315.285 26.56 315.445 22.832 315.765 21.04C315.381 21.2 314.885 21.28 314.277 21.28C313.349 21.28 312.709 21.104 312.357 20.752C311.461 20.56 311.013 19.152 311.013 16.528ZM321.621 25.168C321.621 26.512 321.957 27.552 322.629 28.288C323.333 29.024 324.213 29.392 325.269 29.392C326.805 29.392 328.293 28.736 329.733 27.424C331.205 26.08 331.941 24.48 331.941 22.624C331.941 21.344 331.573 20.272 330.837 19.408C330.133 18.512 329.173 18.064 327.957 18.064C326.389 18.064 324.933 18.768 323.589 20.176C322.277 21.584 321.621 23.248 321.621 25.168ZM345.801 16.624C345.801 14.576 346.025 13.2 346.473 12.496C347.529 12.208 349.369 12.064 351.993 12.064C356.665 12.064 359.209 12.208 359.625 12.496C360.105 13.328 360.345 14.72 360.345 16.672C360.345 17.472 360.249 17.968 360.057 18.16C359.353 18.416 358.521 18.544 357.561 18.544C356.953 18.544 356.409 18.48 355.929 18.352C355.833 20.176 355.785 22.256 355.785 24.592C355.785 30.8 356.313 35.792 357.369 39.568C357.433 39.856 358.489 40 360.537 40C363.545 40 365.353 39.792 365.961 39.376L365.817 37.312C367.609 36.32 369.321 35.824 370.953 35.824C371.625 35.824 372.233 35.888 372.777 36.016C373.513 38.16 373.881 39.904 373.881 41.248C373.881 42.272 373.721 43.312 373.401 44.368C372.089 44.816 369.817 45.216 366.585 45.568C363.385 45.92 360.249 46.096 357.177 46.096C352.217 46.096 348.713 45.616 346.665 44.656C346.281 43.888 346.089 42.736 346.089 41.2C346.089 40.304 346.249 39.824 346.569 39.76C346.953 39.568 347.481 39.472 348.153 39.472C348.505 39.472 348.969 39.504 349.545 39.568C349.097 33.648 348.873 28.944 348.873 25.456C348.873 24.464 349.033 22.08 349.353 18.304C348.873 18.4 348.377 18.448 347.865 18.448C347.161 18.448 346.553 18.352 346.041 18.16C345.881 17.968 345.801 17.456 345.801 16.624ZM376.457 16.528C376.457 15.824 376.601 15.296 376.889 14.944C379.929 13.216 383.289 12.352 386.969 12.352C390.329 12.352 393.257 12.8 395.753 13.696C398.281 14.592 400.297 15.872 401.801 17.536C403.337 19.2 404.473 21.12 405.209 23.296C405.945 25.44 406.313 27.856 406.313 30.544C406.313 35.856 404.841 39.84 401.897 42.496C398.953 45.152 394.313 46.48 387.977 46.48C384.233 46.48 380.649 45.808 377.225 44.464C376.905 44.144 376.745 43.04 376.745 41.152C376.745 40.096 376.793 39.408 376.889 39.088C376.985 38.608 377.657 38.368 378.905 38.368C379.257 38.368 379.657 38.4 380.105 38.464C379.785 36.224 379.625 33.248 379.625 29.536C379.625 26.24 379.817 23.2 380.201 20.416C379.849 20.512 379.417 20.56 378.905 20.56C377.657 20.56 376.985 20.32 376.889 19.84C376.601 18.624 376.457 17.52 376.457 16.528ZM386.969 39.616C387.897 39.936 388.905 40.096 389.993 40.096C392.649 40.096 394.937 39.184 396.857 37.36C398.809 35.504 399.785 33.12 399.785 30.208C399.785 27.232 398.825 24.56 396.905 22.192C394.985 19.824 392.681 18.64 389.993 18.64C388.873 18.64 387.865 18.864 386.969 19.312C387.257 22.192 387.401 25.472 387.401 29.152C387.401 33.536 387.257 37.024 386.969 39.616Z" fill="white"/>
<mask id="mask0" mask-type="alpha" maskUnits="userSpaceOnUse" x="1" y="11" width="406" height="36">
<path d="M1.968 29.488C1.968 24.592 3.216 20.464 5.712 17.104C8.24 13.744 11.584 12.064 15.744 12.064C18.784 12.064 21.024 12.768 22.464 14.176C22.528 13.216 22.864 12.624 23.472 12.4C24.272 12.048 25.248 11.872 26.4 11.872C27.904 11.872 29.088 12.192 29.952 12.832C29.984 13.184 30.048 13.744 30.144 14.512C30.272 15.248 30.368 15.92 30.432 16.528C30.496 17.136 30.528 17.696 30.528 18.208C30.528 20.192 29.952 21.696 28.8 22.72C28.128 23.456 27.024 23.824 25.488 23.824C23.888 23.824 22.688 23.456 21.888 22.72C21.856 22.656 21.84 22.512 21.84 22.288C21.84 21.904 21.888 21.648 21.984 21.52C21.44 20.336 20.56 19.424 19.344 18.784C18.128 18.144 17.024 17.824 16.032 17.824C14.176 17.824 12.448 19.024 10.848 21.424C9.28 23.792 8.496 26.512 8.496 29.584C8.496 32.496 9.232 34.864 10.704 36.688C12.208 38.48 13.936 39.376 15.888 39.376C16.88 39.376 17.984 39.152 19.2 38.704C20.416 38.256 21.312 37.632 21.888 36.832C21.792 36.256 21.744 35.936 21.744 35.872C21.744 35.808 21.744 35.744 21.744 35.68C21.776 35.616 21.792 35.568 21.792 35.536C22.976 34.992 24.016 34.72 24.912 34.72C25.808 34.72 27.12 35.04 28.848 35.68C30 36.704 30.576 38.192 30.576 40.144C30.576 40.656 30.528 41.232 30.432 41.872C30.368 42.48 30.272 43.152 30.144 43.888C30.048 44.624 29.984 45.184 29.952 45.568C28.96 46.368 27.68 46.768 26.112 46.768C24.96 46.768 24.08 46.512 23.472 46C22.8 45.744 22.464 45.12 22.464 44.128C20.352 45.568 18.208 46.288 16.032 46.288C14.336 46.288 12.672 45.936 11.04 45.232C9.408 44.528 7.904 43.504 6.528 42.16C5.152 40.816 4.048 39.056 3.216 36.88C2.384 34.672 1.968 32.208 1.968 29.488ZM32.6306 42.688C32.6306 41.28 32.7746 40.336 33.0626 39.856C33.3506 39.344 33.9586 39.088 34.8866 39.088C35.8786 39.088 36.3746 39.216 36.3746 39.472C36.5986 38.128 38.2946 33.344 41.4626 25.12C44.6626 16.864 46.4386 12.704 46.7906 12.64C47.8146 12.48 49.0626 12.4 50.5346 12.4C51.3026 12.4 52.4066 12.48 53.8466 12.64C54.1986 12.8 55.9586 16.992 59.1266 25.216C62.3266 33.408 64.0386 38.16 64.2626 39.472C64.2626 39.216 64.7586 39.088 65.7506 39.088C66.6786 39.088 67.2866 39.344 67.5746 39.856C67.8626 40.336 68.0066 41.28 68.0066 42.688C68.0066 44.32 67.8306 45.232 67.4786 45.424C67.0626 45.808 64.5666 46 59.9906 46C56.6946 46 55.0466 45.824 55.0466 45.472C54.3426 45.056 53.9906 43.632 53.9906 41.2C53.9906 40.848 54.0066 40.576 54.0386 40.384C54.0706 40.192 54.1986 40 54.4226 39.808C54.6466 39.616 54.9666 39.52 55.3826 39.52C56.3106 39.52 56.7746 39.584 56.7746 39.712C56.9026 39.712 56.9666 39.552 56.9666 39.232C56.9666 38.432 56.5346 36.608 55.6706 33.76C54.3586 33.888 52.6146 33.952 50.4386 33.952C48.1026 33.952 46.2786 33.888 44.9666 33.76C44.1026 36.64 43.6706 38.48 43.6706 39.28C43.6706 39.536 43.7346 39.68 43.8626 39.712C44.0546 39.584 44.4706 39.52 45.1106 39.52C45.5906 39.52 45.9426 39.632 46.1666 39.856C46.4226 40.08 46.5666 40.304 46.5986 40.528C46.6306 40.752 46.6466 41.12 46.6466 41.632C46.6466 43.744 46.2946 45.024 45.5906 45.472C45.5906 45.824 43.9426 46 40.6466 46C36.0706 46 33.5746 45.808 33.1586 45.424C32.8066 45.232 32.6306 44.32 32.6306 42.688ZM46.6946 28.192C47.9106 28.096 49.0786 28.048 50.1986 28.048C51.5106 28.048 52.7426 28.112 53.8946 28.24C52.4546 23.984 51.2546 20.688 50.2946 18.352C49.3986 20.56 48.1986 23.84 46.6946 28.192ZM70.65 41.968C70.65 40.752 70.89 39.856 71.37 39.28C72.17 38.896 72.938 38.704 73.674 38.704C73.29 35.504 73.098 32.288 73.098 29.056C73.098 25.952 73.29 22.864 73.674 19.792C73.45 19.696 73.066 19.616 72.522 19.552C72.01 19.488 71.626 19.376 71.37 19.216C71.114 18.832 70.986 17.92 70.986 16.48C70.986 15.072 71.114 14.176 71.37 13.792C72.106 12.896 73.93 12.448 76.842 12.448C79.626 12.448 81.354 12.864 82.026 13.696C82.57 15.008 82.842 16.352 82.842 17.728C82.842 18.336 82.746 18.8 82.554 19.12C81.882 19.44 81.322 19.616 80.874 19.648C81.322 20.128 82.458 21.216 84.282 22.912C86.106 24.576 87.29 25.744 87.834 26.416C88.378 25.744 89.546 24.56 91.338 22.864C93.162 21.168 94.298 20.08 94.746 19.6C94.106 19.472 93.674 19.344 93.45 19.216C93.194 18.832 93.066 17.92 93.066 16.48C93.066 15.072 93.194 14.176 93.45 13.792C94.154 12.864 95.69 12.4 98.058 12.4C99.338 12.4 100.618 12.544 101.898 12.832C103.178 13.088 104.09 13.408 104.634 13.792C105.018 14.272 105.21 15.088 105.21 16.24C105.21 17.488 105.018 18.448 104.634 19.12C103.866 19.504 103.226 19.696 102.714 19.696C102.554 19.696 102.314 19.664 101.994 19.6C102.378 22.192 102.57 25.008 102.57 28.048C102.57 30.544 102.378 34.16 101.994 38.896C102.122 38.864 102.33 38.848 102.618 38.848C103.258 38.848 103.93 39.024 104.634 39.376C104.794 39.792 104.874 40.48 104.874 41.44C104.874 43.872 104.474 45.248 103.674 45.568C103.322 45.856 101.866 46 99.306 46C96.522 46 94.73 45.568 93.93 44.704C93.418 44.16 93.162 43.248 93.162 41.968C93.162 40.72 93.418 39.824 93.93 39.28C94.666 38.896 95.434 38.704 96.234 38.704C95.85 35.504 95.658 31.36 95.658 26.272C94.602 27.68 93.242 29.088 91.578 30.496C89.914 31.904 88.666 32.608 87.834 32.608C87.002 32.608 85.738 31.92 84.042 30.544C82.378 29.136 81.034 27.728 80.01 26.32C79.85 31.792 79.658 35.984 79.434 38.896C79.562 38.864 79.77 38.848 80.058 38.848C80.698 38.848 81.37 39.024 82.074 39.376C82.618 40.112 82.89 41.104 82.89 42.352C82.89 43.44 82.65 44.24 82.17 44.752C81.402 45.616 79.85 46.048 77.514 46.048C76.138 46.048 74.81 45.904 73.53 45.616C72.25 45.328 71.53 45.024 71.37 44.704C70.89 44.128 70.65 43.216 70.65 41.968ZM109.739 41.056C109.739 40.544 109.995 39.712 110.507 38.56C111.083 38.272 111.723 38.128 112.427 38.128C112.747 38.128 113.003 38.176 113.195 38.272C112.811 35.424 112.619 32.528 112.619 29.584C112.619 25.264 112.955 21.712 113.627 18.928C112.891 19.088 112.299 19.168 111.851 19.168C111.275 19.168 110.827 19.056 110.507 18.832C110.059 18.192 109.835 17.2 109.835 15.856C109.835 15.024 110.139 14.192 110.747 13.36C111.771 12.88 113.643 12.512 116.363 12.256C119.083 11.968 121.707 11.824 124.235 11.824C130.123 11.824 134.859 12.432 138.443 13.648C138.763 15.248 138.923 16.48 138.923 17.344C138.923 18.848 138.555 20.08 137.819 21.04C137.019 21.232 136.331 21.328 135.755 21.328C134.731 21.328 133.419 20.8 131.819 19.744L131.963 18.16C131.355 17.744 129.691 17.536 126.971 17.536C126.011 17.536 124.779 17.584 123.275 17.68C121.771 17.776 121.003 17.872 120.971 17.968C121.099 19.12 121.163 19.968 121.163 20.512C121.163 23.36 120.955 25.312 120.539 26.368C123.675 26.368 125.259 26.32 125.291 26.224C125.259 26.128 125.243 25.984 125.243 25.792C125.243 25.44 125.387 25.008 125.675 24.496C125.867 24.336 126.395 24.256 127.259 24.256C128.603 24.256 129.531 24.368 130.043 24.592C130.683 25.648 131.003 27.168 131.003 29.152C131.003 30.944 130.667 32.176 129.995 32.848C129.739 33.072 128.987 33.184 127.739 33.184C126.491 33.184 125.771 33.072 125.579 32.848C125.291 32.464 125.147 31.984 125.147 31.408L120.299 31.648C120.299 33.536 120.123 36.16 119.771 39.52C120.283 39.968 121.323 40.32 122.891 40.576C124.459 40.8 125.755 40.912 126.779 40.912C127.547 40.912 128.491 40.832 129.611 40.672C130.763 40.48 131.547 40.272 131.963 40.048L131.819 38.464C133.419 37.408 134.747 36.88 135.803 36.88C136.379 36.88 137.051 36.976 137.819 37.168C138.555 38.128 138.923 39.36 138.923 40.864C138.923 41.728 138.763 42.96 138.443 44.56C136.043 45.936 131.691 46.624 125.387 46.624C122.315 46.624 119.387 46.448 116.603 46.096C113.819 45.776 111.867 45.36 110.747 44.848C110.363 44.368 110.091 43.888 109.931 43.408C109.803 42.928 109.739 42.144 109.739 41.056ZM142.544 16.528C142.544 14.288 142.912 12.912 143.648 12.4C144.512 12.144 145.664 12.016 147.104 12.016C148.896 12.016 150.512 12.24 151.952 12.688C152.112 13.296 152.192 13.856 152.192 14.368C152.192 14.624 152.176 14.768 152.144 14.8C152.688 14.64 153.44 14.4 154.4 14.08C155.392 13.76 156.096 13.536 156.512 13.408C156.928 13.28 157.472 13.12 158.144 12.928C158.848 12.704 159.376 12.56 159.728 12.496C160.112 12.4 160.528 12.32 160.976 12.256C161.456 12.192 161.872 12.16 162.224 12.16C163.632 12.16 164.88 12.56 165.968 13.36C167.088 14.128 167.952 15.104 168.56 16.288C169.2 17.472 169.664 18.656 169.952 19.84C170.272 21.024 170.432 22.112 170.432 23.104C170.432 25.248 169.76 27.12 168.416 28.72C167.104 30.32 165.52 31.632 163.664 32.656C165.872 34.192 167.952 35.776 169.904 37.408C171.856 39.008 172.88 40.048 172.976 40.528C173.232 40.4 173.52 40.336 173.84 40.336C174.192 40.336 174.608 40.432 175.088 40.624C175.568 41.072 175.808 41.84 175.808 42.928C175.808 44.016 175.6 44.768 175.184 45.184C174.128 45.728 171.904 46 168.512 46C166.88 46 165.28 45.728 163.712 45.184C163.392 45.056 163.12 44.736 162.896 44.224C162.672 43.68 162.56 43.088 162.56 42.448C162.56 41.648 162.736 41.072 163.088 40.72C163.312 40.528 163.584 40.432 163.904 40.432C164.128 40.432 164.432 40.496 164.816 40.624C164.464 39.792 163.936 39.056 163.232 38.416C162.528 37.744 161.792 37.232 161.024 36.88C160.256 36.496 159.424 36.176 158.528 35.92C157.664 35.632 156.896 35.44 156.224 35.344C155.584 35.248 155.008 35.184 154.496 35.152L153.776 35.056C153.936 35.856 154.016 36.688 154.016 37.552C154.016 38.384 153.936 39.168 153.776 39.904C154 39.808 154.304 39.76 154.688 39.76C155.712 39.76 156.496 40.048 157.04 40.624C157.168 40.912 157.232 41.664 157.232 42.88C157.232 44.064 157.168 44.8 157.04 45.088C156.848 45.728 154.032 46.048 148.592 46.048C146.64 46.048 145.312 45.984 144.608 45.856C143.936 45.696 143.552 45.44 143.456 45.088C143.328 44.8 143.264 44.064 143.264 42.88C143.264 41.664 143.328 40.912 143.456 40.624C143.616 40.368 143.968 40.16 144.512 40C145.088 39.84 145.632 39.76 146.144 39.76C146.528 39.76 146.784 39.776 146.912 39.808C146.912 39.264 146.896 38.256 146.864 36.784C146.832 35.312 146.816 33.792 146.816 32.224C146.816 26.56 146.976 22.832 147.296 21.04C146.912 21.2 146.416 21.28 145.808 21.28C144.88 21.28 144.24 21.104 143.888 20.752C142.992 20.56 142.544 19.152 142.544 16.528ZM153.152 25.168C153.152 26.512 153.488 27.552 154.16 28.288C154.864 29.024 155.744 29.392 156.8 29.392C158.336 29.392 159.824 28.736 161.264 27.424C162.736 26.08 163.472 24.48 163.472 22.624C163.472 21.344 163.104 20.272 162.368 19.408C161.664 18.512 160.704 18.064 159.488 18.064C157.92 18.064 156.464 18.768 155.12 20.176C153.808 21.584 153.152 23.248 153.152 25.168ZM175.412 42.688C175.412 41.28 175.556 40.336 175.844 39.856C176.132 39.344 176.74 39.088 177.668 39.088C178.66 39.088 179.156 39.216 179.156 39.472C179.38 38.128 181.076 33.344 184.244 25.12C187.444 16.864 189.22 12.704 189.572 12.64C190.596 12.48 191.844 12.4 193.316 12.4C194.084 12.4 195.188 12.48 196.628 12.64C196.98 12.8 198.74 16.992 201.908 25.216C205.108 33.408 206.82 38.16 207.044 39.472C207.044 39.216 207.54 39.088 208.532 39.088C209.46 39.088 210.068 39.344 210.356 39.856C210.644 40.336 210.788 41.28 210.788 42.688C210.788 44.32 210.612 45.232 210.26 45.424C209.844 45.808 207.348 46 202.772 46C199.476 46 197.828 45.824 197.828 45.472C197.124 45.056 196.772 43.632 196.772 41.2C196.772 40.848 196.788 40.576 196.82 40.384C196.852 40.192 196.98 40 197.204 39.808C197.428 39.616 197.748 39.52 198.164 39.52C199.092 39.52 199.556 39.584 199.556 39.712C199.684 39.712 199.748 39.552 199.748 39.232C199.748 38.432 199.316 36.608 198.452 33.76C197.14 33.888 195.396 33.952 193.22 33.952C190.884 33.952 189.06 33.888 187.748 33.76C186.884 36.64 186.452 38.48 186.452 39.28C186.452 39.536 186.516 39.68 186.644 39.712C186.836 39.584 187.252 39.52 187.892 39.52C188.372 39.52 188.724 39.632 188.948 39.856C189.204 40.08 189.348 40.304 189.38 40.528C189.412 40.752 189.428 41.12 189.428 41.632C189.428 43.744 189.076 45.024 188.372 45.472C188.372 45.824 186.724 46 183.428 46C178.852 46 176.356 45.808 175.94 45.424C175.588 45.232 175.412 44.32 175.412 42.688ZM189.476 28.192C190.692 28.096 191.86 28.048 192.98 28.048C194.292 28.048 195.524 28.112 196.676 28.24C195.236 23.984 194.036 20.688 193.076 18.352C192.18 20.56 190.98 23.84 189.476 28.192ZM231.251 16.48C231.251 15.072 231.379 14.176 231.635 13.792C232.627 12.992 234.659 12.592 237.731 12.592C239.235 12.592 240.771 12.704 242.339 12.928C242.595 13.408 242.851 14.192 243.107 15.28C243.363 16.368 243.491 17.296 243.491 18.064C243.491 18.544 243.427 18.896 243.299 19.12C242.819 19.472 242.115 19.648 241.187 19.648C240.931 19.648 240.755 19.632 240.659 19.6C241.171 20.528 241.859 22.624 242.723 25.888C243.619 29.152 244.083 31.568 244.115 33.136C244.563 32.72 245.347 31.616 246.467 29.824C247.619 28 248.739 26.352 249.827 24.88C250.915 23.408 251.779 22.672 252.419 22.672C253.059 22.672 253.923 23.408 255.011 24.88C256.099 26.32 257.219 27.968 258.371 29.824C259.523 31.648 260.307 32.768 260.723 33.184C260.915 31.552 261.395 29.328 262.163 26.512C262.931 23.664 263.603 21.424 264.179 19.792C263.795 19.664 263.523 19.552 263.363 19.456C263.203 19.36 263.027 19.232 262.835 19.072C262.643 18.912 262.435 18.768 262.211 18.64C261.763 18.288 261.539 17.168 261.539 15.28C261.539 14.032 261.651 13.28 261.875 13.024C262.419 12.64 263.731 12.448 265.811 12.448C268.723 12.448 270.979 12.608 272.579 12.928C272.931 13.184 273.203 13.824 273.395 14.848C273.619 15.872 273.731 16.864 273.731 17.824C273.731 18.464 273.667 18.896 273.539 19.12C272.707 19.504 271.939 19.696 271.235 19.696C271.011 19.696 270.739 19.664 270.419 19.6C270.035 26.16 268.275 32.592 265.139 38.896C265.331 38.96 265.507 39.008 265.667 39.04C265.859 39.072 265.987 39.088 266.051 39.088C266.147 39.088 266.259 39.12 266.387 39.184C266.515 39.216 266.659 39.28 266.819 39.376C266.947 39.632 267.011 40.016 267.011 40.528C267.011 41.296 266.883 42.224 266.627 43.312C266.371 44.368 266.115 45.12 265.859 45.568C265.219 45.856 264.067 46 262.403 46C260.707 46 259.235 45.888 257.987 45.664C256.771 45.408 256.147 45.088 256.115 44.704C255.891 44.32 255.779 43.312 255.779 41.68C255.779 40.304 255.891 39.504 256.115 39.28C256.179 39.248 256.355 39.216 256.643 39.184C256.931 39.12 257.251 39.072 257.603 39.04C257.987 38.976 258.243 38.928 258.371 38.896C258.243 38.768 256.243 36.336 252.371 31.6C248.435 36.368 246.451 38.784 246.419 38.848C247.667 38.976 248.547 39.152 249.059 39.376C249.187 39.632 249.251 40.016 249.251 40.528C249.251 41.296 249.123 42.224 248.867 43.312C248.611 44.368 248.355 45.12 248.099 45.568C247.459 45.888 246.051 46.048 243.875 46.048C240.227 46.048 238.387 45.6 238.355 44.704C238.099 44.128 237.971 43.056 237.971 41.488C237.971 40.272 238.099 39.536 238.355 39.28C238.739 38.896 239.187 38.704 239.699 38.704C236.499 31.856 234.739 25.552 234.419 19.792C232.915 19.632 231.987 19.44 231.635 19.216C231.379 18.832 231.251 17.92 231.251 16.48ZM275.34 33.232C275.34 30.832 275.836 28.4 276.828 25.936C277.82 23.44 279.148 21.184 280.812 19.168C282.508 17.152 284.604 15.504 287.1 14.224C289.596 12.944 292.236 12.304 295.02 12.304C299.084 12.304 302.124 13.584 304.14 16.144C306.188 18.704 307.212 21.952 307.212 25.888C307.212 28.256 306.844 30.624 306.108 32.992C305.372 35.328 304.3 37.52 302.892 39.568C301.516 41.616 299.644 43.28 297.276 44.56C294.94 45.84 292.316 46.48 289.404 46.48C285.244 46.48 281.852 45.28 279.228 42.88C276.636 40.448 275.34 37.232 275.34 33.232ZM282.492 32.464C282.492 34.8 283.116 36.672 284.364 38.08C285.612 39.456 287.244 40.144 289.26 40.144C291.372 40.144 293.324 39.36 295.116 37.792C296.908 36.224 298.268 34.368 299.196 32.224C300.124 30.08 300.588 28.016 300.588 26.032C300.588 23.92 300.012 22.208 298.86 20.896C297.74 19.552 296.092 18.88 293.916 18.88C291.676 18.88 289.66 19.616 287.868 21.088C286.076 22.528 284.732 24.272 283.836 26.32C282.94 28.368 282.492 30.416 282.492 32.464ZM311.013 16.528C311.013 14.288 311.381 12.912 312.117 12.4C312.981 12.144 314.133 12.016 315.573 12.016C317.365 12.016 318.981 12.24 320.421 12.688C320.581 13.296 320.661 13.856 320.661 14.368C320.661 14.624 320.645 14.768 320.613 14.8C321.157 14.64 321.909 14.4 322.869 14.08C323.861 13.76 324.565 13.536 324.981 13.408C325.397 13.28 325.941 13.12 326.613 12.928C327.317 12.704 327.845 12.56 328.197 12.496C328.581 12.4 328.997 12.32 329.445 12.256C329.925 12.192 330.341 12.16 330.693 12.16C332.101 12.16 333.349 12.56 334.437 13.36C335.557 14.128 336.421 15.104 337.029 16.288C337.669 17.472 338.133 18.656 338.421 19.84C338.741 21.024 338.901 22.112 338.901 23.104C338.901 25.248 338.229 27.12 336.885 28.72C335.573 30.32 333.989 31.632 332.133 32.656C334.341 34.192 336.421 35.776 338.373 37.408C340.325 39.008 341.349 40.048 341.445 40.528C341.701 40.4 341.989 40.336 342.309 40.336C342.661 40.336 343.077 40.432 343.557 40.624C344.037 41.072 344.277 41.84 344.277 42.928C344.277 44.016 344.069 44.768 343.653 45.184C342.597 45.728 340.373 46 336.981 46C335.349 46 333.749 45.728 332.181 45.184C331.861 45.056 331.589 44.736 331.365 44.224C331.141 43.68 331.029 43.088 331.029 42.448C331.029 41.648 331.205 41.072 331.557 40.72C331.781 40.528 332.053 40.432 332.373 40.432C332.597 40.432 332.901 40.496 333.285 40.624C332.933 39.792 332.405 39.056 331.701 38.416C330.997 37.744 330.261 37.232 329.493 36.88C328.725 36.496 327.893 36.176 326.997 35.92C326.133 35.632 325.365 35.44 324.693 35.344C324.053 35.248 323.477 35.184 322.965 35.152L322.245 35.056C322.405 35.856 322.485 36.688 322.485 37.552C322.485 38.384 322.405 39.168 322.245 39.904C322.469 39.808 322.773 39.76 323.157 39.76C324.181 39.76 324.965 40.048 325.509 40.624C325.637 40.912 325.701 41.664 325.701 42.88C325.701 44.064 325.637 44.8 325.509 45.088C325.317 45.728 322.501 46.048 317.061 46.048C315.109 46.048 313.781 45.984 313.077 45.856C312.405 45.696 312.021 45.44 311.925 45.088C311.797 44.8 311.733 44.064 311.733 42.88C311.733 41.664 311.797 40.912 311.925 40.624C312.085 40.368 312.437 40.16 312.981 40C313.557 39.84 314.101 39.76 314.613 39.76C314.997 39.76 315.253 39.776 315.381 39.808C315.381 39.264 315.365 38.256 315.333 36.784C315.301 35.312 315.285 33.792 315.285 32.224C315.285 26.56 315.445 22.832 315.765 21.04C315.381 21.2 314.885 21.28 314.277 21.28C313.349 21.28 312.709 21.104 312.357 20.752C311.461 20.56 311.013 19.152 311.013 16.528ZM321.621 25.168C321.621 26.512 321.957 27.552 322.629 28.288C323.333 29.024 324.213 29.392 325.269 29.392C326.805 29.392 328.293 28.736 329.733 27.424C331.205 26.08 331.941 24.48 331.941 22.624C331.941 21.344 331.573 20.272 330.837 19.408C330.133 18.512 329.173 18.064 327.957 18.064C326.389 18.064 324.933 18.768 323.589 20.176C322.277 21.584 321.621 23.248 321.621 25.168ZM345.801 16.624C345.801 14.576 346.025 13.2 346.473 12.496C347.529 12.208 349.369 12.064 351.993 12.064C356.665 12.064 359.209 12.208 359.625 12.496C360.105 13.328 360.345 14.72 360.345 16.672C360.345 17.472 360.249 17.968 360.057 18.16C359.353 18.416 358.521 18.544 357.561 18.544C356.953 18.544 356.409 18.48 355.929 18.352C355.833 20.176 355.785 22.256 355.785 24.592C355.785 30.8 356.313 35.792 357.369 39.568C357.433 39.856 358.489 40 360.537 40C363.545 40 365.353 39.792 365.961 39.376L365.817 37.312C367.609 36.32 369.321 35.824 370.953 35.824C371.625 35.824 372.233 35.888 372.777 36.016C373.513 38.16 373.881 39.904 373.881 41.248C373.881 42.272 373.721 43.312 373.401 44.368C372.089 44.816 369.817 45.216 366.585 45.568C363.385 45.92 360.249 46.096 357.177 46.096C352.217 46.096 348.713 45.616 346.665 44.656C346.281 43.888 346.089 42.736 346.089 41.2C346.089 40.304 346.249 39.824 346.569 39.76C346.953 39.568 347.481 39.472 348.153 39.472C348.505 39.472 348.969 39.504 349.545 39.568C349.097 33.648 348.873 28.944 348.873 25.456C348.873 24.464 349.033 22.08 349.353 18.304C348.873 18.4 348.377 18.448 347.865 18.448C347.161 18.448 346.553 18.352 346.041 18.16C345.881 17.968 345.801 17.456 345.801 16.624ZM376.457 16.528C376.457 15.824 376.601 15.296 376.889 14.944C379.929 13.216 383.289 12.352 386.969 12.352C390.329 12.352 393.257 12.8 395.753 13.696C398.281 14.592 400.297 15.872 401.801 17.536C403.337 19.2 404.473 21.12 405.209 23.296C405.945 25.44 406.313 27.856 406.313 30.544C406.313 35.856 404.841 39.84 401.897 42.496C398.953 45.152 394.313 46.48 387.977 46.48C384.233 46.48 380.649 45.808 377.225 44.464C376.905 44.144 376.745 43.04 376.745 41.152C376.745 40.096 376.793 39.408 376.889 39.088C376.985 38.608 377.657 38.368 378.905 38.368C379.257 38.368 379.657 38.4 380.105 38.464C379.785 36.224 379.625 33.248 379.625 29.536C379.625 26.24 379.817 23.2 380.201 20.416C379.849 20.512 379.417 20.56 378.905 20.56C377.657 20.56 376.985 20.32 376.889 19.84C376.601 18.624 376.457 17.52 376.457 16.528ZM386.969 39.616C387.897 39.936 388.905 40.096 389.993 40.096C392.649 40.096 394.937 39.184 396.857 37.36C398.809 35.504 399.785 33.12 399.785 30.208C399.785 27.232 398.825 24.56 396.905 22.192C394.985 19.824 392.681 18.64 389.993 18.64C388.873 18.64 387.865 18.864 386.969 19.312C387.257 22.192 387.401 25.472 387.401 29.152C387.401 33.536 387.257 37.024 386.969 39.616Z" fill="black"/>
</mask>
<g mask="url(#mask0)">
<path d="M29.8406 32.9548C-11.6765 48.7436 -8.79067 32.9548 -30 48.6711C-5.76077 51.6322 43.2184 72.9783 50.4902 72.9783H347.49H389.49C396.156 72.9783 436.353 57.5543 454.785 57.5543C460.087 54.5932 465.995 47.8511 447.21 44.5712C423.728 40.4714 423.373 34.9105 404.791 32.9548C389.642 31.3604 388.884 28.3993 363.13 31.3604C344.998 39.6232 342.298 42.0224 336.148 39.6232C295.219 23.6569 288.582 40.9748 275.308 37.6274C244.933 29.9676 251.191 41.7189 229.057 31.9569C217.695 26.9459 213.116 25.7162 199.515 26.5772C170.731 28.3993 172.246 22.2495 151.037 26.5772C120.281 32.8529 117.519 24.482 103.316 26.5772C63.1696 32.4993 55.5948 23.1606 29.8406 32.9548Z" fill="#05A498"/>
</g>
</svg>
