<svg width="247" height="78" viewBox="0 0 247 78" fill="none" xmlns="http://www.w3.org/2000/svg">
<path d="M2.496 21.704C2.496 18.7173 2.98667 16.8827 3.968 16.2C5.12 15.8587 6.656 15.688 8.576 15.688C10.9653 15.688 13.12 15.9867 15.04 16.584C15.2533 17.3947 15.36 18.1413 15.36 18.824C15.36 19.1653 15.3387 19.3573 15.296 19.4C16.0213 19.1867 17.024 18.8667 18.304 18.44C19.6267 18.0133 20.5653 17.7147 21.12 17.544C21.6747 17.3733 22.4 17.16 23.296 16.904C24.2347 16.6053 24.9387 16.4133 25.408 16.328C25.92 16.2 26.4747 16.0933 27.072 16.008C27.712 15.9227 28.2667 15.88 28.736 15.88C30.6133 15.88 32.2773 16.4133 33.728 17.48C35.2213 18.504 36.3733 19.8053 37.184 21.384C38.0373 22.9627 38.656 24.5413 39.04 26.12C39.4667 27.6987 39.68 29.1493 39.68 30.472C39.68 33.3307 38.784 35.8267 36.992 37.96C35.2427 40.0933 33.1307 41.8427 30.656 43.208C33.6 45.256 36.3733 47.368 38.976 49.544C41.5787 51.6773 42.944 53.064 43.072 53.704C43.4133 53.5333 43.7973 53.448 44.224 53.448C44.6933 53.448 45.248 53.576 45.888 53.832C46.528 54.4293 46.848 55.4533 46.848 56.904C46.848 58.3547 46.5707 59.3573 46.016 59.912C44.608 60.6373 41.6427 61 37.12 61C34.944 61 32.8107 60.6373 30.72 59.912C30.2933 59.7413 29.9307 59.3147 29.632 58.632C29.3333 57.9067 29.184 57.1173 29.184 56.264C29.184 55.1973 29.4187 54.4293 29.888 53.96C30.1867 53.704 30.5493 53.576 30.976 53.576C31.2747 53.576 31.68 53.6613 32.192 53.832C31.7227 52.7227 31.0187 51.7413 30.08 50.888C29.1413 49.992 28.16 49.3093 27.136 48.84C26.112 48.328 25.0027 47.9013 23.808 47.56C22.656 47.176 21.632 46.92 20.736 46.792C19.8827 46.664 19.1147 46.5787 18.432 46.536L17.472 46.408C17.6853 47.4747 17.792 48.584 17.792 49.736C17.792 50.8453 17.6853 51.8907 17.472 52.872C17.7707 52.744 18.176 52.68 18.688 52.68C20.0533 52.68 21.0987 53.064 21.824 53.832C21.9947 54.216 22.08 55.2187 22.08 56.84C22.08 58.4187 21.9947 59.4 21.824 59.784C21.568 60.6373 17.8133 61.064 10.56 61.064C7.95733 61.064 6.18667 60.9787 5.248 60.808C4.352 60.5947 3.84 60.2533 3.712 59.784C3.54133 59.4 3.456 58.4187 3.456 56.84C3.456 55.2187 3.54133 54.216 3.712 53.832C3.92533 53.4907 4.39467 53.2133 5.12 53C5.888 52.7867 6.61333 52.68 7.296 52.68C7.808 52.68 8.14933 52.7013 8.32 52.744C8.32 52.0187 8.29867 50.6747 8.256 48.712C8.21333 46.7493 8.192 44.7227 8.192 42.632C8.192 35.08 8.40533 30.1093 8.832 27.72C8.32 27.9333 7.65867 28.04 6.848 28.04C5.61067 28.04 4.75733 27.8053 4.288 27.336C3.09333 27.08 2.496 25.2027 2.496 21.704ZM16.64 33.224C16.64 35.016 17.088 36.4027 17.984 37.384C18.9227 38.3653 20.096 38.856 21.504 38.856C23.552 38.856 25.536 37.9813 27.456 36.232C29.4187 34.44 30.4 32.3067 30.4 29.832C30.4 28.1253 29.9093 26.696 28.928 25.544C27.9893 24.3493 26.7093 23.752 25.088 23.752C22.9973 23.752 21.056 24.6907 19.264 26.568C17.5147 28.4453 16.64 30.664 16.64 33.224ZM48.048 47.624C48.048 42.8027 49.776 38.3867 53.232 34.376C56.7307 30.3653 60.6347 28.36 64.944 28.36C67.5893 28.36 69.8507 29.1707 71.728 30.792C73.6053 32.4133 74.544 34.5253 74.544 37.128C74.544 40.1573 73.2853 42.76 70.768 44.936C68.2933 47.0693 65.008 48.136 60.912 48.136C58.5653 48.136 56.9227 47.7733 55.984 47.048C56.0267 49.096 56.752 50.7387 58.16 51.976C59.568 53.1707 61.1893 53.768 63.024 53.768C65.4133 53.768 67.3547 52.8293 68.848 50.952C68.848 50.6107 68.912 50.248 69.04 49.864C70.9173 48.328 72.944 47.56 75.12 47.56C75.5467 47.56 75.8667 47.5813 76.08 47.624C78.896 49.16 80.624 51.6773 81.264 55.176C81.2213 55.5173 81.0507 55.88 80.752 56.264C80.496 56.648 80.2187 56.9893 79.92 57.288C79.6213 57.544 79.1947 57.864 78.64 58.248C78.0853 58.5893 77.6373 58.8453 77.296 59.016C76.9973 59.1867 76.528 59.4427 75.888 59.784C75.2907 60.1253 74.9493 60.3173 74.864 60.36C74.608 60.36 74.3947 60.3387 74.224 60.296C74.0533 60.2107 73.8827 60.104 73.712 59.976C73.584 59.8053 73.4987 59.6987 73.456 59.656C73.4133 59.5707 73.328 59.4 73.2 59.144C73.072 58.8453 72.9867 58.6747 72.944 58.632C69.7867 60.7227 66.3947 61.768 62.768 61.768C58.7147 61.768 55.2373 60.4667 52.336 57.864C49.4773 55.2613 48.048 51.848 48.048 47.624ZM58.032 40.136C58.032 41.544 59.056 42.248 61.104 42.248C62.64 42.248 64.112 41.8853 65.52 41.16C66.928 40.4347 67.632 39.5387 67.632 38.472C67.632 37.7467 67.376 37 66.864 36.232C66.3947 35.4213 65.6267 35.016 64.56 35.016C63.2373 35.016 61.808 35.5493 60.272 36.616C58.7787 37.6827 58.032 38.856 58.032 40.136ZM83.606 59.08C83.862 54.6427 85.3767 51.592 88.15 49.928C88.4487 49.8853 88.8967 49.864 89.494 49.864C91.7553 49.864 93.4833 50.6107 94.678 52.104C94.678 52.1467 94.678 52.232 94.678 52.36C94.7207 52.4453 94.742 52.5093 94.742 52.552C94.742 52.68 94.6993 52.9147 94.614 53.256C94.998 53.896 95.6807 54.4293 96.662 54.856C97.686 55.24 98.774 55.432 99.926 55.432C101.547 55.432 102.827 55.048 103.766 54.28C104.747 53.512 105.238 52.5947 105.238 51.528C105.238 49.4373 103.51 48.3067 100.054 48.136C98.7313 48.0933 97.6647 48.0293 96.854 47.944C96.0433 47.8587 94.934 47.7093 93.526 47.496C92.1607 47.2827 91.03 46.9627 90.134 46.536C89.238 46.1093 88.3207 45.576 87.382 44.936C86.486 44.296 85.8033 43.4427 85.334 42.376C84.8647 41.3093 84.63 40.072 84.63 38.664C84.63 35.336 85.9313 32.8187 88.534 31.112C91.1793 29.4053 94.4433 28.552 98.326 28.552C101.739 28.552 104.641 28.936 107.03 29.704C107.286 29.2773 107.627 28.8507 108.054 28.424C108.523 27.9973 108.886 27.7413 109.142 27.656C112.299 27.9547 114.39 29.0213 115.414 30.856C115.158 35.2933 113.643 38.344 110.87 40.008C110.571 40.0507 110.123 40.072 109.526 40.072C107.265 40.072 105.537 39.3253 104.342 37.832C104.342 37.7893 104.321 37.7253 104.278 37.64C104.278 37.512 104.278 37.4267 104.278 37.384C104.278 37.256 104.321 37.0213 104.406 36.68C103.937 36.1253 103.083 35.656 101.846 35.272C100.651 34.888 99.414 34.696 98.134 34.696C94.8487 34.696 93.206 35.784 93.206 37.96C93.206 40.52 95.5313 41.8853 100.182 42.056C101.505 42.0987 102.55 42.1627 103.318 42.248C104.086 42.2907 105.11 42.4187 106.39 42.632C107.713 42.8027 108.779 43.1013 109.59 43.528C110.401 43.912 111.211 44.424 112.022 45.064C112.875 45.704 113.494 46.5573 113.878 47.624C114.305 48.648 114.518 49.864 114.518 51.272C114.518 58.0133 109.569 61.384 99.67 61.384C96.342 61.384 93.5687 61 91.35 60.232C90.6673 61.512 90.1767 62.1947 89.878 62.28C86.7207 61.9813 84.63 60.9147 83.606 59.08ZM118.785 35.72C118.785 32.776 118.998 30.9627 119.424 30.28C122.625 29.4267 125.398 29 127.745 29C129.409 29 131.329 29.384 133.505 30.152C133.803 30.3653 134.123 31.1333 134.465 32.456C134.806 33.736 134.977 34.8453 134.977 35.784C134.977 37.192 134.593 38.408 133.825 39.432C133.355 39.7307 132.737 39.88 131.969 39.88C131.371 39.88 130.795 39.7733 130.241 39.56C130.241 39.688 130.219 40.2427 130.177 41.224C130.177 42.2053 130.177 42.824 130.177 43.08C130.177 45.768 130.902 48.136 132.353 50.184C133.846 52.1893 135.702 53.192 137.921 53.192C139.841 53.192 141.59 52.424 143.169 50.888C144.79 49.3093 145.601 46.856 145.601 43.528C145.601 42.3333 145.537 40.776 145.409 38.856C144.897 39.1547 144.235 39.304 143.425 39.304C142.657 39.304 142.187 39.1973 142.017 38.984C141.59 38.984 141.377 38.1307 141.377 36.424C141.377 36.04 141.59 34.2907 142.017 31.176C145.089 29.6827 149.057 28.936 153.921 28.936C157.59 28.936 159.937 29.5547 160.961 30.792C161.345 31.304 161.537 32.2 161.537 33.48C161.537 36.1253 160.961 37.768 159.809 38.408C158.273 38.792 156.993 38.984 155.969 38.984C155.371 38.984 154.859 38.9413 154.433 38.856C154.433 40.0933 154.475 42.0987 154.561 44.872C154.646 47.6027 154.689 49.672 154.689 51.08C154.859 51.08 155.563 51.0373 156.801 50.952C158.038 50.824 158.763 50.76 158.977 50.76C159.147 50.76 159.403 50.8027 159.745 50.888C160.086 50.9733 160.342 51.016 160.513 51.016C160.683 51.1867 160.769 51.6347 160.769 52.36C160.769 53.512 160.598 54.9627 160.257 56.712C159.915 58.4187 159.595 59.464 159.297 59.848C158.017 60.616 155.585 61 152.001 61C149.697 61 148.161 60.8507 147.393 60.552C146.625 60.2533 146.241 59.592 146.241 58.568C146.241 57.288 146.347 56.008 146.561 54.728C142.55 59.336 138.219 61.64 133.569 61.64C126.23 61.64 122.561 56.4773 122.561 46.152C122.561 44.104 122.689 42.0987 122.945 40.136C122.902 40.1787 122.71 40.2 122.369 40.2C121.729 40.2 120.726 40.0933 119.361 39.88C118.977 39.4533 118.785 38.0667 118.785 35.72ZM165.672 55.24C165.672 53.4053 165.821 52.3387 166.12 52.04C167.229 51.528 168.466 51.272 169.832 51.272C169.362 48.456 169.128 44.1467 169.128 38.344C169.128 31.5173 169.341 25.5867 169.768 20.552C168.53 20.552 167.57 20.4667 166.888 20.296C166.802 19.4427 166.76 18.76 166.76 18.248C166.76 16.3707 167.208 14.7493 168.104 13.384C169.938 12.9573 171.666 12.744 173.288 12.744C175.336 12.744 176.936 12.9573 178.088 13.384C178.514 17.3947 178.728 21.64 178.728 26.12C178.728 29.2773 178.578 33.7787 178.28 39.624C178.024 45.4693 177.874 49.4373 177.832 51.528C178.045 51.4853 178.386 51.464 178.856 51.464C180.136 51.464 181.181 51.6987 181.992 52.168C182.162 52.5093 182.248 53.0213 182.248 53.704C182.248 54.728 182.077 55.9653 181.736 57.416C181.394 58.824 181.053 59.8267 180.712 60.424C180.157 60.8507 178.045 61.064 174.376 61.064C172.37 61.064 170.557 60.8933 168.936 60.552C167.357 60.2107 166.418 59.784 166.12 59.272C165.821 58.76 165.672 57.416 165.672 55.24ZM184.831 30.6C184.831 29.6613 184.959 29.064 185.215 28.808C185.983 28.68 186.985 28.616 188.223 28.616H189.631V16.584C191.849 16.4133 193.279 16.328 193.919 16.328C194.559 16.328 195.86 16.4133 197.823 16.584L198.463 28.744C203.156 28.9573 205.844 29.256 206.527 29.64C207.167 30.7493 207.487 32.456 207.487 34.76C207.487 35.6987 207.359 36.296 207.103 36.552C205.78 36.7227 204.265 36.808 202.559 36.808C202.004 36.808 201.172 36.808 200.062 36.808C198.953 36.7653 198.121 36.744 197.567 36.744C197.567 38.152 197.545 39.9227 197.503 42.056C197.503 44.1893 197.503 45.704 197.503 46.6C197.503 49.928 197.716 51.976 198.143 52.744C198.612 53.4693 199.849 53.832 201.855 53.832C202.623 53.832 203.263 53.7893 203.775 53.704L203.391 52.36L209.279 51.016C209.705 52.2533 209.919 53.704 209.919 55.368C209.919 58.1413 209.641 59.8907 209.087 60.616C204.905 61.2133 201.428 61.512 198.655 61.512C195.028 61.512 192.639 61 191.487 59.976C190.975 59.5067 190.569 58.888 190.271 58.12C189.972 57.352 189.759 56.264 189.631 54.856C189.545 53.4053 189.481 51.976 189.439 50.568C189.396 49.1173 189.332 47.0267 189.247 44.296C189.161 41.5653 189.055 38.984 188.927 36.552C187.561 36.424 186.516 36.1467 185.791 35.72C185.151 34.6107 184.831 32.904 184.831 30.6ZM212.794 59.08C213.05 54.6427 214.564 51.592 217.338 49.928C217.636 49.8853 218.084 49.864 218.682 49.864C220.943 49.864 222.671 50.6107 223.866 52.104C223.866 52.1467 223.866 52.232 223.866 52.36C223.908 52.4453 223.93 52.5093 223.93 52.552C223.93 52.68 223.887 52.9147 223.802 53.256C224.186 53.896 224.868 54.4293 225.85 54.856C226.874 55.24 227.962 55.432 229.114 55.432C230.735 55.432 232.015 55.048 232.954 54.28C233.935 53.512 234.426 52.5947 234.426 51.528C234.426 49.4373 232.698 48.3067 229.242 48.136C227.919 48.0933 226.852 48.0293 226.042 47.944C225.231 47.8587 224.122 47.7093 222.714 47.496C221.348 47.2827 220.218 46.9627 219.322 46.536C218.426 46.1093 217.508 45.576 216.57 44.936C215.674 44.296 214.991 43.4427 214.522 42.376C214.052 41.3093 213.818 40.072 213.818 38.664C213.818 35.336 215.119 32.8187 217.722 31.112C220.367 29.4053 223.631 28.552 227.514 28.552C230.927 28.552 233.828 28.936 236.218 29.704C236.474 29.2773 236.815 28.8507 237.242 28.424C237.711 27.9973 238.074 27.7413 238.33 27.656C241.487 27.9547 243.578 29.0213 244.602 30.856C244.346 35.2933 242.831 38.344 240.058 40.008C239.759 40.0507 239.311 40.072 238.714 40.072C236.452 40.072 234.724 39.3253 233.53 37.832C233.53 37.7893 233.508 37.7253 233.466 37.64C233.466 37.512 233.466 37.4267 233.466 37.384C233.466 37.256 233.508 37.0213 233.594 36.68C233.124 36.1253 232.271 35.656 231.034 35.272C229.839 34.888 228.602 34.696 227.322 34.696C224.036 34.696 222.394 35.784 222.394 37.96C222.394 40.52 224.719 41.8853 229.37 42.056C230.692 42.0987 231.738 42.1627 232.506 42.248C233.274 42.2907 234.298 42.4187 235.578 42.632C236.9 42.8027 237.967 43.1013 238.778 43.528C239.588 43.912 240.399 44.424 241.21 45.064C242.063 45.704 242.682 46.5573 243.066 47.624C243.492 48.648 243.706 49.864 243.706 51.272C243.706 58.0133 238.756 61.384 228.858 61.384C225.53 61.384 222.756 61 220.538 60.232C219.855 61.512 219.364 62.1947 219.066 62.28C215.908 61.9813 213.818 60.9147 212.794 59.08Z" fill="black"/>
<mask id="mask0" mask-type="alpha" maskUnits="userSpaceOnUse" x="2" y="12" width="243" height="51">
<path d="M2.496 21.704C2.496 18.7173 2.98667 16.8827 3.968 16.2C5.12 15.8587 6.656 15.688 8.576 15.688C10.9653 15.688 13.12 15.9867 15.04 16.584C15.2533 17.3947 15.36 18.1413 15.36 18.824C15.36 19.1653 15.3387 19.3573 15.296 19.4C16.0213 19.1867 17.024 18.8667 18.304 18.44C19.6267 18.0133 20.5653 17.7147 21.12 17.544C21.6747 17.3733 22.4 17.16 23.296 16.904C24.2347 16.6053 24.9387 16.4133 25.408 16.328C25.92 16.2 26.4747 16.0933 27.072 16.008C27.712 15.9227 28.2667 15.88 28.736 15.88C30.6133 15.88 32.2773 16.4133 33.728 17.48C35.2213 18.504 36.3733 19.8053 37.184 21.384C38.0373 22.9627 38.656 24.5413 39.04 26.12C39.4667 27.6987 39.68 29.1493 39.68 30.472C39.68 33.3307 38.784 35.8267 36.992 37.96C35.2427 40.0933 33.1307 41.8427 30.656 43.208C33.6 45.256 36.3733 47.368 38.976 49.544C41.5787 51.6773 42.944 53.064 43.072 53.704C43.4133 53.5333 43.7973 53.448 44.224 53.448C44.6933 53.448 45.248 53.576 45.888 53.832C46.528 54.4293 46.848 55.4533 46.848 56.904C46.848 58.3547 46.5707 59.3573 46.016 59.912C44.608 60.6373 41.6427 61 37.12 61C34.944 61 32.8107 60.6373 30.72 59.912C30.2933 59.7413 29.9307 59.3147 29.632 58.632C29.3333 57.9067 29.184 57.1173 29.184 56.264C29.184 55.1973 29.4187 54.4293 29.888 53.96C30.1867 53.704 30.5493 53.576 30.976 53.576C31.2747 53.576 31.68 53.6613 32.192 53.832C31.7227 52.7227 31.0187 51.7413 30.08 50.888C29.1413 49.992 28.16 49.3093 27.136 48.84C26.112 48.328 25.0027 47.9013 23.808 47.56C22.656 47.176 21.632 46.92 20.736 46.792C19.8827 46.664 19.1147 46.5787 18.432 46.536L17.472 46.408C17.6853 47.4747 17.792 48.584 17.792 49.736C17.792 50.8453 17.6853 51.8907 17.472 52.872C17.7707 52.744 18.176 52.68 18.688 52.68C20.0533 52.68 21.0987 53.064 21.824 53.832C21.9947 54.216 22.08 55.2187 22.08 56.84C22.08 58.4187 21.9947 59.4 21.824 59.784C21.568 60.6373 17.8133 61.064 10.56 61.064C7.95733 61.064 6.18667 60.9787 5.248 60.808C4.352 60.5947 3.84 60.2533 3.712 59.784C3.54133 59.4 3.456 58.4187 3.456 56.84C3.456 55.2187 3.54133 54.216 3.712 53.832C3.92533 53.4907 4.39467 53.2133 5.12 53C5.888 52.7867 6.61333 52.68 7.296 52.68C7.808 52.68 8.14933 52.7013 8.32 52.744C8.32 52.0187 8.29867 50.6747 8.256 48.712C8.21333 46.7493 8.192 44.7227 8.192 42.632C8.192 35.08 8.40533 30.1093 8.832 27.72C8.32 27.9333 7.65867 28.04 6.848 28.04C5.61067 28.04 4.75733 27.8053 4.288 27.336C3.09333 27.08 2.496 25.2027 2.496 21.704ZM16.64 33.224C16.64 35.016 17.088 36.4027 17.984 37.384C18.9227 38.3653 20.096 38.856 21.504 38.856C23.552 38.856 25.536 37.9813 27.456 36.232C29.4187 34.44 30.4 32.3067 30.4 29.832C30.4 28.1253 29.9093 26.696 28.928 25.544C27.9893 24.3493 26.7093 23.752 25.088 23.752C22.9973 23.752 21.056 24.6907 19.264 26.568C17.5147 28.4453 16.64 30.664 16.64 33.224ZM48.048 47.624C48.048 42.8027 49.776 38.3867 53.232 34.376C56.7307 30.3653 60.6347 28.36 64.944 28.36C67.5893 28.36 69.8507 29.1707 71.728 30.792C73.6053 32.4133 74.544 34.5253 74.544 37.128C74.544 40.1573 73.2853 42.76 70.768 44.936C68.2933 47.0693 65.008 48.136 60.912 48.136C58.5653 48.136 56.9227 47.7733 55.984 47.048C56.0267 49.096 56.752 50.7387 58.16 51.976C59.568 53.1707 61.1893 53.768 63.024 53.768C65.4133 53.768 67.3547 52.8293 68.848 50.952C68.848 50.6107 68.912 50.248 69.04 49.864C70.9173 48.328 72.944 47.56 75.12 47.56C75.5467 47.56 75.8667 47.5813 76.08 47.624C78.896 49.16 80.624 51.6773 81.264 55.176C81.2213 55.5173 81.0507 55.88 80.752 56.264C80.496 56.648 80.2187 56.9893 79.92 57.288C79.6213 57.544 79.1947 57.864 78.64 58.248C78.0853 58.5893 77.6373 58.8453 77.296 59.016C76.9973 59.1867 76.528 59.4427 75.888 59.784C75.2907 60.1253 74.9493 60.3173 74.864 60.36C74.608 60.36 74.3947 60.3387 74.224 60.296C74.0533 60.2107 73.8827 60.104 73.712 59.976C73.584 59.8053 73.4987 59.6987 73.456 59.656C73.4133 59.5707 73.328 59.4 73.2 59.144C73.072 58.8453 72.9867 58.6747 72.944 58.632C69.7867 60.7227 66.3947 61.768 62.768 61.768C58.7147 61.768 55.2373 60.4667 52.336 57.864C49.4773 55.2613 48.048 51.848 48.048 47.624ZM58.032 40.136C58.032 41.544 59.056 42.248 61.104 42.248C62.64 42.248 64.112 41.8853 65.52 41.16C66.928 40.4347 67.632 39.5387 67.632 38.472C67.632 37.7467 67.376 37 66.864 36.232C66.3947 35.4213 65.6267 35.016 64.56 35.016C63.2373 35.016 61.808 35.5493 60.272 36.616C58.7787 37.6827 58.032 38.856 58.032 40.136ZM83.606 59.08C83.862 54.6427 85.3767 51.592 88.15 49.928C88.4487 49.8853 88.8967 49.864 89.494 49.864C91.7553 49.864 93.4833 50.6107 94.678 52.104C94.678 52.1467 94.678 52.232 94.678 52.36C94.7207 52.4453 94.742 52.5093 94.742 52.552C94.742 52.68 94.6993 52.9147 94.614 53.256C94.998 53.896 95.6807 54.4293 96.662 54.856C97.686 55.24 98.774 55.432 99.926 55.432C101.547 55.432 102.827 55.048 103.766 54.28C104.747 53.512 105.238 52.5947 105.238 51.528C105.238 49.4373 103.51 48.3067 100.054 48.136C98.7313 48.0933 97.6647 48.0293 96.854 47.944C96.0433 47.8587 94.934 47.7093 93.526 47.496C92.1607 47.2827 91.03 46.9627 90.134 46.536C89.238 46.1093 88.3207 45.576 87.382 44.936C86.486 44.296 85.8033 43.4427 85.334 42.376C84.8647 41.3093 84.63 40.072 84.63 38.664C84.63 35.336 85.9313 32.8187 88.534 31.112C91.1793 29.4053 94.4433 28.552 98.326 28.552C101.739 28.552 104.641 28.936 107.03 29.704C107.286 29.2773 107.627 28.8507 108.054 28.424C108.523 27.9973 108.886 27.7413 109.142 27.656C112.299 27.9547 114.39 29.0213 115.414 30.856C115.158 35.2933 113.643 38.344 110.87 40.008C110.571 40.0507 110.123 40.072 109.526 40.072C107.265 40.072 105.537 39.3253 104.342 37.832C104.342 37.7893 104.321 37.7253 104.278 37.64C104.278 37.512 104.278 37.4267 104.278 37.384C104.278 37.256 104.321 37.0213 104.406 36.68C103.937 36.1253 103.083 35.656 101.846 35.272C100.651 34.888 99.414 34.696 98.134 34.696C94.8487 34.696 93.206 35.784 93.206 37.96C93.206 40.52 95.5313 41.8853 100.182 42.056C101.505 42.0987 102.55 42.1627 103.318 42.248C104.086 42.2907 105.11 42.4187 106.39 42.632C107.713 42.8027 108.779 43.1013 109.59 43.528C110.401 43.912 111.211 44.424 112.022 45.064C112.875 45.704 113.494 46.5573 113.878 47.624C114.305 48.648 114.518 49.864 114.518 51.272C114.518 58.0133 109.569 61.384 99.67 61.384C96.342 61.384 93.5687 61 91.35 60.232C90.6673 61.512 90.1767 62.1947 89.878 62.28C86.7207 61.9813 84.63 60.9147 83.606 59.08ZM118.785 35.72C118.785 32.776 118.998 30.9627 119.424 30.28C122.625 29.4267 125.398 29 127.745 29C129.409 29 131.329 29.384 133.505 30.152C133.803 30.3653 134.123 31.1333 134.465 32.456C134.806 33.736 134.977 34.8453 134.977 35.784C134.977 37.192 134.593 38.408 133.825 39.432C133.355 39.7307 132.737 39.88 131.969 39.88C131.371 39.88 130.795 39.7733 130.241 39.56C130.241 39.688 130.219 40.2427 130.177 41.224C130.177 42.2053 130.177 42.824 130.177 43.08C130.177 45.768 130.902 48.136 132.353 50.184C133.846 52.1893 135.702 53.192 137.921 53.192C139.841 53.192 141.59 52.424 143.169 50.888C144.79 49.3093 145.601 46.856 145.601 43.528C145.601 42.3333 145.537 40.776 145.409 38.856C144.897 39.1547 144.235 39.304 143.425 39.304C142.657 39.304 142.187 39.1973 142.017 38.984C141.59 38.984 141.377 38.1307 141.377 36.424C141.377 36.04 141.59 34.2907 142.017 31.176C145.089 29.6827 149.057 28.936 153.921 28.936C157.59 28.936 159.937 29.5547 160.961 30.792C161.345 31.304 161.537 32.2 161.537 33.48C161.537 36.1253 160.961 37.768 159.809 38.408C158.273 38.792 156.993 38.984 155.969 38.984C155.371 38.984 154.859 38.9413 154.433 38.856C154.433 40.0933 154.475 42.0987 154.561 44.872C154.646 47.6027 154.689 49.672 154.689 51.08C154.859 51.08 155.563 51.0373 156.801 50.952C158.038 50.824 158.763 50.76 158.977 50.76C159.147 50.76 159.403 50.8027 159.745 50.888C160.086 50.9733 160.342 51.016 160.513 51.016C160.683 51.1867 160.769 51.6347 160.769 52.36C160.769 53.512 160.598 54.9627 160.257 56.712C159.915 58.4187 159.595 59.464 159.297 59.848C158.017 60.616 155.585 61 152.001 61C149.697 61 148.161 60.8507 147.393 60.552C146.625 60.2533 146.241 59.592 146.241 58.568C146.241 57.288 146.347 56.008 146.561 54.728C142.55 59.336 138.219 61.64 133.569 61.64C126.23 61.64 122.561 56.4773 122.561 46.152C122.561 44.104 122.689 42.0987 122.945 40.136C122.902 40.1787 122.71 40.2 122.369 40.2C121.729 40.2 120.726 40.0933 119.361 39.88C118.977 39.4533 118.785 38.0667 118.785 35.72ZM165.672 55.24C165.672 53.4053 165.821 52.3387 166.12 52.04C167.229 51.528 168.466 51.272 169.832 51.272C169.362 48.456 169.128 44.1467 169.128 38.344C169.128 31.5173 169.341 25.5867 169.768 20.552C168.53 20.552 167.57 20.4667 166.888 20.296C166.802 19.4427 166.76 18.76 166.76 18.248C166.76 16.3707 167.208 14.7493 168.104 13.384C169.938 12.9573 171.666 12.744 173.288 12.744C175.336 12.744 176.936 12.9573 178.088 13.384C178.514 17.3947 178.728 21.64 178.728 26.12C178.728 29.2773 178.578 33.7787 178.28 39.624C178.024 45.4693 177.874 49.4373 177.832 51.528C178.045 51.4853 178.386 51.464 178.856 51.464C180.136 51.464 181.181 51.6987 181.992 52.168C182.162 52.5093 182.248 53.0213 182.248 53.704C182.248 54.728 182.077 55.9653 181.736 57.416C181.394 58.824 181.053 59.8267 180.712 60.424C180.157 60.8507 178.045 61.064 174.376 61.064C172.37 61.064 170.557 60.8933 168.936 60.552C167.357 60.2107 166.418 59.784 166.12 59.272C165.821 58.76 165.672 57.416 165.672 55.24ZM184.831 30.6C184.831 29.6613 184.959 29.064 185.215 28.808C185.983 28.68 186.985 28.616 188.223 28.616H189.631V16.584C191.849 16.4133 193.279 16.328 193.919 16.328C194.559 16.328 195.86 16.4133 197.823 16.584L198.463 28.744C203.156 28.9573 205.844 29.256 206.527 29.64C207.167 30.7493 207.487 32.456 207.487 34.76C207.487 35.6987 207.359 36.296 207.103 36.552C205.78 36.7227 204.265 36.808 202.559 36.808C202.004 36.808 201.172 36.808 200.062 36.808C198.953 36.7653 198.121 36.744 197.567 36.744C197.567 38.152 197.545 39.9227 197.503 42.056C197.503 44.1893 197.503 45.704 197.503 46.6C197.503 49.928 197.716 51.976 198.143 52.744C198.612 53.4693 199.849 53.832 201.855 53.832C202.623 53.832 203.263 53.7893 203.775 53.704L203.391 52.36L209.279 51.016C209.705 52.2533 209.919 53.704 209.919 55.368C209.919 58.1413 209.641 59.8907 209.087 60.616C204.905 61.2133 201.428 61.512 198.655 61.512C195.028 61.512 192.639 61 191.487 59.976C190.975 59.5067 190.569 58.888 190.271 58.12C189.972 57.352 189.759 56.264 189.631 54.856C189.545 53.4053 189.481 51.976 189.439 50.568C189.396 49.1173 189.332 47.0267 189.247 44.296C189.161 41.5653 189.055 38.984 188.927 36.552C187.561 36.424 186.516 36.1467 185.791 35.72C185.151 34.6107 184.831 32.904 184.831 30.6ZM212.794 59.08C213.05 54.6427 214.564 51.592 217.338 49.928C217.636 49.8853 218.084 49.864 218.682 49.864C220.943 49.864 222.671 50.6107 223.866 52.104C223.866 52.1467 223.866 52.232 223.866 52.36C223.908 52.4453 223.93 52.5093 223.93 52.552C223.93 52.68 223.887 52.9147 223.802 53.256C224.186 53.896 224.868 54.4293 225.85 54.856C226.874 55.24 227.962 55.432 229.114 55.432C230.735 55.432 232.015 55.048 232.954 54.28C233.935 53.512 234.426 52.5947 234.426 51.528C234.426 49.4373 232.698 48.3067 229.242 48.136C227.919 48.0933 226.852 48.0293 226.042 47.944C225.231 47.8587 224.122 47.7093 222.714 47.496C221.348 47.2827 220.218 46.9627 219.322 46.536C218.426 46.1093 217.508 45.576 216.57 44.936C215.674 44.296 214.991 43.4427 214.522 42.376C214.052 41.3093 213.818 40.072 213.818 38.664C213.818 35.336 215.119 32.8187 217.722 31.112C220.367 29.4053 223.631 28.552 227.514 28.552C230.927 28.552 233.828 28.936 236.218 29.704C236.474 29.2773 236.815 28.8507 237.242 28.424C237.711 27.9973 238.074 27.7413 238.33 27.656C241.487 27.9547 243.578 29.0213 244.602 30.856C244.346 35.2933 242.831 38.344 240.058 40.008C239.759 40.0507 239.311 40.072 238.714 40.072C236.452 40.072 234.724 39.3253 233.53 37.832C233.53 37.7893 233.508 37.7253 233.466 37.64C233.466 37.512 233.466 37.4267 233.466 37.384C233.466 37.256 233.508 37.0213 233.594 36.68C233.124 36.1253 232.271 35.656 231.034 35.272C229.839 34.888 228.602 34.696 227.322 34.696C224.036 34.696 222.394 35.784 222.394 37.96C222.394 40.52 224.719 41.8853 229.37 42.056C230.692 42.0987 231.738 42.1627 232.506 42.248C233.274 42.2907 234.298 42.4187 235.578 42.632C236.9 42.8027 237.967 43.1013 238.778 43.528C239.588 43.912 240.399 44.424 241.21 45.064C242.063 45.704 242.682 46.5573 243.066 47.624C243.492 48.648 243.706 49.864 243.706 51.272C243.706 58.0133 238.756 61.384 228.858 61.384C225.53 61.384 222.756 61 220.538 60.232C219.855 61.512 219.364 62.1947 219.066 62.28C215.908 61.9813 213.818 60.9147 212.794 59.08Z" fill="black"/>
</mask>
<g mask="url(#mask0)">
<path d="M18 39.5C13.3333 41.8333 2 46.4 -6 46V52.5C-2.66667 60.8333 5.6 78.2 12 81C20 84.5 161 115.5 205 107C249 98.5 264.5 70 266 59C267.5 48 245 46 243.5 42.5C242.3 39.7 227.333 41.3333 220 42.5C216 43.6667 207.4 46.8 205 50C202 54 191 54.5 187.5 52.5C184.7 50.9 175 47.5 170.5 46C166 45.3333 156.5 44.4 154.5 46C152 48 146.5 46 143 50C140.2 53.2 129.833 54.3333 125 54.5C120.5 53.8333 110.5 51.2 106.5 46C102.5 40.8 93.5 43.8333 89.5 46C82 47.6667 66.3 51.3 63.5 52.5C60 54 43 46 41.5 46C40.3 46 25.3333 41.6667 18 39.5Z" fill="#05A498"/>
</g>
</svg>
