<svg width="271" height="78" viewBox="0 0 271 78" fill="none" xmlns="http://www.w3.org/2000/svg">
<path d="M2.83975 21.704C2.83975 18.7173 3.33042 16.8827 4.31175 16.2C5.46375 15.8587 6.99975 15.688 8.91975 15.688C11.3091 15.688 13.4638 15.9867 15.3838 16.584C15.5971 17.3947 15.7038 18.1413 15.7038 18.824C15.7038 19.1653 15.6824 19.3573 15.6398 19.4C16.3651 19.1867 17.3678 18.8667 18.6478 18.44C19.9704 18.0133 20.9091 17.7147 21.4638 17.544C22.0184 17.3733 22.7438 17.16 23.6398 16.904C24.5784 16.6053 25.2824 16.4133 25.7518 16.328C26.2638 16.2 26.8184 16.0933 27.4158 16.008C28.0558 15.9227 28.6104 15.88 29.0798 15.88C30.9571 15.88 32.6211 16.4133 34.0718 17.48C35.5651 18.504 36.7171 19.8053 37.5278 21.384C38.3811 22.9627 38.9998 24.5413 39.3838 26.12C39.8104 27.6987 40.0238 29.1493 40.0238 30.472C40.0238 33.3307 39.1278 35.8267 37.3358 37.96C35.5864 40.0933 33.4744 41.8427 30.9998 43.208C33.9438 45.256 36.7171 47.368 39.3198 49.544C41.9224 51.6773 43.2878 53.064 43.4158 53.704C43.7571 53.5333 44.1411 53.448 44.5678 53.448C45.0371 53.448 45.5918 53.576 46.2318 53.832C46.8718 54.4293 47.1918 55.4533 47.1918 56.904C47.1918 58.3547 46.9144 59.3573 46.3598 59.912C44.9518 60.6373 41.9864 61 37.4638 61C35.2878 61 33.1544 60.6373 31.0638 59.912C30.6371 59.7413 30.2744 59.3147 29.9758 58.632C29.6771 57.9067 29.5278 57.1173 29.5278 56.264C29.5278 55.1973 29.7624 54.4293 30.2318 53.96C30.5304 53.704 30.8931 53.576 31.3198 53.576C31.6184 53.576 32.0238 53.6613 32.5358 53.832C32.0664 52.7227 31.3624 51.7413 30.4238 50.888C29.4851 49.992 28.5038 49.3093 27.4798 48.84C26.4558 48.328 25.3464 47.9013 24.1518 47.56C22.9998 47.176 21.9758 46.92 21.0798 46.792C20.2264 46.664 19.4584 46.5787 18.7758 46.536L17.8158 46.408C18.0291 47.4747 18.1358 48.584 18.1358 49.736C18.1358 50.8453 18.0291 51.8907 17.8158 52.872C18.1144 52.744 18.5198 52.68 19.0318 52.68C20.3971 52.68 21.4424 53.064 22.1678 53.832C22.3384 54.216 22.4238 55.2187 22.4238 56.84C22.4238 58.4187 22.3384 59.4 22.1678 59.784C21.9118 60.6373 18.1571 61.064 10.9038 61.064C8.30108 61.064 6.53042 60.9787 5.59175 60.808C4.69575 60.5947 4.18375 60.2533 4.05575 59.784C3.88508 59.4 3.79975 58.4187 3.79975 56.84C3.79975 55.2187 3.88508 54.216 4.05575 53.832C4.26908 53.4907 4.73842 53.2133 5.46375 53C6.23175 52.7867 6.95708 52.68 7.63975 52.68C8.15175 52.68 8.49308 52.7013 8.66375 52.744C8.66375 52.0187 8.64242 50.6747 8.59975 48.712C8.55708 46.7493 8.53575 44.7227 8.53575 42.632C8.53575 35.08 8.74908 30.1093 9.17575 27.72C8.66375 27.9333 8.00242 28.04 7.19175 28.04C5.95442 28.04 5.10108 27.8053 4.63175 27.336C3.43708 27.08 2.83975 25.2027 2.83975 21.704ZM16.9838 33.224C16.9838 35.016 17.4318 36.4027 18.3278 37.384C19.2664 38.3653 20.4398 38.856 21.8478 38.856C23.8958 38.856 25.8798 37.9813 27.7998 36.232C29.7624 34.44 30.7438 32.3067 30.7438 29.832C30.7438 28.1253 30.2531 26.696 29.2718 25.544C28.3331 24.3493 27.0531 23.752 25.4318 23.752C23.3411 23.752 21.3998 24.6907 19.6078 26.568C17.8584 28.4453 16.9838 30.664 16.9838 33.224ZM48.3918 47.624C48.3918 42.8027 50.1198 38.3867 53.5758 34.376C57.0744 30.3653 60.9784 28.36 65.2878 28.36C67.9331 28.36 70.1944 29.1707 72.0718 30.792C73.9491 32.4133 74.8878 34.5253 74.8878 37.128C74.8878 40.1573 73.6291 42.76 71.1118 44.936C68.6371 47.0693 65.3518 48.136 61.2558 48.136C58.9091 48.136 57.2664 47.7733 56.3278 47.048C56.3704 49.096 57.0958 50.7387 58.5038 51.976C59.9118 53.1707 61.5331 53.768 63.3678 53.768C65.7571 53.768 67.6984 52.8293 69.1918 50.952C69.1918 50.6107 69.2558 50.248 69.3838 49.864C71.2611 48.328 73.2878 47.56 75.4638 47.56C75.8904 47.56 76.2104 47.5813 76.4238 47.624C79.2398 49.16 80.9678 51.6773 81.6077 55.176C81.5651 55.5173 81.3944 55.88 81.0958 56.264C80.8398 56.648 80.5624 56.9893 80.2638 57.288C79.9651 57.544 79.5384 57.864 78.9838 58.248C78.4291 58.5893 77.9811 58.8453 77.6398 59.016C77.3411 59.1867 76.8718 59.4427 76.2318 59.784C75.6344 60.1253 75.2931 60.3173 75.2078 60.36C74.9518 60.36 74.7384 60.3387 74.5678 60.296C74.3971 60.2107 74.2264 60.104 74.0558 59.976C73.9278 59.8053 73.8424 59.6987 73.7998 59.656C73.7571 59.5707 73.6718 59.4 73.5438 59.144C73.4158 58.8453 73.3304 58.6747 73.2878 58.632C70.1304 60.7227 66.7384 61.768 63.1118 61.768C59.0584 61.768 55.5811 60.4667 52.6798 57.864C49.8211 55.2613 48.3918 51.848 48.3918 47.624ZM58.3758 40.136C58.3758 41.544 59.3998 42.248 61.4478 42.248C62.9838 42.248 64.4558 41.8853 65.8638 41.16C67.2718 40.4347 67.9758 39.5387 67.9758 38.472C67.9758 37.7467 67.7198 37 67.2078 36.232C66.7384 35.4213 65.9704 35.016 64.9038 35.016C63.5811 35.016 62.1518 35.5493 60.6158 36.616C59.1224 37.6827 58.3758 38.856 58.3758 40.136ZM81.5433 33.672C84.9993 30.8987 89.2873 29.2987 94.4073 28.872C94.7913 29.4693 95.3033 30.3867 95.9433 31.624C96.5833 32.8187 96.9033 33.608 96.9033 33.992C96.8179 34.3333 96.3059 34.696 95.3673 35.08C94.4286 35.464 93.7459 35.656 93.3193 35.656C93.7033 37.2773 94.6846 39.944 96.2633 43.656C97.8419 47.3253 99.1646 50.0347 100.231 51.784C102.877 47.8587 105.181 42.4827 107.143 35.656C106.546 35.6133 105.821 35.4427 104.967 35.144C104.157 34.8027 103.687 34.44 103.559 34.056C103.602 33.8 103.986 32.904 104.711 31.368C105.479 29.7893 105.927 28.9573 106.055 28.872C111.474 28.872 115.762 30.472 118.919 33.672C118.493 36.4027 117.895 38.664 117.127 40.456C116.317 40.2853 115.421 39.9653 114.439 39.496C114.269 40.6907 113.906 41.992 113.351 43.4C112.839 44.7653 112.349 45.8747 111.879 46.728C111.453 47.5387 110.749 48.7333 109.767 50.312C108.829 51.8907 108.21 52.936 107.911 53.448C109.106 53.832 110.13 54.5787 110.983 55.688C110.941 56.5413 110.599 57.5227 109.959 58.632C109.362 59.6987 108.701 60.3173 107.975 60.488C106.397 60.8293 103.41 61 99.0153 61C95.5166 61 93.3406 60.8293 92.4873 60.488C91.6766 60.104 90.9726 59.464 90.3753 58.568C89.7779 57.6293 89.4792 56.6693 89.4792 55.688C89.7353 55.3893 90.2473 54.9413 91.0153 54.344C91.8259 53.7467 92.3379 53.448 92.5513 53.448C88.3699 47.304 86.1939 42.6533 86.0233 39.496C85.0419 39.9653 84.1459 40.2853 83.3353 40.456C82.5673 38.4507 81.9699 36.1893 81.5433 33.672ZM121.261 55.688C121.261 53.512 121.389 52.2747 121.645 51.976C122.157 51.6773 122.797 51.4853 123.565 51.4C124.077 51.3147 125.186 51.272 126.893 51.272C126.637 48.584 126.509 45.6613 126.509 42.504C126.509 39.048 126.722 36.8507 127.149 35.912C125.058 35.912 123.671 35.8267 122.989 35.656C123.031 34.504 123.181 33.288 123.437 32.008C123.522 31.4533 123.778 30.3653 124.205 28.744C125.783 28.4453 128.429 28.296 132.141 28.296C133.634 28.296 134.999 28.3813 136.237 28.552C137.517 28.7227 138.477 28.936 139.117 29.192C139.799 29.4053 140.141 29.6187 140.141 29.832C140.226 29.832 140.269 30.6 140.269 32.136C140.269 34.568 140.055 36.104 139.629 36.744C139.458 37 138.946 37.128 138.093 37.128C136.514 37.128 135.511 37.0213 135.085 36.808C134.615 39.7947 134.381 43.6773 134.381 48.456C134.381 50.4187 134.445 51.4427 134.573 51.528C134.829 51.4853 135.191 51.464 135.661 51.464C137.197 51.464 138.434 51.6987 139.373 52.168C139.501 52.3387 139.565 52.7227 139.565 53.32C139.565 54.3867 139.415 55.6667 139.117 57.16C138.818 58.6533 138.391 59.6773 137.837 60.232C137.325 60.744 135.661 61 132.845 61C126.146 61 122.434 60.3813 121.709 59.144C121.41 58.5893 121.261 57.4373 121.261 55.688ZM126.381 15.816C126.381 14.6213 127.021 14.024 128.301 14.024C129.367 14.024 130.519 14.344 131.757 14.984C132.653 14.088 133.847 13.64 135.341 13.64C136.279 13.64 137.111 13.96 137.837 14.6C138.562 15.24 138.925 16.1147 138.925 17.224C138.925 17.7787 138.797 18.312 138.541 18.824C138.327 19.336 138.093 19.7627 137.837 20.104C137.581 20.4453 137.154 20.8507 136.557 21.32C135.959 21.7467 135.49 22.0667 135.149 22.28C134.85 22.4507 134.295 22.7707 133.485 23.24C132.674 23.6667 132.162 23.944 131.949 24.072C130.285 22.8347 128.941 21.448 127.917 19.912C126.893 18.3333 126.381 16.968 126.381 15.816ZM144.454 47.624C144.454 42.8027 146.182 38.3867 149.638 34.376C153.137 30.3653 157.041 28.36 161.35 28.36C163.996 28.36 166.257 29.1707 168.134 30.792C170.012 32.4133 170.95 34.5253 170.95 37.128C170.95 40.1573 169.692 42.76 167.174 44.936C164.7 47.0693 161.414 48.136 157.318 48.136C154.972 48.136 153.329 47.7733 152.39 47.048C152.433 49.096 153.158 50.7387 154.566 51.976C155.974 53.1707 157.596 53.768 159.43 53.768C161.82 53.768 163.761 52.8293 165.254 50.952C165.254 50.6107 165.318 50.248 165.446 49.864C167.324 48.328 169.35 47.56 171.526 47.56C171.953 47.56 172.273 47.5813 172.486 47.624C175.302 49.16 177.03 51.6773 177.67 55.176C177.628 55.5173 177.457 55.88 177.158 56.264C176.902 56.648 176.625 56.9893 176.326 57.288C176.028 57.544 175.601 57.864 175.046 58.248C174.492 58.5893 174.044 58.8453 173.702 59.016C173.404 59.1867 172.934 59.4427 172.294 59.784C171.697 60.1253 171.356 60.3173 171.27 60.36C171.014 60.36 170.801 60.3387 170.63 60.296C170.46 60.2107 170.289 60.104 170.118 59.976C169.99 59.8053 169.905 59.6987 169.862 59.656C169.82 59.5707 169.734 59.4 169.606 59.144C169.478 58.8453 169.393 58.6747 169.35 58.632C166.193 60.7227 162.801 61.768 159.174 61.768C155.121 61.768 151.644 60.4667 148.742 57.864C145.884 55.2613 144.454 51.848 144.454 47.624ZM154.438 40.136C154.438 41.544 155.462 42.248 157.51 42.248C159.046 42.248 160.518 41.8853 161.926 41.16C163.334 40.4347 164.038 39.5387 164.038 38.472C164.038 37.7467 163.782 37 163.27 36.232C162.801 35.4213 162.033 35.016 160.966 35.016C159.644 35.016 158.214 35.5493 156.678 36.616C155.185 37.6827 154.438 38.856 154.438 40.136ZM177.671 35.144C179.207 33.4373 180.957 32.1147 182.919 31.176C184.925 30.2373 187.677 29.4907 191.175 28.936C192.029 29.448 192.647 30.3653 193.031 31.688C193.458 32.968 193.671 34.2267 193.671 35.464C193.586 35.8053 193.074 36.168 192.135 36.552C191.197 36.936 190.514 37.128 190.087 37.128C190.173 37.7253 190.407 38.472 190.791 39.368C191.218 40.2213 191.581 40.968 191.879 41.608C192.221 42.2053 192.775 43.1867 193.543 44.552C194.311 45.9173 194.823 46.8347 195.079 47.304C195.933 46.664 196.85 45.5547 197.831 43.976C198.855 42.3973 199.687 40.9467 200.327 39.624C200.967 38.2587 201.693 36.6587 202.503 34.824C203.314 32.9467 203.783 31.88 203.911 31.624C204.85 30.8987 205.874 30.536 206.983 30.536C208.05 30.536 209.117 30.8987 210.183 31.624C210.354 32.1787 210.674 33.2453 211.143 34.824C211.613 36.4027 212.018 37.6827 212.359 38.664C212.701 39.6453 213.106 40.7973 213.575 42.12C214.087 43.4427 214.621 44.5947 215.175 45.576C215.773 46.5147 216.391 47.304 217.031 47.944C217.97 46.4507 218.973 44.5733 220.039 42.312C221.149 40.008 221.81 38.28 222.023 37.128C221.554 37.0853 220.829 36.872 219.847 36.488C218.909 36.104 218.439 35.7627 218.439 35.464L218.503 34.76C218.503 34.248 218.503 33.864 218.503 33.608C218.546 33.3093 218.61 32.904 218.695 32.392C218.823 31.8373 218.951 31.3893 219.079 31.048C219.25 30.664 219.485 30.28 219.783 29.896C220.125 29.4693 220.509 29.1493 220.935 28.936C224.391 29.4907 227.058 30.216 228.935 31.112C230.813 32.008 232.647 33.352 234.439 35.144C234.013 37.8747 233.415 40.136 232.647 41.928C231.837 41.7573 230.941 41.4373 229.959 40.968C229.917 41.608 229.49 42.7387 228.679 44.36C227.869 45.9387 226.781 47.8587 225.415 50.12L223.431 53.448C224.626 53.832 225.65 54.5787 226.503 55.688C226.503 57.224 225.458 58.824 223.367 60.488C222.002 60.8293 219.954 61 217.223 61C216.541 61 215.73 60.5307 214.791 59.592C213.853 58.6533 212.765 57.224 211.527 55.304C210.333 53.3413 209.394 51.8053 208.711 50.696C208.071 49.5867 207.175 47.9653 206.023 45.832C200.562 55.944 196.85 61 194.887 61C191.602 61 189.533 60.8293 188.679 60.488C187.869 60.0613 187.143 59.3147 186.503 58.248C185.906 57.1813 185.607 56.328 185.607 55.688C185.863 55.3893 186.375 54.9413 187.143 54.344C187.954 53.7467 188.466 53.448 188.679 53.448C184.413 46.536 182.237 42.376 182.151 40.968C181.17 41.4373 180.274 41.7573 179.463 41.928C178.695 39.9227 178.098 37.6613 177.671 35.144ZM236.95 59.08C237.206 54.6427 238.72 51.592 241.494 49.928C241.792 49.8853 242.24 49.864 242.838 49.864C245.099 49.864 246.827 50.6107 248.022 52.104C248.022 52.1467 248.022 52.232 248.022 52.36C248.064 52.4453 248.086 52.5093 248.086 52.552C248.086 52.68 248.043 52.9147 247.958 53.256C248.342 53.896 249.024 54.4293 250.006 54.856C251.03 55.24 252.118 55.432 253.27 55.432C254.891 55.432 256.171 55.048 257.11 54.28C258.091 53.512 258.582 52.5947 258.582 51.528C258.582 49.4373 256.854 48.3067 253.398 48.136C252.075 48.0933 251.008 48.0293 250.198 47.944C249.387 47.8587 248.278 47.7093 246.87 47.496C245.504 47.2827 244.374 46.9627 243.478 46.536C242.582 46.1093 241.664 45.576 240.726 44.936C239.83 44.296 239.147 43.4427 238.678 42.376C238.208 41.3093 237.974 40.072 237.974 38.664C237.974 35.336 239.275 32.8187 241.878 31.112C244.523 29.4053 247.787 28.552 251.67 28.552C255.083 28.552 257.984 28.936 260.374 29.704C260.63 29.2773 260.971 28.8507 261.398 28.424C261.867 27.9973 262.23 27.7413 262.486 27.656C265.643 27.9547 267.734 29.0213 268.758 30.856C268.502 35.2933 266.987 38.344 264.214 40.008C263.915 40.0507 263.467 40.072 262.87 40.072C260.608 40.072 258.88 39.3253 257.686 37.832C257.686 37.7893 257.664 37.7253 257.622 37.64C257.622 37.512 257.622 37.4267 257.622 37.384C257.622 37.256 257.664 37.0213 257.75 36.68C257.28 36.1253 256.427 35.656 255.19 35.272C253.995 34.888 252.758 34.696 251.478 34.696C248.192 34.696 246.55 35.784 246.55 37.96C246.55 40.52 248.875 41.8853 253.526 42.056C254.848 42.0987 255.894 42.1627 256.662 42.248C257.43 42.2907 258.454 42.4187 259.734 42.632C261.056 42.8027 262.123 43.1013 262.934 43.528C263.744 43.912 264.555 44.424 265.366 45.064C266.219 45.704 266.838 46.5573 267.222 47.624C267.648 48.648 267.862 49.864 267.862 51.272C267.862 58.0133 262.912 61.384 253.014 61.384C249.686 61.384 246.912 61 244.694 60.232C244.011 61.512 243.52 62.1947 243.222 62.28C240.064 61.9813 237.974 60.9147 236.95 59.08Z" fill="black"/>
<mask id="mask0" mask-type="alpha" maskUnits="userSpaceOnUse" x="2" y="13" width="267" height="50">
<path d="M2.83975 21.704C2.83975 18.7173 3.33042 16.8827 4.31175 16.2C5.46375 15.8587 6.99975 15.688 8.91975 15.688C11.3091 15.688 13.4638 15.9867 15.3838 16.584C15.5971 17.3947 15.7038 18.1413 15.7038 18.824C15.7038 19.1653 15.6824 19.3573 15.6398 19.4C16.3651 19.1867 17.3678 18.8667 18.6478 18.44C19.9704 18.0133 20.9091 17.7147 21.4638 17.544C22.0184 17.3733 22.7438 17.16 23.6398 16.904C24.5784 16.6053 25.2824 16.4133 25.7518 16.328C26.2638 16.2 26.8184 16.0933 27.4158 16.008C28.0558 15.9227 28.6104 15.88 29.0798 15.88C30.9571 15.88 32.6211 16.4133 34.0718 17.48C35.5651 18.504 36.7171 19.8053 37.5278 21.384C38.3811 22.9627 38.9998 24.5413 39.3838 26.12C39.8104 27.6987 40.0238 29.1493 40.0238 30.472C40.0238 33.3307 39.1278 35.8267 37.3358 37.96C35.5864 40.0933 33.4744 41.8427 30.9998 43.208C33.9438 45.256 36.7171 47.368 39.3198 49.544C41.9224 51.6773 43.2878 53.064 43.4158 53.704C43.7571 53.5333 44.1411 53.448 44.5678 53.448C45.0371 53.448 45.5918 53.576 46.2318 53.832C46.8718 54.4293 47.1918 55.4533 47.1918 56.904C47.1918 58.3547 46.9144 59.3573 46.3598 59.912C44.9518 60.6373 41.9864 61 37.4638 61C35.2878 61 33.1544 60.6373 31.0638 59.912C30.6371 59.7413 30.2744 59.3147 29.9758 58.632C29.6771 57.9067 29.5278 57.1173 29.5278 56.264C29.5278 55.1973 29.7624 54.4293 30.2318 53.96C30.5304 53.704 30.8931 53.576 31.3198 53.576C31.6184 53.576 32.0238 53.6613 32.5358 53.832C32.0664 52.7227 31.3624 51.7413 30.4238 50.888C29.4851 49.992 28.5038 49.3093 27.4798 48.84C26.4558 48.328 25.3464 47.9013 24.1518 47.56C22.9998 47.176 21.9758 46.92 21.0798 46.792C20.2264 46.664 19.4584 46.5787 18.7758 46.536L17.8158 46.408C18.0291 47.4747 18.1358 48.584 18.1358 49.736C18.1358 50.8453 18.0291 51.8907 17.8158 52.872C18.1144 52.744 18.5198 52.68 19.0318 52.68C20.3971 52.68 21.4424 53.064 22.1678 53.832C22.3384 54.216 22.4238 55.2187 22.4238 56.84C22.4238 58.4187 22.3384 59.4 22.1678 59.784C21.9118 60.6373 18.1571 61.064 10.9038 61.064C8.30108 61.064 6.53042 60.9787 5.59175 60.808C4.69575 60.5947 4.18375 60.2533 4.05575 59.784C3.88508 59.4 3.79975 58.4187 3.79975 56.84C3.79975 55.2187 3.88508 54.216 4.05575 53.832C4.26908 53.4907 4.73842 53.2133 5.46375 53C6.23175 52.7867 6.95708 52.68 7.63975 52.68C8.15175 52.68 8.49308 52.7013 8.66375 52.744C8.66375 52.0187 8.64242 50.6747 8.59975 48.712C8.55708 46.7493 8.53575 44.7227 8.53575 42.632C8.53575 35.08 8.74908 30.1093 9.17575 27.72C8.66375 27.9333 8.00242 28.04 7.19175 28.04C5.95442 28.04 5.10108 27.8053 4.63175 27.336C3.43708 27.08 2.83975 25.2027 2.83975 21.704ZM16.9838 33.224C16.9838 35.016 17.4318 36.4027 18.3278 37.384C19.2664 38.3653 20.4398 38.856 21.8478 38.856C23.8958 38.856 25.8798 37.9813 27.7998 36.232C29.7624 34.44 30.7438 32.3067 30.7438 29.832C30.7438 28.1253 30.2531 26.696 29.2718 25.544C28.3331 24.3493 27.0531 23.752 25.4318 23.752C23.3411 23.752 21.3998 24.6907 19.6078 26.568C17.8584 28.4453 16.9838 30.664 16.9838 33.224ZM48.3918 47.624C48.3918 42.8027 50.1198 38.3867 53.5758 34.376C57.0744 30.3653 60.9784 28.36 65.2878 28.36C67.9331 28.36 70.1944 29.1707 72.0718 30.792C73.9491 32.4133 74.8878 34.5253 74.8878 37.128C74.8878 40.1573 73.6291 42.76 71.1118 44.936C68.6371 47.0693 65.3518 48.136 61.2558 48.136C58.9091 48.136 57.2664 47.7733 56.3278 47.048C56.3704 49.096 57.0958 50.7387 58.5038 51.976C59.9118 53.1707 61.5331 53.768 63.3678 53.768C65.7571 53.768 67.6984 52.8293 69.1918 50.952C69.1918 50.6107 69.2558 50.248 69.3838 49.864C71.2611 48.328 73.2878 47.56 75.4638 47.56C75.8904 47.56 76.2104 47.5813 76.4238 47.624C79.2398 49.16 80.9678 51.6773 81.6077 55.176C81.5651 55.5173 81.3944 55.88 81.0958 56.264C80.8398 56.648 80.5624 56.9893 80.2638 57.288C79.9651 57.544 79.5384 57.864 78.9838 58.248C78.4291 58.5893 77.9811 58.8453 77.6398 59.016C77.3411 59.1867 76.8718 59.4427 76.2318 59.784C75.6344 60.1253 75.2931 60.3173 75.2078 60.36C74.9518 60.36 74.7384 60.3387 74.5678 60.296C74.3971 60.2107 74.2264 60.104 74.0558 59.976C73.9278 59.8053 73.8424 59.6987 73.7998 59.656C73.7571 59.5707 73.6718 59.4 73.5438 59.144C73.4158 58.8453 73.3304 58.6747 73.2878 58.632C70.1304 60.7227 66.7384 61.768 63.1118 61.768C59.0584 61.768 55.5811 60.4667 52.6798 57.864C49.8211 55.2613 48.3918 51.848 48.3918 47.624ZM58.3758 40.136C58.3758 41.544 59.3998 42.248 61.4478 42.248C62.9838 42.248 64.4558 41.8853 65.8638 41.16C67.2718 40.4347 67.9758 39.5387 67.9758 38.472C67.9758 37.7467 67.7198 37 67.2078 36.232C66.7384 35.4213 65.9704 35.016 64.9038 35.016C63.5811 35.016 62.1518 35.5493 60.6158 36.616C59.1224 37.6827 58.3758 38.856 58.3758 40.136ZM81.5433 33.672C84.9993 30.8987 89.2873 29.2987 94.4073 28.872C94.7913 29.4693 95.3033 30.3867 95.9433 31.624C96.5833 32.8187 96.9033 33.608 96.9033 33.992C96.8179 34.3333 96.3059 34.696 95.3673 35.08C94.4286 35.464 93.7459 35.656 93.3193 35.656C93.7033 37.2773 94.6846 39.944 96.2633 43.656C97.8419 47.3253 99.1646 50.0347 100.231 51.784C102.877 47.8587 105.181 42.4827 107.143 35.656C106.546 35.6133 105.821 35.4427 104.967 35.144C104.157 34.8027 103.687 34.44 103.559 34.056C103.602 33.8 103.986 32.904 104.711 31.368C105.479 29.7893 105.927 28.9573 106.055 28.872C111.474 28.872 115.762 30.472 118.919 33.672C118.493 36.4027 117.895 38.664 117.127 40.456C116.317 40.2853 115.421 39.9653 114.439 39.496C114.269 40.6907 113.906 41.992 113.351 43.4C112.839 44.7653 112.349 45.8747 111.879 46.728C111.453 47.5387 110.749 48.7333 109.767 50.312C108.829 51.8907 108.21 52.936 107.911 53.448C109.106 53.832 110.13 54.5787 110.983 55.688C110.941 56.5413 110.599 57.5227 109.959 58.632C109.362 59.6987 108.701 60.3173 107.975 60.488C106.397 60.8293 103.41 61 99.0153 61C95.5166 61 93.3406 60.8293 92.4873 60.488C91.6766 60.104 90.9726 59.464 90.3753 58.568C89.7779 57.6293 89.4792 56.6693 89.4792 55.688C89.7353 55.3893 90.2473 54.9413 91.0153 54.344C91.8259 53.7467 92.3379 53.448 92.5513 53.448C88.3699 47.304 86.1939 42.6533 86.0233 39.496C85.0419 39.9653 84.1459 40.2853 83.3353 40.456C82.5673 38.4507 81.9699 36.1893 81.5433 33.672ZM121.261 55.688C121.261 53.512 121.389 52.2747 121.645 51.976C122.157 51.6773 122.797 51.4853 123.565 51.4C124.077 51.3147 125.186 51.272 126.893 51.272C126.637 48.584 126.509 45.6613 126.509 42.504C126.509 39.048 126.722 36.8507 127.149 35.912C125.058 35.912 123.671 35.8267 122.989 35.656C123.031 34.504 123.181 33.288 123.437 32.008C123.522 31.4533 123.778 30.3653 124.205 28.744C125.783 28.4453 128.429 28.296 132.141 28.296C133.634 28.296 134.999 28.3813 136.237 28.552C137.517 28.7227 138.477 28.936 139.117 29.192C139.799 29.4053 140.141 29.6187 140.141 29.832C140.226 29.832 140.269 30.6 140.269 32.136C140.269 34.568 140.055 36.104 139.629 36.744C139.458 37 138.946 37.128 138.093 37.128C136.514 37.128 135.511 37.0213 135.085 36.808C134.615 39.7947 134.381 43.6773 134.381 48.456C134.381 50.4187 134.445 51.4427 134.573 51.528C134.829 51.4853 135.191 51.464 135.661 51.464C137.197 51.464 138.434 51.6987 139.373 52.168C139.501 52.3387 139.565 52.7227 139.565 53.32C139.565 54.3867 139.415 55.6667 139.117 57.16C138.818 58.6533 138.391 59.6773 137.837 60.232C137.325 60.744 135.661 61 132.845 61C126.146 61 122.434 60.3813 121.709 59.144C121.41 58.5893 121.261 57.4373 121.261 55.688ZM126.381 15.816C126.381 14.6213 127.021 14.024 128.301 14.024C129.367 14.024 130.519 14.344 131.757 14.984C132.653 14.088 133.847 13.64 135.341 13.64C136.279 13.64 137.111 13.96 137.837 14.6C138.562 15.24 138.925 16.1147 138.925 17.224C138.925 17.7787 138.797 18.312 138.541 18.824C138.327 19.336 138.093 19.7627 137.837 20.104C137.581 20.4453 137.154 20.8507 136.557 21.32C135.959 21.7467 135.49 22.0667 135.149 22.28C134.85 22.4507 134.295 22.7707 133.485 23.24C132.674 23.6667 132.162 23.944 131.949 24.072C130.285 22.8347 128.941 21.448 127.917 19.912C126.893 18.3333 126.381 16.968 126.381 15.816ZM144.454 47.624C144.454 42.8027 146.182 38.3867 149.638 34.376C153.137 30.3653 157.041 28.36 161.35 28.36C163.996 28.36 166.257 29.1707 168.134 30.792C170.012 32.4133 170.95 34.5253 170.95 37.128C170.95 40.1573 169.692 42.76 167.174 44.936C164.7 47.0693 161.414 48.136 157.318 48.136C154.972 48.136 153.329 47.7733 152.39 47.048C152.433 49.096 153.158 50.7387 154.566 51.976C155.974 53.1707 157.596 53.768 159.43 53.768C161.82 53.768 163.761 52.8293 165.254 50.952C165.254 50.6107 165.318 50.248 165.446 49.864C167.324 48.328 169.35 47.56 171.526 47.56C171.953 47.56 172.273 47.5813 172.486 47.624C175.302 49.16 177.03 51.6773 177.67 55.176C177.628 55.5173 177.457 55.88 177.158 56.264C176.902 56.648 176.625 56.9893 176.326 57.288C176.028 57.544 175.601 57.864 175.046 58.248C174.492 58.5893 174.044 58.8453 173.702 59.016C173.404 59.1867 172.934 59.4427 172.294 59.784C171.697 60.1253 171.356 60.3173 171.27 60.36C171.014 60.36 170.801 60.3387 170.63 60.296C170.46 60.2107 170.289 60.104 170.118 59.976C169.99 59.8053 169.905 59.6987 169.862 59.656C169.82 59.5707 169.734 59.4 169.606 59.144C169.478 58.8453 169.393 58.6747 169.35 58.632C166.193 60.7227 162.801 61.768 159.174 61.768C155.121 61.768 151.644 60.4667 148.742 57.864C145.884 55.2613 144.454 51.848 144.454 47.624ZM154.438 40.136C154.438 41.544 155.462 42.248 157.51 42.248C159.046 42.248 160.518 41.8853 161.926 41.16C163.334 40.4347 164.038 39.5387 164.038 38.472C164.038 37.7467 163.782 37 163.27 36.232C162.801 35.4213 162.033 35.016 160.966 35.016C159.644 35.016 158.214 35.5493 156.678 36.616C155.185 37.6827 154.438 38.856 154.438 40.136ZM177.671 35.144C179.207 33.4373 180.957 32.1147 182.919 31.176C184.925 30.2373 187.677 29.4907 191.175 28.936C192.029 29.448 192.647 30.3653 193.031 31.688C193.458 32.968 193.671 34.2267 193.671 35.464C193.586 35.8053 193.074 36.168 192.135 36.552C191.197 36.936 190.514 37.128 190.087 37.128C190.173 37.7253 190.407 38.472 190.791 39.368C191.218 40.2213 191.581 40.968 191.879 41.608C192.221 42.2053 192.775 43.1867 193.543 44.552C194.311 45.9173 194.823 46.8347 195.079 47.304C195.933 46.664 196.85 45.5547 197.831 43.976C198.855 42.3973 199.687 40.9467 200.327 39.624C200.967 38.2587 201.693 36.6587 202.503 34.824C203.314 32.9467 203.783 31.88 203.911 31.624C204.85 30.8987 205.874 30.536 206.983 30.536C208.05 30.536 209.117 30.8987 210.183 31.624C210.354 32.1787 210.674 33.2453 211.143 34.824C211.613 36.4027 212.018 37.6827 212.359 38.664C212.701 39.6453 213.106 40.7973 213.575 42.12C214.087 43.4427 214.621 44.5947 215.175 45.576C215.773 46.5147 216.391 47.304 217.031 47.944C217.97 46.4507 218.973 44.5733 220.039 42.312C221.149 40.008 221.81 38.28 222.023 37.128C221.554 37.0853 220.829 36.872 219.847 36.488C218.909 36.104 218.439 35.7627 218.439 35.464L218.503 34.76C218.503 34.248 218.503 33.864 218.503 33.608C218.546 33.3093 218.61 32.904 218.695 32.392C218.823 31.8373 218.951 31.3893 219.079 31.048C219.25 30.664 219.485 30.28 219.783 29.896C220.125 29.4693 220.509 29.1493 220.935 28.936C224.391 29.4907 227.058 30.216 228.935 31.112C230.813 32.008 232.647 33.352 234.439 35.144C234.013 37.8747 233.415 40.136 232.647 41.928C231.837 41.7573 230.941 41.4373 229.959 40.968C229.917 41.608 229.49 42.7387 228.679 44.36C227.869 45.9387 226.781 47.8587 225.415 50.12L223.431 53.448C224.626 53.832 225.65 54.5787 226.503 55.688C226.503 57.224 225.458 58.824 223.367 60.488C222.002 60.8293 219.954 61 217.223 61C216.541 61 215.73 60.5307 214.791 59.592C213.853 58.6533 212.765 57.224 211.527 55.304C210.333 53.3413 209.394 51.8053 208.711 50.696C208.071 49.5867 207.175 47.9653 206.023 45.832C200.562 55.944 196.85 61 194.887 61C191.602 61 189.533 60.8293 188.679 60.488C187.869 60.0613 187.143 59.3147 186.503 58.248C185.906 57.1813 185.607 56.328 185.607 55.688C185.863 55.3893 186.375 54.9413 187.143 54.344C187.954 53.7467 188.466 53.448 188.679 53.448C184.413 46.536 182.237 42.376 182.151 40.968C181.17 41.4373 180.274 41.7573 179.463 41.928C178.695 39.9227 178.098 37.6613 177.671 35.144ZM236.95 59.08C237.206 54.6427 238.72 51.592 241.494 49.928C241.792 49.8853 242.24 49.864 242.838 49.864C245.099 49.864 246.827 50.6107 248.022 52.104C248.022 52.1467 248.022 52.232 248.022 52.36C248.064 52.4453 248.086 52.5093 248.086 52.552C248.086 52.68 248.043 52.9147 247.958 53.256C248.342 53.896 249.024 54.4293 250.006 54.856C251.03 55.24 252.118 55.432 253.27 55.432C254.891 55.432 256.171 55.048 257.11 54.28C258.091 53.512 258.582 52.5947 258.582 51.528C258.582 49.4373 256.854 48.3067 253.398 48.136C252.075 48.0933 251.008 48.0293 250.198 47.944C249.387 47.8587 248.278 47.7093 246.87 47.496C245.504 47.2827 244.374 46.9627 243.478 46.536C242.582 46.1093 241.664 45.576 240.726 44.936C239.83 44.296 239.147 43.4427 238.678 42.376C238.208 41.3093 237.974 40.072 237.974 38.664C237.974 35.336 239.275 32.8187 241.878 31.112C244.523 29.4053 247.787 28.552 251.67 28.552C255.083 28.552 257.984 28.936 260.374 29.704C260.63 29.2773 260.971 28.8507 261.398 28.424C261.867 27.9973 262.23 27.7413 262.486 27.656C265.643 27.9547 267.734 29.0213 268.758 30.856C268.502 35.2933 266.987 38.344 264.214 40.008C263.915 40.0507 263.467 40.072 262.87 40.072C260.608 40.072 258.88 39.3253 257.686 37.832C257.686 37.7893 257.664 37.7253 257.622 37.64C257.622 37.512 257.622 37.4267 257.622 37.384C257.622 37.256 257.664 37.0213 257.75 36.68C257.28 36.1253 256.427 35.656 255.19 35.272C253.995 34.888 252.758 34.696 251.478 34.696C248.192 34.696 246.55 35.784 246.55 37.96C246.55 40.52 248.875 41.8853 253.526 42.056C254.848 42.0987 255.894 42.1627 256.662 42.248C257.43 42.2907 258.454 42.4187 259.734 42.632C261.056 42.8027 262.123 43.1013 262.934 43.528C263.744 43.912 264.555 44.424 265.366 45.064C266.219 45.704 266.838 46.5573 267.222 47.624C267.648 48.648 267.862 49.864 267.862 51.272C267.862 58.0133 262.912 61.384 253.014 61.384C249.686 61.384 246.912 61 244.694 60.232C244.011 61.512 243.52 62.1947 243.222 62.28C240.064 61.9813 237.974 60.9147 236.95 59.08Z" fill="black"/>
</mask>
<g mask="url(#mask0)">
<path d="M27 43.9998C10 38.4998 7.5 45.9998 -2.5 49.4998L-9 70.5C48.5 75.5 168.9 86 190.5 88C217.5 90.5 280.5 62 280.5 57.5C280.5 53.9 266.5 50.6666 259.5 49.4998L231 54.5C225.667 54.5 213.9 53.5 209.5 49.4998C205.1 45.4997 195 44.1665 190.5 43.9998L163.5 49.4998L145 54.5L130.5 49.4998C122.5 47.6665 105.4 43.9998 101 43.9998C96.6 43.9998 87.8333 47.6665 84 49.4998H53C48 49.4998 44 49.4998 27 43.9998Z" fill="#05A498"/>
</g>
</svg>
