<svg width="488" height="67" viewBox="0 0 488 67" fill="none" xmlns="http://www.w3.org/2000/svg">
<path d="M2.52 33.12C2.52 27.408 4.57333 22.6667 8.68 18.896C12.824 15.088 17.696 13.184 23.296 13.184C26.656 13.184 29.7733 14.3413 32.648 16.656C32.9467 16.9173 33.096 17.2533 33.096 17.664C33.096 18.2613 32.8533 18.8213 32.368 19.344C31.8827 19.8293 31.3787 20.072 30.856 20.072C30.4827 20.072 30.1653 19.9413 29.904 19.68C28.112 18.112 25.872 17.328 23.184 17.328C18.2933 17.328 14.3173 18.9147 11.256 22.088C8.232 25.224 6.72 28.8827 6.72 33.064C6.72 37.3573 8.21333 41.1467 11.2 44.432C14.1867 47.7173 18.2 49.36 23.24 49.36C26.5253 49.36 29.1947 48.184 31.248 45.832C31.6587 45.4213 32.0133 45.216 32.312 45.216C32.872 45.216 33.4133 45.496 33.936 46.056C34.4587 46.616 34.72 47.1573 34.72 47.68C34.72 48.016 34.5893 48.3147 34.328 48.576C31.4533 51.8613 27.8507 53.504 23.52 53.504C19.2267 53.504 15.456 52.5333 12.208 50.592C8.96 48.6133 6.53333 46.112 4.928 43.088C3.32267 40.0267 2.52 36.704 2.52 33.12ZM37.8363 50.928C37.8363 50.7787 37.8736 50.592 37.9483 50.368L41.7563 40.288H39.4603C38.4523 40.288 37.9483 39.5787 37.9483 38.16C37.9483 37.6 38.079 37.1333 38.3403 36.76C38.6016 36.3493 38.975 36.144 39.4603 36.144H43.3243L51.1083 15.76C51.407 15.1627 51.8176 14.696 52.3403 14.36C52.863 13.9867 53.3296 13.8 53.7403 13.8C54.151 13.8 54.6176 13.9867 55.1403 14.36C55.663 14.7333 56.055 15.2 56.3163 15.76L64.1003 36.144H67.7403C68.2256 36.144 68.599 36.3493 68.8603 36.76C69.159 37.1707 69.3083 37.656 69.3083 38.216C69.3083 39.5973 68.7856 40.288 67.7403 40.288H65.7243L69.5883 50.368C69.663 50.592 69.7003 50.7787 69.7003 50.928C69.7003 51.488 69.4203 51.9733 68.8603 52.384C68.3003 52.7947 67.7403 53 67.1803 53C66.583 53 66.135 52.72 65.8363 52.16L61.3003 40.288H46.2363L41.7003 52.16C41.4016 52.72 40.9536 53 40.3563 53C39.7963 53 39.2363 52.7947 38.6763 52.384C38.1163 51.9733 37.8363 51.488 37.8363 50.928ZM47.8043 36.144H59.6763L53.7403 20.52L47.8043 36.144ZM75.6739 51.432V15.312C75.6739 14.304 76.2339 13.8 77.3539 13.8C78.1753 13.8 78.9779 14.1547 79.7619 14.864L103.562 35.808V15.312C103.562 14.304 104.271 13.8 105.69 13.8C106.25 13.8 106.717 13.9307 107.09 14.192C107.501 14.4533 107.706 14.8267 107.706 15.312V51.432C107.706 51.9173 107.501 52.3093 107.09 52.608C106.679 52.8693 106.194 53 105.634 53C104.253 53 103.562 52.4773 103.562 51.432V41.24L79.8179 20.352V51.432C79.8179 51.9173 79.6126 52.3093 79.2019 52.608C78.7913 52.8693 78.3059 53 77.7459 53C76.3646 53 75.6739 52.4773 75.6739 51.432ZM114.469 33.512C114.469 27.8 116.056 23.04 119.229 19.232C122.44 15.424 126.248 13.52 130.653 13.52C135.059 13.52 138.773 15.48 141.797 19.4C144.859 23.2827 146.389 27.9307 146.389 33.344C146.389 39.3173 144.896 44.1333 141.909 47.792C138.96 51.4133 135.208 53.2427 130.653 53.28C126.248 53.28 122.44 51.432 119.229 47.736C116.056 44.04 114.469 39.2987 114.469 33.512ZM118.613 33.568C118.613 37.824 119.789 41.4827 122.141 44.544C124.531 47.6053 127.368 49.136 130.653 49.136C133.901 49.136 136.645 47.6053 138.885 44.544C141.125 41.4453 142.245 37.7493 142.245 33.456C142.245 29.3493 141.107 25.6907 138.829 22.48C136.589 19.2693 133.864 17.664 130.653 17.664C127.368 17.664 124.531 19.288 122.141 22.536C119.789 25.784 118.613 29.4613 118.613 33.568ZM153.276 51.432V15.312C153.276 14.304 153.836 13.8 154.956 13.8C155.777 13.8 156.58 14.1547 157.364 14.864L181.164 35.808V15.312C181.164 14.304 181.873 13.8 183.292 13.8C183.852 13.8 184.318 13.9307 184.692 14.192C185.102 14.4533 185.308 14.8267 185.308 15.312V51.432C185.308 51.9173 185.102 52.3093 184.692 52.608C184.281 52.8693 183.796 53 183.236 53C181.854 53 181.164 52.4773 181.164 51.432V41.24L157.419 20.352V51.432C157.419 51.9173 157.214 52.3093 156.804 52.608C156.393 52.8693 155.908 53 155.348 53C153.966 53 153.276 52.4773 153.276 51.432ZM206.979 50.144V16.6C206.979 14.7707 207.464 13.856 208.435 13.856H237.219C237.704 13.856 238.077 14.0613 238.339 14.472C238.637 14.8827 238.787 15.368 238.787 15.928C238.787 17.3093 238.264 18 237.219 18H211.123V28.976H232.179C232.664 28.976 233.037 29.1813 233.299 29.592C233.597 30.0027 233.747 30.488 233.747 31.048C233.747 32.4293 233.224 33.12 232.179 33.12H211.123V48.856H237.219C237.704 48.856 238.077 49.0613 238.339 49.472C238.637 49.8827 238.787 50.368 238.787 50.928C238.787 52.3093 238.264 53 237.219 53H208.435C207.8 53 207.389 52.776 207.203 52.328C207.053 51.88 206.979 51.152 206.979 50.144ZM242.493 33.512C242.493 27.8 244.079 23.04 247.253 19.232C250.463 15.424 254.271 13.52 258.677 13.52C263.082 13.52 266.797 15.48 269.821 19.4C272.882 23.2827 274.413 27.9307 274.413 33.344C274.413 39.3173 272.919 44.1333 269.933 47.792C266.983 51.4133 263.231 53.2427 258.677 53.28C254.271 53.28 250.463 51.432 247.253 47.736C244.079 44.04 242.493 39.2987 242.493 33.512ZM246.637 33.568C246.637 37.824 247.813 41.4827 250.165 44.544C252.554 47.6053 255.391 49.136 258.677 49.136C261.925 49.136 264.669 47.6053 266.909 44.544C269.149 41.4453 270.269 37.7493 270.269 33.456C270.269 29.3493 269.13 25.6907 266.853 22.48C264.613 19.2693 261.887 17.664 258.677 17.664C255.391 17.664 252.554 19.288 250.165 22.536C247.813 25.784 246.637 29.4613 246.637 33.568ZM279.619 45.888C279.619 45.328 279.824 44.7493 280.235 44.152C280.683 43.5547 281.187 43.256 281.747 43.256C281.934 43.256 282.064 43.2933 282.139 43.368C283.446 44.7493 285.406 46.0187 288.019 47.176C290.67 48.296 293.152 48.856 295.467 48.856C302.15 48.856 305.491 46.6347 305.491 42.192C305.491 40.6987 305.024 39.4853 304.091 38.552C303.195 37.5813 302 36.8533 300.507 36.368C299.051 35.8827 297.427 35.472 295.635 35.136C293.88 34.8 292.107 34.408 290.315 33.96C288.523 33.4747 286.88 32.8773 285.387 32.168C283.931 31.4587 282.736 30.376 281.803 28.92C280.907 27.464 280.459 25.6907 280.459 23.6C280.459 20.464 281.84 18.056 284.603 16.376C287.366 14.6587 290.67 13.8 294.515 13.8C297.502 13.8 300.302 14.304 302.915 15.312C305.566 16.2827 307.507 17.664 308.739 19.456C308.776 19.5307 308.795 19.624 308.795 19.736C308.795 20.184 308.478 20.6507 307.843 21.136C307.246 21.584 306.704 21.808 306.219 21.808C306.144 21.808 305.92 21.7147 305.547 21.528C302.598 19.1013 298.939 17.888 294.571 17.888C291.92 17.888 289.587 18.392 287.571 19.4C285.555 20.3707 284.547 21.864 284.547 23.88C284.547 25.2613 284.995 26.4 285.891 27.296C286.824 28.192 288.019 28.864 289.475 29.312C290.968 29.7227 292.611 30.096 294.403 30.432C296.195 30.7307 297.987 31.1227 299.779 31.608C301.571 32.0933 303.195 32.728 304.651 33.512C306.144 34.2587 307.339 35.3973 308.235 36.928C309.168 38.4587 309.635 40.3253 309.635 42.528C309.635 49.472 305.043 52.944 295.859 52.944C292.872 52.944 289.942 52.4213 287.067 51.376C284.192 50.2933 281.84 48.8187 280.011 46.952C279.75 46.6907 279.619 46.336 279.619 45.888ZM327.455 25.616C327.455 25.2053 327.585 24.8693 327.847 24.608L339.103 14.528C339.588 14.0427 340.092 13.8 340.615 13.8C341.809 13.8 342.407 14.808 342.407 16.824V48.856H348.399C348.884 48.856 349.257 49.0613 349.519 49.472C349.817 49.8827 349.967 50.368 349.967 50.928C349.967 52.3093 349.444 53 348.399 53H332.215C331.207 53 330.703 52.2907 330.703 50.872C330.703 50.312 330.833 49.8453 331.095 49.472C331.356 49.0613 331.729 48.856 332.215 48.856H338.263V21.192L330.815 27.576C330.553 27.8373 330.236 27.968 329.863 27.968C329.303 27.968 328.761 27.7253 328.239 27.24C327.716 26.7547 327.455 26.2133 327.455 25.616ZM353.945 51.488C353.945 49.584 354.449 47.736 355.457 45.944C356.502 44.152 357.79 42.6213 359.321 41.352C360.851 40.0827 362.513 38.7573 364.305 37.376C366.097 35.9947 367.758 34.744 369.289 33.624C370.819 32.4667 372.089 31.1413 373.097 29.648C374.142 28.1547 374.665 26.6613 374.665 25.168C374.665 23.0027 373.638 21.2667 371.585 19.96C369.569 18.616 367.534 17.944 365.481 17.944C364.025 17.944 362.55 18.28 361.057 18.952C359.563 19.5867 358.817 20.5013 358.817 21.696C358.817 22.2187 358.593 22.648 358.145 22.984C357.697 23.32 357.174 23.488 356.577 23.488C356.017 23.488 355.531 23.3387 355.121 23.04C354.747 22.704 354.561 22.2373 354.561 21.64C354.598 19.2507 355.774 17.3467 358.089 15.928C360.441 14.5093 362.811 13.8 365.201 13.8C366.731 13.8 368.262 14.0427 369.793 14.528C371.323 15.0133 372.761 15.7227 374.105 16.656C375.486 17.5893 376.606 18.84 377.465 20.408C378.323 21.9387 378.753 23.656 378.753 25.56C378.753 27.5387 378.174 29.424 377.017 31.216C375.897 32.9707 374.459 34.5573 372.705 35.976C370.95 37.3947 369.158 38.7573 367.329 40.064C365.537 41.3333 363.801 42.752 362.121 44.32C360.441 45.8507 359.265 47.3627 358.593 48.856H377.745C378.23 48.856 378.603 49.0613 378.865 49.472C379.163 49.8827 379.312 50.368 379.312 50.928C379.312 52.3093 378.79 53 377.745 53H356.521C354.803 53 353.945 52.496 353.945 51.488ZM385.071 33.512C385.071 27.5387 386.266 22.7227 388.655 19.064C391.082 15.368 394.404 13.52 398.623 13.52C402.879 13.52 406.146 15.4053 408.423 19.176C410.738 22.9467 411.895 27.6693 411.895 33.344C411.895 39.5787 410.775 44.4507 408.535 47.96C406.295 51.4693 402.991 53.2427 398.623 53.28C394.404 53.28 391.082 51.488 388.655 47.904C386.266 44.32 385.071 39.5227 385.071 33.512ZM389.215 33.568C389.215 38.1227 389.999 41.856 391.567 44.768C393.135 47.68 395.487 49.136 398.623 49.136C401.722 49.136 404.018 47.68 405.511 44.768C407.004 41.856 407.751 38.0853 407.751 33.456C407.751 30.6187 407.452 28.0613 406.855 25.784C406.295 23.5067 405.306 21.584 403.887 20.016C402.468 18.448 400.714 17.664 398.623 17.664C396.495 17.664 394.703 18.448 393.247 20.016C391.791 21.584 390.746 23.5253 390.111 25.84C389.514 28.1547 389.215 30.7307 389.215 33.568ZM417.938 33.512C417.938 27.5387 419.133 22.7227 421.522 19.064C423.949 15.368 427.271 13.52 431.49 13.52C435.746 13.52 439.013 15.4053 441.29 19.176C443.605 22.9467 444.762 27.6693 444.762 33.344C444.762 39.5787 443.642 44.4507 441.402 47.96C439.162 51.4693 435.858 53.2427 431.49 53.28C427.271 53.28 423.949 51.488 421.522 47.904C419.133 44.32 417.938 39.5227 417.938 33.512ZM422.082 33.568C422.082 38.1227 422.866 41.856 424.434 44.768C426.002 47.68 428.354 49.136 431.49 49.136C434.589 49.136 436.885 47.68 438.378 44.768C439.871 41.856 440.618 38.0853 440.618 33.456C440.618 30.6187 440.319 28.0613 439.722 25.784C439.162 23.5067 438.173 21.584 436.754 20.016C435.335 18.448 433.581 17.664 431.49 17.664C429.362 17.664 427.57 18.448 426.114 20.016C424.658 21.584 423.613 23.5253 422.978 25.84C422.381 28.1547 422.082 30.7307 422.082 33.568ZM451.869 51.432V15.312C451.869 14.304 452.579 13.8 453.997 13.8C454.557 13.8 455.024 13.9307 455.397 14.192C455.808 14.4533 456.013 14.8267 456.013 15.312V15.76C458.664 14.0427 461.259 13.184 463.797 13.184C469.397 13.184 474.251 15.088 478.357 18.896C482.501 22.6667 484.573 27.408 484.573 33.12C484.573 36.704 483.771 40.0267 482.165 43.088C480.56 46.112 478.133 48.6133 474.885 50.592C471.637 52.5333 467.867 53.504 463.573 53.504C460.699 53.504 458.179 52.8133 456.013 51.432C456.013 51.9173 455.808 52.3093 455.397 52.608C454.987 52.8693 454.501 53 453.941 53C452.56 53 451.869 52.4773 451.869 51.432ZM456.013 46.056C458.067 48.2587 460.68 49.36 463.853 49.36C468.893 49.36 472.907 47.7173 475.893 44.432C478.88 41.1467 480.373 37.3573 480.373 33.064C480.373 28.8827 478.843 25.224 475.781 22.088C472.757 18.9147 468.8 17.328 463.909 17.328C461.259 17.328 458.627 18.2427 456.013 20.072V46.056Z" fill="black"/>
<mask id="mask0" mask-type="alpha" maskUnits="userSpaceOnUse" x="2" y="13" width="483" height="41">
<path d="M2.52 33.12C2.52 27.408 4.57333 22.6667 8.68 18.896C12.824 15.088 17.696 13.184 23.296 13.184C26.656 13.184 29.7733 14.3413 32.648 16.656C32.9467 16.9173 33.096 17.2533 33.096 17.664C33.096 18.2613 32.8533 18.8213 32.368 19.344C31.8827 19.8293 31.3787 20.072 30.856 20.072C30.4827 20.072 30.1653 19.9413 29.904 19.68C28.112 18.112 25.872 17.328 23.184 17.328C18.2933 17.328 14.3173 18.9147 11.256 22.088C8.232 25.224 6.72 28.8827 6.72 33.064C6.72 37.3573 8.21333 41.1467 11.2 44.432C14.1867 47.7173 18.2 49.36 23.24 49.36C26.5253 49.36 29.1947 48.184 31.248 45.832C31.6587 45.4213 32.0133 45.216 32.312 45.216C32.872 45.216 33.4133 45.496 33.936 46.056C34.4587 46.616 34.72 47.1573 34.72 47.68C34.72 48.016 34.5893 48.3147 34.328 48.576C31.4533 51.8613 27.8507 53.504 23.52 53.504C19.2267 53.504 15.456 52.5333 12.208 50.592C8.96 48.6133 6.53333 46.112 4.928 43.088C3.32267 40.0267 2.52 36.704 2.52 33.12ZM37.8363 50.928C37.8363 50.7787 37.8736 50.592 37.9483 50.368L41.7563 40.288H39.4603C38.4523 40.288 37.9483 39.5787 37.9483 38.16C37.9483 37.6 38.079 37.1333 38.3403 36.76C38.6016 36.3493 38.975 36.144 39.4603 36.144H43.3243L51.1083 15.76C51.407 15.1627 51.8176 14.696 52.3403 14.36C52.863 13.9867 53.3296 13.8 53.7403 13.8C54.151 13.8 54.6176 13.9867 55.1403 14.36C55.663 14.7333 56.055 15.2 56.3163 15.76L64.1003 36.144H67.7403C68.2256 36.144 68.599 36.3493 68.8603 36.76C69.159 37.1707 69.3083 37.656 69.3083 38.216C69.3083 39.5973 68.7856 40.288 67.7403 40.288H65.7243L69.5883 50.368C69.663 50.592 69.7003 50.7787 69.7003 50.928C69.7003 51.488 69.4203 51.9733 68.8603 52.384C68.3003 52.7947 67.7403 53 67.1803 53C66.583 53 66.135 52.72 65.8363 52.16L61.3003 40.288H46.2363L41.7003 52.16C41.4016 52.72 40.9536 53 40.3563 53C39.7963 53 39.2363 52.7947 38.6763 52.384C38.1163 51.9733 37.8363 51.488 37.8363 50.928ZM47.8043 36.144H59.6763L53.7403 20.52L47.8043 36.144ZM75.6739 51.432V15.312C75.6739 14.304 76.2339 13.8 77.3539 13.8C78.1753 13.8 78.9779 14.1547 79.7619 14.864L103.562 35.808V15.312C103.562 14.304 104.271 13.8 105.69 13.8C106.25 13.8 106.717 13.9307 107.09 14.192C107.501 14.4533 107.706 14.8267 107.706 15.312V51.432C107.706 51.9173 107.501 52.3093 107.09 52.608C106.679 52.8693 106.194 53 105.634 53C104.253 53 103.562 52.4773 103.562 51.432V41.24L79.8179 20.352V51.432C79.8179 51.9173 79.6126 52.3093 79.2019 52.608C78.7913 52.8693 78.3059 53 77.7459 53C76.3646 53 75.6739 52.4773 75.6739 51.432ZM114.469 33.512C114.469 27.8 116.056 23.04 119.229 19.232C122.44 15.424 126.248 13.52 130.653 13.52C135.059 13.52 138.773 15.48 141.797 19.4C144.859 23.2827 146.389 27.9307 146.389 33.344C146.389 39.3173 144.896 44.1333 141.909 47.792C138.96 51.4133 135.208 53.2427 130.653 53.28C126.248 53.28 122.44 51.432 119.229 47.736C116.056 44.04 114.469 39.2987 114.469 33.512ZM118.613 33.568C118.613 37.824 119.789 41.4827 122.141 44.544C124.531 47.6053 127.368 49.136 130.653 49.136C133.901 49.136 136.645 47.6053 138.885 44.544C141.125 41.4453 142.245 37.7493 142.245 33.456C142.245 29.3493 141.107 25.6907 138.829 22.48C136.589 19.2693 133.864 17.664 130.653 17.664C127.368 17.664 124.531 19.288 122.141 22.536C119.789 25.784 118.613 29.4613 118.613 33.568ZM153.276 51.432V15.312C153.276 14.304 153.836 13.8 154.956 13.8C155.777 13.8 156.58 14.1547 157.364 14.864L181.164 35.808V15.312C181.164 14.304 181.873 13.8 183.292 13.8C183.852 13.8 184.318 13.9307 184.692 14.192C185.102 14.4533 185.308 14.8267 185.308 15.312V51.432C185.308 51.9173 185.102 52.3093 184.692 52.608C184.281 52.8693 183.796 53 183.236 53C181.854 53 181.164 52.4773 181.164 51.432V41.24L157.419 20.352V51.432C157.419 51.9173 157.214 52.3093 156.804 52.608C156.393 52.8693 155.908 53 155.348 53C153.966 53 153.276 52.4773 153.276 51.432ZM206.979 50.144V16.6C206.979 14.7707 207.464 13.856 208.435 13.856H237.219C237.704 13.856 238.077 14.0613 238.339 14.472C238.637 14.8827 238.787 15.368 238.787 15.928C238.787 17.3093 238.264 18 237.219 18H211.123V28.976H232.179C232.664 28.976 233.037 29.1813 233.299 29.592C233.597 30.0027 233.747 30.488 233.747 31.048C233.747 32.4293 233.224 33.12 232.179 33.12H211.123V48.856H237.219C237.704 48.856 238.077 49.0613 238.339 49.472C238.637 49.8827 238.787 50.368 238.787 50.928C238.787 52.3093 238.264 53 237.219 53H208.435C207.8 53 207.389 52.776 207.203 52.328C207.053 51.88 206.979 51.152 206.979 50.144ZM242.493 33.512C242.493 27.8 244.079 23.04 247.253 19.232C250.463 15.424 254.271 13.52 258.677 13.52C263.082 13.52 266.797 15.48 269.821 19.4C272.882 23.2827 274.413 27.9307 274.413 33.344C274.413 39.3173 272.919 44.1333 269.933 47.792C266.983 51.4133 263.231 53.2427 258.677 53.28C254.271 53.28 250.463 51.432 247.253 47.736C244.079 44.04 242.493 39.2987 242.493 33.512ZM246.637 33.568C246.637 37.824 247.813 41.4827 250.165 44.544C252.554 47.6053 255.391 49.136 258.677 49.136C261.925 49.136 264.669 47.6053 266.909 44.544C269.149 41.4453 270.269 37.7493 270.269 33.456C270.269 29.3493 269.13 25.6907 266.853 22.48C264.613 19.2693 261.887 17.664 258.677 17.664C255.391 17.664 252.554 19.288 250.165 22.536C247.813 25.784 246.637 29.4613 246.637 33.568ZM279.619 45.888C279.619 45.328 279.824 44.7493 280.235 44.152C280.683 43.5547 281.187 43.256 281.747 43.256C281.934 43.256 282.064 43.2933 282.139 43.368C283.446 44.7493 285.406 46.0187 288.019 47.176C290.67 48.296 293.152 48.856 295.467 48.856C302.15 48.856 305.491 46.6347 305.491 42.192C305.491 40.6987 305.024 39.4853 304.091 38.552C303.195 37.5813 302 36.8533 300.507 36.368C299.051 35.8827 297.427 35.472 295.635 35.136C293.88 34.8 292.107 34.408 290.315 33.96C288.523 33.4747 286.88 32.8773 285.387 32.168C283.931 31.4587 282.736 30.376 281.803 28.92C280.907 27.464 280.459 25.6907 280.459 23.6C280.459 20.464 281.84 18.056 284.603 16.376C287.366 14.6587 290.67 13.8 294.515 13.8C297.502 13.8 300.302 14.304 302.915 15.312C305.566 16.2827 307.507 17.664 308.739 19.456C308.776 19.5307 308.795 19.624 308.795 19.736C308.795 20.184 308.478 20.6507 307.843 21.136C307.246 21.584 306.704 21.808 306.219 21.808C306.144 21.808 305.92 21.7147 305.547 21.528C302.598 19.1013 298.939 17.888 294.571 17.888C291.92 17.888 289.587 18.392 287.571 19.4C285.555 20.3707 284.547 21.864 284.547 23.88C284.547 25.2613 284.995 26.4 285.891 27.296C286.824 28.192 288.019 28.864 289.475 29.312C290.968 29.7227 292.611 30.096 294.403 30.432C296.195 30.7307 297.987 31.1227 299.779 31.608C301.571 32.0933 303.195 32.728 304.651 33.512C306.144 34.2587 307.339 35.3973 308.235 36.928C309.168 38.4587 309.635 40.3253 309.635 42.528C309.635 49.472 305.043 52.944 295.859 52.944C292.872 52.944 289.942 52.4213 287.067 51.376C284.192 50.2933 281.84 48.8187 280.011 46.952C279.75 46.6907 279.619 46.336 279.619 45.888ZM327.455 25.616C327.455 25.2053 327.585 24.8693 327.847 24.608L339.103 14.528C339.588 14.0427 340.092 13.8 340.615 13.8C341.809 13.8 342.407 14.808 342.407 16.824V48.856H348.399C348.884 48.856 349.257 49.0613 349.519 49.472C349.817 49.8827 349.967 50.368 349.967 50.928C349.967 52.3093 349.444 53 348.399 53H332.215C331.207 53 330.703 52.2907 330.703 50.872C330.703 50.312 330.833 49.8453 331.095 49.472C331.356 49.0613 331.729 48.856 332.215 48.856H338.263V21.192L330.815 27.576C330.553 27.8373 330.236 27.968 329.863 27.968C329.303 27.968 328.761 27.7253 328.239 27.24C327.716 26.7547 327.455 26.2133 327.455 25.616ZM353.945 51.488C353.945 49.584 354.449 47.736 355.457 45.944C356.502 44.152 357.79 42.6213 359.321 41.352C360.851 40.0827 362.513 38.7573 364.305 37.376C366.097 35.9947 367.758 34.744 369.289 33.624C370.819 32.4667 372.089 31.1413 373.097 29.648C374.142 28.1547 374.665 26.6613 374.665 25.168C374.665 23.0027 373.638 21.2667 371.585 19.96C369.569 18.616 367.534 17.944 365.481 17.944C364.025 17.944 362.55 18.28 361.057 18.952C359.563 19.5867 358.817 20.5013 358.817 21.696C358.817 22.2187 358.593 22.648 358.145 22.984C357.697 23.32 357.174 23.488 356.577 23.488C356.017 23.488 355.531 23.3387 355.121 23.04C354.747 22.704 354.561 22.2373 354.561 21.64C354.598 19.2507 355.774 17.3467 358.089 15.928C360.441 14.5093 362.811 13.8 365.201 13.8C366.731 13.8 368.262 14.0427 369.793 14.528C371.323 15.0133 372.761 15.7227 374.105 16.656C375.486 17.5893 376.606 18.84 377.465 20.408C378.323 21.9387 378.753 23.656 378.753 25.56C378.753 27.5387 378.174 29.424 377.017 31.216C375.897 32.9707 374.459 34.5573 372.705 35.976C370.95 37.3947 369.158 38.7573 367.329 40.064C365.537 41.3333 363.801 42.752 362.121 44.32C360.441 45.8507 359.265 47.3627 358.593 48.856H377.745C378.23 48.856 378.603 49.0613 378.865 49.472C379.163 49.8827 379.312 50.368 379.312 50.928C379.312 52.3093 378.79 53 377.745 53H356.521C354.803 53 353.945 52.496 353.945 51.488ZM385.071 33.512C385.071 27.5387 386.266 22.7227 388.655 19.064C391.082 15.368 394.404 13.52 398.623 13.52C402.879 13.52 406.146 15.4053 408.423 19.176C410.738 22.9467 411.895 27.6693 411.895 33.344C411.895 39.5787 410.775 44.4507 408.535 47.96C406.295 51.4693 402.991 53.2427 398.623 53.28C394.404 53.28 391.082 51.488 388.655 47.904C386.266 44.32 385.071 39.5227 385.071 33.512ZM389.215 33.568C389.215 38.1227 389.999 41.856 391.567 44.768C393.135 47.68 395.487 49.136 398.623 49.136C401.722 49.136 404.018 47.68 405.511 44.768C407.004 41.856 407.751 38.0853 407.751 33.456C407.751 30.6187 407.452 28.0613 406.855 25.784C406.295 23.5067 405.306 21.584 403.887 20.016C402.468 18.448 400.714 17.664 398.623 17.664C396.495 17.664 394.703 18.448 393.247 20.016C391.791 21.584 390.746 23.5253 390.111 25.84C389.514 28.1547 389.215 30.7307 389.215 33.568ZM417.938 33.512C417.938 27.5387 419.133 22.7227 421.522 19.064C423.949 15.368 427.271 13.52 431.49 13.52C435.746 13.52 439.013 15.4053 441.29 19.176C443.605 22.9467 444.762 27.6693 444.762 33.344C444.762 39.5787 443.642 44.4507 441.402 47.96C439.162 51.4693 435.858 53.2427 431.49 53.28C427.271 53.28 423.949 51.488 421.522 47.904C419.133 44.32 417.938 39.5227 417.938 33.512ZM422.082 33.568C422.082 38.1227 422.866 41.856 424.434 44.768C426.002 47.68 428.354 49.136 431.49 49.136C434.589 49.136 436.885 47.68 438.378 44.768C439.871 41.856 440.618 38.0853 440.618 33.456C440.618 30.6187 440.319 28.0613 439.722 25.784C439.162 23.5067 438.173 21.584 436.754 20.016C435.335 18.448 433.581 17.664 431.49 17.664C429.362 17.664 427.57 18.448 426.114 20.016C424.658 21.584 423.613 23.5253 422.978 25.84C422.381 28.1547 422.082 30.7307 422.082 33.568ZM451.869 51.432V15.312C451.869 14.304 452.579 13.8 453.997 13.8C454.557 13.8 455.024 13.9307 455.397 14.192C455.808 14.4533 456.013 14.8267 456.013 15.312V15.76C458.664 14.0427 461.259 13.184 463.797 13.184C469.397 13.184 474.251 15.088 478.357 18.896C482.501 22.6667 484.573 27.408 484.573 33.12C484.573 36.704 483.771 40.0267 482.165 43.088C480.56 46.112 478.133 48.6133 474.885 50.592C471.637 52.5333 467.867 53.504 463.573 53.504C460.699 53.504 458.179 52.8133 456.013 51.432C456.013 51.9173 455.808 52.3093 455.397 52.608C454.987 52.8693 454.501 53 453.941 53C452.56 53 451.869 52.4773 451.869 51.432ZM456.013 46.056C458.067 48.2587 460.68 49.36 463.853 49.36C468.893 49.36 472.907 47.7173 475.893 44.432C478.88 41.1467 480.373 37.3573 480.373 33.064C480.373 28.8827 478.843 25.224 475.781 22.088C472.757 18.9147 468.8 17.328 463.909 17.328C461.259 17.328 458.627 18.2427 456.013 20.072V46.056Z" fill="black"/>
</mask>
<g mask="url(#mask0)">
<path d="M-39 38.1176C-50.5543 31.2076 -72 45.1176 -80 45.1176L-71 59.0001C-59.1667 64.1668 -32.7 74.7001 -21.5 75.5001C-7.5 76.5001 100 80.5001 107 80.5001C114 80.5001 248.5 87.5001 278.5 91.0001C308.5 94.5001 331 93.0001 462 80.5001C593 68.0001 496 64.5001 504 59.0001C510.4 54.6001 512.667 42.8334 513 37.5001C515.833 34.3334 513.2 34 482 34H469C463.833 34 451.9 35.2 445.5 40C438.01 45.6176 432.5 46.4412 430.5 45.6176C421.619 41.9606 403.5 42.1176 397 43.5C375.97 47.9727 380.5 47.6176 373.5 48.5001C360.106 50.1885 359.2 53.5001 356 53.5001C352.8 53.5001 341.333 50.1667 336 48.5001L320.5 43.5C315.667 41.5001 304.9 37.5001 300.5 37.5001C295 37.5001 282.527 30.4145 263.5 37.5001C242.5 45.3202 250.5 41 244.5 43.5C232.5 48.5 237.5 57.5446 223 51.5001L217 48.3647L213 44.8647C213 44.8647 204 36.0003 197 37.5001C190 38.9999 184 49.6251 169 51.5001C154 53.3751 136.5 42.8647 126.5 41.2025C113.367 39.0194 101.5 45.4822 85.5 39.6176C75.942 36.1142 58.9777 37.4274 54 39.6176C38.5 46.4376 25 50.6176 20.5 48.5001C11.3564 44.1974 -3.2172 45.7899 -10 43.5C-21.5 39.6176 -30 43.5 -39 38.1176Z" fill="#05A498"/>
</g>
</svg>
