<svg width="514" height="78" viewBox="0 0 514 78" fill="none" xmlns="http://www.w3.org/2000/svg">
<path d="M2.624 54.536C2.624 52.4453 3.02933 50.6533 3.84 49.16C5.71733 48.5627 6.93333 48.264 7.488 48.264C8.512 48.264 10.0693 48.5627 12.16 49.16C12.3733 49.7147 12.5227 50.5253 12.608 51.592C14.656 52.9573 16.96 53.64 19.52 53.64C21.8667 53.64 23.9147 52.9573 25.664 51.592C27.456 50.184 28.352 48.6267 28.352 46.92C28.352 44.488 26.0053 43.1867 21.312 43.016C19.52 42.9307 17.9627 42.824 16.64 42.696C15.3173 42.5253 13.7387 42.2053 11.904 41.736C10.112 41.224 8.64 40.5627 7.488 39.752C6.336 38.9413 5.33333 37.8107 4.48 36.36C3.66933 34.8667 3.264 33.1173 3.264 31.112C3.264 26.8453 4.82133 23.1973 7.936 20.168C11.0507 17.096 14.784 15.56 19.136 15.56C22.1653 15.56 25.0667 16.328 27.84 17.864C28.096 16.584 28.544 15.688 29.184 15.176C29.9947 14.7493 31.0187 14.536 32.256 14.536C34.2187 14.536 35.584 14.92 36.352 15.688C36.608 16.456 36.736 18.376 36.736 21.448C36.736 23.496 36.544 24.9467 36.16 25.8C35.8187 26.6533 35.136 27.1867 34.112 27.4C33.3867 27.6133 32.6827 27.72 32 27.72C30.464 27.72 29.2053 27.4 28.224 26.76C27.968 26.12 27.84 25.416 27.84 24.648C26.3893 23.9227 24.2773 23.56 21.504 23.56C18.5173 23.56 16.2347 24.0507 14.656 25.032C13.0773 25.9707 12.288 27.5707 12.288 29.832C12.288 31.496 12.7573 32.712 13.696 33.48C14.6773 34.2053 16.2347 34.6107 18.368 34.696C24.4267 34.9947 28.544 35.4853 30.72 36.168C35.3707 37.576 37.696 40.648 37.696 45.384C37.696 49.864 36.032 53.704 32.704 56.904C29.376 60.0613 25.1093 61.64 19.904 61.64C16.96 61.64 14.4 60.8507 12.224 59.272C12.224 60.3387 12.0107 61.128 11.584 61.64C10.816 62.0667 9.55733 62.28 7.808 62.28C5.93067 62.28 4.65067 61.96 3.968 61.32C3.072 59.6133 2.624 57.352 2.624 54.536ZM42.6195 20.936C42.6195 18.9733 42.9395 17.5867 43.5795 16.776C46.1395 15.88 48.6568 15.432 51.1315 15.432C53.4782 15.432 55.1848 15.816 56.2515 16.584C56.4648 17.3947 56.5715 18.1413 56.5715 18.824C56.5715 19.1653 56.5502 19.3573 56.5075 19.4C57.3182 19.144 58.5555 18.7387 60.2195 18.184C61.9262 17.5867 63.1848 17.16 63.9955 16.904C64.8062 16.648 65.7662 16.4133 66.8755 16.2C68.0275 15.944 69.0302 15.816 69.8835 15.816C73.0835 15.816 75.6862 17.1173 77.6915 19.72C79.7395 22.28 80.7635 25.48 80.7635 29.32C80.7635 33.8853 79.3342 37.9813 76.4755 41.608C73.6595 45.2347 69.8408 47.048 65.0195 47.048C62.4595 47.048 60.1342 46.408 58.0435 45.128C58.1288 45.5547 58.1715 46.6 58.1715 48.264C58.1715 49.2027 58.0435 50.696 57.7875 52.744C57.9582 52.7013 58.5128 52.68 59.4515 52.68C60.1342 52.68 60.8382 52.7867 61.5635 53C62.3315 53.2133 62.8222 53.4907 63.0355 53.832C63.6755 54.2587 63.9955 55.24 63.9955 56.776C63.9955 58.0987 63.6755 59.1013 63.0355 59.784C62.7795 60.6373 60.0915 61.064 54.9715 61.064C48.1022 61.064 44.5395 60.6373 44.2835 59.784C43.7288 59.1867 43.4515 58.248 43.4515 56.968C43.4515 55.6453 43.7288 54.6 44.2835 53.832C44.7528 53.064 45.7768 52.68 47.3555 52.68C47.7822 52.68 48.0808 52.7013 48.2515 52.744C48.2515 52.0187 48.2302 50.6747 48.1875 48.712C48.1448 46.7493 48.1235 44.7227 48.1235 42.632C48.1235 35.08 48.3368 30.1093 48.7635 27.72C48.6355 27.7627 48.2728 27.784 47.6755 27.784C46.3528 27.784 45.2222 27.6773 44.2835 27.464C43.1742 26.0987 42.6195 23.9227 42.6195 20.936ZM57.2755 33.416C57.2755 35.208 57.7235 36.5947 58.6195 37.576C59.5582 38.5573 60.7315 39.048 62.1395 39.048C64.1875 39.048 66.1715 38.1733 68.0915 36.424C70.0542 34.632 71.0355 32.4987 71.0355 30.024C71.0355 28.3173 70.5448 26.888 69.5635 25.736C68.6248 24.5413 67.3448 23.944 65.7235 23.944C63.6328 23.944 61.6915 24.8827 59.8995 26.76C58.1502 28.6373 57.2755 30.856 57.2755 33.416ZM85.0065 54.408C85.0065 53.7253 85.3478 52.616 86.0305 51.08C86.7985 50.696 87.6518 50.504 88.5905 50.504C89.0172 50.504 89.3585 50.568 89.6145 50.696C89.1025 46.8987 88.8465 43.0373 88.8465 39.112C88.8465 33.352 89.2945 28.616 90.1905 24.904C89.2092 25.1173 88.4198 25.224 87.8225 25.224C87.0545 25.224 86.4572 25.0747 86.0305 24.776C85.4332 23.9227 85.1345 22.6 85.1345 20.808C85.1345 19.6987 85.5398 18.5893 86.3505 17.48C87.7158 16.84 90.2118 16.3493 93.8385 16.008C97.4652 15.624 100.964 15.432 104.335 15.432C112.185 15.432 118.5 16.2427 123.279 17.864C123.705 19.9973 123.919 21.64 123.919 22.792C123.919 24.7973 123.428 26.44 122.447 27.72C121.38 27.976 120.463 28.104 119.694 28.104C118.329 28.104 116.58 27.4 114.447 25.992L114.639 23.88C113.828 23.3253 111.609 23.048 107.983 23.048C106.703 23.048 105.06 23.112 103.055 23.24C101.049 23.368 100.025 23.496 99.9825 23.624C100.153 25.16 100.239 26.2907 100.239 27.016C100.239 30.8133 99.9612 33.416 99.4065 34.824C103.588 34.824 105.7 34.76 105.743 34.632C105.7 34.504 105.679 34.312 105.679 34.056C105.679 33.5867 105.871 33.0107 106.255 32.328C106.511 32.1147 107.215 32.008 108.367 32.008C110.159 32.008 111.396 32.1573 112.079 32.456C112.932 33.864 113.359 35.8907 113.359 38.536C113.359 40.9253 112.911 42.568 112.015 43.464C111.673 43.7627 110.671 43.912 109.007 43.912C107.343 43.912 106.383 43.7627 106.127 43.464C105.743 42.952 105.551 42.312 105.551 41.544L99.0865 41.864C99.0865 44.3813 98.8518 47.88 98.3825 52.36C99.0652 52.9573 100.452 53.4267 102.543 53.768C104.633 54.0667 106.361 54.216 107.727 54.216C108.751 54.216 110.009 54.1093 111.503 53.896C113.039 53.64 114.084 53.3627 114.639 53.064L114.447 50.952C116.58 49.544 118.351 48.84 119.759 48.84C120.527 48.84 121.423 48.968 122.447 49.224C123.428 50.504 123.919 52.1467 123.919 54.152C123.919 55.304 123.705 56.9467 123.279 59.08C120.079 60.9147 114.276 61.832 105.871 61.832C101.775 61.832 97.8705 61.5973 94.1585 61.128C90.4465 60.7013 87.8438 60.1467 86.3505 59.464C85.8385 58.824 85.4758 58.184 85.2625 57.544C85.0918 56.904 85.0065 55.8587 85.0065 54.408ZM128.499 38.984C128.499 32.456 130.163 26.952 133.491 22.472C136.862 17.992 141.32 15.752 146.867 15.752C150.92 15.752 153.907 16.6907 155.827 18.568C155.912 17.288 156.36 16.4987 157.171 16.2C158.238 15.7307 159.539 15.496 161.075 15.496C163.08 15.496 164.659 15.9227 165.811 16.776C165.854 17.2453 165.939 17.992 166.067 19.016C166.238 19.9973 166.366 20.8933 166.451 21.704C166.536 22.5147 166.579 23.2613 166.579 23.944C166.579 26.5893 165.811 28.5947 164.275 29.96C163.379 30.9413 161.907 31.432 159.859 31.432C157.726 31.432 156.126 30.9413 155.059 29.96C155.016 29.8747 154.995 29.6827 154.995 29.384C154.995 28.872 155.059 28.5307 155.187 28.36C154.462 26.7813 153.288 25.5653 151.667 24.712C150.046 23.8587 148.574 23.432 147.251 23.432C144.776 23.432 142.472 25.032 140.339 28.232C138.248 31.3893 137.203 35.016 137.203 39.112C137.203 42.9947 138.184 46.152 140.147 48.584C142.152 50.9733 144.456 52.168 147.059 52.168C148.382 52.168 149.854 51.8693 151.475 51.272C153.096 50.6747 154.291 49.8427 155.059 48.776C154.931 48.008 154.867 47.5813 154.867 47.496C154.867 47.4107 154.867 47.3253 154.867 47.24C154.91 47.1547 154.931 47.0907 154.931 47.048C156.51 46.3227 157.896 45.96 159.091 45.96C160.286 45.96 162.035 46.3867 164.339 47.24C165.875 48.6053 166.643 50.5893 166.643 53.192C166.643 53.8747 166.579 54.6427 166.451 55.496C166.366 56.3067 166.238 57.2027 166.067 58.184C165.939 59.1653 165.854 59.912 165.811 60.424C164.488 61.4907 162.782 62.024 160.691 62.024C159.155 62.024 157.982 61.6827 157.171 61C156.275 60.6587 155.827 59.8267 155.827 58.504C153.011 60.424 150.152 61.384 147.251 61.384C144.99 61.384 142.771 60.9147 140.595 59.976C138.419 59.0373 136.414 57.672 134.579 55.88C132.744 54.088 131.272 51.7413 130.163 48.84C129.054 45.896 128.499 42.6107 128.499 38.984ZM172.583 55.496C172.583 53.448 172.711 52.296 172.967 52.04C173.351 51.8267 174.097 51.6347 175.207 51.464C175.975 51.336 176.465 51.272 176.679 51.272C176.167 47.0053 175.911 42.7173 175.911 38.408C175.911 34.2693 176.167 30.152 176.679 26.056C176.465 26.056 175.975 25.992 175.207 25.864C174.097 25.6933 173.351 25.5013 172.967 25.288C172.711 25.032 172.583 23.88 172.583 21.832C172.583 19.6133 172.711 18.3547 172.967 18.056C172.924 17.544 173.607 17.1387 175.015 16.84C176.465 16.4987 178.257 16.328 180.391 16.328C182.652 16.328 184.935 16.52 187.239 16.904C187.495 17.3307 187.815 18.4187 188.199 20.168C188.583 21.8747 188.753 23.176 188.711 24.072C188.711 24.6267 188.647 24.9893 188.519 25.16C187.58 25.6293 186.556 25.864 185.447 25.864C184.977 25.864 184.615 25.8427 184.359 25.8C184.871 29.256 185.127 33.0107 185.127 37.064C185.127 40.392 184.871 45.2133 184.359 51.528C184.615 51.4853 184.977 51.464 185.447 51.464C186.556 51.464 187.58 51.6987 188.519 52.168C188.647 52.3387 188.711 52.7013 188.711 53.256C188.711 54.152 188.519 55.4747 188.135 57.224C187.793 58.9307 187.495 59.9973 187.239 60.424C184.807 60.6373 182.588 60.744 180.583 60.744C178.364 60.744 176.529 60.616 175.079 60.36C173.628 60.104 172.924 59.7413 172.967 59.272C172.711 58.9733 172.583 57.7147 172.583 55.496ZM192.195 56.584C192.195 54.7067 192.387 53.448 192.771 52.808C193.155 52.1253 193.966 51.784 195.203 51.784C196.526 51.784 197.187 51.9547 197.187 52.296C197.486 50.504 199.747 44.1253 203.971 33.16C208.238 22.152 210.606 16.6053 211.075 16.52C212.44 16.3067 214.104 16.2 216.067 16.2C217.091 16.2 218.563 16.3067 220.483 16.52C220.952 16.7333 223.299 22.3227 227.523 33.288C231.79 44.2107 234.072 50.5467 234.371 52.296C234.371 51.9547 235.032 51.784 236.355 51.784C237.592 51.784 238.403 52.1253 238.787 52.808C239.171 53.448 239.363 54.7067 239.363 56.584C239.363 58.76 239.128 59.976 238.659 60.232C238.104 60.744 234.776 61 228.675 61C224.28 61 222.083 60.7653 222.083 60.296C221.144 59.7413 220.675 57.8427 220.675 54.6C220.675 54.1307 220.696 53.768 220.739 53.512C220.782 53.256 220.952 53 221.251 52.744C221.55 52.488 221.976 52.36 222.531 52.36C223.768 52.36 224.387 52.4453 224.387 52.616C224.558 52.616 224.643 52.4027 224.643 51.976C224.643 50.9093 224.067 48.4773 222.915 44.68C221.166 44.8507 218.84 44.936 215.939 44.936C212.824 44.936 210.392 44.8507 208.643 44.68C207.491 48.52 206.915 50.9733 206.915 52.04C206.915 52.3813 207 52.5733 207.171 52.616C207.427 52.4453 207.982 52.36 208.835 52.36C209.475 52.36 209.944 52.5093 210.243 52.808C210.584 53.1067 210.776 53.4053 210.819 53.704C210.862 54.0027 210.883 54.4933 210.883 55.176C210.883 57.992 210.414 59.6987 209.475 60.296C209.475 60.7653 207.278 61 202.883 61C196.782 61 193.454 60.744 192.899 60.232C192.43 59.976 192.195 58.76 192.195 56.584ZM210.947 37.256C212.568 37.128 214.126 37.064 215.619 37.064C217.368 37.064 219.011 37.1493 220.547 37.32C218.627 31.6453 217.027 27.2507 215.747 24.136C214.552 27.08 212.952 31.4533 210.947 37.256ZM242.568 21.832C242.568 19.1013 242.866 17.2667 243.464 16.328C244.872 15.944 247.325 15.752 250.824 15.752C257.053 15.752 260.445 15.944 261 16.328C261.64 17.4373 261.96 19.2933 261.96 21.896C261.96 22.9627 261.832 23.624 261.576 23.88C260.637 24.2213 259.528 24.392 258.248 24.392C257.437 24.392 256.712 24.3067 256.072 24.136C255.944 26.568 255.88 29.3413 255.88 32.456C255.88 40.7333 256.584 47.3893 257.992 52.424C258.077 52.808 259.485 53 262.216 53C266.226 53 268.637 52.7227 269.448 52.168L269.256 49.416C271.645 48.0933 273.928 47.432 276.104 47.432C277 47.432 277.81 47.5173 278.536 47.688C279.517 50.5467 280.008 52.872 280.008 54.664C280.008 56.0293 279.794 57.416 279.368 58.824C277.618 59.4213 274.589 59.9547 270.28 60.424C266.013 60.8933 261.832 61.128 257.736 61.128C251.122 61.128 246.45 60.488 243.72 59.208C243.208 58.184 242.952 56.648 242.952 54.6C242.952 53.4053 243.165 52.7653 243.592 52.68C244.104 52.424 244.808 52.296 245.704 52.296C246.173 52.296 246.792 52.3387 247.56 52.424C246.962 44.5307 246.664 38.2587 246.664 33.608C246.664 32.2853 246.877 29.1067 247.304 24.072C246.664 24.2 246.002 24.264 245.32 24.264C244.381 24.264 243.57 24.136 242.888 23.88C242.674 23.624 242.568 22.9413 242.568 21.832ZM295.995 43.976C295.995 40.776 296.656 37.5333 297.979 34.248C299.301 30.92 301.072 27.912 303.291 25.224C305.552 22.536 308.347 20.3387 311.675 18.632C315.003 16.9253 318.523 16.072 322.235 16.072C327.653 16.072 331.707 17.7787 334.395 21.192C337.125 24.6053 338.491 28.936 338.491 34.184C338.491 37.3413 338 40.4987 337.019 43.656C336.037 46.7707 334.608 49.6933 332.731 52.424C330.896 55.1547 328.4 57.3733 325.243 59.08C322.128 60.7867 318.629 61.64 314.747 61.64C309.2 61.64 304.677 60.04 301.179 56.84C297.723 53.5973 295.995 49.3093 295.995 43.976ZM305.531 42.952C305.531 46.0667 306.363 48.5627 308.027 50.44C309.691 52.2747 311.867 53.192 314.555 53.192C317.371 53.192 319.973 52.1467 322.363 50.056C324.752 47.9653 326.565 45.4907 327.803 42.632C329.04 39.7733 329.659 37.0213 329.659 34.376C329.659 31.56 328.891 29.2773 327.354 27.528C325.861 25.736 323.664 24.84 320.763 24.84C317.776 24.84 315.088 25.8213 312.699 27.784C310.309 29.704 308.517 32.0293 307.323 34.76C306.128 37.4907 305.531 40.2213 305.531 42.952ZM343.63 54.024C343.63 53.128 343.715 52.5947 343.886 52.424C345.081 52.2533 346.041 52.168 346.766 52.168C346.894 52.168 347.107 52.1893 347.406 52.232C347.747 52.232 348.003 52.232 348.174 52.232C347.875 48.392 347.726 45.0427 347.726 42.184C347.726 38.344 348.003 32.584 348.558 24.904C347.15 25.288 346.19 25.48 345.678 25.48C345.294 25.48 345.038 25.4373 344.91 25.352C344.227 24.84 343.886 23.6453 343.886 21.768C343.886 19.7627 344.163 18.3333 344.718 17.48C347.449 16.2 352.121 15.56 358.734 15.56C362.873 15.56 367.182 15.7947 371.662 16.264C376.142 16.7333 379.257 17.2667 381.006 17.864C381.433 19.9973 381.646 21.64 381.646 22.792C381.646 24.7973 381.155 26.44 380.174 27.72C379.321 27.9333 378.425 28.04 377.486 28.04C375.054 28.04 373.497 27.3573 372.814 25.992L373.006 23.88C372.153 23.3253 369.934 23.048 366.35 23.048C365.113 23.048 363.577 23.112 361.742 23.24C359.95 23.368 359.033 23.496 358.99 23.624C358.393 25.7147 357.838 28.9787 357.326 33.416C360.995 33.416 362.851 33.352 362.894 33.224C362.894 32.1573 363.107 31.4107 363.534 30.984C364.899 30.6853 365.667 30.536 365.838 30.536C367.075 30.536 368.206 30.7493 369.23 31.176C369.998 32.072 370.382 33.6933 370.382 36.04C370.382 37.3627 370.254 38.6427 369.998 39.88C369.785 41.0747 369.507 41.8427 369.166 42.184C368.782 42.4827 367.566 42.632 365.518 42.632C364.366 42.632 363.662 42.504 363.406 42.248C363.321 42.1627 363.214 42.056 363.086 41.928C363.001 41.7573 362.937 41.6507 362.894 41.608C362.851 41.5227 362.809 41.4373 362.766 41.352C362.723 41.224 362.681 41.096 362.638 40.968C362.638 40.84 362.638 40.6693 362.638 40.456H356.878C356.878 44.2533 356.985 48.2853 357.198 52.552C357.582 52.424 358.201 52.36 359.054 52.36C360.163 52.36 360.782 52.4453 360.91 52.616C361.337 53.1707 361.55 54.7067 361.55 57.224C361.55 59.272 361.507 60.296 361.422 60.296C360.057 61.3627 357.411 61.896 353.486 61.896C349.134 61.896 346.126 61.4693 344.462 60.616C343.907 59.8907 343.63 57.6933 343.63 54.024ZM384.693 54.024C384.693 53.128 384.778 52.5947 384.949 52.424C386.143 52.2533 387.103 52.168 387.829 52.168C387.957 52.168 388.17 52.1893 388.469 52.232C388.81 52.232 389.066 52.232 389.237 52.232C388.938 48.392 388.789 45.0427 388.789 42.184C388.789 38.344 389.066 32.584 389.621 24.904C388.213 25.288 387.253 25.48 386.741 25.48C386.357 25.48 386.101 25.4373 385.973 25.352C385.29 24.84 384.949 23.6453 384.949 21.768C384.949 19.7627 385.226 18.3333 385.781 17.48C388.511 16.2 393.183 15.56 399.797 15.56C403.935 15.56 408.245 15.7947 412.725 16.264C417.205 16.7333 420.319 17.2667 422.069 17.864C422.495 19.9973 422.709 21.64 422.709 22.792C422.709 24.7973 422.218 26.44 421.237 27.72C420.383 27.9333 419.487 28.04 418.549 28.04C416.117 28.04 414.559 27.3573 413.877 25.992L414.069 23.88C413.215 23.3253 410.997 23.048 407.413 23.048C406.175 23.048 404.639 23.112 402.805 23.24C401.013 23.368 400.095 23.496 400.053 23.624C399.455 25.7147 398.901 28.9787 398.389 33.416C402.058 33.416 403.914 33.352 403.957 33.224C403.957 32.1573 404.17 31.4107 404.597 30.984C405.962 30.6853 406.73 30.536 406.901 30.536C408.138 30.536 409.269 30.7493 410.293 31.176C411.061 32.072 411.445 33.6933 411.445 36.04C411.445 37.3627 411.317 38.6427 411.061 39.88C410.847 41.0747 410.57 41.8427 410.229 42.184C409.845 42.4827 408.629 42.632 406.581 42.632C405.429 42.632 404.725 42.504 404.469 42.248C404.383 42.1627 404.277 42.056 404.149 41.928C404.063 41.7573 403.999 41.6507 403.957 41.608C403.914 41.5227 403.871 41.4373 403.829 41.352C403.786 41.224 403.743 41.096 403.701 40.968C403.701 40.84 403.701 40.6693 403.701 40.456H397.941C397.941 44.2533 398.047 48.2853 398.26 52.552C398.645 52.424 399.263 52.36 400.117 52.36C401.226 52.36 401.845 52.4453 401.973 52.616C402.399 53.1707 402.613 54.7067 402.613 57.224C402.613 59.272 402.57 60.296 402.485 60.296C401.119 61.3627 398.474 61.896 394.549 61.896C390.197 61.896 387.189 61.4693 385.525 60.616C384.97 59.8907 384.693 57.6933 384.693 54.024ZM425.819 54.408C425.819 53.7253 426.16 52.616 426.843 51.08C427.611 50.696 428.464 50.504 429.403 50.504C429.83 50.504 430.171 50.568 430.427 50.696C429.915 46.8987 429.659 43.0373 429.659 39.112C429.659 33.352 430.107 28.616 431.003 24.904C430.022 25.1173 429.232 25.224 428.635 25.224C427.867 25.224 427.27 25.0747 426.843 24.776C426.246 23.9227 425.947 22.6 425.947 20.808C425.947 19.6987 426.352 18.5893 427.163 17.48C428.528 16.84 431.024 16.3493 434.651 16.008C438.278 15.624 441.776 15.432 445.147 15.432C452.998 15.432 459.312 16.2427 464.091 17.864C464.518 19.9973 464.731 21.64 464.731 22.792C464.731 24.7973 464.24 26.44 463.259 27.72C462.192 27.976 461.275 28.104 460.507 28.104C459.142 28.104 457.392 27.4 455.259 25.992L455.451 23.88C454.64 23.3253 452.422 23.048 448.795 23.048C447.515 23.048 445.872 23.112 443.867 23.24C441.862 23.368 440.838 23.496 440.795 23.624C440.966 25.16 441.051 26.2907 441.051 27.016C441.051 30.8133 440.774 33.416 440.219 34.824C444.4 34.824 446.512 34.76 446.555 34.632C446.512 34.504 446.491 34.312 446.491 34.056C446.491 33.5867 446.683 33.0107 447.067 32.328C447.323 32.1147 448.027 32.008 449.179 32.008C450.971 32.008 452.208 32.1573 452.891 32.456C453.744 33.864 454.171 35.8907 454.171 38.536C454.171 40.9253 453.723 42.568 452.827 43.464C452.486 43.7627 451.483 43.912 449.819 43.912C448.155 43.912 447.195 43.7627 446.939 43.464C446.555 42.952 446.363 42.312 446.363 41.544L439.899 41.864C439.899 44.3813 439.664 47.88 439.195 52.36C439.878 52.9573 441.264 53.4267 443.355 53.768C445.446 54.0667 447.174 54.216 448.539 54.216C449.563 54.216 450.822 54.1093 452.315 53.896C453.851 53.64 454.896 53.3627 455.451 53.064L455.259 50.952C457.392 49.544 459.163 48.84 460.571 48.84C461.339 48.84 462.235 48.968 463.259 49.224C464.24 50.504 464.731 52.1467 464.731 54.152C464.731 55.304 464.518 56.9467 464.091 59.08C460.891 60.9147 455.088 61.832 446.683 61.832C442.587 61.832 438.683 61.5973 434.971 61.128C431.259 60.7013 428.656 60.1467 427.163 59.464C426.651 58.824 426.288 58.184 426.075 57.544C425.904 56.904 425.819 55.8587 425.819 54.408ZM469.559 21.704C469.559 18.7173 470.049 16.8827 471.031 16.2C472.183 15.8587 473.719 15.688 475.639 15.688C478.028 15.688 480.183 15.9867 482.103 16.584C482.316 17.3947 482.423 18.1413 482.423 18.824C482.423 19.1653 482.401 19.3573 482.359 19.4C483.084 19.1867 484.087 18.8667 485.367 18.44C486.689 18.0133 487.628 17.7147 488.183 17.544C488.737 17.3733 489.463 17.16 490.359 16.904C491.297 16.6053 492.001 16.4133 492.471 16.328C492.983 16.2 493.537 16.0933 494.135 16.008C494.775 15.9227 495.329 15.88 495.799 15.88C497.676 15.88 499.34 16.4133 500.791 17.48C502.284 18.504 503.436 19.8053 504.247 21.384C505.1 22.9627 505.719 24.5413 506.103 26.12C506.529 27.6987 506.743 29.1493 506.743 30.472C506.743 33.3307 505.847 35.8267 504.055 37.96C502.305 40.0933 500.193 41.8427 497.719 43.208C500.663 45.256 503.436 47.368 506.039 49.544C508.641 51.6773 510.007 53.064 510.135 53.704C510.476 53.5333 510.86 53.448 511.287 53.448C511.756 53.448 512.311 53.576 512.951 53.832C513.591 54.4293 513.911 55.4533 513.911 56.904C513.911 58.3547 513.633 59.3573 513.079 59.912C511.671 60.6373 508.705 61 504.183 61C502.007 61 499.873 60.6373 497.783 59.912C497.356 59.7413 496.993 59.3147 496.695 58.632C496.396 57.9067 496.247 57.1173 496.247 56.264C496.247 55.1973 496.481 54.4293 496.951 53.96C497.249 53.704 497.612 53.576 498.039 53.576C498.337 53.576 498.743 53.6613 499.255 53.832C498.785 52.7227 498.081 51.7413 497.143 50.888C496.204 49.992 495.223 49.3093 494.199 48.84C493.175 48.328 492.065 47.9013 490.871 47.56C489.719 47.176 488.695 46.92 487.799 46.792C486.945 46.664 486.177 46.5787 485.495 46.536L484.535 46.408C484.748 47.4747 484.855 48.584 484.855 49.736C484.855 50.8453 484.748 51.8907 484.535 52.872C484.833 52.744 485.239 52.68 485.751 52.68C487.116 52.68 488.161 53.064 488.887 53.832C489.057 54.216 489.143 55.2187 489.143 56.84C489.143 58.4187 489.057 59.4 488.887 59.784C488.631 60.6373 484.876 61.064 477.623 61.064C475.02 61.064 473.249 60.9787 472.311 60.808C471.415 60.5947 470.903 60.2533 470.775 59.784C470.604 59.4 470.519 58.4187 470.519 56.84C470.519 55.2187 470.604 54.216 470.775 53.832C470.988 53.4907 471.457 53.2133 472.183 53C472.951 52.7867 473.676 52.68 474.359 52.68C474.871 52.68 475.212 52.7013 475.383 52.744C475.383 52.0187 475.361 50.6747 475.319 48.712C475.276 46.7493 475.255 44.7227 475.255 42.632C475.255 35.08 475.468 30.1093 475.895 27.72C475.383 27.9333 474.721 28.04 473.911 28.04C472.673 28.04 471.82 27.8053 471.351 27.336C470.156 27.08 469.559 25.2027 469.559 21.704ZM483.703 33.224C483.703 35.016 484.151 36.4027 485.047 37.384C485.985 38.3653 487.159 38.856 488.567 38.856C490.615 38.856 492.599 37.9813 494.519 36.232C496.481 34.44 497.463 32.3067 497.463 29.832C497.463 28.1253 496.972 26.696 495.991 25.544C495.052 24.3493 493.772 23.752 492.151 23.752C490.06 23.752 488.119 24.6907 486.327 26.568C484.577 28.4453 483.703 30.664 483.703 33.224Z" fill="black"/>
<mask id="mask0" mask-type="alpha" maskUnits="userSpaceOnUse" x="2" y="14" width="512" height="49">
<path d="M2.624 54.536C2.624 52.4453 3.02933 50.6533 3.84 49.16C5.71733 48.5627 6.93333 48.264 7.488 48.264C8.512 48.264 10.0693 48.5627 12.16 49.16C12.3733 49.7147 12.5227 50.5253 12.608 51.592C14.656 52.9573 16.96 53.64 19.52 53.64C21.8667 53.64 23.9147 52.9573 25.664 51.592C27.456 50.184 28.352 48.6267 28.352 46.92C28.352 44.488 26.0053 43.1867 21.312 43.016C19.52 42.9307 17.9627 42.824 16.64 42.696C15.3173 42.5253 13.7387 42.2053 11.904 41.736C10.112 41.224 8.64 40.5627 7.488 39.752C6.336 38.9413 5.33333 37.8107 4.48 36.36C3.66933 34.8667 3.264 33.1173 3.264 31.112C3.264 26.8453 4.82133 23.1973 7.936 20.168C11.0507 17.096 14.784 15.56 19.136 15.56C22.1653 15.56 25.0667 16.328 27.84 17.864C28.096 16.584 28.544 15.688 29.184 15.176C29.9947 14.7493 31.0187 14.536 32.256 14.536C34.2187 14.536 35.584 14.92 36.352 15.688C36.608 16.456 36.736 18.376 36.736 21.448C36.736 23.496 36.544 24.9467 36.16 25.8C35.8187 26.6533 35.136 27.1867 34.112 27.4C33.3867 27.6133 32.6827 27.72 32 27.72C30.464 27.72 29.2053 27.4 28.224 26.76C27.968 26.12 27.84 25.416 27.84 24.648C26.3893 23.9227 24.2773 23.56 21.504 23.56C18.5173 23.56 16.2347 24.0507 14.656 25.032C13.0773 25.9707 12.288 27.5707 12.288 29.832C12.288 31.496 12.7573 32.712 13.696 33.48C14.6773 34.2053 16.2347 34.6107 18.368 34.696C24.4267 34.9947 28.544 35.4853 30.72 36.168C35.3707 37.576 37.696 40.648 37.696 45.384C37.696 49.864 36.032 53.704 32.704 56.904C29.376 60.0613 25.1093 61.64 19.904 61.64C16.96 61.64 14.4 60.8507 12.224 59.272C12.224 60.3387 12.0107 61.128 11.584 61.64C10.816 62.0667 9.55733 62.28 7.808 62.28C5.93067 62.28 4.65067 61.96 3.968 61.32C3.072 59.6133 2.624 57.352 2.624 54.536ZM42.6195 20.936C42.6195 18.9733 42.9395 17.5867 43.5795 16.776C46.1395 15.88 48.6568 15.432 51.1315 15.432C53.4782 15.432 55.1848 15.816 56.2515 16.584C56.4648 17.3947 56.5715 18.1413 56.5715 18.824C56.5715 19.1653 56.5502 19.3573 56.5075 19.4C57.3182 19.144 58.5555 18.7387 60.2195 18.184C61.9262 17.5867 63.1848 17.16 63.9955 16.904C64.8062 16.648 65.7662 16.4133 66.8755 16.2C68.0275 15.944 69.0302 15.816 69.8835 15.816C73.0835 15.816 75.6862 17.1173 77.6915 19.72C79.7395 22.28 80.7635 25.48 80.7635 29.32C80.7635 33.8853 79.3342 37.9813 76.4755 41.608C73.6595 45.2347 69.8408 47.048 65.0195 47.048C62.4595 47.048 60.1342 46.408 58.0435 45.128C58.1288 45.5547 58.1715 46.6 58.1715 48.264C58.1715 49.2027 58.0435 50.696 57.7875 52.744C57.9582 52.7013 58.5128 52.68 59.4515 52.68C60.1342 52.68 60.8382 52.7867 61.5635 53C62.3315 53.2133 62.8222 53.4907 63.0355 53.832C63.6755 54.2587 63.9955 55.24 63.9955 56.776C63.9955 58.0987 63.6755 59.1013 63.0355 59.784C62.7795 60.6373 60.0915 61.064 54.9715 61.064C48.1022 61.064 44.5395 60.6373 44.2835 59.784C43.7288 59.1867 43.4515 58.248 43.4515 56.968C43.4515 55.6453 43.7288 54.6 44.2835 53.832C44.7528 53.064 45.7768 52.68 47.3555 52.68C47.7822 52.68 48.0808 52.7013 48.2515 52.744C48.2515 52.0187 48.2302 50.6747 48.1875 48.712C48.1448 46.7493 48.1235 44.7227 48.1235 42.632C48.1235 35.08 48.3368 30.1093 48.7635 27.72C48.6355 27.7627 48.2728 27.784 47.6755 27.784C46.3528 27.784 45.2222 27.6773 44.2835 27.464C43.1742 26.0987 42.6195 23.9227 42.6195 20.936ZM57.2755 33.416C57.2755 35.208 57.7235 36.5947 58.6195 37.576C59.5582 38.5573 60.7315 39.048 62.1395 39.048C64.1875 39.048 66.1715 38.1733 68.0915 36.424C70.0542 34.632 71.0355 32.4987 71.0355 30.024C71.0355 28.3173 70.5448 26.888 69.5635 25.736C68.6248 24.5413 67.3448 23.944 65.7235 23.944C63.6328 23.944 61.6915 24.8827 59.8995 26.76C58.1502 28.6373 57.2755 30.856 57.2755 33.416ZM85.0065 54.408C85.0065 53.7253 85.3478 52.616 86.0305 51.08C86.7985 50.696 87.6518 50.504 88.5905 50.504C89.0172 50.504 89.3585 50.568 89.6145 50.696C89.1025 46.8987 88.8465 43.0373 88.8465 39.112C88.8465 33.352 89.2945 28.616 90.1905 24.904C89.2092 25.1173 88.4198 25.224 87.8225 25.224C87.0545 25.224 86.4572 25.0747 86.0305 24.776C85.4332 23.9227 85.1345 22.6 85.1345 20.808C85.1345 19.6987 85.5398 18.5893 86.3505 17.48C87.7158 16.84 90.2118 16.3493 93.8385 16.008C97.4652 15.624 100.964 15.432 104.335 15.432C112.185 15.432 118.5 16.2427 123.279 17.864C123.705 19.9973 123.919 21.64 123.919 22.792C123.919 24.7973 123.428 26.44 122.447 27.72C121.38 27.976 120.463 28.104 119.694 28.104C118.329 28.104 116.58 27.4 114.447 25.992L114.639 23.88C113.828 23.3253 111.609 23.048 107.983 23.048C106.703 23.048 105.06 23.112 103.055 23.24C101.049 23.368 100.025 23.496 99.9825 23.624C100.153 25.16 100.239 26.2907 100.239 27.016C100.239 30.8133 99.9612 33.416 99.4065 34.824C103.588 34.824 105.7 34.76 105.743 34.632C105.7 34.504 105.679 34.312 105.679 34.056C105.679 33.5867 105.871 33.0107 106.255 32.328C106.511 32.1147 107.215 32.008 108.367 32.008C110.159 32.008 111.396 32.1573 112.079 32.456C112.932 33.864 113.359 35.8907 113.359 38.536C113.359 40.9253 112.911 42.568 112.015 43.464C111.673 43.7627 110.671 43.912 109.007 43.912C107.343 43.912 106.383 43.7627 106.127 43.464C105.743 42.952 105.551 42.312 105.551 41.544L99.0865 41.864C99.0865 44.3813 98.8518 47.88 98.3825 52.36C99.0652 52.9573 100.452 53.4267 102.543 53.768C104.633 54.0667 106.361 54.216 107.727 54.216C108.751 54.216 110.009 54.1093 111.503 53.896C113.039 53.64 114.084 53.3627 114.639 53.064L114.447 50.952C116.58 49.544 118.351 48.84 119.759 48.84C120.527 48.84 121.423 48.968 122.447 49.224C123.428 50.504 123.919 52.1467 123.919 54.152C123.919 55.304 123.705 56.9467 123.279 59.08C120.079 60.9147 114.276 61.832 105.871 61.832C101.775 61.832 97.8705 61.5973 94.1585 61.128C90.4465 60.7013 87.8438 60.1467 86.3505 59.464C85.8385 58.824 85.4758 58.184 85.2625 57.544C85.0918 56.904 85.0065 55.8587 85.0065 54.408ZM128.499 38.984C128.499 32.456 130.163 26.952 133.491 22.472C136.862 17.992 141.32 15.752 146.867 15.752C150.92 15.752 153.907 16.6907 155.827 18.568C155.912 17.288 156.36 16.4987 157.171 16.2C158.238 15.7307 159.539 15.496 161.075 15.496C163.08 15.496 164.659 15.9227 165.811 16.776C165.854 17.2453 165.939 17.992 166.067 19.016C166.238 19.9973 166.366 20.8933 166.451 21.704C166.536 22.5147 166.579 23.2613 166.579 23.944C166.579 26.5893 165.811 28.5947 164.275 29.96C163.379 30.9413 161.907 31.432 159.859 31.432C157.726 31.432 156.126 30.9413 155.059 29.96C155.016 29.8747 154.995 29.6827 154.995 29.384C154.995 28.872 155.059 28.5307 155.187 28.36C154.462 26.7813 153.288 25.5653 151.667 24.712C150.046 23.8587 148.574 23.432 147.251 23.432C144.776 23.432 142.472 25.032 140.339 28.232C138.248 31.3893 137.203 35.016 137.203 39.112C137.203 42.9947 138.184 46.152 140.147 48.584C142.152 50.9733 144.456 52.168 147.059 52.168C148.382 52.168 149.854 51.8693 151.475 51.272C153.096 50.6747 154.291 49.8427 155.059 48.776C154.931 48.008 154.867 47.5813 154.867 47.496C154.867 47.4107 154.867 47.3253 154.867 47.24C154.91 47.1547 154.931 47.0907 154.931 47.048C156.51 46.3227 157.896 45.96 159.091 45.96C160.286 45.96 162.035 46.3867 164.339 47.24C165.875 48.6053 166.643 50.5893 166.643 53.192C166.643 53.8747 166.579 54.6427 166.451 55.496C166.366 56.3067 166.238 57.2027 166.067 58.184C165.939 59.1653 165.854 59.912 165.811 60.424C164.488 61.4907 162.782 62.024 160.691 62.024C159.155 62.024 157.982 61.6827 157.171 61C156.275 60.6587 155.827 59.8267 155.827 58.504C153.011 60.424 150.152 61.384 147.251 61.384C144.99 61.384 142.771 60.9147 140.595 59.976C138.419 59.0373 136.414 57.672 134.579 55.88C132.744 54.088 131.272 51.7413 130.163 48.84C129.054 45.896 128.499 42.6107 128.499 38.984ZM172.583 55.496C172.583 53.448 172.711 52.296 172.967 52.04C173.351 51.8267 174.097 51.6347 175.207 51.464C175.975 51.336 176.465 51.272 176.679 51.272C176.167 47.0053 175.911 42.7173 175.911 38.408C175.911 34.2693 176.167 30.152 176.679 26.056C176.465 26.056 175.975 25.992 175.207 25.864C174.097 25.6933 173.351 25.5013 172.967 25.288C172.711 25.032 172.583 23.88 172.583 21.832C172.583 19.6133 172.711 18.3547 172.967 18.056C172.924 17.544 173.607 17.1387 175.015 16.84C176.465 16.4987 178.257 16.328 180.391 16.328C182.652 16.328 184.935 16.52 187.239 16.904C187.495 17.3307 187.815 18.4187 188.199 20.168C188.583 21.8747 188.753 23.176 188.711 24.072C188.711 24.6267 188.647 24.9893 188.519 25.16C187.58 25.6293 186.556 25.864 185.447 25.864C184.977 25.864 184.615 25.8427 184.359 25.8C184.871 29.256 185.127 33.0107 185.127 37.064C185.127 40.392 184.871 45.2133 184.359 51.528C184.615 51.4853 184.977 51.464 185.447 51.464C186.556 51.464 187.58 51.6987 188.519 52.168C188.647 52.3387 188.711 52.7013 188.711 53.256C188.711 54.152 188.519 55.4747 188.135 57.224C187.793 58.9307 187.495 59.9973 187.239 60.424C184.807 60.6373 182.588 60.744 180.583 60.744C178.364 60.744 176.529 60.616 175.079 60.36C173.628 60.104 172.924 59.7413 172.967 59.272C172.711 58.9733 172.583 57.7147 172.583 55.496ZM192.195 56.584C192.195 54.7067 192.387 53.448 192.771 52.808C193.155 52.1253 193.966 51.784 195.203 51.784C196.526 51.784 197.187 51.9547 197.187 52.296C197.486 50.504 199.747 44.1253 203.971 33.16C208.238 22.152 210.606 16.6053 211.075 16.52C212.44 16.3067 214.104 16.2 216.067 16.2C217.091 16.2 218.563 16.3067 220.483 16.52C220.952 16.7333 223.299 22.3227 227.523 33.288C231.79 44.2107 234.072 50.5467 234.371 52.296C234.371 51.9547 235.032 51.784 236.355 51.784C237.592 51.784 238.403 52.1253 238.787 52.808C239.171 53.448 239.363 54.7067 239.363 56.584C239.363 58.76 239.128 59.976 238.659 60.232C238.104 60.744 234.776 61 228.675 61C224.28 61 222.083 60.7653 222.083 60.296C221.144 59.7413 220.675 57.8427 220.675 54.6C220.675 54.1307 220.696 53.768 220.739 53.512C220.782 53.256 220.952 53 221.251 52.744C221.55 52.488 221.976 52.36 222.531 52.36C223.768 52.36 224.387 52.4453 224.387 52.616C224.558 52.616 224.643 52.4027 224.643 51.976C224.643 50.9093 224.067 48.4773 222.915 44.68C221.166 44.8507 218.84 44.936 215.939 44.936C212.824 44.936 210.392 44.8507 208.643 44.68C207.491 48.52 206.915 50.9733 206.915 52.04C206.915 52.3813 207 52.5733 207.171 52.616C207.427 52.4453 207.982 52.36 208.835 52.36C209.475 52.36 209.944 52.5093 210.243 52.808C210.584 53.1067 210.776 53.4053 210.819 53.704C210.862 54.0027 210.883 54.4933 210.883 55.176C210.883 57.992 210.414 59.6987 209.475 60.296C209.475 60.7653 207.278 61 202.883 61C196.782 61 193.454 60.744 192.899 60.232C192.43 59.976 192.195 58.76 192.195 56.584ZM210.947 37.256C212.568 37.128 214.126 37.064 215.619 37.064C217.368 37.064 219.011 37.1493 220.547 37.32C218.627 31.6453 217.027 27.2507 215.747 24.136C214.552 27.08 212.952 31.4533 210.947 37.256ZM242.568 21.832C242.568 19.1013 242.866 17.2667 243.464 16.328C244.872 15.944 247.325 15.752 250.824 15.752C257.053 15.752 260.445 15.944 261 16.328C261.64 17.4373 261.96 19.2933 261.96 21.896C261.96 22.9627 261.832 23.624 261.576 23.88C260.637 24.2213 259.528 24.392 258.248 24.392C257.437 24.392 256.712 24.3067 256.072 24.136C255.944 26.568 255.88 29.3413 255.88 32.456C255.88 40.7333 256.584 47.3893 257.992 52.424C258.077 52.808 259.485 53 262.216 53C266.226 53 268.637 52.7227 269.448 52.168L269.256 49.416C271.645 48.0933 273.928 47.432 276.104 47.432C277 47.432 277.81 47.5173 278.536 47.688C279.517 50.5467 280.008 52.872 280.008 54.664C280.008 56.0293 279.794 57.416 279.368 58.824C277.618 59.4213 274.589 59.9547 270.28 60.424C266.013 60.8933 261.832 61.128 257.736 61.128C251.122 61.128 246.45 60.488 243.72 59.208C243.208 58.184 242.952 56.648 242.952 54.6C242.952 53.4053 243.165 52.7653 243.592 52.68C244.104 52.424 244.808 52.296 245.704 52.296C246.173 52.296 246.792 52.3387 247.56 52.424C246.962 44.5307 246.664 38.2587 246.664 33.608C246.664 32.2853 246.877 29.1067 247.304 24.072C246.664 24.2 246.002 24.264 245.32 24.264C244.381 24.264 243.57 24.136 242.888 23.88C242.674 23.624 242.568 22.9413 242.568 21.832ZM295.995 43.976C295.995 40.776 296.656 37.5333 297.979 34.248C299.301 30.92 301.072 27.912 303.291 25.224C305.552 22.536 308.347 20.3387 311.675 18.632C315.003 16.9253 318.523 16.072 322.235 16.072C327.653 16.072 331.707 17.7787 334.395 21.192C337.125 24.6053 338.491 28.936 338.491 34.184C338.491 37.3413 338 40.4987 337.019 43.656C336.037 46.7707 334.608 49.6933 332.731 52.424C330.896 55.1547 328.4 57.3733 325.243 59.08C322.128 60.7867 318.629 61.64 314.747 61.64C309.2 61.64 304.677 60.04 301.179 56.84C297.723 53.5973 295.995 49.3093 295.995 43.976ZM305.531 42.952C305.531 46.0667 306.363 48.5627 308.027 50.44C309.691 52.2747 311.867 53.192 314.555 53.192C317.371 53.192 319.973 52.1467 322.363 50.056C324.752 47.9653 326.565 45.4907 327.803 42.632C329.04 39.7733 329.659 37.0213 329.659 34.376C329.659 31.56 328.891 29.2773 327.354 27.528C325.861 25.736 323.664 24.84 320.763 24.84C317.776 24.84 315.088 25.8213 312.699 27.784C310.309 29.704 308.517 32.0293 307.323 34.76C306.128 37.4907 305.531 40.2213 305.531 42.952ZM343.63 54.024C343.63 53.128 343.715 52.5947 343.886 52.424C345.081 52.2533 346.041 52.168 346.766 52.168C346.894 52.168 347.107 52.1893 347.406 52.232C347.747 52.232 348.003 52.232 348.174 52.232C347.875 48.392 347.726 45.0427 347.726 42.184C347.726 38.344 348.003 32.584 348.558 24.904C347.15 25.288 346.19 25.48 345.678 25.48C345.294 25.48 345.038 25.4373 344.91 25.352C344.227 24.84 343.886 23.6453 343.886 21.768C343.886 19.7627 344.163 18.3333 344.718 17.48C347.449 16.2 352.121 15.56 358.734 15.56C362.873 15.56 367.182 15.7947 371.662 16.264C376.142 16.7333 379.257 17.2667 381.006 17.864C381.433 19.9973 381.646 21.64 381.646 22.792C381.646 24.7973 381.155 26.44 380.174 27.72C379.321 27.9333 378.425 28.04 377.486 28.04C375.054 28.04 373.497 27.3573 372.814 25.992L373.006 23.88C372.153 23.3253 369.934 23.048 366.35 23.048C365.113 23.048 363.577 23.112 361.742 23.24C359.95 23.368 359.033 23.496 358.99 23.624C358.393 25.7147 357.838 28.9787 357.326 33.416C360.995 33.416 362.851 33.352 362.894 33.224C362.894 32.1573 363.107 31.4107 363.534 30.984C364.899 30.6853 365.667 30.536 365.838 30.536C367.075 30.536 368.206 30.7493 369.23 31.176C369.998 32.072 370.382 33.6933 370.382 36.04C370.382 37.3627 370.254 38.6427 369.998 39.88C369.785 41.0747 369.507 41.8427 369.166 42.184C368.782 42.4827 367.566 42.632 365.518 42.632C364.366 42.632 363.662 42.504 363.406 42.248C363.321 42.1627 363.214 42.056 363.086 41.928C363.001 41.7573 362.937 41.6507 362.894 41.608C362.851 41.5227 362.809 41.4373 362.766 41.352C362.723 41.224 362.681 41.096 362.638 40.968C362.638 40.84 362.638 40.6693 362.638 40.456H356.878C356.878 44.2533 356.985 48.2853 357.198 52.552C357.582 52.424 358.201 52.36 359.054 52.36C360.163 52.36 360.782 52.4453 360.91 52.616C361.337 53.1707 361.55 54.7067 361.55 57.224C361.55 59.272 361.507 60.296 361.422 60.296C360.057 61.3627 357.411 61.896 353.486 61.896C349.134 61.896 346.126 61.4693 344.462 60.616C343.907 59.8907 343.63 57.6933 343.63 54.024ZM384.693 54.024C384.693 53.128 384.778 52.5947 384.949 52.424C386.143 52.2533 387.103 52.168 387.829 52.168C387.957 52.168 388.17 52.1893 388.469 52.232C388.81 52.232 389.066 52.232 389.237 52.232C388.938 48.392 388.789 45.0427 388.789 42.184C388.789 38.344 389.066 32.584 389.621 24.904C388.213 25.288 387.253 25.48 386.741 25.48C386.357 25.48 386.101 25.4373 385.973 25.352C385.29 24.84 384.949 23.6453 384.949 21.768C384.949 19.7627 385.226 18.3333 385.781 17.48C388.511 16.2 393.183 15.56 399.797 15.56C403.935 15.56 408.245 15.7947 412.725 16.264C417.205 16.7333 420.319 17.2667 422.069 17.864C422.495 19.9973 422.709 21.64 422.709 22.792C422.709 24.7973 422.218 26.44 421.237 27.72C420.383 27.9333 419.487 28.04 418.549 28.04C416.117 28.04 414.559 27.3573 413.877 25.992L414.069 23.88C413.215 23.3253 410.997 23.048 407.413 23.048C406.175 23.048 404.639 23.112 402.805 23.24C401.013 23.368 400.095 23.496 400.053 23.624C399.455 25.7147 398.901 28.9787 398.389 33.416C402.058 33.416 403.914 33.352 403.957 33.224C403.957 32.1573 404.17 31.4107 404.597 30.984C405.962 30.6853 406.73 30.536 406.901 30.536C408.138 30.536 409.269 30.7493 410.293 31.176C411.061 32.072 411.445 33.6933 411.445 36.04C411.445 37.3627 411.317 38.6427 411.061 39.88C410.847 41.0747 410.57 41.8427 410.229 42.184C409.845 42.4827 408.629 42.632 406.581 42.632C405.429 42.632 404.725 42.504 404.469 42.248C404.383 42.1627 404.277 42.056 404.149 41.928C404.063 41.7573 403.999 41.6507 403.957 41.608C403.914 41.5227 403.871 41.4373 403.829 41.352C403.786 41.224 403.743 41.096 403.701 40.968C403.701 40.84 403.701 40.6693 403.701 40.456H397.941C397.941 44.2533 398.047 48.2853 398.26 52.552C398.645 52.424 399.263 52.36 400.117 52.36C401.226 52.36 401.845 52.4453 401.973 52.616C402.399 53.1707 402.613 54.7067 402.613 57.224C402.613 59.272 402.57 60.296 402.485 60.296C401.119 61.3627 398.474 61.896 394.549 61.896C390.197 61.896 387.189 61.4693 385.525 60.616C384.97 59.8907 384.693 57.6933 384.693 54.024ZM425.819 54.408C425.819 53.7253 426.16 52.616 426.843 51.08C427.611 50.696 428.464 50.504 429.403 50.504C429.83 50.504 430.171 50.568 430.427 50.696C429.915 46.8987 429.659 43.0373 429.659 39.112C429.659 33.352 430.107 28.616 431.003 24.904C430.022 25.1173 429.232 25.224 428.635 25.224C427.867 25.224 427.27 25.0747 426.843 24.776C426.246 23.9227 425.947 22.6 425.947 20.808C425.947 19.6987 426.352 18.5893 427.163 17.48C428.528 16.84 431.024 16.3493 434.651 16.008C438.278 15.624 441.776 15.432 445.147 15.432C452.998 15.432 459.312 16.2427 464.091 17.864C464.518 19.9973 464.731 21.64 464.731 22.792C464.731 24.7973 464.24 26.44 463.259 27.72C462.192 27.976 461.275 28.104 460.507 28.104C459.142 28.104 457.392 27.4 455.259 25.992L455.451 23.88C454.64 23.3253 452.422 23.048 448.795 23.048C447.515 23.048 445.872 23.112 443.867 23.24C441.862 23.368 440.838 23.496 440.795 23.624C440.966 25.16 441.051 26.2907 441.051 27.016C441.051 30.8133 440.774 33.416 440.219 34.824C444.4 34.824 446.512 34.76 446.555 34.632C446.512 34.504 446.491 34.312 446.491 34.056C446.491 33.5867 446.683 33.0107 447.067 32.328C447.323 32.1147 448.027 32.008 449.179 32.008C450.971 32.008 452.208 32.1573 452.891 32.456C453.744 33.864 454.171 35.8907 454.171 38.536C454.171 40.9253 453.723 42.568 452.827 43.464C452.486 43.7627 451.483 43.912 449.819 43.912C448.155 43.912 447.195 43.7627 446.939 43.464C446.555 42.952 446.363 42.312 446.363 41.544L439.899 41.864C439.899 44.3813 439.664 47.88 439.195 52.36C439.878 52.9573 441.264 53.4267 443.355 53.768C445.446 54.0667 447.174 54.216 448.539 54.216C449.563 54.216 450.822 54.1093 452.315 53.896C453.851 53.64 454.896 53.3627 455.451 53.064L455.259 50.952C457.392 49.544 459.163 48.84 460.571 48.84C461.339 48.84 462.235 48.968 463.259 49.224C464.24 50.504 464.731 52.1467 464.731 54.152C464.731 55.304 464.518 56.9467 464.091 59.08C460.891 60.9147 455.088 61.832 446.683 61.832C442.587 61.832 438.683 61.5973 434.971 61.128C431.259 60.7013 428.656 60.1467 427.163 59.464C426.651 58.824 426.288 58.184 426.075 57.544C425.904 56.904 425.819 55.8587 425.819 54.408ZM469.559 21.704C469.559 18.7173 470.049 16.8827 471.031 16.2C472.183 15.8587 473.719 15.688 475.639 15.688C478.028 15.688 480.183 15.9867 482.103 16.584C482.316 17.3947 482.423 18.1413 482.423 18.824C482.423 19.1653 482.401 19.3573 482.359 19.4C483.084 19.1867 484.087 18.8667 485.367 18.44C486.689 18.0133 487.628 17.7147 488.183 17.544C488.737 17.3733 489.463 17.16 490.359 16.904C491.297 16.6053 492.001 16.4133 492.471 16.328C492.983 16.2 493.537 16.0933 494.135 16.008C494.775 15.9227 495.329 15.88 495.799 15.88C497.676 15.88 499.34 16.4133 500.791 17.48C502.284 18.504 503.436 19.8053 504.247 21.384C505.1 22.9627 505.719 24.5413 506.103 26.12C506.529 27.6987 506.743 29.1493 506.743 30.472C506.743 33.3307 505.847 35.8267 504.055 37.96C502.305 40.0933 500.193 41.8427 497.719 43.208C500.663 45.256 503.436 47.368 506.039 49.544C508.641 51.6773 510.007 53.064 510.135 53.704C510.476 53.5333 510.86 53.448 511.287 53.448C511.756 53.448 512.311 53.576 512.951 53.832C513.591 54.4293 513.911 55.4533 513.911 56.904C513.911 58.3547 513.633 59.3573 513.079 59.912C511.671 60.6373 508.705 61 504.183 61C502.007 61 499.873 60.6373 497.783 59.912C497.356 59.7413 496.993 59.3147 496.695 58.632C496.396 57.9067 496.247 57.1173 496.247 56.264C496.247 55.1973 496.481 54.4293 496.951 53.96C497.249 53.704 497.612 53.576 498.039 53.576C498.337 53.576 498.743 53.6613 499.255 53.832C498.785 52.7227 498.081 51.7413 497.143 50.888C496.204 49.992 495.223 49.3093 494.199 48.84C493.175 48.328 492.065 47.9013 490.871 47.56C489.719 47.176 488.695 46.92 487.799 46.792C486.945 46.664 486.177 46.5787 485.495 46.536L484.535 46.408C484.748 47.4747 484.855 48.584 484.855 49.736C484.855 50.8453 484.748 51.8907 484.535 52.872C484.833 52.744 485.239 52.68 485.751 52.68C487.116 52.68 488.161 53.064 488.887 53.832C489.057 54.216 489.143 55.2187 489.143 56.84C489.143 58.4187 489.057 59.4 488.887 59.784C488.631 60.6373 484.876 61.064 477.623 61.064C475.02 61.064 473.249 60.9787 472.311 60.808C471.415 60.5947 470.903 60.2533 470.775 59.784C470.604 59.4 470.519 58.4187 470.519 56.84C470.519 55.2187 470.604 54.216 470.775 53.832C470.988 53.4907 471.457 53.2133 472.183 53C472.951 52.7867 473.676 52.68 474.359 52.68C474.871 52.68 475.212 52.7013 475.383 52.744C475.383 52.0187 475.361 50.6747 475.319 48.712C475.276 46.7493 475.255 44.7227 475.255 42.632C475.255 35.08 475.468 30.1093 475.895 27.72C475.383 27.9333 474.721 28.04 473.911 28.04C472.673 28.04 471.82 27.8053 471.351 27.336C470.156 27.08 469.559 25.2027 469.559 21.704ZM483.703 33.224C483.703 35.016 484.151 36.4027 485.047 37.384C485.985 38.3653 487.159 38.856 488.567 38.856C490.615 38.856 492.599 37.9813 494.519 36.232C496.481 34.44 497.463 32.3067 497.463 29.832C497.463 28.1253 496.972 26.696 495.991 25.544C495.052 24.3493 493.772 23.752 492.151 23.752C490.06 23.752 488.119 24.6907 486.327 26.568C484.577 28.4453 483.703 30.664 483.703 33.224Z" fill="black"/>
</mask>
<g mask="url(#mask0)">
<path d="M39.5 34.9997C19 23.4997 13.5 34.4997 -12 34.9997C-7.16667 44.4998 4.7 64.5999 13.5 68.9999C24.5 74.4999 78.5 75.9999 116 75.4999C153.5 74.9999 191.5 67.4999 257 68.9999C322.5 70.4999 298 63.9999 336 63.4999L356.5 75.4999C376.833 76.4999 419.1 78.5 425.5 78.5C433.5 78.5 480 80 498 78.5C512.4 77.3 514 67.9999 513 63.4999C510.5 60.6666 505.1 54.3 503.5 51.5C501.9 48.7 495.5 45 488 43.5C480.5 42 475 46.9998 475 46.9998L465 55C465 55 459.727 59.5 454 55C448.273 50.5 445 51.0002 445.5 49.5C446 47.9998 440.5 43.5 436 39C431.5 34.5 428.5 32.4999 422 30C416.8 28.0001 415.333 28.5001 416 28.5L409.5 29C409.5 29 406 31.0814 404.5 32.5C401.663 35.1834 401.5 34.5 399 40.5C396.5 46.5 397 46.9998 392 50C387 53.0002 384.667 46.9998 383 46.9998L372.5 39L356.5 30L342 26C337.5 27.1666 330.4 26.4999 326 32.4999C321.6 38.4998 315.5 40.8331 313 39.9998C308.167 38.3331 291.734 28.1005 285 30C265.5 35.5001 249.5 29.9999 235.5 36C234 36.6429 223.5 39.9998 218.5 39.9998C213.5 39.9998 205.5 39 200.5 39C195.5 39 194 36.9995 185.5 39.9998C177 43 169 34.9997 169 34.9997L151.5 27.4998C143 29.9997 125 34.9997 121 34.9997C116 34.9997 95.7726 55.3784 85 46.9998C76 39.9998 60 46.4997 39.5 34.9997Z" fill="#05A498"/>
</g>
</svg>
